M48
; DRILL file {KiCad 8.0.4-8.0.4-0~ubuntu22.04.1} date 2024-09-01T23:10:32+0800
; FORMAT={-:-/ absolute / inch / decimal}
; #@! TF.CreationDate,2024-09-01T23:10:32+08:00
; #@! TF.GenerationSoftware,Kicad,Pcbnew,8.0.4-8.0.4-0~ubuntu22.04.1
; #@! TF.FileFunction,Plated,1,4,PTH
FMAT,2
INCH
; #@! TA.AperFunction,Plated,PTH,ViaDrill
T1C0.0118
; #@! TA.AperFunction,Plated,PTH,ViaDrill
T2C0.0177
; #@! TA.AperFunction,Plated,PTH,ComponentDrill
T3C0.0236
; #@! TA.AperFunction,Plated,PTH,ComponentDrill
T4C0.0394
%
G90
G05
T1
X4.2106Y-5.0496
X4.2136Y-3.372
X4.2136Y-3.3957
X4.3691Y-4.7815
X4.3691Y-4.815
X4.3691Y-4.8465
X4.4163Y-3.2323
X4.4183Y-3.439
X4.4478Y-4.3031
X4.4478Y-4.3327
X4.4813Y-4.7559
X4.4813Y-4.874
X4.4813Y-5.1102
X4.4851Y-5.1683
X4.4872Y-4.6614
X4.5108Y-5.0472
X4.5226Y-3.5768
X4.5778Y-5.2815
X4.5797Y-3.7756
X4.5797Y-3.8307
X4.5797Y-3.8937
X4.5837Y-3.5787
X4.6171Y-5.2835
X4.6289Y-4.124
X4.6407Y-3.5787
X4.6939Y-3.7028
X4.7096Y-3.9715
X4.7215Y-4.2185
X4.7215Y-4.4134
X4.7333Y-3.6831
X4.8081Y-4.0276
X4.8278Y-3.5787
X4.8297Y-3.7028
X4.8356Y-4.0886
X4.8415Y-3.8819
X4.8455Y-3.7638
X4.8809Y-4.4528
X4.8809Y-5.1673
X4.9439Y-3.8661
X4.9596Y-5.1732
X4.9695Y-4.7165
X4.9715Y-5.0728
X4.997Y-3.9252
X5.003Y-3.813
X5.1093Y-4.9213
X5.1427Y-5.1004
X5.19Y-4.3937
X5.253Y-3.0492
X5.2569Y-4.1102
X5.2667Y-4.7539
X5.2667Y-4.811
X5.2923Y-4.1102
X5.3081Y-5.2126
X5.375Y-5.311
X5.3888Y-5.1457
X5.4085Y-4.3957
X5.4104Y-5.0276
X5.4144Y-4.7756
X5.4183Y-4.8445
X5.4222Y-4.8957
X5.4262Y-3.7028
X5.4793Y-3.0433
X5.501Y-3.7677
X5.5069Y-3.8937
X5.6388Y-3.4626
X5.6447Y-4.8563
X5.6486Y-3.6004
X5.6644Y-4.0965
X5.6644Y-4.2028
X5.7589Y-3.3543
X5.7628Y-4.9764
X5.7707Y-3.0453
X5.7864Y-4.4587
X5.7884Y-3.3543
X5.814Y-4.4606
X5.8159Y-4.5591
X5.8179Y-3.3543
X5.8179Y-4.5256
X5.8455Y-4.4606
X5.9262Y-5.3819
X5.9281Y-5.2657
X5.9636Y-4.9567
X5.9656Y-4.7362
X5.9951Y-3.0472
T2
X4.0915Y-4.9823
X4.0983Y-5.0496
X4.1388Y-3.3209
X4.1407Y-3.2854
X4.2431Y-4.8504
X4.3041Y-4.8524
X4.3691Y-3.6594
X4.4144Y-3.9154
X4.4459Y-4.2244
X4.4459Y-4.2618
X4.4557Y-3.2992
X4.4715Y-3.7854
X4.4813Y-3.2756
X4.4813Y-3.3228
X4.5423Y-4.813
X4.5443Y-4.6969
X4.5463Y-5.1417
X4.6781Y-3.8031
X4.6781Y-3.8465
X4.7215Y-3.8051
X4.7215Y-3.8465
X4.7431Y-3.6417
X4.7608Y-3.8051
X4.7608Y-3.8484
X4.7726Y-4.2657
X4.8002Y-4.2461
X4.8002Y-4.2854
X4.9085Y-4.7579
X4.9104Y-5.1063
X5.3081Y-4.4331
X5.3337Y-4.4606
X5.3356Y-4.7362
X5.3593Y-4.4331
X5.3789Y-3.7657
X5.3907Y-4.1476
X5.3907Y-4.1811
X5.4695Y-3.4035
X5.4813Y-4.5098
X5.6329Y-5.4252
X5.7116Y-5.4882
X5.7116Y-5.5374
X5.7116Y-5.5925
X5.747Y-5.5709
X5.749Y-5.5098
X5.8652Y-3.7402
T4
X4.1299Y-4.1472
X4.1299Y-4.2472
X4.1299Y-4.3472
X4.1299Y-4.4472
X4.1299Y-4.5472
X4.1309Y-3.7303
X4.1309Y-3.8303
X4.1309Y-3.9303
X4.2234Y-5.6778
X4.2234Y-5.7778
X4.2239Y-3.0647
X4.3234Y-5.6778
X4.3234Y-5.7778
X4.3239Y-3.0647
X4.4234Y-5.6778
X4.4234Y-5.7778
X4.4239Y-3.0647
X4.5234Y-5.6778
X4.5234Y-5.7778
X4.5239Y-3.0647
X4.6234Y-5.6778
X4.6234Y-5.7778
X4.6239Y-3.0647
X4.7234Y-5.6778
X4.7234Y-5.7778
X4.7239Y-3.0647
X4.8234Y-5.6778
X4.8234Y-5.7778
X4.8239Y-3.0647
X4.9234Y-5.6778
X4.9234Y-5.7778
X4.9239Y-3.0647
X5.0234Y-5.6778
X5.0234Y-5.7778
X5.0239Y-3.0647
X5.1234Y-5.6778
X5.1234Y-5.7778
X5.1239Y-3.0647
X5.1762Y-3.6102
X5.1762Y-3.7102
X5.1762Y-3.8102
X5.2234Y-5.6778
X5.2234Y-5.7778
X5.2762Y-3.6102
X5.2762Y-3.7102
X5.2762Y-3.8102
X5.3234Y-5.6778
X5.3234Y-5.7778
X5.4234Y-5.6778
X5.4234Y-5.7778
X5.5234Y-5.6778
X5.5234Y-5.7778
X5.6234Y-5.6778
X5.6234Y-5.7778
X5.7904Y-4.7415
X5.7904Y-4.8415
T3
G00X5.8226Y-5.1624
M15
G01X5.8659Y-5.1624
M16
G05
G00X5.8226Y-5.5026
M15
G01X5.8659Y-5.5026
M16
G05
G00X5.9939Y-5.1624
M15
G01X6.0254Y-5.1624
M16
G05
G00X5.9939Y-5.5026
M15
G01X6.0254Y-5.5026
M16
G05
M30
