%TF.GenerationSoftware,KiCad,Pcbnew,8.0.4-8.0.4-0~ubuntu22.04.1*%
%TF.CreationDate,2024-09-01T23:10:33+08:00*%
%TF.ProjectId,R820T_With_LCMXO2,52383230-545f-4576-9974-685f4c434d58,rev?*%
%TF.SameCoordinates,Original*%
%TF.FileFunction,Copper,L3,Inr*%
%TF.FilePolarity,Positive*%
%FSLAX46Y46*%
G04 Gerber Fmt 4.6, Leading zero omitted, Abs format (unit mm)*
G04 Created by KiCad (PCBNEW 8.0.4-8.0.4-0~ubuntu22.04.1) date 2024-09-01 23:10:33*
%MOMM*%
%LPD*%
G01*
G04 APERTURE LIST*
%TA.AperFunction,ComponentPad*%
%ADD10O,2.100000X1.000000*%
%TD*%
%TA.AperFunction,ComponentPad*%
%ADD11O,1.800000X1.000000*%
%TD*%
%TA.AperFunction,ComponentPad*%
%ADD12R,1.700000X1.700000*%
%TD*%
%TA.AperFunction,ComponentPad*%
%ADD13O,1.700000X1.700000*%
%TD*%
%TA.AperFunction,ViaPad*%
%ADD14C,0.450000*%
%TD*%
%TA.AperFunction,ViaPad*%
%ADD15C,0.600000*%
%TD*%
G04 APERTURE END LIST*
D10*
%TO.N,AGND*%
%TO.C,J1*%
X148444999Y-139765000D03*
D11*
X152644999Y-139765000D03*
D10*
X148444999Y-131125000D03*
D11*
X152644999Y-131125000D03*
%TD*%
D12*
%TO.N,MIXER_LO*%
%TO.C,J11*%
X134015000Y-96780000D03*
D13*
%TO.N,FPGA_LO*%
X131475000Y-96780000D03*
%TO.N,MIXER_LO*%
X134015000Y-94240000D03*
%TO.N,PLL_LO*%
X131475000Y-94240000D03*
%TO.N,MIXER_LO*%
X134015000Y-91700000D03*
%TO.N,EXT_LO*%
X131475000Y-91700000D03*
%TD*%
D12*
%TO.N,4350_SPI_CLK*%
%TO.C,J9*%
X104925000Y-94750000D03*
D13*
%TO.N,4350_SPI_DATA*%
X104925000Y-97290000D03*
%TO.N,4350_SPI_LE*%
X104925000Y-99830000D03*
%TD*%
D12*
%TO.N,AGND*%
%TO.C,J3*%
X104900000Y-115500000D03*
D13*
%TO.N,TDI*%
X104900000Y-112960000D03*
%TO.N,TDO*%
X104900000Y-110420000D03*
%TO.N,TCK*%
X104900000Y-107880000D03*
%TO.N,TMS*%
X104900000Y-105340000D03*
%TD*%
D12*
%TO.N,Net-(J2-In)*%
%TO.C,J8*%
X147075000Y-122975000D03*
D13*
%TO.N,ADC_IN*%
X147075000Y-120435000D03*
%TD*%
D12*
%TO.N,unconnected-(J5-Pin_1-Pad1)*%
%TO.C,J5*%
X107287113Y-77844521D03*
D13*
%TO.N,unconnected-(J5-Pin_2-Pad2)*%
X109827113Y-77844521D03*
%TO.N,unconnected-(J5-Pin_3-Pad3)*%
X112367113Y-77844521D03*
%TO.N,unconnected-(J5-Pin_4-Pad4)*%
X114907113Y-77844521D03*
%TO.N,unconnected-(J5-Pin_5-Pad5)*%
X117447113Y-77844521D03*
%TO.N,unconnected-(J5-Pin_6-Pad6)*%
X119987113Y-77844521D03*
%TO.N,unconnected-(J5-Pin_7-Pad7)*%
X122527113Y-77844521D03*
%TO.N,unconnected-(J5-Pin_8-Pad8)*%
X125067113Y-77844521D03*
%TO.N,unconnected-(J5-Pin_9-Pad9)*%
X127607113Y-77844521D03*
%TO.N,unconnected-(J5-Pin_10-Pad10)*%
X130147113Y-77844521D03*
%TD*%
D12*
%TO.N,unconnected-(J7-Pin_1-Pad1)*%
%TO.C,J7*%
X107273600Y-146756254D03*
D13*
%TO.N,AGND*%
X107273600Y-144216254D03*
%TO.N,UART0_TXD*%
X109813600Y-146756254D03*
%TO.N,GPIO73*%
X109813600Y-144216254D03*
%TO.N,UART0_RXD*%
X112353600Y-146756254D03*
%TO.N,GPIO72*%
X112353600Y-144216254D03*
%TO.N,unconnected-(J7-Pin_7-Pad7)*%
X114893600Y-146756254D03*
%TO.N,GPIO75*%
X114893600Y-144216254D03*
%TO.N,unconnected-(J7-Pin_9-Pad9)*%
X117433600Y-146756254D03*
%TO.N,GPIO74*%
X117433600Y-144216254D03*
%TO.N,unconnected-(J7-Pin_11-Pad11)*%
X119973600Y-146756254D03*
%TO.N,unconnected-(J7-Pin_12-Pad12)*%
X119973600Y-144216254D03*
%TO.N,unconnected-(J7-Pin_13-Pad13)*%
X122513600Y-146756254D03*
%TO.N,unconnected-(J7-Pin_14-Pad14)*%
X122513600Y-144216254D03*
%TO.N,GPIO69*%
X125053600Y-146756254D03*
%TO.N,GPIO85*%
X125053600Y-144216254D03*
%TO.N,GPIO70*%
X127593600Y-146756254D03*
%TO.N,GPIO84*%
X127593600Y-144216254D03*
%TO.N,AGND*%
X130133600Y-146756254D03*
X130133600Y-144216254D03*
%TO.N,GPIO60*%
X132673600Y-146756254D03*
%TO.N,GPIO63*%
X132673600Y-144216254D03*
%TO.N,GPIO64*%
X135213600Y-146756254D03*
%TO.N,GPIO61*%
X135213600Y-144216254D03*
%TO.N,GPIO67*%
X137753600Y-146756254D03*
%TO.N,GPIO62*%
X137753600Y-144216254D03*
%TO.N,GPIO65*%
X140293600Y-146756254D03*
%TO.N,GPIO66*%
X140293600Y-144216254D03*
%TO.N,VCC*%
X142833600Y-146756254D03*
%TO.N,AGND*%
X142833600Y-144216254D03*
%TD*%
D14*
%TO.N,DONE*%
X106950000Y-128260000D03*
X114575000Y-128200000D03*
%TO.N,+3V3_D*%
X113825000Y-129800000D03*
X125975000Y-131400000D03*
D15*
X104097890Y-128258842D03*
D14*
X113825000Y-123800000D03*
X123975000Y-131250000D03*
D15*
X121925000Y-107850000D03*
D14*
X113920945Y-131274897D03*
X113825000Y-120800000D03*
D15*
X107775000Y-123200000D03*
D14*
X126275000Y-128850000D03*
D15*
X121225000Y-108350000D03*
X121925000Y-108850000D03*
D14*
X113975000Y-118400000D03*
X126225000Y-119800000D03*
D15*
%TO.N,VCC*%
X138925000Y-86450000D03*
X145975000Y-141500000D03*
X146025000Y-139950000D03*
X105125000Y-84350000D03*
X136925000Y-105350000D03*
X136925000Y-106200000D03*
X145075000Y-139400000D03*
X136625000Y-95650000D03*
X112925000Y-107300000D03*
X139225000Y-114550000D03*
X145075000Y-142050000D03*
X145075000Y-140650000D03*
X105175000Y-83450000D03*
X112925000Y-108250000D03*
D14*
%TO.N,+3V3_A*%
X137525000Y-121300000D03*
D15*
X136125000Y-112600000D03*
X135475000Y-113300000D03*
X134825000Y-112600000D03*
D14*
X137725000Y-124350000D03*
X134825000Y-132400000D03*
D15*
X135525000Y-120300000D03*
D14*
%TO.N,AGND*%
X119925000Y-107150000D03*
X122825000Y-103850000D03*
D15*
X118825000Y-97700000D03*
D14*
X146575000Y-77350000D03*
D15*
X115375000Y-122250000D03*
D14*
X147775000Y-114950000D03*
X117875000Y-90900000D03*
X151475000Y-125900000D03*
D15*
X115475000Y-130600000D03*
D14*
X133525000Y-104400000D03*
X148475000Y-113300000D03*
D15*
X120925000Y-97750000D03*
D14*
X133775000Y-120750000D03*
X130625000Y-129550000D03*
X112975000Y-110050000D03*
D15*
X109325000Y-123250000D03*
D14*
X117575000Y-104750000D03*
X112975000Y-109300000D03*
X146275000Y-85200000D03*
X143375000Y-123350000D03*
X122625000Y-90900000D03*
X114875000Y-90850000D03*
X152275000Y-77400000D03*
X112175000Y-82100000D03*
X143225000Y-87950000D03*
D15*
X148975000Y-95000000D03*
D14*
X147725000Y-115800000D03*
X143875000Y-106750000D03*
X112225000Y-87350000D03*
X146375000Y-126400000D03*
D15*
X118825000Y-96600000D03*
D14*
X151525000Y-120300000D03*
X123975000Y-113100000D03*
D15*
X143075000Y-137800000D03*
D14*
X146975000Y-113250000D03*
X147675000Y-113300000D03*
X137425000Y-127700000D03*
X136525000Y-134900000D03*
X126925000Y-99700000D03*
X107025000Y-86250000D03*
D15*
X124675000Y-120850000D03*
D14*
X143875000Y-104050000D03*
X147775000Y-85200000D03*
D15*
X119925000Y-96650000D03*
X103925000Y-126550000D03*
X115425000Y-119300000D03*
D14*
X143475000Y-91450000D03*
D15*
X112125000Y-99450000D03*
D14*
X119925000Y-112100000D03*
X116425000Y-90900000D03*
X131825000Y-111600000D03*
D15*
X124725000Y-129700000D03*
D14*
X137825000Y-94050000D03*
D15*
X110975000Y-92950000D03*
D14*
X139875000Y-98900000D03*
X137625000Y-123050000D03*
X134425000Y-104400000D03*
X137375000Y-111650000D03*
X107025000Y-85650000D03*
X147025000Y-85200000D03*
D15*
X119925000Y-97700000D03*
X120925000Y-96650000D03*
D14*
X133425000Y-77450000D03*
X139175000Y-77300000D03*
%TO.N,Net-(J1-CC1)*%
X150525000Y-136700000D03*
%TO.N,Net-(J1-CC2)*%
X150575000Y-133750000D03*
%TO.N,ADC_CLK*%
X136875000Y-130700000D03*
X129775000Y-125000000D03*
%TO.N,GPIO84*%
X117275000Y-134200000D03*
%TO.N,GPIO85*%
X116275000Y-134150000D03*
%TO.N,Net-(U3-DVDD)*%
X133775000Y-122200000D03*
%TO.N,Net-(U5-VCC)*%
X139725000Y-95700000D03*
%TO.N,+3V3_PLL*%
X116325000Y-98900000D03*
D15*
X113175000Y-83800000D03*
X120475000Y-92500000D03*
X113825000Y-83200000D03*
D14*
X116325000Y-97300000D03*
D15*
X113825000Y-84400000D03*
D14*
X119625000Y-100875000D03*
X116325000Y-95900000D03*
D15*
X113575000Y-96150000D03*
D14*
X122975000Y-98600000D03*
%TO.N,Net-(U7-RSET)*%
X119225000Y-94050000D03*
%TO.N,4350_SPI_CLK*%
X110975000Y-121450000D03*
%TO.N,4350_SPI_DATA*%
X110975000Y-122300000D03*
%TO.N,+3V3_PLL_VCO*%
X123075000Y-95600000D03*
X122675000Y-94050000D03*
%TO.N,4350_SPI_LE*%
X110975000Y-123100000D03*
%TO.N,Net-(U7-VTUNE)*%
X122125000Y-102300000D03*
X120225000Y-93550000D03*
%TO.N,Net-(C61-Pad1)*%
X125575000Y-98200000D03*
%TO.N,Net-(C62-Pad1)*%
X127075000Y-96850000D03*
%TD*%
%TA.AperFunction,Conductor*%
%TO.N,+3V3_PLL*%
G36*
X112080341Y-82608264D02*
G01*
X123974434Y-82649998D01*
X123974507Y-82650019D01*
X123974507Y-82649998D01*
X123974953Y-82649999D01*
X123974993Y-82650000D01*
X123975000Y-82650000D01*
X124308589Y-82650000D01*
X124333170Y-82652421D01*
X124359458Y-82657649D01*
X124393621Y-82664445D01*
X124439037Y-82683257D01*
X124479768Y-82710472D01*
X124514527Y-82745231D01*
X124541741Y-82785959D01*
X124560554Y-82831378D01*
X124572579Y-82891829D01*
X124575000Y-82916411D01*
X124575000Y-104279527D01*
X124572531Y-104304347D01*
X124560274Y-104365350D01*
X124541102Y-104411136D01*
X124513404Y-104452075D01*
X124478038Y-104486901D01*
X124436672Y-104513970D01*
X124390595Y-104532437D01*
X124329413Y-104543753D01*
X124304559Y-104545839D01*
X123085501Y-104527084D01*
X123017696Y-104506037D01*
X122972034Y-104451672D01*
X122963012Y-104381251D01*
X122993495Y-104317131D01*
X123019319Y-104295100D01*
X123026234Y-104290655D01*
X123026240Y-104290654D01*
X123142235Y-104216109D01*
X123232529Y-104111903D01*
X123289808Y-103986480D01*
X123309431Y-103850000D01*
X123309431Y-103849996D01*
X123289809Y-103713526D01*
X123289808Y-103713525D01*
X123289808Y-103713520D01*
X123232529Y-103588097D01*
X123142235Y-103483891D01*
X123142234Y-103483890D01*
X123142233Y-103483889D01*
X123026240Y-103409346D01*
X122893947Y-103370501D01*
X122893944Y-103370500D01*
X122893942Y-103370500D01*
X122756058Y-103370500D01*
X122756056Y-103370500D01*
X122756052Y-103370501D01*
X122623759Y-103409346D01*
X122507766Y-103483889D01*
X122417470Y-103588098D01*
X122360192Y-103713519D01*
X122360190Y-103713526D01*
X122340569Y-103849996D01*
X122340569Y-103850003D01*
X122360190Y-103986473D01*
X122360192Y-103986480D01*
X122417471Y-104111903D01*
X122439728Y-104137589D01*
X122507766Y-104216110D01*
X122617806Y-104286828D01*
X122664299Y-104340483D01*
X122674404Y-104410757D01*
X122644911Y-104475338D01*
X122585185Y-104513722D01*
X122547748Y-104518811D01*
X118004191Y-104448910D01*
X117936386Y-104427863D01*
X117910905Y-104405437D01*
X117896292Y-104388573D01*
X117892234Y-104383889D01*
X117776240Y-104309346D01*
X117643947Y-104270501D01*
X117643944Y-104270500D01*
X117643942Y-104270500D01*
X117506058Y-104270500D01*
X117506056Y-104270500D01*
X117506052Y-104270501D01*
X117373759Y-104309346D01*
X117257766Y-104383889D01*
X117250435Y-104392350D01*
X117190707Y-104430731D01*
X117153275Y-104435819D01*
X116795977Y-104430322D01*
X115087371Y-104404035D01*
X115063078Y-104401289D01*
X115021099Y-104392350D01*
X115003363Y-104388573D01*
X114958600Y-104369423D01*
X114918514Y-104342077D01*
X114884355Y-104307389D01*
X114857625Y-104266880D01*
X114839169Y-104221832D01*
X114827374Y-104161932D01*
X114825000Y-104137589D01*
X114825000Y-104053999D01*
X114825000Y-103800000D01*
X114571003Y-103800000D01*
X110040850Y-103800000D01*
X110016301Y-103797585D01*
X109955931Y-103785593D01*
X109910564Y-103766830D01*
X109869864Y-103739682D01*
X109835114Y-103705006D01*
X109807882Y-103664369D01*
X109789020Y-103619037D01*
X109776900Y-103558692D01*
X109774433Y-103534155D01*
X109771802Y-102299996D01*
X121640569Y-102299996D01*
X121640569Y-102300003D01*
X121660190Y-102436473D01*
X121660192Y-102436480D01*
X121717471Y-102561903D01*
X121807765Y-102666109D01*
X121807766Y-102666110D01*
X121865762Y-102703381D01*
X121923760Y-102740654D01*
X122056058Y-102779500D01*
X122056061Y-102779500D01*
X122193939Y-102779500D01*
X122193942Y-102779500D01*
X122326240Y-102740654D01*
X122442235Y-102666109D01*
X122532529Y-102561903D01*
X122589808Y-102436480D01*
X122609431Y-102300000D01*
X122609431Y-102299996D01*
X122589809Y-102163526D01*
X122589808Y-102163525D01*
X122589808Y-102163520D01*
X122532529Y-102038097D01*
X122442235Y-101933891D01*
X122442234Y-101933890D01*
X122442233Y-101933889D01*
X122326240Y-101859346D01*
X122193947Y-101820501D01*
X122193944Y-101820500D01*
X122193942Y-101820500D01*
X122056058Y-101820500D01*
X122056056Y-101820500D01*
X122056052Y-101820501D01*
X121923759Y-101859346D01*
X121807766Y-101933889D01*
X121717470Y-102038098D01*
X121660192Y-102163519D01*
X121660190Y-102163526D01*
X121640569Y-102299996D01*
X109771802Y-102299996D01*
X109765726Y-99449999D01*
X111565715Y-99449999D01*
X111565715Y-99450000D01*
X111584771Y-99594752D01*
X111640644Y-99729641D01*
X111640649Y-99729649D01*
X111729525Y-99845474D01*
X111845350Y-99934350D01*
X111845357Y-99934355D01*
X111980246Y-99990228D01*
X112125000Y-100009285D01*
X112269754Y-99990228D01*
X112404643Y-99934355D01*
X112520474Y-99845474D01*
X112609355Y-99729643D01*
X112665228Y-99594754D01*
X112684285Y-99450000D01*
X112665228Y-99305246D01*
X112609355Y-99170358D01*
X112520474Y-99054526D01*
X112520472Y-99054524D01*
X112520471Y-99054523D01*
X112404649Y-98965649D01*
X112404641Y-98965644D01*
X112269752Y-98909771D01*
X112125000Y-98890715D01*
X111980247Y-98909771D01*
X111912802Y-98937708D01*
X111845358Y-98965645D01*
X111845357Y-98965646D01*
X111845356Y-98965646D01*
X111729526Y-99054526D01*
X111640646Y-99170356D01*
X111640645Y-99170358D01*
X111612708Y-99237802D01*
X111584771Y-99305247D01*
X111565715Y-99449999D01*
X109765726Y-99449999D01*
X109759650Y-96599999D01*
X118265715Y-96599999D01*
X118265715Y-96600000D01*
X118284771Y-96744752D01*
X118340644Y-96879641D01*
X118340649Y-96879649D01*
X118429525Y-96995474D01*
X118500634Y-97050038D01*
X118542501Y-97107376D01*
X118546723Y-97178247D01*
X118511959Y-97240150D01*
X118500634Y-97249962D01*
X118429528Y-97304523D01*
X118340646Y-97420356D01*
X118340645Y-97420358D01*
X118340080Y-97421723D01*
X118284771Y-97555247D01*
X118265715Y-97699999D01*
X118265715Y-97700000D01*
X118284771Y-97844752D01*
X118340644Y-97979641D01*
X118340649Y-97979649D01*
X118429525Y-98095474D01*
X118545350Y-98184350D01*
X118545357Y-98184355D01*
X118680246Y-98240228D01*
X118825000Y-98259285D01*
X118969754Y-98240228D01*
X119104643Y-98184355D01*
X119220474Y-98095474D01*
X119270984Y-98029649D01*
X119275038Y-98024366D01*
X119332376Y-97982499D01*
X119403247Y-97978277D01*
X119465150Y-98013041D01*
X119474962Y-98024366D01*
X119529525Y-98095474D01*
X119645350Y-98184350D01*
X119645357Y-98184355D01*
X119780246Y-98240228D01*
X119925000Y-98259285D01*
X120069754Y-98240228D01*
X120204643Y-98184355D01*
X120297792Y-98112879D01*
X120327026Y-98090447D01*
X120329048Y-98093082D01*
X120377695Y-98066481D01*
X120448514Y-98071503D01*
X120504514Y-98112879D01*
X120529526Y-98145475D01*
X120645350Y-98234350D01*
X120645357Y-98234355D01*
X120780246Y-98290228D01*
X120925000Y-98309285D01*
X121069754Y-98290228D01*
X121204643Y-98234355D01*
X121320474Y-98145474D01*
X121409355Y-98029643D01*
X121465228Y-97894754D01*
X121484285Y-97750000D01*
X121465228Y-97605246D01*
X121409355Y-97470358D01*
X121320474Y-97354526D01*
X121320472Y-97354524D01*
X121320471Y-97354523D01*
X121249366Y-97299962D01*
X121207499Y-97242624D01*
X121203277Y-97171753D01*
X121238041Y-97109850D01*
X121249366Y-97100038D01*
X121320474Y-97045474D01*
X121394220Y-96949367D01*
X121409355Y-96929643D01*
X121465228Y-96794754D01*
X121484285Y-96650000D01*
X121465228Y-96505246D01*
X121409355Y-96370358D01*
X121320474Y-96254526D01*
X121320472Y-96254524D01*
X121320471Y-96254523D01*
X121204649Y-96165649D01*
X121204641Y-96165644D01*
X121069752Y-96109771D01*
X120925000Y-96090715D01*
X120780247Y-96109771D01*
X120712802Y-96137708D01*
X120645358Y-96165645D01*
X120645357Y-96165646D01*
X120645356Y-96165646D01*
X120529525Y-96254526D01*
X120524962Y-96260474D01*
X120467623Y-96302341D01*
X120396752Y-96306562D01*
X120334850Y-96271797D01*
X120325038Y-96260474D01*
X120320472Y-96254524D01*
X120204649Y-96165649D01*
X120204641Y-96165644D01*
X120069752Y-96109771D01*
X119925000Y-96090715D01*
X119780247Y-96109771D01*
X119712802Y-96137708D01*
X119645358Y-96165645D01*
X119645357Y-96165646D01*
X119645356Y-96165646D01*
X119529525Y-96254526D01*
X119494145Y-96300635D01*
X119436807Y-96342502D01*
X119365936Y-96346723D01*
X119304033Y-96311958D01*
X119294221Y-96300634D01*
X119220474Y-96204525D01*
X119104649Y-96115649D01*
X119104641Y-96115644D01*
X118969752Y-96059771D01*
X118825000Y-96040715D01*
X118680247Y-96059771D01*
X118612802Y-96087708D01*
X118545358Y-96115645D01*
X118545357Y-96115646D01*
X118545356Y-96115646D01*
X118429526Y-96204526D01*
X118340646Y-96320356D01*
X118340645Y-96320358D01*
X118319935Y-96370356D01*
X118284771Y-96455247D01*
X118265715Y-96599999D01*
X109759650Y-96599999D01*
X109757518Y-95599996D01*
X122590569Y-95599996D01*
X122590569Y-95600003D01*
X122610190Y-95736473D01*
X122610192Y-95736480D01*
X122667471Y-95861903D01*
X122757765Y-95966109D01*
X122757766Y-95966110D01*
X122815762Y-96003381D01*
X122873760Y-96040654D01*
X123006058Y-96079500D01*
X123006061Y-96079500D01*
X123143939Y-96079500D01*
X123143942Y-96079500D01*
X123276240Y-96040654D01*
X123392235Y-95966109D01*
X123482529Y-95861903D01*
X123539808Y-95736480D01*
X123559431Y-95600000D01*
X123559431Y-95599996D01*
X123539809Y-95463526D01*
X123539808Y-95463525D01*
X123539808Y-95463520D01*
X123482529Y-95338097D01*
X123392235Y-95233891D01*
X123392234Y-95233890D01*
X123392233Y-95233889D01*
X123276240Y-95159346D01*
X123143947Y-95120501D01*
X123143944Y-95120500D01*
X123143942Y-95120500D01*
X123006058Y-95120500D01*
X123006056Y-95120500D01*
X123006052Y-95120501D01*
X122873759Y-95159346D01*
X122757766Y-95233889D01*
X122667470Y-95338098D01*
X122610192Y-95463519D01*
X122610190Y-95463526D01*
X122590569Y-95599996D01*
X109757518Y-95599996D01*
X109754214Y-94049996D01*
X118740569Y-94049996D01*
X118740569Y-94050003D01*
X118760190Y-94186473D01*
X118760192Y-94186480D01*
X118817471Y-94311903D01*
X118907765Y-94416109D01*
X118907766Y-94416110D01*
X118965762Y-94453381D01*
X119023760Y-94490654D01*
X119156058Y-94529500D01*
X119156061Y-94529500D01*
X119293939Y-94529500D01*
X119293942Y-94529500D01*
X119426240Y-94490654D01*
X119542235Y-94416109D01*
X119632529Y-94311903D01*
X119689808Y-94186480D01*
X119709431Y-94050000D01*
X119709431Y-94049996D01*
X122190569Y-94049996D01*
X122190569Y-94050003D01*
X122210190Y-94186473D01*
X122210192Y-94186480D01*
X122267471Y-94311903D01*
X122357765Y-94416109D01*
X122357766Y-94416110D01*
X122415762Y-94453381D01*
X122473760Y-94490654D01*
X122606058Y-94529500D01*
X122606061Y-94529500D01*
X122743939Y-94529500D01*
X122743942Y-94529500D01*
X122876240Y-94490654D01*
X122992235Y-94416109D01*
X123082529Y-94311903D01*
X123139808Y-94186480D01*
X123159431Y-94050000D01*
X123159431Y-94049996D01*
X123139809Y-93913526D01*
X123139808Y-93913525D01*
X123139808Y-93913520D01*
X123082529Y-93788097D01*
X122992235Y-93683891D01*
X122992234Y-93683890D01*
X122992233Y-93683889D01*
X122876240Y-93609346D01*
X122743947Y-93570501D01*
X122743944Y-93570500D01*
X122743942Y-93570500D01*
X122606058Y-93570500D01*
X122606056Y-93570500D01*
X122606052Y-93570501D01*
X122473759Y-93609346D01*
X122357766Y-93683889D01*
X122267470Y-93788098D01*
X122210192Y-93913519D01*
X122210190Y-93913526D01*
X122190569Y-94049996D01*
X119709431Y-94049996D01*
X119707292Y-94035120D01*
X119717395Y-93964846D01*
X119763888Y-93911190D01*
X119832009Y-93891188D01*
X119900129Y-93911190D01*
X119900243Y-93911275D01*
X119919508Y-93923656D01*
X120023760Y-93990654D01*
X120156058Y-94029500D01*
X120156061Y-94029500D01*
X120293939Y-94029500D01*
X120293942Y-94029500D01*
X120426240Y-93990654D01*
X120542235Y-93916109D01*
X120632529Y-93811903D01*
X120689808Y-93686480D01*
X120697187Y-93635157D01*
X120709431Y-93550003D01*
X120709431Y-93549996D01*
X120689809Y-93413526D01*
X120689808Y-93413525D01*
X120689808Y-93413520D01*
X120632529Y-93288097D01*
X120542235Y-93183891D01*
X120542234Y-93183890D01*
X120542233Y-93183889D01*
X120426240Y-93109346D01*
X120293947Y-93070501D01*
X120293944Y-93070500D01*
X120293942Y-93070500D01*
X120156058Y-93070500D01*
X120156056Y-93070500D01*
X120156052Y-93070501D01*
X120023759Y-93109346D01*
X119907766Y-93183889D01*
X119817470Y-93288098D01*
X119760192Y-93413519D01*
X119760190Y-93413526D01*
X119740569Y-93549996D01*
X119740569Y-93550002D01*
X119742708Y-93564883D01*
X119732602Y-93635157D01*
X119686107Y-93688811D01*
X119617986Y-93708811D01*
X119549866Y-93688807D01*
X119549748Y-93688719D01*
X119426240Y-93609346D01*
X119293947Y-93570501D01*
X119293944Y-93570500D01*
X119293942Y-93570500D01*
X119156058Y-93570500D01*
X119156056Y-93570500D01*
X119156052Y-93570501D01*
X119023759Y-93609346D01*
X118907766Y-93683889D01*
X118817470Y-93788098D01*
X118760192Y-93913519D01*
X118760190Y-93913526D01*
X118740569Y-94049996D01*
X109754214Y-94049996D01*
X109751869Y-92949999D01*
X110415715Y-92949999D01*
X110415715Y-92950000D01*
X110434771Y-93094752D01*
X110490644Y-93229641D01*
X110490649Y-93229649D01*
X110579525Y-93345474D01*
X110668212Y-93413526D01*
X110695357Y-93434355D01*
X110830246Y-93490228D01*
X110975000Y-93509285D01*
X111119754Y-93490228D01*
X111254643Y-93434355D01*
X111370474Y-93345474D01*
X111459355Y-93229643D01*
X111515228Y-93094754D01*
X111534285Y-92950000D01*
X111515228Y-92805246D01*
X111459355Y-92670358D01*
X111370474Y-92554526D01*
X111370472Y-92554524D01*
X111370471Y-92554523D01*
X111254649Y-92465649D01*
X111254641Y-92465644D01*
X111119752Y-92409771D01*
X110975000Y-92390715D01*
X110830247Y-92409771D01*
X110762802Y-92437708D01*
X110695358Y-92465645D01*
X110695357Y-92465646D01*
X110695356Y-92465646D01*
X110579526Y-92554526D01*
X110490646Y-92670356D01*
X110490645Y-92670358D01*
X110462708Y-92737802D01*
X110434771Y-92805247D01*
X110415715Y-92949999D01*
X109751869Y-92949999D01*
X109747392Y-90849996D01*
X114390569Y-90849996D01*
X114390569Y-90850003D01*
X114410190Y-90986473D01*
X114410192Y-90986480D01*
X114467471Y-91111903D01*
X114510794Y-91161901D01*
X114557766Y-91216110D01*
X114615762Y-91253381D01*
X114673760Y-91290654D01*
X114806058Y-91329500D01*
X114806061Y-91329500D01*
X114943939Y-91329500D01*
X114943942Y-91329500D01*
X115076240Y-91290654D01*
X115192235Y-91216109D01*
X115282529Y-91111903D01*
X115339808Y-90986480D01*
X115352243Y-90899996D01*
X115940569Y-90899996D01*
X115940569Y-90900003D01*
X115960190Y-91036473D01*
X115960192Y-91036480D01*
X116017471Y-91161903D01*
X116107765Y-91266109D01*
X116107766Y-91266110D01*
X116145956Y-91290653D01*
X116223760Y-91340654D01*
X116356058Y-91379500D01*
X116356061Y-91379500D01*
X116493939Y-91379500D01*
X116493942Y-91379500D01*
X116626240Y-91340654D01*
X116742235Y-91266109D01*
X116832529Y-91161903D01*
X116889808Y-91036480D01*
X116909431Y-90900000D01*
X116909431Y-90899996D01*
X117390569Y-90899996D01*
X117390569Y-90900003D01*
X117410190Y-91036473D01*
X117410192Y-91036480D01*
X117467471Y-91161903D01*
X117557765Y-91266109D01*
X117557766Y-91266110D01*
X117595956Y-91290653D01*
X117673760Y-91340654D01*
X117806058Y-91379500D01*
X117806061Y-91379500D01*
X117943939Y-91379500D01*
X117943942Y-91379500D01*
X118076240Y-91340654D01*
X118192235Y-91266109D01*
X118282529Y-91161903D01*
X118339808Y-91036480D01*
X118359431Y-90900000D01*
X118359431Y-90899996D01*
X122140569Y-90899996D01*
X122140569Y-90900003D01*
X122160190Y-91036473D01*
X122160192Y-91036480D01*
X122217471Y-91161903D01*
X122307765Y-91266109D01*
X122307766Y-91266110D01*
X122345956Y-91290653D01*
X122423760Y-91340654D01*
X122556058Y-91379500D01*
X122556061Y-91379500D01*
X122693939Y-91379500D01*
X122693942Y-91379500D01*
X122826240Y-91340654D01*
X122942235Y-91266109D01*
X123032529Y-91161903D01*
X123089808Y-91036480D01*
X123109431Y-90900000D01*
X123109431Y-90899996D01*
X123089809Y-90763526D01*
X123089808Y-90763525D01*
X123089808Y-90763520D01*
X123032529Y-90638097D01*
X122942235Y-90533891D01*
X122942234Y-90533890D01*
X122942233Y-90533889D01*
X122826240Y-90459346D01*
X122693947Y-90420501D01*
X122693944Y-90420500D01*
X122693942Y-90420500D01*
X122556058Y-90420500D01*
X122556056Y-90420500D01*
X122556052Y-90420501D01*
X122423759Y-90459346D01*
X122307766Y-90533889D01*
X122217470Y-90638098D01*
X122160192Y-90763519D01*
X122160190Y-90763526D01*
X122140569Y-90899996D01*
X118359431Y-90899996D01*
X118339809Y-90763526D01*
X118339808Y-90763525D01*
X118339808Y-90763520D01*
X118282529Y-90638097D01*
X118192235Y-90533891D01*
X118192234Y-90533890D01*
X118192233Y-90533889D01*
X118076240Y-90459346D01*
X117943947Y-90420501D01*
X117943944Y-90420500D01*
X117943942Y-90420500D01*
X117806058Y-90420500D01*
X117806056Y-90420500D01*
X117806052Y-90420501D01*
X117673759Y-90459346D01*
X117557766Y-90533889D01*
X117467470Y-90638098D01*
X117410192Y-90763519D01*
X117410190Y-90763526D01*
X117390569Y-90899996D01*
X116909431Y-90899996D01*
X116889809Y-90763526D01*
X116889808Y-90763525D01*
X116889808Y-90763520D01*
X116832529Y-90638097D01*
X116742235Y-90533891D01*
X116742234Y-90533890D01*
X116742233Y-90533889D01*
X116626240Y-90459346D01*
X116493947Y-90420501D01*
X116493944Y-90420500D01*
X116493942Y-90420500D01*
X116356058Y-90420500D01*
X116356056Y-90420500D01*
X116356052Y-90420501D01*
X116223759Y-90459346D01*
X116107766Y-90533889D01*
X116017470Y-90638098D01*
X115960192Y-90763519D01*
X115960190Y-90763526D01*
X115940569Y-90899996D01*
X115352243Y-90899996D01*
X115359431Y-90850000D01*
X115359431Y-90849996D01*
X115339809Y-90713526D01*
X115339808Y-90713525D01*
X115339808Y-90713520D01*
X115282529Y-90588097D01*
X115192235Y-90483891D01*
X115192234Y-90483890D01*
X115192233Y-90483889D01*
X115076240Y-90409346D01*
X114943947Y-90370501D01*
X114943944Y-90370500D01*
X114943942Y-90370500D01*
X114806058Y-90370500D01*
X114806056Y-90370500D01*
X114806052Y-90370501D01*
X114673759Y-90409346D01*
X114557766Y-90483889D01*
X114467470Y-90588098D01*
X114410192Y-90713519D01*
X114410190Y-90713526D01*
X114390569Y-90849996D01*
X109747392Y-90849996D01*
X109739931Y-87349996D01*
X111740569Y-87349996D01*
X111740569Y-87350003D01*
X111760190Y-87486473D01*
X111760192Y-87486480D01*
X111817471Y-87611903D01*
X111907765Y-87716109D01*
X111907766Y-87716110D01*
X111965762Y-87753381D01*
X112023760Y-87790654D01*
X112156058Y-87829500D01*
X112156061Y-87829500D01*
X112293939Y-87829500D01*
X112293942Y-87829500D01*
X112426240Y-87790654D01*
X112542235Y-87716109D01*
X112632529Y-87611903D01*
X112689808Y-87486480D01*
X112709431Y-87350000D01*
X112709431Y-87349996D01*
X112689809Y-87213526D01*
X112689808Y-87213525D01*
X112689808Y-87213520D01*
X112632529Y-87088097D01*
X112542235Y-86983891D01*
X112542234Y-86983890D01*
X112542233Y-86983889D01*
X112426240Y-86909346D01*
X112293947Y-86870501D01*
X112293944Y-86870500D01*
X112293942Y-86870500D01*
X112156058Y-86870500D01*
X112156056Y-86870500D01*
X112156052Y-86870501D01*
X112023759Y-86909346D01*
X111907766Y-86983889D01*
X111817470Y-87088098D01*
X111760192Y-87213519D01*
X111760190Y-87213526D01*
X111740569Y-87349996D01*
X109739931Y-87349996D01*
X109739640Y-87213519D01*
X109737501Y-86210173D01*
X109737501Y-86210172D01*
X109737500Y-86209719D01*
X109737500Y-83093193D01*
X109737500Y-83090000D01*
X109731572Y-82857633D01*
X109733444Y-82832553D01*
X109741657Y-82785959D01*
X109743235Y-82777001D01*
X109761542Y-82730416D01*
X109785187Y-82693884D01*
X109820185Y-82658107D01*
X109856188Y-82633665D01*
X109902359Y-82614338D01*
X109957683Y-82603326D01*
X109982715Y-82600904D01*
X112080341Y-82608264D01*
G37*
%TD.AperFunction*%
%TD*%
%TA.AperFunction,Conductor*%
%TO.N,+3V3_A*%
G36*
X137083170Y-112352421D02*
G01*
X137109458Y-112357649D01*
X137143621Y-112364445D01*
X137189037Y-112383257D01*
X137229768Y-112410472D01*
X137264527Y-112445231D01*
X137291741Y-112485959D01*
X137310554Y-112531378D01*
X137322579Y-112591829D01*
X137325000Y-112616411D01*
X137325000Y-119750000D01*
X137958589Y-119750000D01*
X137983170Y-119752421D01*
X138009458Y-119757649D01*
X138043621Y-119764445D01*
X138089037Y-119783257D01*
X138129768Y-119810472D01*
X138164527Y-119845231D01*
X138191741Y-119885959D01*
X138210554Y-119931378D01*
X138222579Y-119991829D01*
X138225000Y-120016411D01*
X138225000Y-122672401D01*
X138204998Y-122740522D01*
X138151342Y-122787015D01*
X138081068Y-122797119D01*
X138016488Y-122767625D01*
X138003775Y-122754913D01*
X137942233Y-122683889D01*
X137826240Y-122609346D01*
X137693947Y-122570501D01*
X137693944Y-122570500D01*
X137693942Y-122570500D01*
X137556058Y-122570500D01*
X137556056Y-122570500D01*
X137556052Y-122570501D01*
X137423759Y-122609346D01*
X137307766Y-122683889D01*
X137217470Y-122788098D01*
X137160192Y-122913519D01*
X137160190Y-122913526D01*
X137140569Y-123049996D01*
X137140569Y-123050003D01*
X137160190Y-123186473D01*
X137160192Y-123186480D01*
X137217471Y-123311903D01*
X137246225Y-123345087D01*
X137307766Y-123416110D01*
X137325642Y-123427598D01*
X137423760Y-123490654D01*
X137556058Y-123529500D01*
X137556061Y-123529500D01*
X137693939Y-123529500D01*
X137693942Y-123529500D01*
X137826240Y-123490654D01*
X137942235Y-123416109D01*
X138003775Y-123345086D01*
X138063500Y-123306702D01*
X138134497Y-123306701D01*
X138194224Y-123345084D01*
X138223717Y-123409665D01*
X138225000Y-123427598D01*
X138225000Y-129633588D01*
X138222579Y-129658170D01*
X138210554Y-129718621D01*
X138191741Y-129764040D01*
X138164530Y-129804765D01*
X138129765Y-129839530D01*
X138089040Y-129866741D01*
X138043622Y-129885554D01*
X138005376Y-129893162D01*
X137983169Y-129897579D01*
X137958589Y-129900000D01*
X135725000Y-129900000D01*
X135725000Y-130153996D01*
X135725000Y-135733588D01*
X135722579Y-135758170D01*
X135710554Y-135818621D01*
X135691741Y-135864040D01*
X135664530Y-135904765D01*
X135629765Y-135939530D01*
X135589040Y-135966741D01*
X135543622Y-135985554D01*
X135505376Y-135993162D01*
X135483169Y-135997579D01*
X135458589Y-136000000D01*
X133591411Y-136000000D01*
X133566829Y-135997579D01*
X133506378Y-135985554D01*
X133460959Y-135966741D01*
X133420231Y-135939527D01*
X133385472Y-135904768D01*
X133358257Y-135864037D01*
X133339445Y-135818619D01*
X133327421Y-135758168D01*
X133325000Y-135733588D01*
X133325000Y-128966411D01*
X133327421Y-128941831D01*
X133339445Y-128881380D01*
X133358256Y-128835963D01*
X133385474Y-128795228D01*
X133420228Y-128760474D01*
X133460963Y-128733256D01*
X133506378Y-128714445D01*
X133530096Y-128709727D01*
X133566831Y-128702421D01*
X133591411Y-128700000D01*
X134269962Y-128700000D01*
X134269965Y-128700000D01*
X134525000Y-128700000D01*
X134520935Y-127699996D01*
X136940569Y-127699996D01*
X136940569Y-127700003D01*
X136960190Y-127836473D01*
X136960192Y-127836480D01*
X137017471Y-127961903D01*
X137107765Y-128066109D01*
X137107766Y-128066110D01*
X137165762Y-128103381D01*
X137223760Y-128140654D01*
X137356058Y-128179500D01*
X137356061Y-128179500D01*
X137493939Y-128179500D01*
X137493942Y-128179500D01*
X137626240Y-128140654D01*
X137742235Y-128066109D01*
X137832529Y-127961903D01*
X137889808Y-127836480D01*
X137909431Y-127700000D01*
X137909431Y-127699996D01*
X137889809Y-127563526D01*
X137889808Y-127563525D01*
X137889808Y-127563520D01*
X137832529Y-127438097D01*
X137742235Y-127333891D01*
X137742234Y-127333890D01*
X137742233Y-127333889D01*
X137626240Y-127259346D01*
X137493947Y-127220501D01*
X137493944Y-127220500D01*
X137493942Y-127220500D01*
X137356058Y-127220500D01*
X137356056Y-127220500D01*
X137356052Y-127220501D01*
X137223759Y-127259346D01*
X137107766Y-127333889D01*
X137017470Y-127438098D01*
X136960192Y-127563519D01*
X136960190Y-127563526D01*
X136940569Y-127699996D01*
X134520935Y-127699996D01*
X134489170Y-119885959D01*
X134475002Y-116400516D01*
X134475001Y-116400004D01*
X134475001Y-116400000D01*
X134475000Y-116399484D01*
X134475000Y-112616411D01*
X134477421Y-112591831D01*
X134489445Y-112531380D01*
X134508256Y-112485963D01*
X134535474Y-112445228D01*
X134570228Y-112410474D01*
X134610963Y-112383256D01*
X134656378Y-112364445D01*
X134680096Y-112359727D01*
X134716831Y-112352421D01*
X134741411Y-112350000D01*
X137058589Y-112350000D01*
X137083170Y-112352421D01*
G37*
%TD.AperFunction*%
%TD*%
%TA.AperFunction,Conductor*%
%TO.N,VCC*%
G36*
X140471120Y-108951444D02*
G01*
X140471119Y-108951448D01*
X140426649Y-115844361D01*
X140425000Y-116100000D01*
X145208589Y-116100000D01*
X145233170Y-116102421D01*
X145259458Y-116107649D01*
X145293621Y-116114445D01*
X145339037Y-116133257D01*
X145379768Y-116160472D01*
X145414527Y-116195231D01*
X145441741Y-116235959D01*
X145460554Y-116281378D01*
X145472579Y-116341829D01*
X145475000Y-116366411D01*
X145475000Y-124400000D01*
X146457868Y-124400000D01*
X146482490Y-124402428D01*
X146543039Y-124414494D01*
X146588526Y-124433372D01*
X146629291Y-124460671D01*
X146664067Y-124495544D01*
X146691252Y-124536382D01*
X146710004Y-124581917D01*
X146721903Y-124642497D01*
X146724265Y-124667128D01*
X146721059Y-125833898D01*
X146700869Y-125901964D01*
X146647086Y-125948309D01*
X146576785Y-125958220D01*
X146559561Y-125954448D01*
X146443947Y-125920501D01*
X146443944Y-125920500D01*
X146443942Y-125920500D01*
X146306058Y-125920500D01*
X146306056Y-125920500D01*
X146306052Y-125920501D01*
X146173759Y-125959346D01*
X146057766Y-126033889D01*
X145967470Y-126138098D01*
X145910192Y-126263519D01*
X145910190Y-126263526D01*
X145890569Y-126399996D01*
X145890569Y-126400003D01*
X145910190Y-126536473D01*
X145910192Y-126536480D01*
X145967471Y-126661903D01*
X146057765Y-126766109D01*
X146057766Y-126766110D01*
X146115762Y-126803381D01*
X146173760Y-126840654D01*
X146306058Y-126879500D01*
X146306061Y-126879500D01*
X146443939Y-126879500D01*
X146443942Y-126879500D01*
X146556449Y-126846465D01*
X146627443Y-126846465D01*
X146687169Y-126884848D01*
X146716662Y-126949429D01*
X146717945Y-126967707D01*
X146675730Y-142334313D01*
X146673249Y-142358848D01*
X146661100Y-142419161D01*
X146642226Y-142464461D01*
X146614990Y-142505072D01*
X146580240Y-142539728D01*
X146539553Y-142566854D01*
X146494198Y-142585604D01*
X146458010Y-142592789D01*
X146433848Y-142597587D01*
X146409311Y-142600000D01*
X142341411Y-142600000D01*
X142316829Y-142597579D01*
X142256378Y-142585554D01*
X142210959Y-142566741D01*
X142170231Y-142539527D01*
X142135472Y-142504768D01*
X142108257Y-142464037D01*
X142089445Y-142418619D01*
X142077421Y-142358168D01*
X142075000Y-142333588D01*
X142075000Y-137799999D01*
X142515715Y-137799999D01*
X142515715Y-137800000D01*
X142534771Y-137944752D01*
X142590644Y-138079641D01*
X142590649Y-138079649D01*
X142679525Y-138195474D01*
X142795350Y-138284350D01*
X142795357Y-138284355D01*
X142930246Y-138340228D01*
X143075000Y-138359285D01*
X143219754Y-138340228D01*
X143354643Y-138284355D01*
X143470474Y-138195474D01*
X143559355Y-138079643D01*
X143615228Y-137944754D01*
X143634285Y-137800000D01*
X143615228Y-137655246D01*
X143559355Y-137520358D01*
X143470474Y-137404526D01*
X143470472Y-137404524D01*
X143470471Y-137404523D01*
X143354649Y-137315649D01*
X143354641Y-137315644D01*
X143219752Y-137259771D01*
X143075000Y-137240715D01*
X142930247Y-137259771D01*
X142862802Y-137287708D01*
X142795358Y-137315645D01*
X142795357Y-137315646D01*
X142795356Y-137315646D01*
X142679526Y-137404526D01*
X142590646Y-137520356D01*
X142590645Y-137520358D01*
X142562708Y-137587802D01*
X142534771Y-137655247D01*
X142515715Y-137799999D01*
X142075000Y-137799999D01*
X142075000Y-123349996D01*
X142890569Y-123349996D01*
X142890569Y-123350003D01*
X142910190Y-123486473D01*
X142910192Y-123486480D01*
X142967471Y-123611903D01*
X143057765Y-123716109D01*
X143057766Y-123716110D01*
X143115762Y-123753381D01*
X143173760Y-123790654D01*
X143306058Y-123829500D01*
X143306061Y-123829500D01*
X143443939Y-123829500D01*
X143443942Y-123829500D01*
X143576240Y-123790654D01*
X143692235Y-123716109D01*
X143782529Y-123611903D01*
X143839808Y-123486480D01*
X143859431Y-123350000D01*
X143859431Y-123349996D01*
X143839809Y-123213526D01*
X143839808Y-123213525D01*
X143839808Y-123213520D01*
X143782529Y-123088097D01*
X143692235Y-122983891D01*
X143692234Y-122983890D01*
X143692233Y-122983889D01*
X143576240Y-122909346D01*
X143443947Y-122870501D01*
X143443944Y-122870500D01*
X143443942Y-122870500D01*
X143306058Y-122870500D01*
X143306056Y-122870500D01*
X143306052Y-122870501D01*
X143173759Y-122909346D01*
X143057766Y-122983889D01*
X142967470Y-123088098D01*
X142910192Y-123213519D01*
X142910190Y-123213526D01*
X142890569Y-123349996D01*
X142075000Y-123349996D01*
X142075000Y-119703999D01*
X142075000Y-119450000D01*
X141821003Y-119450000D01*
X138341411Y-119450000D01*
X138316829Y-119447579D01*
X138256378Y-119435554D01*
X138210959Y-119416741D01*
X138170231Y-119389527D01*
X138135472Y-119354768D01*
X138108257Y-119314037D01*
X138089445Y-119268619D01*
X138077421Y-119208168D01*
X138075000Y-119183588D01*
X138075000Y-108874999D01*
X138075000Y-108800000D01*
X140472097Y-108800000D01*
X140471120Y-108951444D01*
G37*
%TD.AperFunction*%
%TD*%
%TA.AperFunction,Conductor*%
%TO.N,VCC*%
G36*
X117049511Y-104770002D02*
G01*
X117096004Y-104823658D01*
X117106106Y-104858064D01*
X117110192Y-104886480D01*
X117167471Y-105011903D01*
X117257765Y-105116109D01*
X117257766Y-105116110D01*
X117315762Y-105153381D01*
X117373760Y-105190654D01*
X117506058Y-105229500D01*
X117506061Y-105229500D01*
X117643939Y-105229500D01*
X117643942Y-105229500D01*
X117776240Y-105190654D01*
X117892235Y-105116109D01*
X117982529Y-105011903D01*
X118039808Y-104886480D01*
X118043893Y-104858067D01*
X118073384Y-104793489D01*
X118133110Y-104755104D01*
X118168610Y-104750000D01*
X120704596Y-104750000D01*
X120706534Y-104750015D01*
X122543752Y-104778280D01*
X122543752Y-104778279D01*
X122543756Y-104778280D01*
X122567044Y-104776884D01*
X122582688Y-104775947D01*
X122582690Y-104775946D01*
X122582702Y-104775946D01*
X122620139Y-104770857D01*
X122631261Y-104769099D01*
X122645471Y-104763507D01*
X122657568Y-104758749D01*
X122703699Y-104750000D01*
X122909187Y-104750000D01*
X122946540Y-104755664D01*
X123008572Y-104774919D01*
X123081509Y-104786553D01*
X124300567Y-104805308D01*
X124300596Y-104805307D01*
X124300608Y-104805307D01*
X124311077Y-104804948D01*
X124326263Y-104804430D01*
X124351117Y-104802344D01*
X124376609Y-104798925D01*
X124376629Y-104798921D01*
X124376645Y-104798919D01*
X124414516Y-104791913D01*
X124437791Y-104787609D01*
X124487134Y-104773311D01*
X124522734Y-104759042D01*
X124569607Y-104750000D01*
X133145702Y-104750000D01*
X133213822Y-104770002D01*
X133241223Y-104787611D01*
X133323760Y-104840654D01*
X133456058Y-104879500D01*
X133456061Y-104879500D01*
X133593939Y-104879500D01*
X133593942Y-104879500D01*
X133726240Y-104840654D01*
X133808780Y-104787609D01*
X133836178Y-104770002D01*
X133904298Y-104750000D01*
X134045702Y-104750000D01*
X134113822Y-104770002D01*
X134141223Y-104787611D01*
X134223760Y-104840654D01*
X134356058Y-104879500D01*
X134356061Y-104879500D01*
X134493939Y-104879500D01*
X134493942Y-104879500D01*
X134626240Y-104840654D01*
X134708780Y-104787609D01*
X134736178Y-104770002D01*
X134804298Y-104750000D01*
X135671000Y-104750000D01*
X135925000Y-104750000D01*
X135925000Y-105512500D01*
X139425000Y-105500000D01*
X139426894Y-104750000D01*
X139681536Y-104750000D01*
X139681537Y-104750000D01*
X140508589Y-104750000D01*
X140533170Y-104752421D01*
X140546659Y-104755104D01*
X140593621Y-104764445D01*
X140639037Y-104783257D01*
X140679768Y-104810472D01*
X140714527Y-104845231D01*
X140729770Y-104868043D01*
X140741741Y-104885959D01*
X140760554Y-104931378D01*
X140772579Y-104991829D01*
X140775000Y-105016411D01*
X140775000Y-108631961D01*
X140770706Y-108664573D01*
X140763447Y-108691663D01*
X140730836Y-108748146D01*
X140723146Y-108755836D01*
X140666663Y-108788447D01*
X140623549Y-108800000D01*
X138001352Y-108800000D01*
X137947501Y-108756603D01*
X137925080Y-108689240D01*
X137925000Y-108684743D01*
X137925000Y-107454551D01*
X137925000Y-107200000D01*
X137670449Y-107200552D01*
X137612130Y-107200678D01*
X127822808Y-107221912D01*
X127763075Y-107207000D01*
X127738113Y-107193639D01*
X127738110Y-107193638D01*
X127738105Y-107193635D01*
X127692644Y-107174779D01*
X127692638Y-107174777D01*
X127692626Y-107174773D01*
X127643911Y-107159977D01*
X127643908Y-107159976D01*
X127615156Y-107154250D01*
X127597593Y-107150752D01*
X127597581Y-107150749D01*
X127596231Y-107150481D01*
X127596213Y-107150477D01*
X127583374Y-107147921D01*
X127583366Y-107147919D01*
X127583346Y-107147916D01*
X127558187Y-107144181D01*
X127533563Y-107141752D01*
X127509566Y-107140572D01*
X127508098Y-107140500D01*
X127508097Y-107140500D01*
X120517245Y-107140500D01*
X120449124Y-107120498D01*
X120402631Y-107066842D01*
X120392528Y-107032433D01*
X120389809Y-107013526D01*
X120389808Y-107013525D01*
X120389808Y-107013520D01*
X120332529Y-106888097D01*
X120242235Y-106783891D01*
X120242234Y-106783890D01*
X120242233Y-106783889D01*
X120126240Y-106709346D01*
X119993947Y-106670501D01*
X119993944Y-106670500D01*
X119993942Y-106670500D01*
X119856058Y-106670500D01*
X119856056Y-106670500D01*
X119856052Y-106670501D01*
X119723759Y-106709346D01*
X119607766Y-106783889D01*
X119517470Y-106888098D01*
X119460192Y-107013519D01*
X119460190Y-107013526D01*
X119457472Y-107032433D01*
X119427978Y-107097014D01*
X119368252Y-107135397D01*
X119332755Y-107140500D01*
X117941406Y-107140500D01*
X117920214Y-107141541D01*
X117915975Y-107141750D01*
X117915972Y-107141750D01*
X117915948Y-107141752D01*
X117891412Y-107144168D01*
X117866221Y-107147904D01*
X117851917Y-107150749D01*
X117829477Y-107155212D01*
X117829471Y-107155213D01*
X117828095Y-107155487D01*
X117828087Y-107155488D01*
X117813908Y-107158309D01*
X117805750Y-107159932D01*
X117805746Y-107159933D01*
X117805742Y-107159934D01*
X117757073Y-107174697D01*
X117711662Y-107193506D01*
X117699513Y-107200000D01*
X117666793Y-107217489D01*
X117666788Y-107217492D01*
X117666783Y-107217495D01*
X117658720Y-107222882D01*
X117590966Y-107244092D01*
X117588999Y-107244112D01*
X115128449Y-107249450D01*
X115128446Y-107249450D01*
X115128445Y-107249450D01*
X114875000Y-107250000D01*
X114875000Y-107503450D01*
X114875000Y-107503451D01*
X114875000Y-108532978D01*
X114872572Y-108557595D01*
X114860513Y-108618129D01*
X114841644Y-108663607D01*
X114814359Y-108704363D01*
X114779505Y-108739135D01*
X114738682Y-108766326D01*
X114693164Y-108785087D01*
X114632603Y-108797006D01*
X114607979Y-108799378D01*
X114062442Y-108798106D01*
X113940110Y-104750000D01*
X114186553Y-104750000D01*
X116981390Y-104750000D01*
X117049511Y-104770002D01*
G37*
%TD.AperFunction*%
%TD*%
%TA.AperFunction,Conductor*%
%TO.N,VCC*%
G36*
X107178811Y-82856873D02*
G01*
X107200912Y-82860911D01*
X107240107Y-82868072D01*
X107286286Y-82886479D01*
X107327758Y-82913525D01*
X107363222Y-82948362D01*
X107369429Y-82957518D01*
X107391001Y-82989340D01*
X107410229Y-83035181D01*
X107422523Y-83096270D01*
X107425000Y-83121129D01*
X107425000Y-85106329D01*
X107404998Y-85174450D01*
X107351342Y-85220943D01*
X107281068Y-85231047D01*
X107230885Y-85212331D01*
X107226239Y-85209345D01*
X107093947Y-85170501D01*
X107093944Y-85170500D01*
X107093942Y-85170500D01*
X106956058Y-85170500D01*
X106956056Y-85170500D01*
X106956052Y-85170501D01*
X106823759Y-85209346D01*
X106707766Y-85283889D01*
X106617470Y-85388098D01*
X106560192Y-85513519D01*
X106560190Y-85513526D01*
X106540569Y-85649996D01*
X106540569Y-85650003D01*
X106560190Y-85786473D01*
X106560191Y-85786477D01*
X106560191Y-85786478D01*
X106560192Y-85786480D01*
X106610966Y-85897660D01*
X106621070Y-85967931D01*
X106610967Y-86002337D01*
X106564405Y-86104292D01*
X106560191Y-86113522D01*
X106560190Y-86113526D01*
X106540569Y-86249996D01*
X106540569Y-86250003D01*
X106560190Y-86386473D01*
X106560192Y-86386480D01*
X106617471Y-86511903D01*
X106707765Y-86616109D01*
X106707766Y-86616110D01*
X106765762Y-86653381D01*
X106823760Y-86690654D01*
X106956058Y-86729500D01*
X106956061Y-86729500D01*
X107093939Y-86729500D01*
X107093942Y-86729500D01*
X107226240Y-86690654D01*
X107230881Y-86687671D01*
X107299000Y-86667670D01*
X107367120Y-86687672D01*
X107413614Y-86741327D01*
X107425000Y-86793670D01*
X107425000Y-87850000D01*
X109108589Y-87850000D01*
X109133170Y-87852421D01*
X109159458Y-87857649D01*
X109193621Y-87864445D01*
X109239037Y-87883257D01*
X109279768Y-87910472D01*
X109314527Y-87945231D01*
X109341741Y-87985959D01*
X109360554Y-88031378D01*
X109372579Y-88091829D01*
X109375000Y-88116411D01*
X109375000Y-104250000D01*
X113666390Y-104250000D01*
X113690503Y-104252329D01*
X113706934Y-104255532D01*
X113749873Y-104263905D01*
X113794563Y-104282021D01*
X113834851Y-104308285D01*
X113869466Y-104341870D01*
X113896931Y-104381341D01*
X113916390Y-104425467D01*
X113929755Y-104484464D01*
X113931441Y-104497706D01*
X113931900Y-104497648D01*
X113932664Y-104503662D01*
X114062442Y-108798106D01*
X114059660Y-108798100D01*
X114041309Y-108799871D01*
X113857518Y-108798761D01*
X113592851Y-108797163D01*
X113553249Y-108796924D01*
X113552552Y-108796920D01*
X113552500Y-108796920D01*
X113551899Y-108796920D01*
X113551676Y-108796920D01*
X113551671Y-108796920D01*
X113531916Y-108796928D01*
X107166733Y-108799800D01*
X106725000Y-108800000D01*
X106566587Y-108800000D01*
X106533976Y-108795706D01*
X106495420Y-108785375D01*
X106495107Y-108785291D01*
X106438626Y-108752680D01*
X106422319Y-108736373D01*
X106389708Y-108679893D01*
X106379292Y-108641017D01*
X106375000Y-108608413D01*
X106375000Y-89761360D01*
X106375000Y-89500000D01*
X106113747Y-89507464D01*
X106113746Y-89507464D01*
X106113742Y-89507464D01*
X105451842Y-89526375D01*
X104898876Y-89542174D01*
X104873801Y-89540380D01*
X104812002Y-89529685D01*
X104765370Y-89511530D01*
X104723455Y-89484593D01*
X104687569Y-89449717D01*
X104659445Y-89408587D01*
X104639964Y-89362489D01*
X104627510Y-89301025D01*
X104625000Y-89276003D01*
X104625000Y-83161774D01*
X104627366Y-83137469D01*
X104639125Y-83077655D01*
X104657524Y-83032667D01*
X104684177Y-82992194D01*
X104718239Y-82957520D01*
X104758226Y-82930150D01*
X104802877Y-82910951D01*
X104862479Y-82898124D01*
X104886721Y-82895326D01*
X105948840Y-82876360D01*
X107153916Y-82854841D01*
X107178811Y-82856873D01*
G37*
%TD.AperFunction*%
%TD*%
%TA.AperFunction,Conductor*%
%TO.N,VCC*%
G36*
X139232548Y-85702429D02*
G01*
X139261344Y-85708166D01*
X139293086Y-85714490D01*
X139338566Y-85733362D01*
X139379329Y-85760655D01*
X139414103Y-85795517D01*
X139441292Y-85836347D01*
X139460050Y-85881876D01*
X139471579Y-85940517D01*
X139471958Y-85942442D01*
X139474325Y-85967068D01*
X139450910Y-95239281D01*
X139430736Y-95307351D01*
X139413626Y-95327046D01*
X139413666Y-95327081D01*
X139317470Y-95438098D01*
X139260192Y-95563519D01*
X139260190Y-95563526D01*
X139240569Y-95699996D01*
X139240569Y-95700003D01*
X139260190Y-95836473D01*
X139260192Y-95836480D01*
X139317471Y-95961903D01*
X139407765Y-96066109D01*
X139413667Y-96072920D01*
X139411927Y-96074427D01*
X139443480Y-96123514D01*
X139448587Y-96159341D01*
X139442256Y-98666215D01*
X139430871Y-98718236D01*
X139410193Y-98763516D01*
X139410190Y-98763526D01*
X139390569Y-98899996D01*
X139390569Y-98900003D01*
X139410190Y-99036472D01*
X139410193Y-99036482D01*
X139429694Y-99079184D01*
X139441080Y-99131843D01*
X139428721Y-104026116D01*
X139425000Y-105500000D01*
X135925000Y-105512500D01*
X135925000Y-101650955D01*
X135925002Y-101650000D01*
X135925007Y-101649045D01*
X135973012Y-95264442D01*
X135975593Y-95239997D01*
X135975741Y-95239281D01*
X135987958Y-95179902D01*
X136006938Y-95134804D01*
X136034215Y-95094393D01*
X136068940Y-95059926D01*
X136109563Y-95032947D01*
X136154803Y-95014309D01*
X136180018Y-95009318D01*
X136214983Y-95002398D01*
X136239447Y-95000000D01*
X137422358Y-95000000D01*
X137422362Y-95000000D01*
X137675000Y-95000000D01*
X137676856Y-94654822D01*
X137697224Y-94586810D01*
X137751129Y-94540606D01*
X137802854Y-94529500D01*
X137893939Y-94529500D01*
X137893942Y-94529500D01*
X138026240Y-94490654D01*
X138142235Y-94416109D01*
X138232529Y-94311903D01*
X138289808Y-94186480D01*
X138309431Y-94050000D01*
X138309431Y-94049996D01*
X138289809Y-93913526D01*
X138289808Y-93913525D01*
X138289808Y-93913520D01*
X138232529Y-93788097D01*
X138142235Y-93683891D01*
X138142234Y-93683890D01*
X138142233Y-93683889D01*
X138026240Y-93609346D01*
X137893947Y-93570501D01*
X137893944Y-93570500D01*
X137893942Y-93570500D01*
X137809364Y-93570500D01*
X137741243Y-93550498D01*
X137694750Y-93496842D01*
X137683366Y-93443825D01*
X137723575Y-85964997D01*
X137726110Y-85940522D01*
X137738380Y-85880321D01*
X137757311Y-85835135D01*
X137784571Y-85794631D01*
X137819308Y-85760080D01*
X137859961Y-85733035D01*
X137905247Y-85714348D01*
X137965512Y-85702403D01*
X137990003Y-85700000D01*
X139207928Y-85700000D01*
X139232548Y-85702429D01*
G37*
%TD.AperFunction*%
%TD*%
%TA.AperFunction,Conductor*%
%TO.N,+3V3_D*%
G36*
X119517735Y-107420002D02*
G01*
X119544839Y-107443488D01*
X119607766Y-107516110D01*
X119639105Y-107536250D01*
X119723760Y-107590654D01*
X119856058Y-107629500D01*
X119856061Y-107629500D01*
X119993939Y-107629500D01*
X119993942Y-107629500D01*
X120126240Y-107590654D01*
X120242235Y-107516109D01*
X120305161Y-107443488D01*
X120364888Y-107405104D01*
X120400386Y-107400000D01*
X127508098Y-107400000D01*
X127532707Y-107402427D01*
X127545546Y-107404983D01*
X127593223Y-107414478D01*
X127638684Y-107433334D01*
X127679442Y-107460609D01*
X127714209Y-107495441D01*
X127741407Y-107536250D01*
X127760178Y-107581746D01*
X127772117Y-107642292D01*
X127774497Y-107666900D01*
X127725500Y-133684086D01*
X127723039Y-133708627D01*
X127710929Y-133768989D01*
X127692075Y-133814327D01*
X127664846Y-133854975D01*
X127630089Y-133889667D01*
X127589389Y-133916819D01*
X127544018Y-133935587D01*
X127483637Y-133947584D01*
X127459082Y-133950000D01*
X117750386Y-133950000D01*
X117682265Y-133929998D01*
X117655161Y-133906512D01*
X117592233Y-133833889D01*
X117476240Y-133759346D01*
X117343947Y-133720501D01*
X117343944Y-133720500D01*
X117343942Y-133720500D01*
X117206058Y-133720500D01*
X117206056Y-133720500D01*
X117206052Y-133720501D01*
X117073759Y-133759346D01*
X116957766Y-133833889D01*
X116894839Y-133906512D01*
X116835112Y-133944896D01*
X116799614Y-133950000D01*
X116791112Y-133950000D01*
X116722991Y-133929998D01*
X116685112Y-133892118D01*
X116682530Y-133888100D01*
X116682529Y-133888097D01*
X116592235Y-133783891D01*
X116592234Y-133783890D01*
X116592233Y-133783889D01*
X116476240Y-133709346D01*
X116343947Y-133670501D01*
X116343944Y-133670500D01*
X116343942Y-133670500D01*
X116206058Y-133670500D01*
X116206056Y-133670500D01*
X116206052Y-133670501D01*
X116073759Y-133709346D01*
X115957766Y-133783889D01*
X115867472Y-133888095D01*
X115864888Y-133892118D01*
X115811233Y-133938612D01*
X115758888Y-133950000D01*
X104091411Y-133950000D01*
X104066829Y-133947579D01*
X104006378Y-133935554D01*
X103960959Y-133916741D01*
X103920231Y-133889527D01*
X103885472Y-133854768D01*
X103858257Y-133814037D01*
X103839445Y-133768619D01*
X103827421Y-133708168D01*
X103825000Y-133683588D01*
X103825000Y-130599999D01*
X114915715Y-130599999D01*
X114915715Y-130600000D01*
X114934771Y-130744752D01*
X114990644Y-130879641D01*
X114990649Y-130879649D01*
X115079525Y-130995474D01*
X115195350Y-131084350D01*
X115195357Y-131084355D01*
X115330246Y-131140228D01*
X115475000Y-131159285D01*
X115619754Y-131140228D01*
X115754643Y-131084355D01*
X115870474Y-130995474D01*
X115959355Y-130879643D01*
X116015228Y-130744754D01*
X116034285Y-130600000D01*
X116015228Y-130455246D01*
X115959355Y-130320358D01*
X115870474Y-130204526D01*
X115870472Y-130204524D01*
X115870471Y-130204523D01*
X115754649Y-130115649D01*
X115754641Y-130115644D01*
X115619752Y-130059771D01*
X115475000Y-130040715D01*
X115330247Y-130059771D01*
X115262802Y-130087708D01*
X115195358Y-130115645D01*
X115195357Y-130115646D01*
X115195356Y-130115646D01*
X115079526Y-130204526D01*
X114990646Y-130320356D01*
X114990645Y-130320358D01*
X114962708Y-130387802D01*
X114934771Y-130455247D01*
X114915715Y-130599999D01*
X103825000Y-130599999D01*
X103825000Y-129699999D01*
X124165715Y-129699999D01*
X124165715Y-129700000D01*
X124184771Y-129844752D01*
X124240644Y-129979641D01*
X124240649Y-129979649D01*
X124329525Y-130095474D01*
X124445350Y-130184350D01*
X124445357Y-130184355D01*
X124580246Y-130240228D01*
X124725000Y-130259285D01*
X124869754Y-130240228D01*
X125004643Y-130184355D01*
X125120474Y-130095474D01*
X125209355Y-129979643D01*
X125265228Y-129844754D01*
X125284285Y-129700000D01*
X125265228Y-129555246D01*
X125209355Y-129420358D01*
X125120474Y-129304526D01*
X125120472Y-129304524D01*
X125120471Y-129304523D01*
X125004649Y-129215649D01*
X125004641Y-129215644D01*
X124869752Y-129159771D01*
X124725000Y-129140715D01*
X124580247Y-129159771D01*
X124512802Y-129187708D01*
X124445358Y-129215645D01*
X124445357Y-129215646D01*
X124445356Y-129215646D01*
X124329526Y-129304526D01*
X124240646Y-129420356D01*
X124240645Y-129420358D01*
X124212708Y-129487802D01*
X124184771Y-129555247D01*
X124165715Y-129699999D01*
X103825000Y-129699999D01*
X103825000Y-128259996D01*
X106465569Y-128259996D01*
X106465569Y-128260003D01*
X106485190Y-128396473D01*
X106485192Y-128396480D01*
X106542471Y-128521903D01*
X106632765Y-128626109D01*
X106632766Y-128626110D01*
X106690762Y-128663381D01*
X106748760Y-128700654D01*
X106881058Y-128739500D01*
X106881061Y-128739500D01*
X107018939Y-128739500D01*
X107018942Y-128739500D01*
X107151240Y-128700654D01*
X107267235Y-128626109D01*
X107357529Y-128521903D01*
X107414808Y-128396480D01*
X107434431Y-128260000D01*
X107434431Y-128259996D01*
X107425804Y-128199996D01*
X114090569Y-128199996D01*
X114090569Y-128200003D01*
X114110190Y-128336473D01*
X114110192Y-128336480D01*
X114167471Y-128461903D01*
X114219459Y-128521901D01*
X114257766Y-128566110D01*
X114315762Y-128603381D01*
X114373760Y-128640654D01*
X114506058Y-128679500D01*
X114506061Y-128679500D01*
X114643939Y-128679500D01*
X114643942Y-128679500D01*
X114776240Y-128640654D01*
X114892235Y-128566109D01*
X114982529Y-128461903D01*
X115039808Y-128336480D01*
X115059431Y-128200000D01*
X115059431Y-128199996D01*
X115039809Y-128063526D01*
X115039808Y-128063525D01*
X115039808Y-128063520D01*
X114982529Y-127938097D01*
X114892235Y-127833891D01*
X114892234Y-127833890D01*
X114892233Y-127833889D01*
X114776240Y-127759346D01*
X114643947Y-127720501D01*
X114643944Y-127720500D01*
X114643942Y-127720500D01*
X114506058Y-127720500D01*
X114506056Y-127720500D01*
X114506052Y-127720501D01*
X114373759Y-127759346D01*
X114257766Y-127833889D01*
X114167470Y-127938098D01*
X114110192Y-128063519D01*
X114110190Y-128063526D01*
X114090569Y-128199996D01*
X107425804Y-128199996D01*
X107414809Y-128123526D01*
X107414808Y-128123525D01*
X107414808Y-128123520D01*
X107357529Y-127998097D01*
X107267235Y-127893891D01*
X107267234Y-127893890D01*
X107267233Y-127893889D01*
X107151240Y-127819346D01*
X107018947Y-127780501D01*
X107018944Y-127780500D01*
X107018942Y-127780500D01*
X106881058Y-127780500D01*
X106881056Y-127780500D01*
X106881052Y-127780501D01*
X106748759Y-127819346D01*
X106632766Y-127893889D01*
X106542470Y-127998098D01*
X106485192Y-128123519D01*
X106485190Y-128123526D01*
X106465569Y-128259996D01*
X103825000Y-128259996D01*
X103825000Y-127232949D01*
X103845002Y-127164828D01*
X103898658Y-127118335D01*
X103934552Y-127108027D01*
X104069754Y-127090228D01*
X104204643Y-127034355D01*
X104320474Y-126945474D01*
X104409355Y-126829643D01*
X104465228Y-126694754D01*
X104484285Y-126550000D01*
X104465228Y-126405246D01*
X104409355Y-126270358D01*
X104320474Y-126154526D01*
X104320472Y-126154524D01*
X104320471Y-126154523D01*
X104204649Y-126065649D01*
X104204641Y-126065644D01*
X104069752Y-126009771D01*
X103934553Y-125991972D01*
X103869626Y-125963249D01*
X103830535Y-125903984D01*
X103825000Y-125867050D01*
X103825000Y-123249999D01*
X108765715Y-123249999D01*
X108765715Y-123250000D01*
X108784771Y-123394752D01*
X108840644Y-123529641D01*
X108840649Y-123529649D01*
X108929525Y-123645474D01*
X109045350Y-123734350D01*
X109045357Y-123734355D01*
X109180246Y-123790228D01*
X109325000Y-123809285D01*
X109469754Y-123790228D01*
X109604643Y-123734355D01*
X109720474Y-123645474D01*
X109809355Y-123529643D01*
X109865228Y-123394754D01*
X109884285Y-123250000D01*
X109865228Y-123105246D01*
X109809355Y-122970358D01*
X109720474Y-122854526D01*
X109720472Y-122854524D01*
X109720471Y-122854523D01*
X109604649Y-122765649D01*
X109604641Y-122765644D01*
X109469752Y-122709771D01*
X109325000Y-122690715D01*
X109180247Y-122709771D01*
X109122018Y-122733891D01*
X109045358Y-122765645D01*
X109045357Y-122765646D01*
X109045356Y-122765646D01*
X108929526Y-122854526D01*
X108840646Y-122970356D01*
X108840645Y-122970358D01*
X108812708Y-123037802D01*
X108784771Y-123105247D01*
X108765715Y-123249999D01*
X103825000Y-123249999D01*
X103825000Y-121449996D01*
X110490569Y-121449996D01*
X110490569Y-121450003D01*
X110510190Y-121586473D01*
X110510192Y-121586480D01*
X110567471Y-121711903D01*
X110613329Y-121764826D01*
X110637298Y-121792489D01*
X110666790Y-121857070D01*
X110656685Y-121927344D01*
X110637298Y-121957511D01*
X110567470Y-122038098D01*
X110510192Y-122163519D01*
X110510190Y-122163526D01*
X110490569Y-122299996D01*
X110490569Y-122300003D01*
X110510190Y-122436473D01*
X110510192Y-122436480D01*
X110567471Y-122561903D01*
X110615451Y-122617275D01*
X110615636Y-122617489D01*
X110645128Y-122682070D01*
X110635023Y-122752344D01*
X110615636Y-122782511D01*
X110567470Y-122838098D01*
X110510192Y-122963519D01*
X110510190Y-122963526D01*
X110490569Y-123099996D01*
X110490569Y-123100003D01*
X110510190Y-123236473D01*
X110510192Y-123236480D01*
X110567471Y-123361903D01*
X110657765Y-123466109D01*
X110657766Y-123466110D01*
X110715762Y-123503381D01*
X110773760Y-123540654D01*
X110906058Y-123579500D01*
X110906061Y-123579500D01*
X111043939Y-123579500D01*
X111043942Y-123579500D01*
X111176240Y-123540654D01*
X111292235Y-123466109D01*
X111382529Y-123361903D01*
X111439808Y-123236480D01*
X111459431Y-123100000D01*
X111459431Y-123099996D01*
X111439809Y-122963526D01*
X111439808Y-122963525D01*
X111439808Y-122963520D01*
X111382529Y-122838097D01*
X111334363Y-122782509D01*
X111304871Y-122717931D01*
X111314976Y-122647657D01*
X111334361Y-122617491D01*
X111382529Y-122561903D01*
X111439808Y-122436480D01*
X111459431Y-122300000D01*
X111459431Y-122299996D01*
X111452242Y-122249999D01*
X114815715Y-122249999D01*
X114815715Y-122250000D01*
X114834771Y-122394752D01*
X114890644Y-122529641D01*
X114890649Y-122529649D01*
X114979525Y-122645474D01*
X115094752Y-122733891D01*
X115095357Y-122734355D01*
X115230246Y-122790228D01*
X115375000Y-122809285D01*
X115519754Y-122790228D01*
X115654643Y-122734355D01*
X115770474Y-122645474D01*
X115859355Y-122529643D01*
X115915228Y-122394754D01*
X115934285Y-122250000D01*
X115915228Y-122105246D01*
X115859355Y-121970358D01*
X115770474Y-121854526D01*
X115770472Y-121854524D01*
X115770471Y-121854523D01*
X115654649Y-121765649D01*
X115654641Y-121765644D01*
X115519752Y-121709771D01*
X115375000Y-121690715D01*
X115230247Y-121709771D01*
X115162802Y-121737708D01*
X115095358Y-121765645D01*
X115095357Y-121765646D01*
X115095356Y-121765646D01*
X114979526Y-121854526D01*
X114890646Y-121970356D01*
X114890645Y-121970358D01*
X114862708Y-122037802D01*
X114834771Y-122105247D01*
X114815715Y-122249999D01*
X111452242Y-122249999D01*
X111439809Y-122163526D01*
X111439808Y-122163525D01*
X111439808Y-122163520D01*
X111382529Y-122038097D01*
X111312701Y-121957510D01*
X111283209Y-121892931D01*
X111293314Y-121822657D01*
X111312700Y-121792490D01*
X111382529Y-121711903D01*
X111439808Y-121586480D01*
X111459431Y-121450000D01*
X111459431Y-121449996D01*
X111439809Y-121313526D01*
X111439808Y-121313525D01*
X111439808Y-121313520D01*
X111382529Y-121188097D01*
X111292235Y-121083891D01*
X111292234Y-121083890D01*
X111292233Y-121083889D01*
X111176240Y-121009346D01*
X111043947Y-120970501D01*
X111043944Y-120970500D01*
X111043942Y-120970500D01*
X110906058Y-120970500D01*
X110906056Y-120970500D01*
X110906052Y-120970501D01*
X110773759Y-121009346D01*
X110657766Y-121083889D01*
X110567470Y-121188098D01*
X110510192Y-121313519D01*
X110510190Y-121313526D01*
X110490569Y-121449996D01*
X103825000Y-121449996D01*
X103825000Y-120849999D01*
X124115715Y-120849999D01*
X124115715Y-120850000D01*
X124134771Y-120994752D01*
X124190644Y-121129641D01*
X124190649Y-121129649D01*
X124279525Y-121245474D01*
X124368212Y-121313526D01*
X124395357Y-121334355D01*
X124530246Y-121390228D01*
X124675000Y-121409285D01*
X124819754Y-121390228D01*
X124954643Y-121334355D01*
X125070474Y-121245474D01*
X125159355Y-121129643D01*
X125215228Y-120994754D01*
X125234285Y-120850000D01*
X125215228Y-120705246D01*
X125159355Y-120570358D01*
X125070474Y-120454526D01*
X125070472Y-120454524D01*
X125070471Y-120454523D01*
X124954649Y-120365649D01*
X124954641Y-120365644D01*
X124819752Y-120309771D01*
X124675000Y-120290715D01*
X124530247Y-120309771D01*
X124462802Y-120337708D01*
X124395358Y-120365645D01*
X124395357Y-120365646D01*
X124395356Y-120365646D01*
X124279526Y-120454526D01*
X124190646Y-120570356D01*
X124190645Y-120570358D01*
X124162708Y-120637802D01*
X124134771Y-120705247D01*
X124115715Y-120849999D01*
X103825000Y-120849999D01*
X103825000Y-119299999D01*
X114865715Y-119299999D01*
X114865715Y-119300000D01*
X114884771Y-119444752D01*
X114940644Y-119579641D01*
X114940649Y-119579649D01*
X115029525Y-119695474D01*
X115145350Y-119784350D01*
X115145357Y-119784355D01*
X115280246Y-119840228D01*
X115425000Y-119859285D01*
X115569754Y-119840228D01*
X115704643Y-119784355D01*
X115820474Y-119695474D01*
X115909355Y-119579643D01*
X115965228Y-119444754D01*
X115984285Y-119300000D01*
X115965228Y-119155246D01*
X115909355Y-119020358D01*
X115820474Y-118904526D01*
X115820472Y-118904524D01*
X115820471Y-118904523D01*
X115704649Y-118815649D01*
X115704641Y-118815644D01*
X115569752Y-118759771D01*
X115425000Y-118740715D01*
X115280247Y-118759771D01*
X115212802Y-118787708D01*
X115145358Y-118815645D01*
X115145357Y-118815646D01*
X115145356Y-118815646D01*
X115029526Y-118904526D01*
X114940646Y-119020356D01*
X114940645Y-119020358D01*
X114912708Y-119087802D01*
X114884771Y-119155247D01*
X114865715Y-119299999D01*
X103825000Y-119299999D01*
X103825000Y-118263547D01*
X103827387Y-118239136D01*
X103839247Y-118179078D01*
X103857803Y-118133926D01*
X103884676Y-118093348D01*
X103919002Y-118058644D01*
X103959276Y-118031332D01*
X104004221Y-118012279D01*
X104064151Y-117999757D01*
X104088528Y-117997103D01*
X106100000Y-117975000D01*
X108123791Y-117952761D01*
X108123793Y-117952760D01*
X108375000Y-117950000D01*
X108375000Y-113099996D01*
X123490569Y-113099996D01*
X123490569Y-113100003D01*
X123510190Y-113236473D01*
X123510192Y-113236480D01*
X123567471Y-113361903D01*
X123657765Y-113466109D01*
X123657766Y-113466110D01*
X123715762Y-113503381D01*
X123773760Y-113540654D01*
X123906058Y-113579500D01*
X123906061Y-113579500D01*
X124043939Y-113579500D01*
X124043942Y-113579500D01*
X124176240Y-113540654D01*
X124292235Y-113466109D01*
X124382529Y-113361903D01*
X124439808Y-113236480D01*
X124459431Y-113100000D01*
X124459431Y-113099996D01*
X124439809Y-112963526D01*
X124439808Y-112963525D01*
X124439808Y-112963520D01*
X124382529Y-112838097D01*
X124292235Y-112733891D01*
X124292234Y-112733890D01*
X124292233Y-112733889D01*
X124176240Y-112659346D01*
X124043947Y-112620501D01*
X124043944Y-112620500D01*
X124043942Y-112620500D01*
X123906058Y-112620500D01*
X123906056Y-112620500D01*
X123906052Y-112620501D01*
X123773759Y-112659346D01*
X123657766Y-112733889D01*
X123567470Y-112838098D01*
X123510192Y-112963519D01*
X123510190Y-112963526D01*
X123490569Y-113099996D01*
X108375000Y-113099996D01*
X108375000Y-112099996D01*
X119440569Y-112099996D01*
X119440569Y-112100003D01*
X119460190Y-112236473D01*
X119460192Y-112236480D01*
X119517471Y-112361903D01*
X119607765Y-112466109D01*
X119607766Y-112466110D01*
X119665762Y-112503381D01*
X119723760Y-112540654D01*
X119856058Y-112579500D01*
X119856061Y-112579500D01*
X119993939Y-112579500D01*
X119993942Y-112579500D01*
X120126240Y-112540654D01*
X120242235Y-112466109D01*
X120332529Y-112361903D01*
X120389808Y-112236480D01*
X120409431Y-112100000D01*
X120409431Y-112099996D01*
X120389809Y-111963526D01*
X120389808Y-111963525D01*
X120389808Y-111963520D01*
X120332529Y-111838097D01*
X120242235Y-111733891D01*
X120242234Y-111733890D01*
X120242233Y-111733889D01*
X120126240Y-111659346D01*
X119993947Y-111620501D01*
X119993944Y-111620500D01*
X119993942Y-111620500D01*
X119856058Y-111620500D01*
X119856056Y-111620500D01*
X119856052Y-111620501D01*
X119723759Y-111659346D01*
X119607766Y-111733889D01*
X119517470Y-111838098D01*
X119460192Y-111963519D01*
X119460190Y-111963526D01*
X119440569Y-112099996D01*
X108375000Y-112099996D01*
X108375000Y-111815002D01*
X108377403Y-111790514D01*
X108389349Y-111730245D01*
X108408036Y-111684960D01*
X108435079Y-111644310D01*
X108469631Y-111609571D01*
X108510135Y-111582310D01*
X108555321Y-111563380D01*
X108615522Y-111551110D01*
X108639997Y-111548575D01*
X113025000Y-111525000D01*
X117675000Y-111500000D01*
X117675000Y-107666411D01*
X117677421Y-107641831D01*
X117689445Y-107581380D01*
X117708256Y-107535963D01*
X117735474Y-107495228D01*
X117770228Y-107460474D01*
X117810963Y-107433256D01*
X117856378Y-107414445D01*
X117880096Y-107409727D01*
X117916831Y-107402421D01*
X117941411Y-107400000D01*
X119449614Y-107400000D01*
X119517735Y-107420002D01*
G37*
%TD.AperFunction*%
%TD*%
M02*
