%TF.GenerationSoftware,KiCad,Pcbnew,8.0.4-8.0.4-0~ubuntu22.04.1*%
%TF.CreationDate,2024-09-01T23:10:33+08:00*%
%TF.ProjectId,R820T_With_LCMXO2,52383230-545f-4576-9974-685f4c434d58,rev?*%
%TF.SameCoordinates,Original*%
%TF.FileFunction,Legend,Top*%
%TF.FilePolarity,Positive*%
%FSLAX46Y46*%
G04 Gerber Fmt 4.6, Leading zero omitted, Abs format (unit mm)*
G04 Created by KiCad (PCBNEW 8.0.4-8.0.4-0~ubuntu22.04.1) date 2024-09-01 23:10:33*
%MOMM*%
%LPD*%
G01*
G04 APERTURE LIST*
%ADD10C,0.200000*%
%ADD11C,0.120000*%
%ADD12C,0.150000*%
G04 APERTURE END LIST*
D10*
X147722054Y-144441695D02*
X147722054Y-143641695D01*
X147722054Y-143641695D02*
X148026816Y-143641695D01*
X148026816Y-143641695D02*
X148103006Y-143679790D01*
X148103006Y-143679790D02*
X148141101Y-143717885D01*
X148141101Y-143717885D02*
X148179197Y-143794076D01*
X148179197Y-143794076D02*
X148179197Y-143908361D01*
X148179197Y-143908361D02*
X148141101Y-143984552D01*
X148141101Y-143984552D02*
X148103006Y-144022647D01*
X148103006Y-144022647D02*
X148026816Y-144060742D01*
X148026816Y-144060742D02*
X147722054Y-144060742D01*
X148941101Y-143679790D02*
X148864911Y-143641695D01*
X148864911Y-143641695D02*
X148750625Y-143641695D01*
X148750625Y-143641695D02*
X148636339Y-143679790D01*
X148636339Y-143679790D02*
X148560149Y-143755980D01*
X148560149Y-143755980D02*
X148522054Y-143832171D01*
X148522054Y-143832171D02*
X148483958Y-143984552D01*
X148483958Y-143984552D02*
X148483958Y-144098838D01*
X148483958Y-144098838D02*
X148522054Y-144251219D01*
X148522054Y-144251219D02*
X148560149Y-144327409D01*
X148560149Y-144327409D02*
X148636339Y-144403600D01*
X148636339Y-144403600D02*
X148750625Y-144441695D01*
X148750625Y-144441695D02*
X148826816Y-144441695D01*
X148826816Y-144441695D02*
X148941101Y-144403600D01*
X148941101Y-144403600D02*
X148979197Y-144365504D01*
X148979197Y-144365504D02*
X148979197Y-144098838D01*
X148979197Y-144098838D02*
X148826816Y-144098838D01*
X117047054Y-80472647D02*
X117313720Y-80472647D01*
X117428006Y-80891695D02*
X117047054Y-80891695D01*
X117047054Y-80891695D02*
X117047054Y-80091695D01*
X117047054Y-80091695D02*
X117428006Y-80091695D01*
X117694673Y-80091695D02*
X118228007Y-80891695D01*
X118228007Y-80091695D02*
X117694673Y-80891695D01*
X118418483Y-80091695D02*
X118875626Y-80091695D01*
X118647054Y-80891695D02*
X118647054Y-80091695D01*
X118951817Y-80967885D02*
X119561340Y-80967885D01*
X119713721Y-80663123D02*
X120094674Y-80663123D01*
X119637531Y-80891695D02*
X119904198Y-80091695D01*
X119904198Y-80091695D02*
X120170864Y-80891695D01*
X120437531Y-80891695D02*
X120437531Y-80091695D01*
X120437531Y-80091695D02*
X120628007Y-80091695D01*
X120628007Y-80091695D02*
X120742293Y-80129790D01*
X120742293Y-80129790D02*
X120818483Y-80205980D01*
X120818483Y-80205980D02*
X120856578Y-80282171D01*
X120856578Y-80282171D02*
X120894674Y-80434552D01*
X120894674Y-80434552D02*
X120894674Y-80548838D01*
X120894674Y-80548838D02*
X120856578Y-80701219D01*
X120856578Y-80701219D02*
X120818483Y-80777409D01*
X120818483Y-80777409D02*
X120742293Y-80853600D01*
X120742293Y-80853600D02*
X120628007Y-80891695D01*
X120628007Y-80891695D02*
X120437531Y-80891695D01*
X121694674Y-80815504D02*
X121656578Y-80853600D01*
X121656578Y-80853600D02*
X121542293Y-80891695D01*
X121542293Y-80891695D02*
X121466102Y-80891695D01*
X121466102Y-80891695D02*
X121351816Y-80853600D01*
X121351816Y-80853600D02*
X121275626Y-80777409D01*
X121275626Y-80777409D02*
X121237531Y-80701219D01*
X121237531Y-80701219D02*
X121199435Y-80548838D01*
X121199435Y-80548838D02*
X121199435Y-80434552D01*
X121199435Y-80434552D02*
X121237531Y-80282171D01*
X121237531Y-80282171D02*
X121275626Y-80205980D01*
X121275626Y-80205980D02*
X121351816Y-80129790D01*
X121351816Y-80129790D02*
X121466102Y-80091695D01*
X121466102Y-80091695D02*
X121542293Y-80091695D01*
X121542293Y-80091695D02*
X121656578Y-80129790D01*
X121656578Y-80129790D02*
X121694674Y-80167885D01*
X118528006Y-105591695D02*
X118147054Y-105591695D01*
X118147054Y-105591695D02*
X118147054Y-104791695D01*
X118947054Y-104791695D02*
X119099435Y-104791695D01*
X119099435Y-104791695D02*
X119175625Y-104829790D01*
X119175625Y-104829790D02*
X119251816Y-104905980D01*
X119251816Y-104905980D02*
X119289911Y-105058361D01*
X119289911Y-105058361D02*
X119289911Y-105325028D01*
X119289911Y-105325028D02*
X119251816Y-105477409D01*
X119251816Y-105477409D02*
X119175625Y-105553600D01*
X119175625Y-105553600D02*
X119099435Y-105591695D01*
X119099435Y-105591695D02*
X118947054Y-105591695D01*
X118947054Y-105591695D02*
X118870863Y-105553600D01*
X118870863Y-105553600D02*
X118794673Y-105477409D01*
X118794673Y-105477409D02*
X118756577Y-105325028D01*
X118756577Y-105325028D02*
X118756577Y-105058361D01*
X118756577Y-105058361D02*
X118794673Y-104905980D01*
X118794673Y-104905980D02*
X118870863Y-104829790D01*
X118870863Y-104829790D02*
X118947054Y-104791695D01*
X119785149Y-104791695D02*
X119937530Y-104791695D01*
X119937530Y-104791695D02*
X120013720Y-104829790D01*
X120013720Y-104829790D02*
X120089911Y-104905980D01*
X120089911Y-104905980D02*
X120128006Y-105058361D01*
X120128006Y-105058361D02*
X120128006Y-105325028D01*
X120128006Y-105325028D02*
X120089911Y-105477409D01*
X120089911Y-105477409D02*
X120013720Y-105553600D01*
X120013720Y-105553600D02*
X119937530Y-105591695D01*
X119937530Y-105591695D02*
X119785149Y-105591695D01*
X119785149Y-105591695D02*
X119708958Y-105553600D01*
X119708958Y-105553600D02*
X119632768Y-105477409D01*
X119632768Y-105477409D02*
X119594672Y-105325028D01*
X119594672Y-105325028D02*
X119594672Y-105058361D01*
X119594672Y-105058361D02*
X119632768Y-104905980D01*
X119632768Y-104905980D02*
X119708958Y-104829790D01*
X119708958Y-104829790D02*
X119785149Y-104791695D01*
X120470863Y-105591695D02*
X120470863Y-104791695D01*
X120470863Y-104791695D02*
X120775625Y-104791695D01*
X120775625Y-104791695D02*
X120851815Y-104829790D01*
X120851815Y-104829790D02*
X120889910Y-104867885D01*
X120889910Y-104867885D02*
X120928006Y-104944076D01*
X120928006Y-104944076D02*
X120928006Y-105058361D01*
X120928006Y-105058361D02*
X120889910Y-105134552D01*
X120889910Y-105134552D02*
X120851815Y-105172647D01*
X120851815Y-105172647D02*
X120775625Y-105210742D01*
X120775625Y-105210742D02*
X120470863Y-105210742D01*
X121080387Y-105667885D02*
X121689910Y-105667885D01*
X122147053Y-105172647D02*
X121880387Y-105172647D01*
X121880387Y-105591695D02*
X121880387Y-104791695D01*
X121880387Y-104791695D02*
X122261339Y-104791695D01*
X122947053Y-105591695D02*
X122566101Y-105591695D01*
X122566101Y-105591695D02*
X122566101Y-104791695D01*
X123099434Y-104791695D02*
X123556577Y-104791695D01*
X123328005Y-105591695D02*
X123328005Y-104791695D01*
X104089911Y-88608361D02*
X104089911Y-89141695D01*
X103899435Y-88303600D02*
X103708958Y-88875028D01*
X103708958Y-88875028D02*
X104204197Y-88875028D01*
X104432768Y-88341695D02*
X104928006Y-88341695D01*
X104928006Y-88341695D02*
X104661340Y-88646457D01*
X104661340Y-88646457D02*
X104775625Y-88646457D01*
X104775625Y-88646457D02*
X104851816Y-88684552D01*
X104851816Y-88684552D02*
X104889911Y-88722647D01*
X104889911Y-88722647D02*
X104928006Y-88798838D01*
X104928006Y-88798838D02*
X104928006Y-88989314D01*
X104928006Y-88989314D02*
X104889911Y-89065504D01*
X104889911Y-89065504D02*
X104851816Y-89103600D01*
X104851816Y-89103600D02*
X104775625Y-89141695D01*
X104775625Y-89141695D02*
X104547054Y-89141695D01*
X104547054Y-89141695D02*
X104470863Y-89103600D01*
X104470863Y-89103600D02*
X104432768Y-89065504D01*
X105651816Y-88341695D02*
X105270864Y-88341695D01*
X105270864Y-88341695D02*
X105232768Y-88722647D01*
X105232768Y-88722647D02*
X105270864Y-88684552D01*
X105270864Y-88684552D02*
X105347054Y-88646457D01*
X105347054Y-88646457D02*
X105537530Y-88646457D01*
X105537530Y-88646457D02*
X105613721Y-88684552D01*
X105613721Y-88684552D02*
X105651816Y-88722647D01*
X105651816Y-88722647D02*
X105689911Y-88798838D01*
X105689911Y-88798838D02*
X105689911Y-88989314D01*
X105689911Y-88989314D02*
X105651816Y-89065504D01*
X105651816Y-89065504D02*
X105613721Y-89103600D01*
X105613721Y-89103600D02*
X105537530Y-89141695D01*
X105537530Y-89141695D02*
X105347054Y-89141695D01*
X105347054Y-89141695D02*
X105270864Y-89103600D01*
X105270864Y-89103600D02*
X105232768Y-89065504D01*
X106185150Y-88341695D02*
X106261340Y-88341695D01*
X106261340Y-88341695D02*
X106337531Y-88379790D01*
X106337531Y-88379790D02*
X106375626Y-88417885D01*
X106375626Y-88417885D02*
X106413721Y-88494076D01*
X106413721Y-88494076D02*
X106451816Y-88646457D01*
X106451816Y-88646457D02*
X106451816Y-88836933D01*
X106451816Y-88836933D02*
X106413721Y-88989314D01*
X106413721Y-88989314D02*
X106375626Y-89065504D01*
X106375626Y-89065504D02*
X106337531Y-89103600D01*
X106337531Y-89103600D02*
X106261340Y-89141695D01*
X106261340Y-89141695D02*
X106185150Y-89141695D01*
X106185150Y-89141695D02*
X106108959Y-89103600D01*
X106108959Y-89103600D02*
X106070864Y-89065504D01*
X106070864Y-89065504D02*
X106032769Y-88989314D01*
X106032769Y-88989314D02*
X105994673Y-88836933D01*
X105994673Y-88836933D02*
X105994673Y-88646457D01*
X105994673Y-88646457D02*
X106032769Y-88494076D01*
X106032769Y-88494076D02*
X106070864Y-88417885D01*
X106070864Y-88417885D02*
X106108959Y-88379790D01*
X106108959Y-88379790D02*
X106185150Y-88341695D01*
X106604198Y-89217885D02*
X107213721Y-89217885D01*
X107366102Y-89103600D02*
X107480388Y-89141695D01*
X107480388Y-89141695D02*
X107670864Y-89141695D01*
X107670864Y-89141695D02*
X107747055Y-89103600D01*
X107747055Y-89103600D02*
X107785150Y-89065504D01*
X107785150Y-89065504D02*
X107823245Y-88989314D01*
X107823245Y-88989314D02*
X107823245Y-88913123D01*
X107823245Y-88913123D02*
X107785150Y-88836933D01*
X107785150Y-88836933D02*
X107747055Y-88798838D01*
X107747055Y-88798838D02*
X107670864Y-88760742D01*
X107670864Y-88760742D02*
X107518483Y-88722647D01*
X107518483Y-88722647D02*
X107442293Y-88684552D01*
X107442293Y-88684552D02*
X107404198Y-88646457D01*
X107404198Y-88646457D02*
X107366102Y-88570266D01*
X107366102Y-88570266D02*
X107366102Y-88494076D01*
X107366102Y-88494076D02*
X107404198Y-88417885D01*
X107404198Y-88417885D02*
X107442293Y-88379790D01*
X107442293Y-88379790D02*
X107518483Y-88341695D01*
X107518483Y-88341695D02*
X107708960Y-88341695D01*
X107708960Y-88341695D02*
X107823245Y-88379790D01*
X108166103Y-89141695D02*
X108166103Y-88341695D01*
X108166103Y-88341695D02*
X108470865Y-88341695D01*
X108470865Y-88341695D02*
X108547055Y-88379790D01*
X108547055Y-88379790D02*
X108585150Y-88417885D01*
X108585150Y-88417885D02*
X108623246Y-88494076D01*
X108623246Y-88494076D02*
X108623246Y-88608361D01*
X108623246Y-88608361D02*
X108585150Y-88684552D01*
X108585150Y-88684552D02*
X108547055Y-88722647D01*
X108547055Y-88722647D02*
X108470865Y-88760742D01*
X108470865Y-88760742D02*
X108166103Y-88760742D01*
X108966103Y-89141695D02*
X108966103Y-88341695D01*
X109156579Y-89217885D02*
X109766102Y-89217885D01*
X110413722Y-89065504D02*
X110375626Y-89103600D01*
X110375626Y-89103600D02*
X110261341Y-89141695D01*
X110261341Y-89141695D02*
X110185150Y-89141695D01*
X110185150Y-89141695D02*
X110070864Y-89103600D01*
X110070864Y-89103600D02*
X109994674Y-89027409D01*
X109994674Y-89027409D02*
X109956579Y-88951219D01*
X109956579Y-88951219D02*
X109918483Y-88798838D01*
X109918483Y-88798838D02*
X109918483Y-88684552D01*
X109918483Y-88684552D02*
X109956579Y-88532171D01*
X109956579Y-88532171D02*
X109994674Y-88455980D01*
X109994674Y-88455980D02*
X110070864Y-88379790D01*
X110070864Y-88379790D02*
X110185150Y-88341695D01*
X110185150Y-88341695D02*
X110261341Y-88341695D01*
X110261341Y-88341695D02*
X110375626Y-88379790D01*
X110375626Y-88379790D02*
X110413722Y-88417885D01*
X111137531Y-89141695D02*
X110756579Y-89141695D01*
X110756579Y-89141695D02*
X110756579Y-88341695D01*
X111404198Y-89141695D02*
X111404198Y-88341695D01*
X111861341Y-89141695D02*
X111518483Y-88684552D01*
X111861341Y-88341695D02*
X111404198Y-88798838D01*
X148404197Y-82091695D02*
X148137530Y-81710742D01*
X147947054Y-82091695D02*
X147947054Y-81291695D01*
X147947054Y-81291695D02*
X148251816Y-81291695D01*
X148251816Y-81291695D02*
X148328006Y-81329790D01*
X148328006Y-81329790D02*
X148366101Y-81367885D01*
X148366101Y-81367885D02*
X148404197Y-81444076D01*
X148404197Y-81444076D02*
X148404197Y-81558361D01*
X148404197Y-81558361D02*
X148366101Y-81634552D01*
X148366101Y-81634552D02*
X148328006Y-81672647D01*
X148328006Y-81672647D02*
X148251816Y-81710742D01*
X148251816Y-81710742D02*
X147947054Y-81710742D01*
X149013720Y-81672647D02*
X148747054Y-81672647D01*
X148747054Y-82091695D02*
X148747054Y-81291695D01*
X148747054Y-81291695D02*
X149128006Y-81291695D01*
X149242292Y-82167885D02*
X149851815Y-82167885D01*
X150042292Y-82091695D02*
X150042292Y-81291695D01*
X150423244Y-82091695D02*
X150423244Y-81291695D01*
X150423244Y-81291695D02*
X150880387Y-82091695D01*
X150880387Y-82091695D02*
X150880387Y-81291695D01*
X109947054Y-100941695D02*
X109947054Y-100141695D01*
X109947054Y-100141695D02*
X110251816Y-100141695D01*
X110251816Y-100141695D02*
X110328006Y-100179790D01*
X110328006Y-100179790D02*
X110366101Y-100217885D01*
X110366101Y-100217885D02*
X110404197Y-100294076D01*
X110404197Y-100294076D02*
X110404197Y-100408361D01*
X110404197Y-100408361D02*
X110366101Y-100484552D01*
X110366101Y-100484552D02*
X110328006Y-100522647D01*
X110328006Y-100522647D02*
X110251816Y-100560742D01*
X110251816Y-100560742D02*
X109947054Y-100560742D01*
X111128006Y-100941695D02*
X110747054Y-100941695D01*
X110747054Y-100941695D02*
X110747054Y-100141695D01*
X111775625Y-100941695D02*
X111394673Y-100941695D01*
X111394673Y-100941695D02*
X111394673Y-100141695D01*
X111851816Y-101017885D02*
X112461339Y-101017885D01*
X113108959Y-100941695D02*
X112842292Y-100560742D01*
X112651816Y-100941695D02*
X112651816Y-100141695D01*
X112651816Y-100141695D02*
X112956578Y-100141695D01*
X112956578Y-100141695D02*
X113032768Y-100179790D01*
X113032768Y-100179790D02*
X113070863Y-100217885D01*
X113070863Y-100217885D02*
X113108959Y-100294076D01*
X113108959Y-100294076D02*
X113108959Y-100408361D01*
X113108959Y-100408361D02*
X113070863Y-100484552D01*
X113070863Y-100484552D02*
X113032768Y-100522647D01*
X113032768Y-100522647D02*
X112956578Y-100560742D01*
X112956578Y-100560742D02*
X112651816Y-100560742D01*
X113451816Y-100522647D02*
X113718482Y-100522647D01*
X113832768Y-100941695D02*
X113451816Y-100941695D01*
X113451816Y-100941695D02*
X113451816Y-100141695D01*
X113451816Y-100141695D02*
X113832768Y-100141695D01*
X114442292Y-100522647D02*
X114175626Y-100522647D01*
X114175626Y-100941695D02*
X114175626Y-100141695D01*
X114175626Y-100141695D02*
X114556578Y-100141695D01*
X127428006Y-86815785D02*
X127047054Y-86815785D01*
X127047054Y-86815785D02*
X127047054Y-86015785D01*
X127847054Y-86015785D02*
X127999435Y-86015785D01*
X127999435Y-86015785D02*
X128075625Y-86053880D01*
X128075625Y-86053880D02*
X128151816Y-86130070D01*
X128151816Y-86130070D02*
X128189911Y-86282451D01*
X128189911Y-86282451D02*
X128189911Y-86549118D01*
X128189911Y-86549118D02*
X128151816Y-86701499D01*
X128151816Y-86701499D02*
X128075625Y-86777690D01*
X128075625Y-86777690D02*
X127999435Y-86815785D01*
X127999435Y-86815785D02*
X127847054Y-86815785D01*
X127847054Y-86815785D02*
X127770863Y-86777690D01*
X127770863Y-86777690D02*
X127694673Y-86701499D01*
X127694673Y-86701499D02*
X127656577Y-86549118D01*
X127656577Y-86549118D02*
X127656577Y-86282451D01*
X127656577Y-86282451D02*
X127694673Y-86130070D01*
X127694673Y-86130070D02*
X127770863Y-86053880D01*
X127770863Y-86053880D02*
X127847054Y-86015785D01*
X128342292Y-86891975D02*
X128951815Y-86891975D01*
X129104196Y-86777690D02*
X129218482Y-86815785D01*
X129218482Y-86815785D02*
X129408958Y-86815785D01*
X129408958Y-86815785D02*
X129485149Y-86777690D01*
X129485149Y-86777690D02*
X129523244Y-86739594D01*
X129523244Y-86739594D02*
X129561339Y-86663404D01*
X129561339Y-86663404D02*
X129561339Y-86587213D01*
X129561339Y-86587213D02*
X129523244Y-86511023D01*
X129523244Y-86511023D02*
X129485149Y-86472928D01*
X129485149Y-86472928D02*
X129408958Y-86434832D01*
X129408958Y-86434832D02*
X129256577Y-86396737D01*
X129256577Y-86396737D02*
X129180387Y-86358642D01*
X129180387Y-86358642D02*
X129142292Y-86320547D01*
X129142292Y-86320547D02*
X129104196Y-86244356D01*
X129104196Y-86244356D02*
X129104196Y-86168166D01*
X129104196Y-86168166D02*
X129142292Y-86091975D01*
X129142292Y-86091975D02*
X129180387Y-86053880D01*
X129180387Y-86053880D02*
X129256577Y-86015785D01*
X129256577Y-86015785D02*
X129447054Y-86015785D01*
X129447054Y-86015785D02*
X129561339Y-86053880D01*
X129828006Y-86015785D02*
X130018482Y-86815785D01*
X130018482Y-86815785D02*
X130170863Y-86244356D01*
X130170863Y-86244356D02*
X130323244Y-86815785D01*
X130323244Y-86815785D02*
X130513721Y-86015785D01*
X130818483Y-86739594D02*
X130856578Y-86777690D01*
X130856578Y-86777690D02*
X130818483Y-86815785D01*
X130818483Y-86815785D02*
X130780387Y-86777690D01*
X130780387Y-86777690D02*
X130818483Y-86739594D01*
X130818483Y-86739594D02*
X130818483Y-86815785D01*
X130818483Y-86320547D02*
X130856578Y-86358642D01*
X130856578Y-86358642D02*
X130818483Y-86396737D01*
X130818483Y-86396737D02*
X130780387Y-86358642D01*
X130780387Y-86358642D02*
X130818483Y-86320547D01*
X130818483Y-86320547D02*
X130818483Y-86396737D01*
X131808959Y-86396737D02*
X132075625Y-86396737D01*
X132189911Y-86815785D02*
X131808959Y-86815785D01*
X131808959Y-86815785D02*
X131808959Y-86015785D01*
X131808959Y-86015785D02*
X132189911Y-86015785D01*
X132456578Y-86015785D02*
X132989912Y-86815785D01*
X132989912Y-86015785D02*
X132456578Y-86815785D01*
X133180388Y-86015785D02*
X133637531Y-86015785D01*
X133408959Y-86815785D02*
X133408959Y-86015785D01*
X131885149Y-88103740D02*
X131885149Y-87303740D01*
X131885149Y-87303740D02*
X132189911Y-87303740D01*
X132189911Y-87303740D02*
X132266101Y-87341835D01*
X132266101Y-87341835D02*
X132304196Y-87379930D01*
X132304196Y-87379930D02*
X132342292Y-87456121D01*
X132342292Y-87456121D02*
X132342292Y-87570406D01*
X132342292Y-87570406D02*
X132304196Y-87646597D01*
X132304196Y-87646597D02*
X132266101Y-87684692D01*
X132266101Y-87684692D02*
X132189911Y-87722787D01*
X132189911Y-87722787D02*
X131885149Y-87722787D01*
X133066101Y-88103740D02*
X132685149Y-88103740D01*
X132685149Y-88103740D02*
X132685149Y-87303740D01*
X133713720Y-88103740D02*
X133332768Y-88103740D01*
X133332768Y-88103740D02*
X133332768Y-87303740D01*
X132151815Y-88972647D02*
X131885149Y-88972647D01*
X131885149Y-89391695D02*
X131885149Y-88591695D01*
X131885149Y-88591695D02*
X132266101Y-88591695D01*
X132570863Y-89391695D02*
X132570863Y-88591695D01*
X132570863Y-88591695D02*
X132875625Y-88591695D01*
X132875625Y-88591695D02*
X132951815Y-88629790D01*
X132951815Y-88629790D02*
X132989910Y-88667885D01*
X132989910Y-88667885D02*
X133028006Y-88744076D01*
X133028006Y-88744076D02*
X133028006Y-88858361D01*
X133028006Y-88858361D02*
X132989910Y-88934552D01*
X132989910Y-88934552D02*
X132951815Y-88972647D01*
X132951815Y-88972647D02*
X132875625Y-89010742D01*
X132875625Y-89010742D02*
X132570863Y-89010742D01*
X133789910Y-88629790D02*
X133713720Y-88591695D01*
X133713720Y-88591695D02*
X133599434Y-88591695D01*
X133599434Y-88591695D02*
X133485148Y-88629790D01*
X133485148Y-88629790D02*
X133408958Y-88705980D01*
X133408958Y-88705980D02*
X133370863Y-88782171D01*
X133370863Y-88782171D02*
X133332767Y-88934552D01*
X133332767Y-88934552D02*
X133332767Y-89048838D01*
X133332767Y-89048838D02*
X133370863Y-89201219D01*
X133370863Y-89201219D02*
X133408958Y-89277409D01*
X133408958Y-89277409D02*
X133485148Y-89353600D01*
X133485148Y-89353600D02*
X133599434Y-89391695D01*
X133599434Y-89391695D02*
X133675625Y-89391695D01*
X133675625Y-89391695D02*
X133789910Y-89353600D01*
X133789910Y-89353600D02*
X133828006Y-89315504D01*
X133828006Y-89315504D02*
X133828006Y-89048838D01*
X133828006Y-89048838D02*
X133675625Y-89048838D01*
X134132767Y-89163123D02*
X134513720Y-89163123D01*
X134056577Y-89391695D02*
X134323244Y-88591695D01*
X134323244Y-88591695D02*
X134589910Y-89391695D01*
X114378006Y-94741695D02*
X113997054Y-94741695D01*
X113997054Y-94741695D02*
X113997054Y-93941695D01*
X114797054Y-93941695D02*
X114949435Y-93941695D01*
X114949435Y-93941695D02*
X115025625Y-93979790D01*
X115025625Y-93979790D02*
X115101816Y-94055980D01*
X115101816Y-94055980D02*
X115139911Y-94208361D01*
X115139911Y-94208361D02*
X115139911Y-94475028D01*
X115139911Y-94475028D02*
X115101816Y-94627409D01*
X115101816Y-94627409D02*
X115025625Y-94703600D01*
X115025625Y-94703600D02*
X114949435Y-94741695D01*
X114949435Y-94741695D02*
X114797054Y-94741695D01*
X114797054Y-94741695D02*
X114720863Y-94703600D01*
X114720863Y-94703600D02*
X114644673Y-94627409D01*
X114644673Y-94627409D02*
X114606577Y-94475028D01*
X114606577Y-94475028D02*
X114606577Y-94208361D01*
X114606577Y-94208361D02*
X114644673Y-94055980D01*
X114644673Y-94055980D02*
X114720863Y-93979790D01*
X114720863Y-93979790D02*
X114797054Y-93941695D01*
X115939911Y-94665504D02*
X115901815Y-94703600D01*
X115901815Y-94703600D02*
X115787530Y-94741695D01*
X115787530Y-94741695D02*
X115711339Y-94741695D01*
X115711339Y-94741695D02*
X115597053Y-94703600D01*
X115597053Y-94703600D02*
X115520863Y-94627409D01*
X115520863Y-94627409D02*
X115482768Y-94551219D01*
X115482768Y-94551219D02*
X115444672Y-94398838D01*
X115444672Y-94398838D02*
X115444672Y-94284552D01*
X115444672Y-94284552D02*
X115482768Y-94132171D01*
X115482768Y-94132171D02*
X115520863Y-94055980D01*
X115520863Y-94055980D02*
X115597053Y-93979790D01*
X115597053Y-93979790D02*
X115711339Y-93941695D01*
X115711339Y-93941695D02*
X115787530Y-93941695D01*
X115787530Y-93941695D02*
X115901815Y-93979790D01*
X115901815Y-93979790D02*
X115939911Y-94017885D01*
X116282768Y-94741695D02*
X116282768Y-93941695D01*
X116739911Y-94741695D02*
X116397053Y-94284552D01*
X116739911Y-93941695D02*
X116282768Y-94398838D01*
X106982768Y-104891695D02*
X107439911Y-104891695D01*
X107211339Y-105691695D02*
X107211339Y-104891695D01*
X107706578Y-105691695D02*
X107706578Y-104891695D01*
X107706578Y-104891695D02*
X107973244Y-105463123D01*
X107973244Y-105463123D02*
X108239911Y-104891695D01*
X108239911Y-104891695D02*
X108239911Y-105691695D01*
X108582768Y-105653600D02*
X108697054Y-105691695D01*
X108697054Y-105691695D02*
X108887530Y-105691695D01*
X108887530Y-105691695D02*
X108963721Y-105653600D01*
X108963721Y-105653600D02*
X109001816Y-105615504D01*
X109001816Y-105615504D02*
X109039911Y-105539314D01*
X109039911Y-105539314D02*
X109039911Y-105463123D01*
X109039911Y-105463123D02*
X109001816Y-105386933D01*
X109001816Y-105386933D02*
X108963721Y-105348838D01*
X108963721Y-105348838D02*
X108887530Y-105310742D01*
X108887530Y-105310742D02*
X108735149Y-105272647D01*
X108735149Y-105272647D02*
X108658959Y-105234552D01*
X108658959Y-105234552D02*
X108620864Y-105196457D01*
X108620864Y-105196457D02*
X108582768Y-105120266D01*
X108582768Y-105120266D02*
X108582768Y-105044076D01*
X108582768Y-105044076D02*
X108620864Y-104967885D01*
X108620864Y-104967885D02*
X108658959Y-104929790D01*
X108658959Y-104929790D02*
X108735149Y-104891695D01*
X108735149Y-104891695D02*
X108925626Y-104891695D01*
X108925626Y-104891695D02*
X109039911Y-104929790D01*
X104089911Y-89858361D02*
X104089911Y-90391695D01*
X103899435Y-89553600D02*
X103708958Y-90125028D01*
X103708958Y-90125028D02*
X104204197Y-90125028D01*
X104432768Y-89591695D02*
X104928006Y-89591695D01*
X104928006Y-89591695D02*
X104661340Y-89896457D01*
X104661340Y-89896457D02*
X104775625Y-89896457D01*
X104775625Y-89896457D02*
X104851816Y-89934552D01*
X104851816Y-89934552D02*
X104889911Y-89972647D01*
X104889911Y-89972647D02*
X104928006Y-90048838D01*
X104928006Y-90048838D02*
X104928006Y-90239314D01*
X104928006Y-90239314D02*
X104889911Y-90315504D01*
X104889911Y-90315504D02*
X104851816Y-90353600D01*
X104851816Y-90353600D02*
X104775625Y-90391695D01*
X104775625Y-90391695D02*
X104547054Y-90391695D01*
X104547054Y-90391695D02*
X104470863Y-90353600D01*
X104470863Y-90353600D02*
X104432768Y-90315504D01*
X105651816Y-89591695D02*
X105270864Y-89591695D01*
X105270864Y-89591695D02*
X105232768Y-89972647D01*
X105232768Y-89972647D02*
X105270864Y-89934552D01*
X105270864Y-89934552D02*
X105347054Y-89896457D01*
X105347054Y-89896457D02*
X105537530Y-89896457D01*
X105537530Y-89896457D02*
X105613721Y-89934552D01*
X105613721Y-89934552D02*
X105651816Y-89972647D01*
X105651816Y-89972647D02*
X105689911Y-90048838D01*
X105689911Y-90048838D02*
X105689911Y-90239314D01*
X105689911Y-90239314D02*
X105651816Y-90315504D01*
X105651816Y-90315504D02*
X105613721Y-90353600D01*
X105613721Y-90353600D02*
X105537530Y-90391695D01*
X105537530Y-90391695D02*
X105347054Y-90391695D01*
X105347054Y-90391695D02*
X105270864Y-90353600D01*
X105270864Y-90353600D02*
X105232768Y-90315504D01*
X106185150Y-89591695D02*
X106261340Y-89591695D01*
X106261340Y-89591695D02*
X106337531Y-89629790D01*
X106337531Y-89629790D02*
X106375626Y-89667885D01*
X106375626Y-89667885D02*
X106413721Y-89744076D01*
X106413721Y-89744076D02*
X106451816Y-89896457D01*
X106451816Y-89896457D02*
X106451816Y-90086933D01*
X106451816Y-90086933D02*
X106413721Y-90239314D01*
X106413721Y-90239314D02*
X106375626Y-90315504D01*
X106375626Y-90315504D02*
X106337531Y-90353600D01*
X106337531Y-90353600D02*
X106261340Y-90391695D01*
X106261340Y-90391695D02*
X106185150Y-90391695D01*
X106185150Y-90391695D02*
X106108959Y-90353600D01*
X106108959Y-90353600D02*
X106070864Y-90315504D01*
X106070864Y-90315504D02*
X106032769Y-90239314D01*
X106032769Y-90239314D02*
X105994673Y-90086933D01*
X105994673Y-90086933D02*
X105994673Y-89896457D01*
X105994673Y-89896457D02*
X106032769Y-89744076D01*
X106032769Y-89744076D02*
X106070864Y-89667885D01*
X106070864Y-89667885D02*
X106108959Y-89629790D01*
X106108959Y-89629790D02*
X106185150Y-89591695D01*
X106604198Y-90467885D02*
X107213721Y-90467885D01*
X107366102Y-90353600D02*
X107480388Y-90391695D01*
X107480388Y-90391695D02*
X107670864Y-90391695D01*
X107670864Y-90391695D02*
X107747055Y-90353600D01*
X107747055Y-90353600D02*
X107785150Y-90315504D01*
X107785150Y-90315504D02*
X107823245Y-90239314D01*
X107823245Y-90239314D02*
X107823245Y-90163123D01*
X107823245Y-90163123D02*
X107785150Y-90086933D01*
X107785150Y-90086933D02*
X107747055Y-90048838D01*
X107747055Y-90048838D02*
X107670864Y-90010742D01*
X107670864Y-90010742D02*
X107518483Y-89972647D01*
X107518483Y-89972647D02*
X107442293Y-89934552D01*
X107442293Y-89934552D02*
X107404198Y-89896457D01*
X107404198Y-89896457D02*
X107366102Y-89820266D01*
X107366102Y-89820266D02*
X107366102Y-89744076D01*
X107366102Y-89744076D02*
X107404198Y-89667885D01*
X107404198Y-89667885D02*
X107442293Y-89629790D01*
X107442293Y-89629790D02*
X107518483Y-89591695D01*
X107518483Y-89591695D02*
X107708960Y-89591695D01*
X107708960Y-89591695D02*
X107823245Y-89629790D01*
X108166103Y-90391695D02*
X108166103Y-89591695D01*
X108166103Y-89591695D02*
X108470865Y-89591695D01*
X108470865Y-89591695D02*
X108547055Y-89629790D01*
X108547055Y-89629790D02*
X108585150Y-89667885D01*
X108585150Y-89667885D02*
X108623246Y-89744076D01*
X108623246Y-89744076D02*
X108623246Y-89858361D01*
X108623246Y-89858361D02*
X108585150Y-89934552D01*
X108585150Y-89934552D02*
X108547055Y-89972647D01*
X108547055Y-89972647D02*
X108470865Y-90010742D01*
X108470865Y-90010742D02*
X108166103Y-90010742D01*
X108966103Y-90391695D02*
X108966103Y-89591695D01*
X109156579Y-90467885D02*
X109766102Y-90467885D01*
X109956579Y-90391695D02*
X109956579Y-89591695D01*
X109956579Y-89591695D02*
X110147055Y-89591695D01*
X110147055Y-89591695D02*
X110261341Y-89629790D01*
X110261341Y-89629790D02*
X110337531Y-89705980D01*
X110337531Y-89705980D02*
X110375626Y-89782171D01*
X110375626Y-89782171D02*
X110413722Y-89934552D01*
X110413722Y-89934552D02*
X110413722Y-90048838D01*
X110413722Y-90048838D02*
X110375626Y-90201219D01*
X110375626Y-90201219D02*
X110337531Y-90277409D01*
X110337531Y-90277409D02*
X110261341Y-90353600D01*
X110261341Y-90353600D02*
X110147055Y-90391695D01*
X110147055Y-90391695D02*
X109956579Y-90391695D01*
X110718483Y-90163123D02*
X111099436Y-90163123D01*
X110642293Y-90391695D02*
X110908960Y-89591695D01*
X110908960Y-89591695D02*
X111175626Y-90391695D01*
X111328007Y-89591695D02*
X111785150Y-89591695D01*
X111556578Y-90391695D02*
X111556578Y-89591695D01*
X112013721Y-90163123D02*
X112394674Y-90163123D01*
X111937531Y-90391695D02*
X112204198Y-89591695D01*
X112204198Y-89591695D02*
X112470864Y-90391695D01*
X134097054Y-81922647D02*
X134363720Y-81922647D01*
X134478006Y-82341695D02*
X134097054Y-82341695D01*
X134097054Y-82341695D02*
X134097054Y-81541695D01*
X134097054Y-81541695D02*
X134478006Y-81541695D01*
X134744673Y-81541695D02*
X135278007Y-82341695D01*
X135278007Y-81541695D02*
X134744673Y-82341695D01*
X135468483Y-81541695D02*
X135925626Y-81541695D01*
X135697054Y-82341695D02*
X135697054Y-81541695D01*
X136001817Y-82417885D02*
X136611340Y-82417885D01*
X137182769Y-82341695D02*
X136801817Y-82341695D01*
X136801817Y-82341695D02*
X136801817Y-81541695D01*
X137601817Y-81541695D02*
X137754198Y-81541695D01*
X137754198Y-81541695D02*
X137830388Y-81579790D01*
X137830388Y-81579790D02*
X137906579Y-81655980D01*
X137906579Y-81655980D02*
X137944674Y-81808361D01*
X137944674Y-81808361D02*
X137944674Y-82075028D01*
X137944674Y-82075028D02*
X137906579Y-82227409D01*
X137906579Y-82227409D02*
X137830388Y-82303600D01*
X137830388Y-82303600D02*
X137754198Y-82341695D01*
X137754198Y-82341695D02*
X137601817Y-82341695D01*
X137601817Y-82341695D02*
X137525626Y-82303600D01*
X137525626Y-82303600D02*
X137449436Y-82227409D01*
X137449436Y-82227409D02*
X137411340Y-82075028D01*
X137411340Y-82075028D02*
X137411340Y-81808361D01*
X137411340Y-81808361D02*
X137449436Y-81655980D01*
X137449436Y-81655980D02*
X137525626Y-81579790D01*
X137525626Y-81579790D02*
X137601817Y-81541695D01*
X104139911Y-91158361D02*
X104139911Y-91691695D01*
X103949435Y-90853600D02*
X103758958Y-91425028D01*
X103758958Y-91425028D02*
X104254197Y-91425028D01*
X104482768Y-90891695D02*
X104978006Y-90891695D01*
X104978006Y-90891695D02*
X104711340Y-91196457D01*
X104711340Y-91196457D02*
X104825625Y-91196457D01*
X104825625Y-91196457D02*
X104901816Y-91234552D01*
X104901816Y-91234552D02*
X104939911Y-91272647D01*
X104939911Y-91272647D02*
X104978006Y-91348838D01*
X104978006Y-91348838D02*
X104978006Y-91539314D01*
X104978006Y-91539314D02*
X104939911Y-91615504D01*
X104939911Y-91615504D02*
X104901816Y-91653600D01*
X104901816Y-91653600D02*
X104825625Y-91691695D01*
X104825625Y-91691695D02*
X104597054Y-91691695D01*
X104597054Y-91691695D02*
X104520863Y-91653600D01*
X104520863Y-91653600D02*
X104482768Y-91615504D01*
X105701816Y-90891695D02*
X105320864Y-90891695D01*
X105320864Y-90891695D02*
X105282768Y-91272647D01*
X105282768Y-91272647D02*
X105320864Y-91234552D01*
X105320864Y-91234552D02*
X105397054Y-91196457D01*
X105397054Y-91196457D02*
X105587530Y-91196457D01*
X105587530Y-91196457D02*
X105663721Y-91234552D01*
X105663721Y-91234552D02*
X105701816Y-91272647D01*
X105701816Y-91272647D02*
X105739911Y-91348838D01*
X105739911Y-91348838D02*
X105739911Y-91539314D01*
X105739911Y-91539314D02*
X105701816Y-91615504D01*
X105701816Y-91615504D02*
X105663721Y-91653600D01*
X105663721Y-91653600D02*
X105587530Y-91691695D01*
X105587530Y-91691695D02*
X105397054Y-91691695D01*
X105397054Y-91691695D02*
X105320864Y-91653600D01*
X105320864Y-91653600D02*
X105282768Y-91615504D01*
X106235150Y-90891695D02*
X106311340Y-90891695D01*
X106311340Y-90891695D02*
X106387531Y-90929790D01*
X106387531Y-90929790D02*
X106425626Y-90967885D01*
X106425626Y-90967885D02*
X106463721Y-91044076D01*
X106463721Y-91044076D02*
X106501816Y-91196457D01*
X106501816Y-91196457D02*
X106501816Y-91386933D01*
X106501816Y-91386933D02*
X106463721Y-91539314D01*
X106463721Y-91539314D02*
X106425626Y-91615504D01*
X106425626Y-91615504D02*
X106387531Y-91653600D01*
X106387531Y-91653600D02*
X106311340Y-91691695D01*
X106311340Y-91691695D02*
X106235150Y-91691695D01*
X106235150Y-91691695D02*
X106158959Y-91653600D01*
X106158959Y-91653600D02*
X106120864Y-91615504D01*
X106120864Y-91615504D02*
X106082769Y-91539314D01*
X106082769Y-91539314D02*
X106044673Y-91386933D01*
X106044673Y-91386933D02*
X106044673Y-91196457D01*
X106044673Y-91196457D02*
X106082769Y-91044076D01*
X106082769Y-91044076D02*
X106120864Y-90967885D01*
X106120864Y-90967885D02*
X106158959Y-90929790D01*
X106158959Y-90929790D02*
X106235150Y-90891695D01*
X106654198Y-91767885D02*
X107263721Y-91767885D01*
X107416102Y-91653600D02*
X107530388Y-91691695D01*
X107530388Y-91691695D02*
X107720864Y-91691695D01*
X107720864Y-91691695D02*
X107797055Y-91653600D01*
X107797055Y-91653600D02*
X107835150Y-91615504D01*
X107835150Y-91615504D02*
X107873245Y-91539314D01*
X107873245Y-91539314D02*
X107873245Y-91463123D01*
X107873245Y-91463123D02*
X107835150Y-91386933D01*
X107835150Y-91386933D02*
X107797055Y-91348838D01*
X107797055Y-91348838D02*
X107720864Y-91310742D01*
X107720864Y-91310742D02*
X107568483Y-91272647D01*
X107568483Y-91272647D02*
X107492293Y-91234552D01*
X107492293Y-91234552D02*
X107454198Y-91196457D01*
X107454198Y-91196457D02*
X107416102Y-91120266D01*
X107416102Y-91120266D02*
X107416102Y-91044076D01*
X107416102Y-91044076D02*
X107454198Y-90967885D01*
X107454198Y-90967885D02*
X107492293Y-90929790D01*
X107492293Y-90929790D02*
X107568483Y-90891695D01*
X107568483Y-90891695D02*
X107758960Y-90891695D01*
X107758960Y-90891695D02*
X107873245Y-90929790D01*
X108216103Y-91691695D02*
X108216103Y-90891695D01*
X108216103Y-90891695D02*
X108520865Y-90891695D01*
X108520865Y-90891695D02*
X108597055Y-90929790D01*
X108597055Y-90929790D02*
X108635150Y-90967885D01*
X108635150Y-90967885D02*
X108673246Y-91044076D01*
X108673246Y-91044076D02*
X108673246Y-91158361D01*
X108673246Y-91158361D02*
X108635150Y-91234552D01*
X108635150Y-91234552D02*
X108597055Y-91272647D01*
X108597055Y-91272647D02*
X108520865Y-91310742D01*
X108520865Y-91310742D02*
X108216103Y-91310742D01*
X109016103Y-91691695D02*
X109016103Y-90891695D01*
X109206579Y-91767885D02*
X109816102Y-91767885D01*
X110387531Y-91691695D02*
X110006579Y-91691695D01*
X110006579Y-91691695D02*
X110006579Y-90891695D01*
X110654198Y-91272647D02*
X110920864Y-91272647D01*
X111035150Y-91691695D02*
X110654198Y-91691695D01*
X110654198Y-91691695D02*
X110654198Y-90891695D01*
X110654198Y-90891695D02*
X111035150Y-90891695D01*
X133708958Y-137363123D02*
X134089911Y-137363123D01*
X133632768Y-137591695D02*
X133899435Y-136791695D01*
X133899435Y-136791695D02*
X134166101Y-137591695D01*
X134432768Y-137591695D02*
X134432768Y-136791695D01*
X134432768Y-136791695D02*
X134623244Y-136791695D01*
X134623244Y-136791695D02*
X134737530Y-136829790D01*
X134737530Y-136829790D02*
X134813720Y-136905980D01*
X134813720Y-136905980D02*
X134851815Y-136982171D01*
X134851815Y-136982171D02*
X134889911Y-137134552D01*
X134889911Y-137134552D02*
X134889911Y-137248838D01*
X134889911Y-137248838D02*
X134851815Y-137401219D01*
X134851815Y-137401219D02*
X134813720Y-137477409D01*
X134813720Y-137477409D02*
X134737530Y-137553600D01*
X134737530Y-137553600D02*
X134623244Y-137591695D01*
X134623244Y-137591695D02*
X134432768Y-137591695D01*
X135689911Y-137515504D02*
X135651815Y-137553600D01*
X135651815Y-137553600D02*
X135537530Y-137591695D01*
X135537530Y-137591695D02*
X135461339Y-137591695D01*
X135461339Y-137591695D02*
X135347053Y-137553600D01*
X135347053Y-137553600D02*
X135270863Y-137477409D01*
X135270863Y-137477409D02*
X135232768Y-137401219D01*
X135232768Y-137401219D02*
X135194672Y-137248838D01*
X135194672Y-137248838D02*
X135194672Y-137134552D01*
X135194672Y-137134552D02*
X135232768Y-136982171D01*
X135232768Y-136982171D02*
X135270863Y-136905980D01*
X135270863Y-136905980D02*
X135347053Y-136829790D01*
X135347053Y-136829790D02*
X135461339Y-136791695D01*
X135461339Y-136791695D02*
X135537530Y-136791695D01*
X135537530Y-136791695D02*
X135651815Y-136829790D01*
X135651815Y-136829790D02*
X135689911Y-136867885D01*
X135842292Y-137667885D02*
X136451815Y-137667885D01*
X137099435Y-137515504D02*
X137061339Y-137553600D01*
X137061339Y-137553600D02*
X136947054Y-137591695D01*
X136947054Y-137591695D02*
X136870863Y-137591695D01*
X136870863Y-137591695D02*
X136756577Y-137553600D01*
X136756577Y-137553600D02*
X136680387Y-137477409D01*
X136680387Y-137477409D02*
X136642292Y-137401219D01*
X136642292Y-137401219D02*
X136604196Y-137248838D01*
X136604196Y-137248838D02*
X136604196Y-137134552D01*
X136604196Y-137134552D02*
X136642292Y-136982171D01*
X136642292Y-136982171D02*
X136680387Y-136905980D01*
X136680387Y-136905980D02*
X136756577Y-136829790D01*
X136756577Y-136829790D02*
X136870863Y-136791695D01*
X136870863Y-136791695D02*
X136947054Y-136791695D01*
X136947054Y-136791695D02*
X137061339Y-136829790D01*
X137061339Y-136829790D02*
X137099435Y-136867885D01*
X137823244Y-137591695D02*
X137442292Y-137591695D01*
X137442292Y-137591695D02*
X137442292Y-136791695D01*
X138089911Y-137591695D02*
X138089911Y-136791695D01*
X138547054Y-137591695D02*
X138204196Y-137134552D01*
X138547054Y-136791695D02*
X138089911Y-137248838D01*
X144882768Y-146091695D02*
X145149435Y-146891695D01*
X145149435Y-146891695D02*
X145416101Y-146091695D01*
X146139911Y-146815504D02*
X146101815Y-146853600D01*
X146101815Y-146853600D02*
X145987530Y-146891695D01*
X145987530Y-146891695D02*
X145911339Y-146891695D01*
X145911339Y-146891695D02*
X145797053Y-146853600D01*
X145797053Y-146853600D02*
X145720863Y-146777409D01*
X145720863Y-146777409D02*
X145682768Y-146701219D01*
X145682768Y-146701219D02*
X145644672Y-146548838D01*
X145644672Y-146548838D02*
X145644672Y-146434552D01*
X145644672Y-146434552D02*
X145682768Y-146282171D01*
X145682768Y-146282171D02*
X145720863Y-146205980D01*
X145720863Y-146205980D02*
X145797053Y-146129790D01*
X145797053Y-146129790D02*
X145911339Y-146091695D01*
X145911339Y-146091695D02*
X145987530Y-146091695D01*
X145987530Y-146091695D02*
X146101815Y-146129790D01*
X146101815Y-146129790D02*
X146139911Y-146167885D01*
X146939911Y-146815504D02*
X146901815Y-146853600D01*
X146901815Y-146853600D02*
X146787530Y-146891695D01*
X146787530Y-146891695D02*
X146711339Y-146891695D01*
X146711339Y-146891695D02*
X146597053Y-146853600D01*
X146597053Y-146853600D02*
X146520863Y-146777409D01*
X146520863Y-146777409D02*
X146482768Y-146701219D01*
X146482768Y-146701219D02*
X146444672Y-146548838D01*
X146444672Y-146548838D02*
X146444672Y-146434552D01*
X146444672Y-146434552D02*
X146482768Y-146282171D01*
X146482768Y-146282171D02*
X146520863Y-146205980D01*
X146520863Y-146205980D02*
X146597053Y-146129790D01*
X146597053Y-146129790D02*
X146711339Y-146091695D01*
X146711339Y-146091695D02*
X146787530Y-146091695D01*
X146787530Y-146091695D02*
X146901815Y-146129790D01*
X146901815Y-146129790D02*
X146939911Y-146167885D01*
X149008304Y-102395863D02*
X149008304Y-102929197D01*
X149008304Y-102929197D02*
X148208304Y-102586339D01*
X148741638Y-103119673D02*
X148741638Y-103424435D01*
X149008304Y-103233959D02*
X148322590Y-103233959D01*
X148322590Y-103233959D02*
X148246400Y-103272054D01*
X148246400Y-103272054D02*
X148208304Y-103348244D01*
X148208304Y-103348244D02*
X148208304Y-103424435D01*
X148208304Y-103691102D02*
X149008304Y-103691102D01*
X148208304Y-104033959D02*
X148627352Y-104033959D01*
X148627352Y-104033959D02*
X148703542Y-103995864D01*
X148703542Y-103995864D02*
X148741638Y-103919673D01*
X148741638Y-103919673D02*
X148741638Y-103805387D01*
X148741638Y-103805387D02*
X148703542Y-103729197D01*
X148703542Y-103729197D02*
X148665447Y-103691102D01*
X148132114Y-104224436D02*
X148132114Y-104833959D01*
X149008304Y-105176817D02*
X149008304Y-105329198D01*
X149008304Y-105329198D02*
X148970209Y-105405388D01*
X148970209Y-105405388D02*
X148894019Y-105481579D01*
X148894019Y-105481579D02*
X148741638Y-105519674D01*
X148741638Y-105519674D02*
X148474971Y-105519674D01*
X148474971Y-105519674D02*
X148322590Y-105481579D01*
X148322590Y-105481579D02*
X148246400Y-105405388D01*
X148246400Y-105405388D02*
X148208304Y-105329198D01*
X148208304Y-105329198D02*
X148208304Y-105176817D01*
X148208304Y-105176817D02*
X148246400Y-105100626D01*
X148246400Y-105100626D02*
X148322590Y-105024436D01*
X148322590Y-105024436D02*
X148474971Y-104986340D01*
X148474971Y-104986340D02*
X148741638Y-104986340D01*
X148741638Y-104986340D02*
X148894019Y-105024436D01*
X148894019Y-105024436D02*
X148970209Y-105100626D01*
X148970209Y-105100626D02*
X149008304Y-105176817D01*
X148208304Y-105862531D02*
X148741638Y-105862531D01*
X148589257Y-105862531D02*
X148665447Y-105900626D01*
X148665447Y-105900626D02*
X148703542Y-105938721D01*
X148703542Y-105938721D02*
X148741638Y-106014912D01*
X148741638Y-106014912D02*
X148741638Y-106091102D01*
X148208304Y-106700626D02*
X149008304Y-106700626D01*
X148246400Y-106700626D02*
X148208304Y-106624435D01*
X148208304Y-106624435D02*
X148208304Y-106472054D01*
X148208304Y-106472054D02*
X148246400Y-106395864D01*
X148246400Y-106395864D02*
X148284495Y-106357769D01*
X148284495Y-106357769D02*
X148360685Y-106319673D01*
X148360685Y-106319673D02*
X148589257Y-106319673D01*
X148589257Y-106319673D02*
X148665447Y-106357769D01*
X148665447Y-106357769D02*
X148703542Y-106395864D01*
X148703542Y-106395864D02*
X148741638Y-106472054D01*
X148741638Y-106472054D02*
X148741638Y-106624435D01*
X148741638Y-106624435D02*
X148703542Y-106700626D01*
X148246400Y-107386341D02*
X148208304Y-107310150D01*
X148208304Y-107310150D02*
X148208304Y-107157769D01*
X148208304Y-107157769D02*
X148246400Y-107081579D01*
X148246400Y-107081579D02*
X148322590Y-107043483D01*
X148322590Y-107043483D02*
X148627352Y-107043483D01*
X148627352Y-107043483D02*
X148703542Y-107081579D01*
X148703542Y-107081579D02*
X148741638Y-107157769D01*
X148741638Y-107157769D02*
X148741638Y-107310150D01*
X148741638Y-107310150D02*
X148703542Y-107386341D01*
X148703542Y-107386341D02*
X148627352Y-107424436D01*
X148627352Y-107424436D02*
X148551161Y-107424436D01*
X148551161Y-107424436D02*
X148474971Y-107043483D01*
X148208304Y-107767293D02*
X148741638Y-107767293D01*
X148589257Y-107767293D02*
X148665447Y-107805388D01*
X148665447Y-107805388D02*
X148703542Y-107843483D01*
X148703542Y-107843483D02*
X148741638Y-107919674D01*
X148741638Y-107919674D02*
X148741638Y-107995864D01*
X148132114Y-108072055D02*
X148132114Y-108681578D01*
X148208304Y-109253007D02*
X148208304Y-108872055D01*
X148208304Y-108872055D02*
X149008304Y-108872055D01*
X148208304Y-109519674D02*
X149008304Y-109519674D01*
X149008304Y-109519674D02*
X149008304Y-109824436D01*
X149008304Y-109824436D02*
X148970209Y-109900626D01*
X148970209Y-109900626D02*
X148932114Y-109938721D01*
X148932114Y-109938721D02*
X148855923Y-109976817D01*
X148855923Y-109976817D02*
X148741638Y-109976817D01*
X148741638Y-109976817D02*
X148665447Y-109938721D01*
X148665447Y-109938721D02*
X148627352Y-109900626D01*
X148627352Y-109900626D02*
X148589257Y-109824436D01*
X148589257Y-109824436D02*
X148589257Y-109519674D01*
X148627352Y-110586340D02*
X148627352Y-110319674D01*
X148208304Y-110319674D02*
X149008304Y-110319674D01*
X149008304Y-110319674D02*
X149008304Y-110700626D01*
X106932768Y-110041695D02*
X107389911Y-110041695D01*
X107161339Y-110841695D02*
X107161339Y-110041695D01*
X107656578Y-110841695D02*
X107656578Y-110041695D01*
X107656578Y-110041695D02*
X107847054Y-110041695D01*
X107847054Y-110041695D02*
X107961340Y-110079790D01*
X107961340Y-110079790D02*
X108037530Y-110155980D01*
X108037530Y-110155980D02*
X108075625Y-110232171D01*
X108075625Y-110232171D02*
X108113721Y-110384552D01*
X108113721Y-110384552D02*
X108113721Y-110498838D01*
X108113721Y-110498838D02*
X108075625Y-110651219D01*
X108075625Y-110651219D02*
X108037530Y-110727409D01*
X108037530Y-110727409D02*
X107961340Y-110803600D01*
X107961340Y-110803600D02*
X107847054Y-110841695D01*
X107847054Y-110841695D02*
X107656578Y-110841695D01*
X108608959Y-110041695D02*
X108761340Y-110041695D01*
X108761340Y-110041695D02*
X108837530Y-110079790D01*
X108837530Y-110079790D02*
X108913721Y-110155980D01*
X108913721Y-110155980D02*
X108951816Y-110308361D01*
X108951816Y-110308361D02*
X108951816Y-110575028D01*
X108951816Y-110575028D02*
X108913721Y-110727409D01*
X108913721Y-110727409D02*
X108837530Y-110803600D01*
X108837530Y-110803600D02*
X108761340Y-110841695D01*
X108761340Y-110841695D02*
X108608959Y-110841695D01*
X108608959Y-110841695D02*
X108532768Y-110803600D01*
X108532768Y-110803600D02*
X108456578Y-110727409D01*
X108456578Y-110727409D02*
X108418482Y-110575028D01*
X108418482Y-110575028D02*
X108418482Y-110308361D01*
X108418482Y-110308361D02*
X108456578Y-110155980D01*
X108456578Y-110155980D02*
X108532768Y-110079790D01*
X108532768Y-110079790D02*
X108608959Y-110041695D01*
X105713720Y-118322647D02*
X105447054Y-118322647D01*
X105447054Y-118741695D02*
X105447054Y-117941695D01*
X105447054Y-117941695D02*
X105828006Y-117941695D01*
X106132768Y-118741695D02*
X106132768Y-117941695D01*
X106132768Y-117941695D02*
X106437530Y-117941695D01*
X106437530Y-117941695D02*
X106513720Y-117979790D01*
X106513720Y-117979790D02*
X106551815Y-118017885D01*
X106551815Y-118017885D02*
X106589911Y-118094076D01*
X106589911Y-118094076D02*
X106589911Y-118208361D01*
X106589911Y-118208361D02*
X106551815Y-118284552D01*
X106551815Y-118284552D02*
X106513720Y-118322647D01*
X106513720Y-118322647D02*
X106437530Y-118360742D01*
X106437530Y-118360742D02*
X106132768Y-118360742D01*
X107351815Y-117979790D02*
X107275625Y-117941695D01*
X107275625Y-117941695D02*
X107161339Y-117941695D01*
X107161339Y-117941695D02*
X107047053Y-117979790D01*
X107047053Y-117979790D02*
X106970863Y-118055980D01*
X106970863Y-118055980D02*
X106932768Y-118132171D01*
X106932768Y-118132171D02*
X106894672Y-118284552D01*
X106894672Y-118284552D02*
X106894672Y-118398838D01*
X106894672Y-118398838D02*
X106932768Y-118551219D01*
X106932768Y-118551219D02*
X106970863Y-118627409D01*
X106970863Y-118627409D02*
X107047053Y-118703600D01*
X107047053Y-118703600D02*
X107161339Y-118741695D01*
X107161339Y-118741695D02*
X107237530Y-118741695D01*
X107237530Y-118741695D02*
X107351815Y-118703600D01*
X107351815Y-118703600D02*
X107389911Y-118665504D01*
X107389911Y-118665504D02*
X107389911Y-118398838D01*
X107389911Y-118398838D02*
X107237530Y-118398838D01*
X107694672Y-118513123D02*
X108075625Y-118513123D01*
X107618482Y-118741695D02*
X107885149Y-117941695D01*
X107885149Y-117941695D02*
X108151815Y-118741695D01*
X108228006Y-118817885D02*
X108837529Y-118817885D01*
X109485149Y-118665504D02*
X109447053Y-118703600D01*
X109447053Y-118703600D02*
X109332768Y-118741695D01*
X109332768Y-118741695D02*
X109256577Y-118741695D01*
X109256577Y-118741695D02*
X109142291Y-118703600D01*
X109142291Y-118703600D02*
X109066101Y-118627409D01*
X109066101Y-118627409D02*
X109028006Y-118551219D01*
X109028006Y-118551219D02*
X108989910Y-118398838D01*
X108989910Y-118398838D02*
X108989910Y-118284552D01*
X108989910Y-118284552D02*
X109028006Y-118132171D01*
X109028006Y-118132171D02*
X109066101Y-118055980D01*
X109066101Y-118055980D02*
X109142291Y-117979790D01*
X109142291Y-117979790D02*
X109256577Y-117941695D01*
X109256577Y-117941695D02*
X109332768Y-117941695D01*
X109332768Y-117941695D02*
X109447053Y-117979790D01*
X109447053Y-117979790D02*
X109485149Y-118017885D01*
X110208958Y-118741695D02*
X109828006Y-118741695D01*
X109828006Y-118741695D02*
X109828006Y-117941695D01*
X110475625Y-118741695D02*
X110475625Y-117941695D01*
X110932768Y-118741695D02*
X110589910Y-118284552D01*
X110932768Y-117941695D02*
X110475625Y-118398838D01*
X145316101Y-143729790D02*
X145239911Y-143691695D01*
X145239911Y-143691695D02*
X145125625Y-143691695D01*
X145125625Y-143691695D02*
X145011339Y-143729790D01*
X145011339Y-143729790D02*
X144935149Y-143805980D01*
X144935149Y-143805980D02*
X144897054Y-143882171D01*
X144897054Y-143882171D02*
X144858958Y-144034552D01*
X144858958Y-144034552D02*
X144858958Y-144148838D01*
X144858958Y-144148838D02*
X144897054Y-144301219D01*
X144897054Y-144301219D02*
X144935149Y-144377409D01*
X144935149Y-144377409D02*
X145011339Y-144453600D01*
X145011339Y-144453600D02*
X145125625Y-144491695D01*
X145125625Y-144491695D02*
X145201816Y-144491695D01*
X145201816Y-144491695D02*
X145316101Y-144453600D01*
X145316101Y-144453600D02*
X145354197Y-144415504D01*
X145354197Y-144415504D02*
X145354197Y-144148838D01*
X145354197Y-144148838D02*
X145201816Y-144148838D01*
X145697054Y-144491695D02*
X145697054Y-143691695D01*
X145697054Y-143691695D02*
X146154197Y-144491695D01*
X146154197Y-144491695D02*
X146154197Y-143691695D01*
X146535149Y-144491695D02*
X146535149Y-143691695D01*
X146535149Y-143691695D02*
X146725625Y-143691695D01*
X146725625Y-143691695D02*
X146839911Y-143729790D01*
X146839911Y-143729790D02*
X146916101Y-143805980D01*
X146916101Y-143805980D02*
X146954196Y-143882171D01*
X146954196Y-143882171D02*
X146992292Y-144034552D01*
X146992292Y-144034552D02*
X146992292Y-144148838D01*
X146992292Y-144148838D02*
X146954196Y-144301219D01*
X146954196Y-144301219D02*
X146916101Y-144377409D01*
X146916101Y-144377409D02*
X146839911Y-144453600D01*
X146839911Y-144453600D02*
X146725625Y-144491695D01*
X146725625Y-144491695D02*
X146535149Y-144491695D01*
X125133304Y-109372054D02*
X125933304Y-109372054D01*
X125933304Y-109372054D02*
X125933304Y-109676816D01*
X125933304Y-109676816D02*
X125895209Y-109753006D01*
X125895209Y-109753006D02*
X125857114Y-109791101D01*
X125857114Y-109791101D02*
X125780923Y-109829197D01*
X125780923Y-109829197D02*
X125666638Y-109829197D01*
X125666638Y-109829197D02*
X125590447Y-109791101D01*
X125590447Y-109791101D02*
X125552352Y-109753006D01*
X125552352Y-109753006D02*
X125514257Y-109676816D01*
X125514257Y-109676816D02*
X125514257Y-109372054D01*
X125133304Y-110629197D02*
X125514257Y-110362530D01*
X125133304Y-110172054D02*
X125933304Y-110172054D01*
X125933304Y-110172054D02*
X125933304Y-110476816D01*
X125933304Y-110476816D02*
X125895209Y-110553006D01*
X125895209Y-110553006D02*
X125857114Y-110591101D01*
X125857114Y-110591101D02*
X125780923Y-110629197D01*
X125780923Y-110629197D02*
X125666638Y-110629197D01*
X125666638Y-110629197D02*
X125590447Y-110591101D01*
X125590447Y-110591101D02*
X125552352Y-110553006D01*
X125552352Y-110553006D02*
X125514257Y-110476816D01*
X125514257Y-110476816D02*
X125514257Y-110172054D01*
X125933304Y-111124435D02*
X125933304Y-111276816D01*
X125933304Y-111276816D02*
X125895209Y-111353006D01*
X125895209Y-111353006D02*
X125819019Y-111429197D01*
X125819019Y-111429197D02*
X125666638Y-111467292D01*
X125666638Y-111467292D02*
X125399971Y-111467292D01*
X125399971Y-111467292D02*
X125247590Y-111429197D01*
X125247590Y-111429197D02*
X125171400Y-111353006D01*
X125171400Y-111353006D02*
X125133304Y-111276816D01*
X125133304Y-111276816D02*
X125133304Y-111124435D01*
X125133304Y-111124435D02*
X125171400Y-111048244D01*
X125171400Y-111048244D02*
X125247590Y-110972054D01*
X125247590Y-110972054D02*
X125399971Y-110933958D01*
X125399971Y-110933958D02*
X125666638Y-110933958D01*
X125666638Y-110933958D02*
X125819019Y-110972054D01*
X125819019Y-110972054D02*
X125895209Y-111048244D01*
X125895209Y-111048244D02*
X125933304Y-111124435D01*
X125895209Y-112229196D02*
X125933304Y-112153006D01*
X125933304Y-112153006D02*
X125933304Y-112038720D01*
X125933304Y-112038720D02*
X125895209Y-111924434D01*
X125895209Y-111924434D02*
X125819019Y-111848244D01*
X125819019Y-111848244D02*
X125742828Y-111810149D01*
X125742828Y-111810149D02*
X125590447Y-111772053D01*
X125590447Y-111772053D02*
X125476161Y-111772053D01*
X125476161Y-111772053D02*
X125323780Y-111810149D01*
X125323780Y-111810149D02*
X125247590Y-111848244D01*
X125247590Y-111848244D02*
X125171400Y-111924434D01*
X125171400Y-111924434D02*
X125133304Y-112038720D01*
X125133304Y-112038720D02*
X125133304Y-112114911D01*
X125133304Y-112114911D02*
X125171400Y-112229196D01*
X125171400Y-112229196D02*
X125209495Y-112267292D01*
X125209495Y-112267292D02*
X125476161Y-112267292D01*
X125476161Y-112267292D02*
X125476161Y-112114911D01*
X125133304Y-113067292D02*
X125514257Y-112800625D01*
X125133304Y-112610149D02*
X125933304Y-112610149D01*
X125933304Y-112610149D02*
X125933304Y-112914911D01*
X125933304Y-112914911D02*
X125895209Y-112991101D01*
X125895209Y-112991101D02*
X125857114Y-113029196D01*
X125857114Y-113029196D02*
X125780923Y-113067292D01*
X125780923Y-113067292D02*
X125666638Y-113067292D01*
X125666638Y-113067292D02*
X125590447Y-113029196D01*
X125590447Y-113029196D02*
X125552352Y-112991101D01*
X125552352Y-112991101D02*
X125514257Y-112914911D01*
X125514257Y-112914911D02*
X125514257Y-112610149D01*
X125361876Y-113372053D02*
X125361876Y-113753006D01*
X125133304Y-113295863D02*
X125933304Y-113562530D01*
X125933304Y-113562530D02*
X125133304Y-113829196D01*
X125133304Y-114095863D02*
X125933304Y-114095863D01*
X125933304Y-114095863D02*
X125361876Y-114362529D01*
X125361876Y-114362529D02*
X125933304Y-114629196D01*
X125933304Y-114629196D02*
X125133304Y-114629196D01*
X125552352Y-115276815D02*
X125514257Y-115391101D01*
X125514257Y-115391101D02*
X125476161Y-115429196D01*
X125476161Y-115429196D02*
X125399971Y-115467292D01*
X125399971Y-115467292D02*
X125285685Y-115467292D01*
X125285685Y-115467292D02*
X125209495Y-115429196D01*
X125209495Y-115429196D02*
X125171400Y-115391101D01*
X125171400Y-115391101D02*
X125133304Y-115314911D01*
X125133304Y-115314911D02*
X125133304Y-115010149D01*
X125133304Y-115010149D02*
X125933304Y-115010149D01*
X125933304Y-115010149D02*
X125933304Y-115276815D01*
X125933304Y-115276815D02*
X125895209Y-115353006D01*
X125895209Y-115353006D02*
X125857114Y-115391101D01*
X125857114Y-115391101D02*
X125780923Y-115429196D01*
X125780923Y-115429196D02*
X125704733Y-115429196D01*
X125704733Y-115429196D02*
X125628542Y-115391101D01*
X125628542Y-115391101D02*
X125590447Y-115353006D01*
X125590447Y-115353006D02*
X125552352Y-115276815D01*
X125552352Y-115276815D02*
X125552352Y-115010149D01*
X106982768Y-112641695D02*
X107439911Y-112641695D01*
X107211339Y-113441695D02*
X107211339Y-112641695D01*
X107706578Y-113441695D02*
X107706578Y-112641695D01*
X107706578Y-112641695D02*
X107897054Y-112641695D01*
X107897054Y-112641695D02*
X108011340Y-112679790D01*
X108011340Y-112679790D02*
X108087530Y-112755980D01*
X108087530Y-112755980D02*
X108125625Y-112832171D01*
X108125625Y-112832171D02*
X108163721Y-112984552D01*
X108163721Y-112984552D02*
X108163721Y-113098838D01*
X108163721Y-113098838D02*
X108125625Y-113251219D01*
X108125625Y-113251219D02*
X108087530Y-113327409D01*
X108087530Y-113327409D02*
X108011340Y-113403600D01*
X108011340Y-113403600D02*
X107897054Y-113441695D01*
X107897054Y-113441695D02*
X107706578Y-113441695D01*
X108506578Y-113441695D02*
X108506578Y-112641695D01*
X149447054Y-128341695D02*
X149447054Y-127541695D01*
X150094672Y-127922647D02*
X149828006Y-127922647D01*
X149828006Y-128341695D02*
X149828006Y-127541695D01*
X149828006Y-127541695D02*
X150208958Y-127541695D01*
X150323244Y-128417885D02*
X150932767Y-128417885D01*
X151275625Y-127541695D02*
X151428006Y-127541695D01*
X151428006Y-127541695D02*
X151504196Y-127579790D01*
X151504196Y-127579790D02*
X151580387Y-127655980D01*
X151580387Y-127655980D02*
X151618482Y-127808361D01*
X151618482Y-127808361D02*
X151618482Y-128075028D01*
X151618482Y-128075028D02*
X151580387Y-128227409D01*
X151580387Y-128227409D02*
X151504196Y-128303600D01*
X151504196Y-128303600D02*
X151428006Y-128341695D01*
X151428006Y-128341695D02*
X151275625Y-128341695D01*
X151275625Y-128341695D02*
X151199434Y-128303600D01*
X151199434Y-128303600D02*
X151123244Y-128227409D01*
X151123244Y-128227409D02*
X151085148Y-128075028D01*
X151085148Y-128075028D02*
X151085148Y-127808361D01*
X151085148Y-127808361D02*
X151123244Y-127655980D01*
X151123244Y-127655980D02*
X151199434Y-127579790D01*
X151199434Y-127579790D02*
X151275625Y-127541695D01*
X151961339Y-127541695D02*
X151961339Y-128189314D01*
X151961339Y-128189314D02*
X151999434Y-128265504D01*
X151999434Y-128265504D02*
X152037529Y-128303600D01*
X152037529Y-128303600D02*
X152113720Y-128341695D01*
X152113720Y-128341695D02*
X152266101Y-128341695D01*
X152266101Y-128341695D02*
X152342291Y-128303600D01*
X152342291Y-128303600D02*
X152380386Y-128265504D01*
X152380386Y-128265504D02*
X152418482Y-128189314D01*
X152418482Y-128189314D02*
X152418482Y-127541695D01*
X152685148Y-127541695D02*
X153142291Y-127541695D01*
X152913719Y-128341695D02*
X152913719Y-127541695D01*
X107516101Y-115329790D02*
X107439911Y-115291695D01*
X107439911Y-115291695D02*
X107325625Y-115291695D01*
X107325625Y-115291695D02*
X107211339Y-115329790D01*
X107211339Y-115329790D02*
X107135149Y-115405980D01*
X107135149Y-115405980D02*
X107097054Y-115482171D01*
X107097054Y-115482171D02*
X107058958Y-115634552D01*
X107058958Y-115634552D02*
X107058958Y-115748838D01*
X107058958Y-115748838D02*
X107097054Y-115901219D01*
X107097054Y-115901219D02*
X107135149Y-115977409D01*
X107135149Y-115977409D02*
X107211339Y-116053600D01*
X107211339Y-116053600D02*
X107325625Y-116091695D01*
X107325625Y-116091695D02*
X107401816Y-116091695D01*
X107401816Y-116091695D02*
X107516101Y-116053600D01*
X107516101Y-116053600D02*
X107554197Y-116015504D01*
X107554197Y-116015504D02*
X107554197Y-115748838D01*
X107554197Y-115748838D02*
X107401816Y-115748838D01*
X107897054Y-116091695D02*
X107897054Y-115291695D01*
X107897054Y-115291695D02*
X108354197Y-116091695D01*
X108354197Y-116091695D02*
X108354197Y-115291695D01*
X108735149Y-116091695D02*
X108735149Y-115291695D01*
X108735149Y-115291695D02*
X108925625Y-115291695D01*
X108925625Y-115291695D02*
X109039911Y-115329790D01*
X109039911Y-115329790D02*
X109116101Y-115405980D01*
X109116101Y-115405980D02*
X109154196Y-115482171D01*
X109154196Y-115482171D02*
X109192292Y-115634552D01*
X109192292Y-115634552D02*
X109192292Y-115748838D01*
X109192292Y-115748838D02*
X109154196Y-115901219D01*
X109154196Y-115901219D02*
X109116101Y-115977409D01*
X109116101Y-115977409D02*
X109039911Y-116053600D01*
X109039911Y-116053600D02*
X108925625Y-116091695D01*
X108925625Y-116091695D02*
X108735149Y-116091695D01*
X120416695Y-115149374D02*
X120988123Y-115149374D01*
X120988123Y-115149374D02*
X121102409Y-115187469D01*
X121102409Y-115187469D02*
X121178600Y-115263660D01*
X121178600Y-115263660D02*
X121216695Y-115377945D01*
X121216695Y-115377945D02*
X121216695Y-115454136D01*
X120416695Y-114882707D02*
X120416695Y-114425564D01*
X121216695Y-114654136D02*
X120416695Y-114654136D01*
X120988123Y-114196993D02*
X120988123Y-113816040D01*
X121216695Y-114273183D02*
X120416695Y-114006516D01*
X120416695Y-114006516D02*
X121216695Y-113739850D01*
X120454790Y-113054136D02*
X120416695Y-113130326D01*
X120416695Y-113130326D02*
X120416695Y-113244612D01*
X120416695Y-113244612D02*
X120454790Y-113358898D01*
X120454790Y-113358898D02*
X120530980Y-113435088D01*
X120530980Y-113435088D02*
X120607171Y-113473183D01*
X120607171Y-113473183D02*
X120759552Y-113511279D01*
X120759552Y-113511279D02*
X120873838Y-113511279D01*
X120873838Y-113511279D02*
X121026219Y-113473183D01*
X121026219Y-113473183D02*
X121102409Y-113435088D01*
X121102409Y-113435088D02*
X121178600Y-113358898D01*
X121178600Y-113358898D02*
X121216695Y-113244612D01*
X121216695Y-113244612D02*
X121216695Y-113168421D01*
X121216695Y-113168421D02*
X121178600Y-113054136D01*
X121178600Y-113054136D02*
X121140504Y-113016040D01*
X121140504Y-113016040D02*
X120873838Y-113016040D01*
X120873838Y-113016040D02*
X120873838Y-113168421D01*
X121292885Y-112863660D02*
X121292885Y-112254136D01*
X120797647Y-112063659D02*
X120797647Y-111796993D01*
X121216695Y-111682707D02*
X121216695Y-112063659D01*
X121216695Y-112063659D02*
X120416695Y-112063659D01*
X120416695Y-112063659D02*
X120416695Y-111682707D01*
X121216695Y-111339849D02*
X120416695Y-111339849D01*
X120416695Y-111339849D02*
X121216695Y-110882706D01*
X121216695Y-110882706D02*
X120416695Y-110882706D01*
X106932768Y-107491695D02*
X107389911Y-107491695D01*
X107161339Y-108291695D02*
X107161339Y-107491695D01*
X108113721Y-108215504D02*
X108075625Y-108253600D01*
X108075625Y-108253600D02*
X107961340Y-108291695D01*
X107961340Y-108291695D02*
X107885149Y-108291695D01*
X107885149Y-108291695D02*
X107770863Y-108253600D01*
X107770863Y-108253600D02*
X107694673Y-108177409D01*
X107694673Y-108177409D02*
X107656578Y-108101219D01*
X107656578Y-108101219D02*
X107618482Y-107948838D01*
X107618482Y-107948838D02*
X107618482Y-107834552D01*
X107618482Y-107834552D02*
X107656578Y-107682171D01*
X107656578Y-107682171D02*
X107694673Y-107605980D01*
X107694673Y-107605980D02*
X107770863Y-107529790D01*
X107770863Y-107529790D02*
X107885149Y-107491695D01*
X107885149Y-107491695D02*
X107961340Y-107491695D01*
X107961340Y-107491695D02*
X108075625Y-107529790D01*
X108075625Y-107529790D02*
X108113721Y-107567885D01*
X108456578Y-108291695D02*
X108456578Y-107491695D01*
X108913721Y-108291695D02*
X108570863Y-107834552D01*
X108913721Y-107491695D02*
X108456578Y-107948838D01*
X106547054Y-130141695D02*
X106547054Y-129341695D01*
X106547054Y-129341695D02*
X106737530Y-129341695D01*
X106737530Y-129341695D02*
X106851816Y-129379790D01*
X106851816Y-129379790D02*
X106928006Y-129455980D01*
X106928006Y-129455980D02*
X106966101Y-129532171D01*
X106966101Y-129532171D02*
X107004197Y-129684552D01*
X107004197Y-129684552D02*
X107004197Y-129798838D01*
X107004197Y-129798838D02*
X106966101Y-129951219D01*
X106966101Y-129951219D02*
X106928006Y-130027409D01*
X106928006Y-130027409D02*
X106851816Y-130103600D01*
X106851816Y-130103600D02*
X106737530Y-130141695D01*
X106737530Y-130141695D02*
X106547054Y-130141695D01*
X107499435Y-129341695D02*
X107651816Y-129341695D01*
X107651816Y-129341695D02*
X107728006Y-129379790D01*
X107728006Y-129379790D02*
X107804197Y-129455980D01*
X107804197Y-129455980D02*
X107842292Y-129608361D01*
X107842292Y-129608361D02*
X107842292Y-129875028D01*
X107842292Y-129875028D02*
X107804197Y-130027409D01*
X107804197Y-130027409D02*
X107728006Y-130103600D01*
X107728006Y-130103600D02*
X107651816Y-130141695D01*
X107651816Y-130141695D02*
X107499435Y-130141695D01*
X107499435Y-130141695D02*
X107423244Y-130103600D01*
X107423244Y-130103600D02*
X107347054Y-130027409D01*
X107347054Y-130027409D02*
X107308958Y-129875028D01*
X107308958Y-129875028D02*
X107308958Y-129608361D01*
X107308958Y-129608361D02*
X107347054Y-129455980D01*
X107347054Y-129455980D02*
X107423244Y-129379790D01*
X107423244Y-129379790D02*
X107499435Y-129341695D01*
X108185149Y-130141695D02*
X108185149Y-129341695D01*
X108185149Y-129341695D02*
X108642292Y-130141695D01*
X108642292Y-130141695D02*
X108642292Y-129341695D01*
X109023244Y-129722647D02*
X109289910Y-129722647D01*
X109404196Y-130141695D02*
X109023244Y-130141695D01*
X109023244Y-130141695D02*
X109023244Y-129341695D01*
X109023244Y-129341695D02*
X109404196Y-129341695D01*
X106808958Y-125113123D02*
X107189911Y-125113123D01*
X106732768Y-125341695D02*
X106999435Y-124541695D01*
X106999435Y-124541695D02*
X107266101Y-125341695D01*
X107989911Y-125265504D02*
X107951815Y-125303600D01*
X107951815Y-125303600D02*
X107837530Y-125341695D01*
X107837530Y-125341695D02*
X107761339Y-125341695D01*
X107761339Y-125341695D02*
X107647053Y-125303600D01*
X107647053Y-125303600D02*
X107570863Y-125227409D01*
X107570863Y-125227409D02*
X107532768Y-125151219D01*
X107532768Y-125151219D02*
X107494672Y-124998838D01*
X107494672Y-124998838D02*
X107494672Y-124884552D01*
X107494672Y-124884552D02*
X107532768Y-124732171D01*
X107532768Y-124732171D02*
X107570863Y-124655980D01*
X107570863Y-124655980D02*
X107647053Y-124579790D01*
X107647053Y-124579790D02*
X107761339Y-124541695D01*
X107761339Y-124541695D02*
X107837530Y-124541695D01*
X107837530Y-124541695D02*
X107951815Y-124579790D01*
X107951815Y-124579790D02*
X107989911Y-124617885D01*
X108218482Y-124541695D02*
X108675625Y-124541695D01*
X108447053Y-125341695D02*
X108447053Y-124541695D01*
X109170863Y-125646457D02*
X109132768Y-125608361D01*
X109132768Y-125608361D02*
X109056577Y-125494076D01*
X109056577Y-125494076D02*
X109018482Y-125417885D01*
X109018482Y-125417885D02*
X108980387Y-125303600D01*
X108980387Y-125303600D02*
X108942292Y-125113123D01*
X108942292Y-125113123D02*
X108942292Y-124960742D01*
X108942292Y-124960742D02*
X108980387Y-124770266D01*
X108980387Y-124770266D02*
X109018482Y-124655980D01*
X109018482Y-124655980D02*
X109056577Y-124579790D01*
X109056577Y-124579790D02*
X109132768Y-124465504D01*
X109132768Y-124465504D02*
X109170863Y-124427409D01*
X109894672Y-125341695D02*
X109437529Y-125341695D01*
X109666101Y-125341695D02*
X109666101Y-124541695D01*
X109666101Y-124541695D02*
X109589910Y-124655980D01*
X109589910Y-124655980D02*
X109513720Y-124732171D01*
X109513720Y-124732171D02*
X109437529Y-124770266D01*
X110199434Y-124617885D02*
X110237530Y-124579790D01*
X110237530Y-124579790D02*
X110313720Y-124541695D01*
X110313720Y-124541695D02*
X110504196Y-124541695D01*
X110504196Y-124541695D02*
X110580387Y-124579790D01*
X110580387Y-124579790D02*
X110618482Y-124617885D01*
X110618482Y-124617885D02*
X110656577Y-124694076D01*
X110656577Y-124694076D02*
X110656577Y-124770266D01*
X110656577Y-124770266D02*
X110618482Y-124884552D01*
X110618482Y-124884552D02*
X110161339Y-125341695D01*
X110161339Y-125341695D02*
X110656577Y-125341695D01*
X110923244Y-125646457D02*
X110961339Y-125608361D01*
X110961339Y-125608361D02*
X111037530Y-125494076D01*
X111037530Y-125494076D02*
X111075625Y-125417885D01*
X111075625Y-125417885D02*
X111113720Y-125303600D01*
X111113720Y-125303600D02*
X111151816Y-125113123D01*
X111151816Y-125113123D02*
X111151816Y-124960742D01*
X111151816Y-124960742D02*
X111113720Y-124770266D01*
X111113720Y-124770266D02*
X111075625Y-124655980D01*
X111075625Y-124655980D02*
X111037530Y-124579790D01*
X111037530Y-124579790D02*
X110961339Y-124465504D01*
X110961339Y-124465504D02*
X110923244Y-124427409D01*
D11*
%TO.C,R16*%
X151275242Y-143122500D02*
X151749758Y-143122500D01*
X151275242Y-142077500D02*
X151749758Y-142077500D01*
%TO.C,D2*%
X147562500Y-143285000D02*
X149847500Y-143285000D01*
X149847500Y-141815000D02*
X147562500Y-141815000D01*
X149847500Y-143285000D02*
X149847500Y-141815000D01*
%TO.C,J1*%
X149719999Y-140025000D02*
X151639999Y-140025000D01*
X151639999Y-130865000D02*
X149719999Y-130865000D01*
X153649999Y-130865000D02*
X155354999Y-130865000D01*
X155354999Y-130865000D02*
X155354999Y-140025000D01*
X155354999Y-140025000D02*
X153649999Y-140025000D01*
%TO.C,C6*%
X132740580Y-111102500D02*
X132459420Y-111102500D01*
X132740580Y-112122500D02*
X132459420Y-112122500D01*
%TO.C,U9*%
X109337500Y-83090000D02*
X108537500Y-83090000D01*
X109337500Y-83090000D02*
X110137500Y-83090000D01*
X109337500Y-86210000D02*
X108537500Y-86210000D01*
X109337500Y-86210000D02*
X110137500Y-86210000D01*
X108037500Y-83140000D02*
X107797500Y-82810000D01*
X108277500Y-82810000D01*
X108037500Y-83140000D01*
G36*
X108037500Y-83140000D02*
G01*
X107797500Y-82810000D01*
X108277500Y-82810000D01*
X108037500Y-83140000D01*
G37*
%TO.C,C37*%
X111677500Y-83103080D02*
X111677500Y-82821920D01*
X112697500Y-83103080D02*
X112697500Y-82821920D01*
%TO.C,R11*%
X124487742Y-97677500D02*
X124962258Y-97677500D01*
X124487742Y-98722500D02*
X124962258Y-98722500D01*
%TO.C,C32*%
X111727500Y-86421920D02*
X111727500Y-86703080D01*
X112747500Y-86421920D02*
X112747500Y-86703080D01*
%TO.C,C18*%
X142852500Y-126590581D02*
X142852500Y-126309421D01*
X143872500Y-126590581D02*
X143872500Y-126309421D01*
%TO.C,X1*%
X106775000Y-119150000D02*
X106775000Y-122300000D01*
X106775000Y-122300000D02*
X110575000Y-122300000D01*
%TO.C,C49*%
X109715000Y-97259420D02*
X109715000Y-97540580D01*
X110735000Y-97259420D02*
X110735000Y-97540580D01*
%TO.C,C1*%
X143465000Y-87059420D02*
X143465000Y-87340580D01*
X144485000Y-87059420D02*
X144485000Y-87340580D01*
%TO.C,R18*%
X123415000Y-114187259D02*
X123415000Y-113712743D01*
X124460000Y-114187259D02*
X124460000Y-113712743D01*
%TO.C,C17*%
X141352500Y-126590581D02*
X141352500Y-126309421D01*
X142372500Y-126590581D02*
X142372500Y-126309421D01*
%TO.C,C61*%
X127659420Y-97690000D02*
X127940580Y-97690000D01*
X127659420Y-98710000D02*
X127940580Y-98710000D01*
%TO.C,X2*%
X111150000Y-95350000D02*
X111150000Y-99150000D01*
X114300000Y-95350000D02*
X111150000Y-95350000D01*
%TO.C,C14*%
X142471920Y-123640001D02*
X142753080Y-123640001D01*
X142471920Y-124660001D02*
X142753080Y-124660001D01*
%TO.C,U1*%
X112852500Y-117690000D02*
X112852500Y-118390000D01*
X112852500Y-131910000D02*
X112852500Y-131210000D01*
X113552500Y-117690000D02*
X112852500Y-117690000D01*
X113552500Y-131910000D02*
X112852500Y-131910000D01*
X126372500Y-117690000D02*
X127072500Y-117690000D01*
X126372500Y-131910000D02*
X127072500Y-131910000D01*
X127072500Y-117690000D02*
X127072500Y-118390000D01*
X127072500Y-131910000D02*
X127072500Y-131210000D01*
X112262500Y-118390000D02*
X111922500Y-117920000D01*
X112602500Y-117920000D01*
X112262500Y-118390000D01*
G36*
X112262500Y-118390000D02*
G01*
X111922500Y-117920000D01*
X112602500Y-117920000D01*
X112262500Y-118390000D01*
G37*
%TO.C,J11*%
X130145000Y-98110000D02*
X130145000Y-90370000D01*
X132745000Y-95510000D02*
X132745000Y-98110000D01*
X132745000Y-98110000D02*
X130145000Y-98110000D01*
X135345000Y-90370000D02*
X130145000Y-90370000D01*
X135345000Y-95510000D02*
X132745000Y-95510000D01*
X135345000Y-95510000D02*
X135345000Y-90370000D01*
X135345000Y-96780000D02*
X135345000Y-98110000D01*
X135345000Y-98110000D02*
X134015000Y-98110000D01*
%TO.C,C51*%
X118105000Y-91551920D02*
X118105000Y-91833080D01*
X119125000Y-91551920D02*
X119125000Y-91833080D01*
%TO.C,C3*%
X144286252Y-137065000D02*
X143763748Y-137065000D01*
X144286252Y-138535000D02*
X143763748Y-138535000D01*
%TO.C,J9*%
X103595000Y-96020000D02*
X103595000Y-101160000D01*
X103595000Y-96020000D02*
X106255000Y-96020000D01*
X103595000Y-101160000D02*
X106255000Y-101160000D01*
X104925000Y-93420000D02*
X106255000Y-93420000D01*
X106255000Y-93420000D02*
X106255000Y-94750000D01*
X106255000Y-96020000D02*
X106255000Y-101160000D01*
%TO.C,C57*%
X121355000Y-91551920D02*
X121355000Y-91833080D01*
X122375000Y-91551920D02*
X122375000Y-91833080D01*
%TO.C,L7*%
X146365000Y-109487221D02*
X146365000Y-109812779D01*
X147385000Y-109487221D02*
X147385000Y-109812779D01*
%TO.C,C24*%
X139315000Y-97909420D02*
X139315000Y-98190580D01*
X140335000Y-97909420D02*
X140335000Y-98190580D01*
%TO.C,C58*%
X121209420Y-103340000D02*
X121490580Y-103340000D01*
X121209420Y-104360000D02*
X121490580Y-104360000D01*
%TO.C,J3*%
X103570000Y-114230000D02*
X103570000Y-104010000D01*
X103570000Y-116830000D02*
X103570000Y-115500000D01*
X104900000Y-116830000D02*
X103570000Y-116830000D01*
X106230000Y-104010000D02*
X103570000Y-104010000D01*
X106230000Y-114230000D02*
X103570000Y-114230000D01*
X106230000Y-114230000D02*
X106230000Y-104010000D01*
%TO.C,J4*%
X148685000Y-76272500D02*
X147575000Y-76272500D01*
X148685000Y-79522500D02*
X147575000Y-79522500D01*
X149275000Y-80572500D02*
X149775000Y-80572500D01*
X149525000Y-80072500D02*
X149275000Y-80572500D01*
X149775000Y-80572500D02*
X149525000Y-80072500D01*
X151475000Y-76272500D02*
X150365000Y-76272500D01*
X151475000Y-79522500D02*
X150365000Y-79522500D01*
%TO.C,L3*%
X139074622Y-95090000D02*
X138275378Y-95090000D01*
X139074622Y-96210000D02*
X138275378Y-96210000D01*
%TO.C,U8*%
X133065000Y-108600000D02*
X133065000Y-107800000D01*
X133065000Y-108600000D02*
X133065000Y-109400000D01*
X136185000Y-108600000D02*
X136185000Y-107800000D01*
X136185000Y-108600000D02*
X136185000Y-109400000D01*
X136465000Y-107540000D02*
X136135000Y-107300000D01*
X136465000Y-107060000D01*
X136465000Y-107540000D01*
G36*
X136465000Y-107540000D02*
G01*
X136135000Y-107300000D01*
X136465000Y-107060000D01*
X136465000Y-107540000D01*
G37*
%TO.C,R15*%
X128012258Y-99177500D02*
X127537742Y-99177500D01*
X128012258Y-100222500D02*
X127537742Y-100222500D01*
%TO.C,C7*%
X136434420Y-111102500D02*
X136715580Y-111102500D01*
X136434420Y-112122500D02*
X136715580Y-112122500D01*
%TO.C,C54*%
X113635000Y-91546920D02*
X113635000Y-91828080D01*
X114655000Y-91546920D02*
X114655000Y-91828080D01*
%TO.C,C29*%
X113552500Y-108796920D02*
X113552500Y-109078080D01*
X114572500Y-108796920D02*
X114572500Y-109078080D01*
%TO.C,C4*%
X105877500Y-84121920D02*
X105877500Y-84403080D01*
X106897500Y-84121920D02*
X106897500Y-84403080D01*
%TO.C,U2*%
X146540000Y-113960000D02*
X146540000Y-112550000D01*
X148860000Y-113950000D02*
X148860000Y-112550000D01*
X146590000Y-114330000D02*
X146260000Y-114570000D01*
X146260000Y-114090000D01*
X146590000Y-114330000D01*
G36*
X146590000Y-114330000D02*
G01*
X146260000Y-114570000D01*
X146260000Y-114090000D01*
X146590000Y-114330000D01*
G37*
D12*
%TO.C,U3*%
X132837500Y-120000001D02*
X132837500Y-120575001D01*
X132837500Y-120000001D02*
X138587500Y-120000001D01*
X132837500Y-130075001D02*
X132837500Y-130650001D01*
X132837500Y-130650001D02*
X138587500Y-130650001D01*
X138587500Y-120000001D02*
X138587500Y-120575001D01*
X138587500Y-130075001D02*
X138587500Y-130650001D01*
D11*
X132337500Y-120575001D02*
X132097500Y-120245001D01*
X132577500Y-120245001D01*
X132337500Y-120575001D01*
G36*
X132337500Y-120575001D02*
G01*
X132097500Y-120245001D01*
X132577500Y-120245001D01*
X132337500Y-120575001D01*
G37*
%TO.C,R4*%
X150862742Y-117077500D02*
X151337258Y-117077500D01*
X150862742Y-118122500D02*
X151337258Y-118122500D01*
%TO.C,L5*%
X146365000Y-103537221D02*
X146365000Y-103862779D01*
X147385000Y-103537221D02*
X147385000Y-103862779D01*
%TO.C,L4*%
X139537878Y-85940000D02*
X140337122Y-85940000D01*
X139537878Y-87060000D02*
X140337122Y-87060000D01*
%TO.C,R19*%
X104462742Y-127727500D02*
X104937258Y-127727500D01*
X104462742Y-128772500D02*
X104937258Y-128772500D01*
%TO.C,R3*%
X146362742Y-117127500D02*
X146837258Y-117127500D01*
X146362742Y-118172500D02*
X146837258Y-118172500D01*
%TO.C,C60*%
X117065000Y-102959420D02*
X117065000Y-103240580D01*
X118085000Y-102959420D02*
X118085000Y-103240580D01*
%TO.C,C62*%
X127659420Y-96200000D02*
X127940580Y-96200000D01*
X127659420Y-97220000D02*
X127940580Y-97220000D01*
%TO.C,D4*%
X106240001Y-125865000D02*
X106240001Y-127335000D01*
X106240001Y-127335000D02*
X108525001Y-127335000D01*
X108525001Y-125865000D02*
X106240001Y-125865000D01*
%TO.C,R12*%
X124487742Y-96177500D02*
X124962258Y-96177500D01*
X124487742Y-97222500D02*
X124962258Y-97222500D01*
%TO.C,R8*%
X139187258Y-91927500D02*
X138712742Y-91927500D01*
X139187258Y-92972500D02*
X138712742Y-92972500D01*
%TO.C,D1*%
X110730000Y-93677500D02*
X110730000Y-95147500D01*
X110730000Y-95147500D02*
X113015000Y-95147500D01*
X113015000Y-93677500D02*
X110730000Y-93677500D01*
%TO.C,J6*%
X135335000Y-76472500D02*
X134225000Y-76472500D01*
X135335000Y-79722500D02*
X134225000Y-79722500D01*
X135925000Y-80772500D02*
X136425000Y-80772500D01*
X136175000Y-80272500D02*
X135925000Y-80772500D01*
X136425000Y-80772500D02*
X136175000Y-80272500D01*
X138125000Y-76472500D02*
X137015000Y-76472500D01*
X138125000Y-79722500D02*
X137015000Y-79722500D01*
%TO.C,U7*%
X117200000Y-94725000D02*
X117200000Y-95250000D01*
X117200000Y-94725000D02*
X117725000Y-94725000D01*
X117200000Y-99500000D02*
X117200000Y-99675000D01*
X117675000Y-99975000D02*
X117440000Y-99975000D01*
X122450000Y-94725000D02*
X121925000Y-94725000D01*
X122450000Y-94725000D02*
X122450000Y-95250000D01*
X122450000Y-99975000D02*
X121925000Y-99975000D01*
X122450000Y-99975000D02*
X122450000Y-99450000D01*
X117200000Y-99975000D02*
X116870000Y-100215000D01*
X116870000Y-99735000D01*
X117200000Y-99975000D01*
G36*
X117200000Y-99975000D02*
G01*
X116870000Y-100215000D01*
X116870000Y-99735000D01*
X117200000Y-99975000D01*
G37*
%TO.C,C9*%
X148340000Y-116684420D02*
X148340000Y-116965580D01*
X149360000Y-116684420D02*
X149360000Y-116965580D01*
%TO.C,X3*%
X133925000Y-131625000D02*
X133925000Y-134775000D01*
X133925000Y-134775000D02*
X137725000Y-134775000D01*
%TO.C,C25*%
X139065580Y-93490000D02*
X138784420Y-93490000D01*
X139065580Y-94510000D02*
X138784420Y-94510000D01*
%TO.C,C50*%
X114765000Y-98640580D02*
X114765000Y-98359420D01*
X115785000Y-98640580D02*
X115785000Y-98359420D01*
%TO.C,U5*%
X144400000Y-92535000D02*
X142450000Y-92535000D01*
X144400000Y-92535000D02*
X146350000Y-92535000D01*
X144400000Y-97655000D02*
X142450000Y-97655000D01*
X144400000Y-97655000D02*
X146350000Y-97655000D01*
X147340000Y-97890000D02*
X146860000Y-97890000D01*
X147100000Y-97560000D01*
X147340000Y-97890000D01*
G36*
X147340000Y-97890000D02*
G01*
X146860000Y-97890000D01*
X147100000Y-97560000D01*
X147340000Y-97890000D01*
G37*
%TO.C,R9*%
X142812258Y-90977500D02*
X142337742Y-90977500D01*
X142812258Y-92022500D02*
X142337742Y-92022500D01*
%TO.C,C27*%
X143865000Y-115084420D02*
X143865000Y-115365580D01*
X144885000Y-115084420D02*
X144885000Y-115365580D01*
%TO.C,C65*%
X145965000Y-81784420D02*
X145965000Y-82065580D01*
X146985000Y-81784420D02*
X146985000Y-82065580D01*
%TO.C,C12*%
X144484420Y-107690000D02*
X144765580Y-107690000D01*
X144484420Y-108710000D02*
X144765580Y-108710000D01*
%TO.C,J8*%
X145745000Y-121705000D02*
X145745000Y-119105000D01*
X148405000Y-119105000D02*
X145745000Y-119105000D01*
X148405000Y-121705000D02*
X145745000Y-121705000D01*
X148405000Y-121705000D02*
X148405000Y-119105000D01*
X148405000Y-122975000D02*
X148405000Y-124305000D01*
X148405000Y-124305000D02*
X147075000Y-124305000D01*
%TO.C,R7*%
X118552500Y-102862742D02*
X118552500Y-103337258D01*
X119597500Y-102862742D02*
X119597500Y-103337258D01*
%TO.C,C26*%
X144484420Y-109940000D02*
X144765580Y-109940000D01*
X144484420Y-110960000D02*
X144765580Y-110960000D01*
%TO.C,C13*%
X142446920Y-122140001D02*
X142728080Y-122140001D01*
X142446920Y-123160001D02*
X142728080Y-123160001D01*
%TO.C,C22*%
X136165000Y-93109420D02*
X136165000Y-93390580D01*
X137185000Y-93109420D02*
X137185000Y-93390580D01*
%TO.C,C10*%
X144484420Y-102402500D02*
X144765580Y-102402500D01*
X144484420Y-103422500D02*
X144765580Y-103422500D01*
%TO.C,R17*%
X121915000Y-114162259D02*
X121915000Y-113687743D01*
X122960000Y-114162259D02*
X122960000Y-113687743D01*
%TO.C,C28*%
X142315000Y-115084420D02*
X142315000Y-115365580D01*
X143335000Y-115084420D02*
X143335000Y-115365580D01*
%TO.C,C56*%
X108384420Y-122695001D02*
X108665580Y-122695001D01*
X108384420Y-123715001D02*
X108665580Y-123715001D01*
%TO.C,C53*%
X115125000Y-91561920D02*
X115125000Y-91843080D01*
X116145000Y-91561920D02*
X116145000Y-91843080D01*
%TO.C,C52*%
X116625000Y-91536920D02*
X116625000Y-91818080D01*
X117645000Y-91536920D02*
X117645000Y-91818080D01*
%TO.C,C5*%
X135265580Y-105002500D02*
X134984420Y-105002500D01*
X135265580Y-106022500D02*
X134984420Y-106022500D01*
%TO.C,L1*%
X139862878Y-114015000D02*
X140662122Y-114015000D01*
X139862878Y-115135000D02*
X140662122Y-115135000D01*
%TO.C,C30*%
X119402500Y-111221920D02*
X119402500Y-111503080D01*
X120422500Y-111221920D02*
X120422500Y-111503080D01*
%TO.C,C16*%
X145471920Y-126690001D02*
X145753080Y-126690001D01*
X145471920Y-127710001D02*
X145753080Y-127710001D01*
%TO.C,C23*%
X146515000Y-99790580D02*
X146515000Y-99509420D01*
X147535000Y-99790580D02*
X147535000Y-99509420D01*
%TO.C,J2*%
X148802500Y-122800000D02*
X148802500Y-123300000D01*
X148802500Y-123300000D02*
X149302500Y-123050000D01*
X149302500Y-123050000D02*
X148802500Y-122800000D01*
X149852500Y-122210000D02*
X149852500Y-121100000D01*
X149852500Y-125000000D02*
X149852500Y-123890000D01*
X153102500Y-122210000D02*
X153102500Y-121100000D01*
X153102500Y-125000000D02*
X153102500Y-123890000D01*
%TO.C,C55*%
X122815000Y-91576920D02*
X122815000Y-91858080D01*
X123835000Y-91576920D02*
X123835000Y-91858080D01*
%TO.C,C11*%
X144484420Y-104752500D02*
X144765580Y-104752500D01*
X144484420Y-105772500D02*
X144765580Y-105772500D01*
%TO.C,R21*%
X104967259Y-126057501D02*
X104492743Y-126057501D01*
X104967259Y-127102501D02*
X104492743Y-127102501D01*
%TO.C,R10*%
X121087742Y-101827500D02*
X121562258Y-101827500D01*
X121087742Y-102872500D02*
X121562258Y-102872500D01*
%TO.C,C15*%
X145496920Y-125190001D02*
X145778080Y-125190001D01*
X145496920Y-126210001D02*
X145778080Y-126210001D01*
%TO.C,U6*%
X117025000Y-107727500D02*
X116225000Y-107727500D01*
X117025000Y-107727500D02*
X117825000Y-107727500D01*
X117025000Y-110847500D02*
X116225000Y-110847500D01*
X117025000Y-110847500D02*
X117825000Y-110847500D01*
X115725000Y-107777500D02*
X115485000Y-107447500D01*
X115965000Y-107447500D01*
X115725000Y-107777500D01*
G36*
X115725000Y-107777500D02*
G01*
X115485000Y-107447500D01*
X115965000Y-107447500D01*
X115725000Y-107777500D01*
G37*
%TO.C,C2*%
X141965000Y-87059420D02*
X141965000Y-87340580D01*
X142985000Y-87059420D02*
X142985000Y-87340580D01*
%TO.C,R6*%
X109377258Y-93920000D02*
X108902742Y-93920000D01*
X109377258Y-94965000D02*
X108902742Y-94965000D01*
%TO.C,C59*%
X123065000Y-102934420D02*
X123065000Y-103215580D01*
X124085000Y-102934420D02*
X124085000Y-103215580D01*
%TO.C,D3*%
X106937500Y-128995000D02*
X109222500Y-128995000D01*
X109222500Y-127525000D02*
X106937500Y-127525000D01*
X109222500Y-128995000D02*
X109222500Y-127525000D01*
%TO.C,U4*%
X145915000Y-85910000D02*
X145915000Y-84500000D01*
X148235000Y-85900000D02*
X148235000Y-84500000D01*
X145965000Y-86280000D02*
X145635000Y-86520000D01*
X145635000Y-86040000D01*
X145965000Y-86280000D01*
G36*
X145965000Y-86280000D02*
G01*
X145635000Y-86520000D01*
X145635000Y-86040000D01*
X145965000Y-86280000D01*
G37*
%TO.C,C31*%
X119402500Y-107728080D02*
X119402500Y-107446920D01*
X120422500Y-107728080D02*
X120422500Y-107446920D01*
%TO.C,C63*%
X135634420Y-135165000D02*
X135915580Y-135165000D01*
X135634420Y-136185000D02*
X135915580Y-136185000D01*
%TO.C,C21*%
X146515000Y-90359420D02*
X146515000Y-90640580D01*
X147535000Y-90359420D02*
X147535000Y-90640580D01*
%TO.C,L6*%
X146365000Y-106499721D02*
X146365000Y-106825279D01*
X147385000Y-106499721D02*
X147385000Y-106825279D01*
%TD*%
M02*
