%TF.GenerationSoftware,KiCad,Pcbnew,8.0.4-8.0.4-0~ubuntu22.04.1*%
%TF.CreationDate,2024-09-01T23:10:33+08:00*%
%TF.ProjectId,R820T_With_LCMXO2,52383230-545f-4576-9974-685f4c434d58,rev?*%
%TF.SameCoordinates,Original*%
%TF.FileFunction,Soldermask,Bot*%
%TF.FilePolarity,Negative*%
%FSLAX46Y46*%
G04 Gerber Fmt 4.6, Leading zero omitted, Abs format (unit mm)*
G04 Created by KiCad (PCBNEW 8.0.4-8.0.4-0~ubuntu22.04.1) date 2024-09-01 23:10:33*
%MOMM*%
%LPD*%
G01*
G04 APERTURE LIST*
G04 Aperture macros list*
%AMRoundRect*
0 Rectangle with rounded corners*
0 $1 Rounding radius*
0 $2 $3 $4 $5 $6 $7 $8 $9 X,Y pos of 4 corners*
0 Add a 4 corners polygon primitive as box body*
4,1,4,$2,$3,$4,$5,$6,$7,$8,$9,$2,$3,0*
0 Add four circle primitives for the rounded corners*
1,1,$1+$1,$2,$3*
1,1,$1+$1,$4,$5*
1,1,$1+$1,$6,$7*
1,1,$1+$1,$8,$9*
0 Add four rect primitives between the rounded corners*
20,1,$1+$1,$2,$3,$4,$5,0*
20,1,$1+$1,$4,$5,$6,$7,0*
20,1,$1+$1,$6,$7,$8,$9,0*
20,1,$1+$1,$8,$9,$2,$3,0*%
G04 Aperture macros list end*
%ADD10C,0.650000*%
%ADD11O,2.100000X1.000000*%
%ADD12O,1.800000X1.000000*%
%ADD13R,1.700000X1.700000*%
%ADD14O,1.700000X1.700000*%
%ADD15RoundRect,0.250000X0.425000X1.600000X-0.425000X1.600000X-0.425000X-1.600000X0.425000X-1.600000X0*%
%ADD16RoundRect,0.250000X1.600000X-0.425000X1.600000X0.425000X-1.600000X0.425000X-1.600000X-0.425000X0*%
%ADD17RoundRect,0.225000X0.225000X0.250000X-0.225000X0.250000X-0.225000X-0.250000X0.225000X-0.250000X0*%
%ADD18RoundRect,0.200000X-0.275000X0.200000X-0.275000X-0.200000X0.275000X-0.200000X0.275000X0.200000X0*%
%ADD19RoundRect,0.225000X0.250000X-0.225000X0.250000X0.225000X-0.250000X0.225000X-0.250000X-0.225000X0*%
%ADD20RoundRect,0.225000X-0.225000X-0.250000X0.225000X-0.250000X0.225000X0.250000X-0.225000X0.250000X0*%
%ADD21RoundRect,0.200000X0.275000X-0.200000X0.275000X0.200000X-0.275000X0.200000X-0.275000X-0.200000X0*%
%ADD22RoundRect,0.200000X0.200000X0.275000X-0.200000X0.275000X-0.200000X-0.275000X0.200000X-0.275000X0*%
%ADD23RoundRect,0.218750X0.381250X-0.218750X0.381250X0.218750X-0.381250X0.218750X-0.381250X-0.218750X0*%
%ADD24RoundRect,0.218750X-0.218750X-0.381250X0.218750X-0.381250X0.218750X0.381250X-0.218750X0.381250X0*%
%ADD25RoundRect,0.225000X-0.250000X0.225000X-0.250000X-0.225000X0.250000X-0.225000X0.250000X0.225000X0*%
G04 APERTURE END LIST*
D10*
%TO.C,J1*%
X148964999Y-138335000D03*
X148964999Y-132555000D03*
D11*
X148444999Y-139765000D03*
D12*
X152644999Y-139765000D03*
D11*
X148444999Y-131125000D03*
D12*
X152644999Y-131125000D03*
%TD*%
D13*
%TO.C,J11*%
X134015000Y-96780000D03*
D14*
X131475000Y-96780000D03*
X134015000Y-94240000D03*
X131475000Y-94240000D03*
X134015000Y-91700000D03*
X131475000Y-91700000D03*
%TD*%
D13*
%TO.C,J9*%
X104925000Y-94750000D03*
D14*
X104925000Y-97290000D03*
X104925000Y-99830000D03*
%TD*%
D13*
%TO.C,J3*%
X104900000Y-115500000D03*
D14*
X104900000Y-112960000D03*
X104900000Y-110420000D03*
X104900000Y-107880000D03*
X104900000Y-105340000D03*
%TD*%
D15*
%TO.C,J4*%
X146700000Y-78062500D03*
X152350000Y-78062500D03*
%TD*%
%TO.C,J6*%
X133350000Y-78262500D03*
X139000000Y-78262500D03*
%TD*%
D13*
%TO.C,J8*%
X147075000Y-122975000D03*
D14*
X147075000Y-120435000D03*
%TD*%
D16*
%TO.C,J2*%
X151312500Y-120225000D03*
X151312500Y-125875000D03*
%TD*%
D17*
%TO.C,C47*%
X122725000Y-94150000D03*
X121175000Y-94150000D03*
%TD*%
D18*
%TO.C,R13*%
X125625000Y-96575000D03*
X125625000Y-98225000D03*
%TD*%
D19*
%TO.C,C40*%
X123937500Y-131875001D03*
X123937500Y-130325001D03*
%TD*%
D18*
%TO.C,R5*%
X119325000Y-94150000D03*
X119325000Y-95800000D03*
%TD*%
D19*
%TO.C,C43*%
X119625000Y-100875000D03*
X119625000Y-99325000D03*
%TD*%
D20*
%TO.C,C38*%
X113887500Y-129850001D03*
X115437500Y-129850001D03*
%TD*%
D17*
%TO.C,C42*%
X126262500Y-128850001D03*
X124712500Y-128850001D03*
%TD*%
%TO.C,C48*%
X122875000Y-95650000D03*
X121325000Y-95650000D03*
%TD*%
D20*
%TO.C,C35*%
X113837500Y-120800001D03*
X115387500Y-120800001D03*
%TD*%
D17*
%TO.C,C8*%
X139675000Y-95650000D03*
X138125000Y-95650000D03*
%TD*%
D19*
%TO.C,C20*%
X137462500Y-122825001D03*
X137462500Y-121275001D03*
%TD*%
%TO.C,C39*%
X125987500Y-131875001D03*
X125987500Y-130325001D03*
%TD*%
D21*
%TO.C,R14*%
X127125000Y-96825000D03*
X127125000Y-95175000D03*
%TD*%
D22*
%TO.C,R1*%
X152225000Y-133700000D03*
X150575000Y-133700000D03*
%TD*%
D20*
%TO.C,C44*%
X116315000Y-97392500D03*
X117865000Y-97392500D03*
%TD*%
D19*
%TO.C,C19*%
X133812500Y-122275001D03*
X133812500Y-120725001D03*
%TD*%
D13*
%TO.C,J5*%
X107287113Y-77844521D03*
D14*
X109827113Y-77844521D03*
X112367113Y-77844521D03*
X114907113Y-77844521D03*
X117447113Y-77844521D03*
X119987113Y-77844521D03*
X122527113Y-77844521D03*
X125067113Y-77844521D03*
X127607113Y-77844521D03*
X130147113Y-77844521D03*
%TD*%
D20*
%TO.C,C41*%
X113912500Y-131350001D03*
X115462500Y-131350001D03*
%TD*%
D22*
%TO.C,R2*%
X152225000Y-136650000D03*
X150575000Y-136650000D03*
%TD*%
D13*
%TO.C,J7*%
X107273600Y-146756254D03*
D14*
X107273600Y-144216254D03*
X109813600Y-146756254D03*
X109813600Y-144216254D03*
X112353600Y-146756254D03*
X112353600Y-144216254D03*
X114893600Y-146756254D03*
X114893600Y-144216254D03*
X117433600Y-146756254D03*
X117433600Y-144216254D03*
X119973600Y-146756254D03*
X119973600Y-144216254D03*
X122513600Y-146756254D03*
X122513600Y-144216254D03*
X125053600Y-146756254D03*
X125053600Y-144216254D03*
X127593600Y-146756254D03*
X127593600Y-144216254D03*
X130133600Y-146756254D03*
X130133600Y-144216254D03*
X132673600Y-146756254D03*
X132673600Y-144216254D03*
X135213600Y-146756254D03*
X135213600Y-144216254D03*
X137753600Y-146756254D03*
X137753600Y-144216254D03*
X140293600Y-146756254D03*
X140293600Y-144216254D03*
X142833600Y-146756254D03*
X142833600Y-144216254D03*
%TD*%
D23*
%TO.C,L2*%
X135462500Y-122437501D03*
X135462500Y-120312501D03*
%TD*%
D20*
%TO.C,C46*%
X116325000Y-98900000D03*
X117875000Y-98900000D03*
%TD*%
%TO.C,C36*%
X113812500Y-123800001D03*
X115362500Y-123800001D03*
%TD*%
%TO.C,C45*%
X116340000Y-95882500D03*
X117890000Y-95882500D03*
%TD*%
D17*
%TO.C,C34*%
X126237500Y-119850001D03*
X124687500Y-119850001D03*
%TD*%
%TO.C,C64*%
X122750000Y-98600000D03*
X121200000Y-98600000D03*
%TD*%
D24*
%TO.C,L8*%
X120475000Y-92500000D03*
X122600000Y-92500000D03*
%TD*%
D25*
%TO.C,C33*%
X113937500Y-117775001D03*
X113937500Y-119325001D03*
%TD*%
M02*
