%TF.GenerationSoftware,KiCad,Pcbnew,8.0.4-8.0.4-0~ubuntu22.04.1*%
%TF.CreationDate,2024-09-01T23:10:33+08:00*%
%TF.ProjectId,R820T_With_LCMXO2,52383230-545f-4576-9974-685f4c434d58,rev?*%
%TF.SameCoordinates,Original*%
%TF.FileFunction,Copper,L1,Top*%
%TF.FilePolarity,Positive*%
%FSLAX46Y46*%
G04 Gerber Fmt 4.6, Leading zero omitted, Abs format (unit mm)*
G04 Created by KiCad (PCBNEW 8.0.4-8.0.4-0~ubuntu22.04.1) date 2024-09-01 23:10:33*
%MOMM*%
%LPD*%
G01*
G04 APERTURE LIST*
G04 Aperture macros list*
%AMRoundRect*
0 Rectangle with rounded corners*
0 $1 Rounding radius*
0 $2 $3 $4 $5 $6 $7 $8 $9 X,Y pos of 4 corners*
0 Add a 4 corners polygon primitive as box body*
4,1,4,$2,$3,$4,$5,$6,$7,$8,$9,$2,$3,0*
0 Add four circle primitives for the rounded corners*
1,1,$1+$1,$2,$3*
1,1,$1+$1,$4,$5*
1,1,$1+$1,$6,$7*
1,1,$1+$1,$8,$9*
0 Add four rect primitives between the rounded corners*
20,1,$1+$1,$2,$3,$4,$5,0*
20,1,$1+$1,$4,$5,$6,$7,0*
20,1,$1+$1,$6,$7,$8,$9,0*
20,1,$1+$1,$8,$9,$2,$3,0*%
G04 Aperture macros list end*
%TA.AperFunction,SMDPad,CuDef*%
%ADD10RoundRect,0.200000X-0.200000X-0.275000X0.200000X-0.275000X0.200000X0.275000X-0.200000X0.275000X0*%
%TD*%
%TA.AperFunction,SMDPad,CuDef*%
%ADD11RoundRect,0.218750X0.218750X0.256250X-0.218750X0.256250X-0.218750X-0.256250X0.218750X-0.256250X0*%
%TD*%
%TA.AperFunction,SMDPad,CuDef*%
%ADD12R,1.240000X0.600000*%
%TD*%
%TA.AperFunction,SMDPad,CuDef*%
%ADD13R,1.240000X0.300000*%
%TD*%
%TA.AperFunction,ComponentPad*%
%ADD14O,2.100000X1.000000*%
%TD*%
%TA.AperFunction,ComponentPad*%
%ADD15O,1.800000X1.000000*%
%TD*%
%TA.AperFunction,SMDPad,CuDef*%
%ADD16RoundRect,0.225000X0.225000X0.250000X-0.225000X0.250000X-0.225000X-0.250000X0.225000X-0.250000X0*%
%TD*%
%TA.AperFunction,SMDPad,CuDef*%
%ADD17RoundRect,0.150000X-0.512500X-0.150000X0.512500X-0.150000X0.512500X0.150000X-0.512500X0.150000X0*%
%TD*%
%TA.AperFunction,SMDPad,CuDef*%
%ADD18RoundRect,0.225000X0.250000X-0.225000X0.250000X0.225000X-0.250000X0.225000X-0.250000X-0.225000X0*%
%TD*%
%TA.AperFunction,SMDPad,CuDef*%
%ADD19RoundRect,0.225000X-0.250000X0.225000X-0.250000X-0.225000X0.250000X-0.225000X0.250000X0.225000X0*%
%TD*%
%TA.AperFunction,SMDPad,CuDef*%
%ADD20R,1.300000X1.100000*%
%TD*%
%TA.AperFunction,SMDPad,CuDef*%
%ADD21RoundRect,0.200000X0.275000X-0.200000X0.275000X0.200000X-0.275000X0.200000X-0.275000X-0.200000X0*%
%TD*%
%TA.AperFunction,SMDPad,CuDef*%
%ADD22RoundRect,0.225000X-0.225000X-0.250000X0.225000X-0.250000X0.225000X0.250000X-0.225000X0.250000X0*%
%TD*%
%TA.AperFunction,SMDPad,CuDef*%
%ADD23R,1.100000X1.300000*%
%TD*%
%TA.AperFunction,SMDPad,CuDef*%
%ADD24RoundRect,0.075000X-0.662500X-0.075000X0.662500X-0.075000X0.662500X0.075000X-0.662500X0.075000X0*%
%TD*%
%TA.AperFunction,SMDPad,CuDef*%
%ADD25RoundRect,0.075000X-0.075000X-0.662500X0.075000X-0.662500X0.075000X0.662500X-0.075000X0.662500X0*%
%TD*%
%TA.AperFunction,ComponentPad*%
%ADD26R,1.700000X1.700000*%
%TD*%
%TA.AperFunction,ComponentPad*%
%ADD27O,1.700000X1.700000*%
%TD*%
%TA.AperFunction,SMDPad,CuDef*%
%ADD28RoundRect,0.250000X0.250000X0.475000X-0.250000X0.475000X-0.250000X-0.475000X0.250000X-0.475000X0*%
%TD*%
%TA.AperFunction,SMDPad,CuDef*%
%ADD29RoundRect,0.218750X-0.256250X0.218750X-0.256250X-0.218750X0.256250X-0.218750X0.256250X0.218750X0*%
%TD*%
%TA.AperFunction,SMDPad,CuDef*%
%ADD30RoundRect,0.250000X0.385000X1.350000X-0.385000X1.350000X-0.385000X-1.350000X0.385000X-1.350000X0*%
%TD*%
%TA.AperFunction,SMDPad,CuDef*%
%ADD31RoundRect,0.250000X0.425000X1.600000X-0.425000X1.600000X-0.425000X-1.600000X0.425000X-1.600000X0*%
%TD*%
%TA.AperFunction,SMDPad,CuDef*%
%ADD32RoundRect,0.218750X0.218750X0.381250X-0.218750X0.381250X-0.218750X-0.381250X0.218750X-0.381250X0*%
%TD*%
%TA.AperFunction,SMDPad,CuDef*%
%ADD33RoundRect,0.150000X-0.150000X0.512500X-0.150000X-0.512500X0.150000X-0.512500X0.150000X0.512500X0*%
%TD*%
%TA.AperFunction,SMDPad,CuDef*%
%ADD34RoundRect,0.200000X0.200000X0.275000X-0.200000X0.275000X-0.200000X-0.275000X0.200000X-0.275000X0*%
%TD*%
%TA.AperFunction,SMDPad,CuDef*%
%ADD35RoundRect,0.100000X0.100000X-0.225000X0.100000X0.225000X-0.100000X0.225000X-0.100000X-0.225000X0*%
%TD*%
%TA.AperFunction,SMDPad,CuDef*%
%ADD36R,1.750000X0.450000*%
%TD*%
%TA.AperFunction,SMDPad,CuDef*%
%ADD37RoundRect,0.218750X-0.218750X-0.381250X0.218750X-0.381250X0.218750X0.381250X-0.218750X0.381250X0*%
%TD*%
%TA.AperFunction,SMDPad,CuDef*%
%ADD38RoundRect,0.218750X-0.218750X-0.256250X0.218750X-0.256250X0.218750X0.256250X-0.218750X0.256250X0*%
%TD*%
%TA.AperFunction,SMDPad,CuDef*%
%ADD39R,0.300000X0.800000*%
%TD*%
%TA.AperFunction,SMDPad,CuDef*%
%ADD40R,0.800000X0.300000*%
%TD*%
%TA.AperFunction,SMDPad,CuDef*%
%ADD41R,3.250000X3.250000*%
%TD*%
%TA.AperFunction,SMDPad,CuDef*%
%ADD42RoundRect,0.150000X0.725000X0.150000X-0.725000X0.150000X-0.725000X-0.150000X0.725000X-0.150000X0*%
%TD*%
%TA.AperFunction,SMDPad,CuDef*%
%ADD43RoundRect,0.200000X-0.275000X0.200000X-0.275000X-0.200000X0.275000X-0.200000X0.275000X0.200000X0*%
%TD*%
%TA.AperFunction,SMDPad,CuDef*%
%ADD44RoundRect,0.250000X1.350000X-0.385000X1.350000X0.385000X-1.350000X0.385000X-1.350000X-0.385000X0*%
%TD*%
%TA.AperFunction,SMDPad,CuDef*%
%ADD45RoundRect,0.250000X1.600000X-0.425000X1.600000X0.425000X-1.600000X0.425000X-1.600000X-0.425000X0*%
%TD*%
%TA.AperFunction,ViaPad*%
%ADD46C,0.450000*%
%TD*%
%TA.AperFunction,ViaPad*%
%ADD47C,0.600000*%
%TD*%
%TA.AperFunction,Conductor*%
%ADD48C,0.200000*%
%TD*%
%TA.AperFunction,Conductor*%
%ADD49C,0.156000*%
%TD*%
%TA.AperFunction,Conductor*%
%ADD50C,0.254000*%
%TD*%
%TA.AperFunction,Conductor*%
%ADD51C,0.350000*%
%TD*%
G04 APERTURE END LIST*
D10*
%TO.P,R16,2*%
%TO.N,AGND*%
X152337500Y-142600000D03*
%TO.P,R16,1*%
%TO.N,Net-(D2-K)*%
X150687500Y-142600000D03*
%TD*%
D11*
%TO.P,D2,2,A*%
%TO.N,VCC*%
X147575000Y-142550000D03*
%TO.P,D2,1,K*%
%TO.N,Net-(D2-K)*%
X149150000Y-142550000D03*
%TD*%
D12*
%TO.P,J1,A1,GND*%
%TO.N,AGND*%
X147844999Y-138645000D03*
%TO.P,J1,A4,VBUS*%
%TO.N,VCC*%
X147844999Y-137845000D03*
D13*
%TO.P,J1,A5,CC1*%
%TO.N,Net-(J1-CC1)*%
X147844999Y-136695000D03*
%TO.P,J1,A6,D+*%
%TO.N,unconnected-(J1-D+-PadA6)*%
X147844999Y-135695000D03*
%TO.P,J1,A7,D-*%
%TO.N,unconnected-(J1-D--PadA7)*%
X147844999Y-135195000D03*
%TO.P,J1,A8,SBU1*%
%TO.N,unconnected-(J1-SBU1-PadA8)*%
X147844999Y-134195000D03*
D12*
%TO.P,J1,A9,VBUS*%
%TO.N,VCC*%
X147844999Y-133045000D03*
%TO.P,J1,A12,GND*%
%TO.N,AGND*%
X147844999Y-132245000D03*
%TO.P,J1,B1,GND*%
X147844999Y-132245000D03*
%TO.P,J1,B4,VBUS*%
%TO.N,VCC*%
X147844999Y-133045000D03*
D13*
%TO.P,J1,B5,CC2*%
%TO.N,Net-(J1-CC2)*%
X147844999Y-133695000D03*
%TO.P,J1,B6,D+*%
%TO.N,unconnected-(J1-D+-PadB6)*%
X147844999Y-134695000D03*
%TO.P,J1,B7,D-*%
%TO.N,unconnected-(J1-D--PadB7)*%
X147844999Y-136195000D03*
%TO.P,J1,B8,SBU2*%
%TO.N,unconnected-(J1-SBU2-PadB8)*%
X147844999Y-137195000D03*
D12*
%TO.P,J1,B9,VBUS*%
%TO.N,VCC*%
X147844999Y-137845000D03*
%TO.P,J1,B12,GND*%
%TO.N,AGND*%
X147844999Y-138645000D03*
D14*
%TO.P,J1,S1,SHIELD*%
X148444999Y-139765000D03*
D15*
X152644999Y-139765000D03*
D14*
X148444999Y-131125000D03*
D15*
X152644999Y-131125000D03*
%TD*%
D16*
%TO.P,C6,1*%
%TO.N,Net-(U8-BP)*%
X133375000Y-111612500D03*
%TO.P,C6,2*%
%TO.N,AGND*%
X131825000Y-111612500D03*
%TD*%
D17*
%TO.P,U9,1,IN*%
%TO.N,VCC*%
X108200000Y-83700000D03*
%TO.P,U9,2,GND*%
%TO.N,AGND*%
X108200000Y-84650000D03*
%TO.P,U9,3,EN*%
%TO.N,VCC*%
X108200000Y-85600000D03*
%TO.P,U9,4,BP*%
%TO.N,Net-(U9-BP)*%
X110475000Y-85600000D03*
%TO.P,U9,5,OUT*%
%TO.N,+3V3_PLL*%
X110475000Y-83700000D03*
%TD*%
D18*
%TO.P,C37,1*%
%TO.N,+3V3_PLL*%
X112187500Y-83737500D03*
%TO.P,C37,2*%
%TO.N,AGND*%
X112187500Y-82187500D03*
%TD*%
D10*
%TO.P,R11,1*%
%TO.N,Net-(U7-RF_OUT_A+)*%
X123900000Y-98200000D03*
%TO.P,R11,2*%
%TO.N,Net-(C61-Pad1)*%
X125550000Y-98200000D03*
%TD*%
D19*
%TO.P,C32,1*%
%TO.N,Net-(U9-BP)*%
X112237500Y-85787500D03*
%TO.P,C32,2*%
%TO.N,AGND*%
X112237500Y-87337500D03*
%TD*%
D18*
%TO.P,C18,1*%
%TO.N,Net-(U3-REFTF)*%
X143362500Y-127225001D03*
%TO.P,C18,2*%
%TO.N,Net-(U3-REFBF)*%
X143362500Y-125675001D03*
%TD*%
D20*
%TO.P,X1,1,OE*%
%TO.N,+3V3_D*%
X107625000Y-121550000D03*
%TO.P,X1,2,GND*%
%TO.N,AGND*%
X109725000Y-121550000D03*
%TO.P,X1,3,OUT*%
%TO.N,FPGA_CLK*%
X109725000Y-119900000D03*
%TO.P,X1,4,Vcc*%
%TO.N,+3V3_D*%
X107625000Y-119900000D03*
%TD*%
D19*
%TO.P,C49,1*%
%TO.N,+3V3_PLL*%
X110225000Y-96625000D03*
%TO.P,C49,2*%
%TO.N,AGND*%
X110225000Y-98175000D03*
%TD*%
%TO.P,C1,1*%
%TO.N,Net-(U4-Vcc)*%
X143975000Y-86425000D03*
%TO.P,C1,2*%
%TO.N,AGND*%
X143975000Y-87975000D03*
%TD*%
D21*
%TO.P,R18,1*%
%TO.N,PROGRAMB*%
X123937500Y-114775001D03*
%TO.P,R18,2*%
%TO.N,AGND*%
X123937500Y-113125001D03*
%TD*%
D18*
%TO.P,C17,1*%
%TO.N,Net-(U3-REFTF)*%
X141862500Y-127225001D03*
%TO.P,C17,2*%
%TO.N,Net-(U3-REFBF)*%
X141862500Y-125675001D03*
%TD*%
D22*
%TO.P,C61,1*%
%TO.N,Net-(C61-Pad1)*%
X127025000Y-98200000D03*
%TO.P,C61,2*%
%TO.N,Net-(C61-Pad2)*%
X128575000Y-98200000D03*
%TD*%
D23*
%TO.P,X2,1,OE*%
%TO.N,+3V3_PLL*%
X111900000Y-96200000D03*
%TO.P,X2,2,GND*%
%TO.N,AGND*%
X111900000Y-98300000D03*
%TO.P,X2,3,OUT*%
%TO.N,PLL_REF*%
X113550000Y-98300000D03*
%TO.P,X2,4,Vcc*%
%TO.N,+3V3_PLL*%
X113550000Y-96200000D03*
%TD*%
D22*
%TO.P,C14,1*%
%TO.N,Net-(U3-REFTS)*%
X141837500Y-124150001D03*
%TO.P,C14,2*%
%TO.N,AGND*%
X143387500Y-124150001D03*
%TD*%
D24*
%TO.P,U1,1,PL2A*%
%TO.N,unconnected-(U1-PL2A-Pad1)*%
X112300000Y-118800000D03*
%TO.P,U1,2,PL2B*%
%TO.N,unconnected-(U1-PL2B-Pad2)*%
X112300000Y-119300000D03*
%TO.P,U1,3,PL3A*%
%TO.N,FPGA_CLK*%
X112300000Y-119800000D03*
%TO.P,U1,4,PL3B*%
%TO.N,unconnected-(U1-PL3B-Pad4)*%
X112300000Y-120300000D03*
%TO.P,U1,5,VCCIO5*%
%TO.N,+3V3_D*%
X112300000Y-120800000D03*
%TO.P,U1,6,GND*%
%TO.N,AGND*%
X112300000Y-121300000D03*
%TO.P,U1,7,PL4A*%
%TO.N,4350_SPI_CLK*%
X112300000Y-121800000D03*
%TO.P,U1,8,PL4B*%
%TO.N,4350_SPI_DATA*%
X112300000Y-122300000D03*
%TO.P,U1,9,PL5A*%
%TO.N,4350_SPI_LE*%
X112300000Y-122800000D03*
%TO.P,U1,10,PL5B*%
%TO.N,unconnected-(U1-PL5B-Pad10)*%
X112300000Y-123300000D03*
%TO.P,U1,11,VCCIO4*%
%TO.N,+3V3_D*%
X112300000Y-123800000D03*
%TO.P,U1,12,PL7C*%
%TO.N,USR*%
X112300000Y-124300000D03*
%TO.P,U1,13,PL7D*%
%TO.N,unconnected-(U1-PL7D-Pad13)*%
X112300000Y-124800000D03*
%TO.P,U1,14,PL9A*%
%TO.N,unconnected-(U1-PL9A-Pad14)*%
X112300000Y-125300000D03*
%TO.P,U1,15,PL9B*%
%TO.N,unconnected-(U1-PL9B-Pad15)*%
X112300000Y-125800000D03*
%TO.P,U1,16,PL10A*%
%TO.N,unconnected-(U1-PL10A-Pad16)*%
X112300000Y-126300000D03*
%TO.P,U1,17,PL10B*%
%TO.N,unconnected-(U1-PL10B-Pad17)*%
X112300000Y-126800000D03*
%TO.P,U1,18,PL11A*%
%TO.N,GPIO73*%
X112300000Y-127300000D03*
%TO.P,U1,19,PL11B*%
%TO.N,GPIO72*%
X112300000Y-127800000D03*
%TO.P,U1,20,PL12A*%
%TO.N,GPIO75*%
X112300000Y-128300000D03*
%TO.P,U1,21,PL12B*%
%TO.N,GPIO74*%
X112300000Y-128800000D03*
%TO.P,U1,22,GND*%
%TO.N,AGND*%
X112300000Y-129300000D03*
%TO.P,U1,23,VCCIO3*%
%TO.N,+3V3_D*%
X112300000Y-129800000D03*
%TO.P,U1,24,PL14A*%
%TO.N,unconnected-(U1-PL14A-Pad24)*%
X112300000Y-130300000D03*
%TO.P,U1,25,PL14B*%
%TO.N,unconnected-(U1-PL14B-Pad25)*%
X112300000Y-130800000D03*
D25*
%TO.P,U1,26,VCCIO2*%
%TO.N,+3V3_D*%
X113962500Y-132462500D03*
%TO.P,U1,27,PB5A*%
%TO.N,unconnected-(U1-PB5A-Pad27)*%
X114462500Y-132462500D03*
%TO.P,U1,28,PB5B*%
%TO.N,unconnected-(U1-PB5B-Pad28)*%
X114962500Y-132462500D03*
%TO.P,U1,29,PB6A*%
%TO.N,unconnected-(U1-PB6A-Pad29)*%
X115462500Y-132462500D03*
%TO.P,U1,30,PB6B*%
%TO.N,unconnected-(U1-PB6B-Pad30)*%
X115962500Y-132462500D03*
%TO.P,U1,31,PB8A*%
%TO.N,GPIO85*%
X116462500Y-132462500D03*
%TO.P,U1,32,PB8B*%
%TO.N,GPIO84*%
X116962500Y-132462500D03*
%TO.P,U1,33,GND*%
%TO.N,AGND*%
X117462500Y-132462500D03*
%TO.P,U1,34,PB11A*%
%TO.N,GPIO69*%
X117962500Y-132462500D03*
%TO.P,U1,35,PB11B*%
%TO.N,GPIO70*%
X118462500Y-132462500D03*
%TO.P,U1,36,PB12A*%
%TO.N,GPIO60*%
X118962500Y-132462500D03*
%TO.P,U1,37,PB12B*%
%TO.N,GPIO63*%
X119462500Y-132462500D03*
%TO.P,U1,38,PB16A*%
%TO.N,GPIO64*%
X119962500Y-132462500D03*
%TO.P,U1,39,PB16B*%
%TO.N,GPIO61*%
X120462500Y-132462500D03*
%TO.P,U1,40,PB18A*%
%TO.N,GPIO67*%
X120962500Y-132462500D03*
%TO.P,U1,41,PB18B*%
%TO.N,GPIO62*%
X121462500Y-132462500D03*
%TO.P,U1,42,PB21A*%
%TO.N,GPIO65*%
X121962500Y-132462500D03*
%TO.P,U1,43,PB21B*%
%TO.N,GPIO66*%
X122462500Y-132462500D03*
%TO.P,U1,44,GND*%
%TO.N,AGND*%
X122962500Y-132462500D03*
%TO.P,U1,45,PB22A*%
%TO.N,unconnected-(U1-PB22A-Pad45)*%
X123462500Y-132462500D03*
%TO.P,U1,46,VCCIO2*%
%TO.N,+3V3_D*%
X123962500Y-132462500D03*
%TO.P,U1,47,PB22B*%
%TO.N,unconnected-(U1-PB22B-Pad47)*%
X124462500Y-132462500D03*
%TO.P,U1,48,PB25A*%
%TO.N,unconnected-(U1-PB25A-Pad48)*%
X124962500Y-132462500D03*
%TO.P,U1,49,PB25B*%
%TO.N,unconnected-(U1-PB25B-Pad49)*%
X125462500Y-132462500D03*
%TO.P,U1,50,VCC*%
%TO.N,+3V3_D*%
X125962500Y-132462500D03*
D24*
%TO.P,U1,51,PR14B*%
%TO.N,unconnected-(U1-PR14B-Pad51)*%
X127625000Y-130800000D03*
%TO.P,U1,52,PR14A*%
%TO.N,unconnected-(U1-PR14A-Pad52)*%
X127625000Y-130300000D03*
%TO.P,U1,53,PR12B*%
%TO.N,unconnected-(U1-PR12B-Pad53)*%
X127625000Y-129800000D03*
%TO.P,U1,54,PR12A*%
%TO.N,unconnected-(U1-PR12A-Pad54)*%
X127625000Y-129300000D03*
%TO.P,U1,55,VCCIO1*%
%TO.N,+3V3_D*%
X127625000Y-128800000D03*
%TO.P,U1,56,GND*%
%TO.N,AGND*%
X127625000Y-128300000D03*
%TO.P,U1,57,PR11B*%
%TO.N,ADC_OTR*%
X127625000Y-127800000D03*
%TO.P,U1,58,PR11A*%
%TO.N,ADC_D9*%
X127625000Y-127300000D03*
%TO.P,U1,59,PR10B*%
%TO.N,ADC_D8*%
X127625000Y-126800000D03*
%TO.P,U1,60,PR10A*%
%TO.N,ADC_D7*%
X127625000Y-126300000D03*
%TO.P,U1,61,PR9A*%
%TO.N,ADC_D6*%
X127625000Y-125800000D03*
%TO.P,U1,62,PR7B*%
%TO.N,ADC_D5*%
X127625000Y-125300000D03*
%TO.P,U1,63,PR7A*%
%TO.N,ADC_CLK*%
X127625000Y-124800000D03*
%TO.P,U1,64,PR6B*%
%TO.N,ADC_D4*%
X127625000Y-124300000D03*
%TO.P,U1,65,PR6A*%
%TO.N,ADC_D3*%
X127625000Y-123800000D03*
%TO.P,U1,66,PR5B*%
%TO.N,ADC_D2*%
X127625000Y-123300000D03*
%TO.P,U1,67,PR5A*%
%TO.N,ADC_D1*%
X127625000Y-122800000D03*
%TO.P,U1,68,PR4B*%
%TO.N,ADC_D0*%
X127625000Y-122300000D03*
%TO.P,U1,69,PR4A*%
%TO.N,unconnected-(U1-PR4A-Pad69)*%
X127625000Y-121800000D03*
%TO.P,U1,70,PR3B*%
%TO.N,unconnected-(U1-PR3B-Pad70)*%
X127625000Y-121300000D03*
%TO.P,U1,71,PR3A*%
%TO.N,unconnected-(U1-PR3A-Pad71)*%
X127625000Y-120800000D03*
%TO.P,U1,72,GND*%
%TO.N,AGND*%
X127625000Y-120300000D03*
%TO.P,U1,73,VCCIO1*%
%TO.N,+3V3_D*%
X127625000Y-119800000D03*
%TO.P,U1,74,PR1B*%
%TO.N,unconnected-(U1-PR1B-Pad74)*%
X127625000Y-119300000D03*
%TO.P,U1,75,PR1A*%
%TO.N,unconnected-(U1-PR1A-Pad75)*%
X127625000Y-118800000D03*
D25*
%TO.P,U1,76,PT24D*%
%TO.N,DONE*%
X125962500Y-117137500D03*
%TO.P,U1,77,PT24C*%
%TO.N,FPGA_LO*%
X125462500Y-117137500D03*
%TO.P,U1,78,PT22A*%
%TO.N,unconnected-(U1-PT22A-Pad78)*%
X124962500Y-117137500D03*
%TO.P,U1,79,GND*%
%TO.N,AGND*%
X124462500Y-117137500D03*
%TO.P,U1,80,VCCIO0*%
%TO.N,unconnected-(U1-VCCIO0-Pad80)*%
X123962500Y-117137500D03*
%TO.P,U1,81,PT20D*%
%TO.N,PROGRAMB*%
X123462500Y-117137500D03*
%TO.P,U1,82,PT20C*%
%TO.N,JTAGENB*%
X122962500Y-117137500D03*
%TO.P,U1,83,PT19B*%
%TO.N,unconnected-(U1-PT19B-Pad83)*%
X122462500Y-117137500D03*
%TO.P,U1,84,PT19A*%
%TO.N,unconnected-(U1-PT19A-Pad84)*%
X121962500Y-117137500D03*
%TO.P,U1,85,PT18D*%
%TO.N,unconnected-(U1-PT18D-Pad85)*%
X121462500Y-117137500D03*
%TO.P,U1,86,PT18C*%
%TO.N,unconnected-(U1-PT18C-Pad86)*%
X120962500Y-117137500D03*
%TO.P,U1,87,PT17B*%
%TO.N,unconnected-(U1-PT17B-Pad87)*%
X120462500Y-117137500D03*
%TO.P,U1,88,PT17A*%
%TO.N,unconnected-(U1-PT17A-Pad88)*%
X119962500Y-117137500D03*
%TO.P,U1,89,NC*%
%TO.N,unconnected-(U1-NC-Pad89)*%
X119462500Y-117137500D03*
%TO.P,U1,90,PT16D*%
%TO.N,TMS*%
X118962500Y-117137500D03*
%TO.P,U1,91,PT16C*%
%TO.N,TCK*%
X118462500Y-117137500D03*
%TO.P,U1,92,GND*%
%TO.N,AGND*%
X117962500Y-117137500D03*
%TO.P,U1,93,VCCIO0*%
%TO.N,unconnected-(U1-VCCIO0-Pad93)*%
X117462500Y-117137500D03*
%TO.P,U1,94,PT12D*%
%TO.N,TDI*%
X116962500Y-117137500D03*
%TO.P,U1,95,PT12C*%
%TO.N,TDO*%
X116462500Y-117137500D03*
%TO.P,U1,96,PT11B*%
%TO.N,unconnected-(U1-PT11B-Pad96)*%
X115962500Y-117137500D03*
%TO.P,U1,97,PT11A*%
%TO.N,unconnected-(U1-PT11A-Pad97)*%
X115462500Y-117137500D03*
%TO.P,U1,98,PT9B*%
%TO.N,unconnected-(U1-PT9B-Pad98)*%
X114962500Y-117137500D03*
%TO.P,U1,99,PT9A*%
%TO.N,unconnected-(U1-PT9A-Pad99)*%
X114462500Y-117137500D03*
%TO.P,U1,100,VCC*%
%TO.N,+3V3_D*%
X113962500Y-117137500D03*
%TD*%
D26*
%TO.P,J11,1,Pin_1*%
%TO.N,MIXER_LO*%
X134015000Y-96780000D03*
D27*
%TO.P,J11,2,Pin_2*%
%TO.N,FPGA_LO*%
X131475000Y-96780000D03*
%TO.P,J11,3,Pin_3*%
%TO.N,MIXER_LO*%
X134015000Y-94240000D03*
%TO.P,J11,4,Pin_4*%
%TO.N,PLL_LO*%
X131475000Y-94240000D03*
%TO.P,J11,5,Pin_5*%
%TO.N,MIXER_LO*%
X134015000Y-91700000D03*
%TO.P,J11,6,Pin_6*%
%TO.N,EXT_LO*%
X131475000Y-91700000D03*
%TD*%
D19*
%TO.P,C51,1*%
%TO.N,AGND*%
X118615000Y-90917500D03*
%TO.P,C51,2*%
%TO.N,Net-(U7-VCOM)*%
X118615000Y-92467500D03*
%TD*%
D28*
%TO.P,C3,1*%
%TO.N,VCC*%
X144975000Y-137800000D03*
%TO.P,C3,2*%
%TO.N,AGND*%
X143075000Y-137800000D03*
%TD*%
D26*
%TO.P,J9,1,Pin_1*%
%TO.N,4350_SPI_CLK*%
X104925000Y-94750000D03*
D27*
%TO.P,J9,2,Pin_2*%
%TO.N,4350_SPI_DATA*%
X104925000Y-97290000D03*
%TO.P,J9,3,Pin_3*%
%TO.N,4350_SPI_LE*%
X104925000Y-99830000D03*
%TD*%
D19*
%TO.P,C57,1*%
%TO.N,AGND*%
X121865000Y-90917500D03*
%TO.P,C57,2*%
%TO.N,Net-(U7-TEMP)*%
X121865000Y-92467500D03*
%TD*%
D29*
%TO.P,L7,1,1*%
%TO.N,Net-(C12-Pad2)*%
X146875000Y-108862500D03*
%TO.P,L7,2,2*%
%TO.N,Net-(C26-Pad2)*%
X146875000Y-110437500D03*
%TD*%
D19*
%TO.P,C24,1*%
%TO.N,Net-(U5-RF_GND)*%
X139825000Y-97275000D03*
%TO.P,C24,2*%
%TO.N,AGND*%
X139825000Y-98825000D03*
%TD*%
D22*
%TO.P,C58,1*%
%TO.N,Net-(C58-Pad1)*%
X120575000Y-103850000D03*
%TO.P,C58,2*%
%TO.N,AGND*%
X122125000Y-103850000D03*
%TD*%
D26*
%TO.P,J3,1,Pin_1*%
%TO.N,AGND*%
X104900000Y-115500000D03*
D27*
%TO.P,J3,2,Pin_2*%
%TO.N,TDI*%
X104900000Y-112960000D03*
%TO.P,J3,3,Pin_3*%
%TO.N,TDO*%
X104900000Y-110420000D03*
%TO.P,J3,4,Pin_4*%
%TO.N,TCK*%
X104900000Y-107880000D03*
%TO.P,J3,5,Pin_5*%
%TO.N,TMS*%
X104900000Y-105340000D03*
%TD*%
D30*
%TO.P,J4,1,In*%
%TO.N,Net-(J4-In)*%
X149525000Y-77812500D03*
D31*
%TO.P,J4,2,Ext*%
%TO.N,AGND*%
X146700000Y-78062500D03*
X152350000Y-78062500D03*
%TD*%
D32*
%TO.P,L3,1,1*%
%TO.N,Net-(U5-VCC)*%
X139737500Y-95650000D03*
%TO.P,L3,2,2*%
%TO.N,VCC*%
X137612500Y-95650000D03*
%TD*%
D33*
%TO.P,U8,1,IN*%
%TO.N,VCC*%
X135575000Y-107462500D03*
%TO.P,U8,2,GND*%
%TO.N,AGND*%
X134625000Y-107462500D03*
%TO.P,U8,3,EN*%
%TO.N,VCC*%
X133675000Y-107462500D03*
%TO.P,U8,4,BP*%
%TO.N,Net-(U8-BP)*%
X133675000Y-109737500D03*
%TO.P,U8,5,OUT*%
%TO.N,+3V3_A*%
X135575000Y-109737500D03*
%TD*%
D34*
%TO.P,R15,1*%
%TO.N,Net-(C61-Pad2)*%
X128600000Y-99700000D03*
%TO.P,R15,2*%
%TO.N,AGND*%
X126950000Y-99700000D03*
%TD*%
D22*
%TO.P,C7,1*%
%TO.N,+3V3_A*%
X135800000Y-111612500D03*
%TO.P,C7,2*%
%TO.N,AGND*%
X137350000Y-111612500D03*
%TD*%
D19*
%TO.P,C54,1*%
%TO.N,AGND*%
X114145000Y-90912500D03*
%TO.P,C54,2*%
%TO.N,Net-(U7-VREF)*%
X114145000Y-92462500D03*
%TD*%
%TO.P,C29,1*%
%TO.N,VCC*%
X114062500Y-108162500D03*
%TO.P,C29,2*%
%TO.N,AGND*%
X114062500Y-109712500D03*
%TD*%
%TO.P,C4,1*%
%TO.N,VCC*%
X106387500Y-83487500D03*
%TO.P,C4,2*%
%TO.N,AGND*%
X106387500Y-85037500D03*
%TD*%
D35*
%TO.P,U2,1,Vcc*%
%TO.N,Net-(U2-Vcc)*%
X147050000Y-114200000D03*
%TO.P,U2,2,G*%
%TO.N,AGND*%
X147700000Y-114200000D03*
%TO.P,U2,3*%
%TO.N,Net-(C9-Pad1)*%
X148350000Y-114200000D03*
%TO.P,U2,4,G*%
%TO.N,AGND*%
X148350000Y-112300000D03*
%TO.P,U2,5,G*%
X147700000Y-112300000D03*
%TO.P,U2,6*%
%TO.N,Net-(C26-Pad2)*%
X147050000Y-112300000D03*
%TD*%
D36*
%TO.P,U3,1,AVSS*%
%TO.N,AGND*%
X132112500Y-121100001D03*
%TO.P,U3,2,DVDD*%
%TO.N,Net-(U3-DVDD)*%
X132112500Y-121750001D03*
%TO.P,U3,3,D0*%
%TO.N,ADC_D0*%
X132112500Y-122400001D03*
%TO.P,U3,4,D1*%
%TO.N,ADC_D1*%
X132112500Y-123050001D03*
%TO.P,U3,5,D2*%
%TO.N,ADC_D2*%
X132112500Y-123700001D03*
%TO.P,U3,6,D3*%
%TO.N,ADC_D3*%
X132112500Y-124350001D03*
%TO.P,U3,7,D4*%
%TO.N,ADC_D4*%
X132112500Y-125000001D03*
%TO.P,U3,8,D5*%
%TO.N,ADC_D5*%
X132112500Y-125650001D03*
%TO.P,U3,9,D6*%
%TO.N,ADC_D6*%
X132112500Y-126300001D03*
%TO.P,U3,10,D7*%
%TO.N,ADC_D7*%
X132112500Y-126950001D03*
%TO.P,U3,11,D8*%
%TO.N,ADC_D8*%
X132112500Y-127600001D03*
%TO.P,U3,12,D9*%
%TO.N,ADC_D9*%
X132112500Y-128250001D03*
%TO.P,U3,13,OTR*%
%TO.N,ADC_OTR*%
X132112500Y-128900001D03*
%TO.P,U3,14,DRVSS*%
%TO.N,AGND*%
X132112500Y-129550001D03*
%TO.P,U3,15,CLK*%
%TO.N,ADC_CLK*%
X139312500Y-129550001D03*
%TO.P,U3,16,THREE_STATE*%
%TO.N,AGND*%
X139312500Y-128900001D03*
%TO.P,U3,17,STBY*%
X139312500Y-128250001D03*
%TO.P,U3,18,REFSENSE*%
X139312500Y-127600001D03*
%TO.P,U3,19,CLAMP*%
X139312500Y-126950001D03*
%TO.P,U3,20,CLAMPIN*%
%TO.N,unconnected-(U3-CLAMPIN-Pad20)*%
X139312500Y-126300001D03*
%TO.P,U3,21,REFTS*%
%TO.N,Net-(U3-REFTS)*%
X139312500Y-125650001D03*
%TO.P,U3,22,REFTF*%
%TO.N,Net-(U3-REFTF)*%
X139312500Y-125000001D03*
%TO.P,U3,23,MODE*%
%TO.N,+3V3_A*%
X139312500Y-124350001D03*
%TO.P,U3,24,REFBF*%
%TO.N,Net-(U3-REFBF)*%
X139312500Y-123700001D03*
%TO.P,U3,25,REFBS*%
%TO.N,AGND*%
X139312500Y-123050001D03*
%TO.P,U3,26,VREF*%
%TO.N,Net-(U3-REFTS)*%
X139312500Y-122400001D03*
%TO.P,U3,27,AIN*%
%TO.N,ADC_IN*%
X139312500Y-121750001D03*
%TO.P,U3,28,AVDD*%
%TO.N,+3V3_A*%
X139312500Y-121100001D03*
%TD*%
D10*
%TO.P,R4,1*%
%TO.N,ADC_IN*%
X150275000Y-117600000D03*
%TO.P,R4,2*%
%TO.N,AGND*%
X151925000Y-117600000D03*
%TD*%
D29*
%TO.P,L5,1,1*%
%TO.N,MIXER_IF*%
X146875000Y-102912500D03*
%TO.P,L5,2,2*%
%TO.N,Net-(C11-Pad2)*%
X146875000Y-104487500D03*
%TD*%
D37*
%TO.P,L4,1,1*%
%TO.N,VCC*%
X138875000Y-86500000D03*
%TO.P,L4,2,2*%
%TO.N,Net-(U4-Vcc)*%
X141000000Y-86500000D03*
%TD*%
D10*
%TO.P,R19,1*%
%TO.N,+3V3_D*%
X103875000Y-128250000D03*
%TO.P,R19,2*%
%TO.N,DONE*%
X105525000Y-128250000D03*
%TD*%
%TO.P,R3,1*%
%TO.N,+3V3_A*%
X145775000Y-117650000D03*
%TO.P,R3,2*%
%TO.N,ADC_IN*%
X147425000Y-117650000D03*
%TD*%
D19*
%TO.P,C60,1*%
%TO.N,Net-(U7-CPout)*%
X117575000Y-102325000D03*
%TO.P,C60,2*%
%TO.N,AGND*%
X117575000Y-103875000D03*
%TD*%
D22*
%TO.P,C62,1*%
%TO.N,Net-(C62-Pad1)*%
X127025000Y-96710000D03*
%TO.P,C62,2*%
%TO.N,PLL_LO*%
X128575000Y-96710000D03*
%TD*%
D38*
%TO.P,D4,1,K*%
%TO.N,Net-(D4-K)*%
X106937501Y-126600000D03*
%TO.P,D4,2,A*%
%TO.N,USR*%
X108512501Y-126600000D03*
%TD*%
D10*
%TO.P,R12,1*%
%TO.N,Net-(U7-RF_OUT_A-)*%
X123900000Y-96700000D03*
%TO.P,R12,2*%
%TO.N,Net-(C62-Pad1)*%
X125550000Y-96700000D03*
%TD*%
D34*
%TO.P,R8,1*%
%TO.N,Net-(U5-LO)*%
X139775000Y-92450000D03*
%TO.P,R8,2*%
%TO.N,Net-(C22-Pad1)*%
X138125000Y-92450000D03*
%TD*%
D38*
%TO.P,D1,1,K*%
%TO.N,Net-(D1-K)*%
X111427500Y-94412500D03*
%TO.P,D1,2,A*%
%TO.N,Net-(D1-A)*%
X113002500Y-94412500D03*
%TD*%
D30*
%TO.P,J6,1,In*%
%TO.N,EXT_LO*%
X136175000Y-78012500D03*
D31*
%TO.P,J6,2,Ext*%
%TO.N,AGND*%
X133350000Y-78262500D03*
X139000000Y-78262500D03*
%TD*%
D39*
%TO.P,U7,1,CLK*%
%TO.N,4350_SPI_CLK*%
X118075000Y-99750000D03*
%TO.P,U7,2,DATA*%
%TO.N,4350_SPI_DATA*%
X118575000Y-99750000D03*
%TO.P,U7,3,LE*%
%TO.N,4350_SPI_LE*%
X119075000Y-99750000D03*
%TO.P,U7,4,CE*%
%TO.N,+3V3_PLL*%
X119575000Y-99750000D03*
%TO.P,U7,5,SW*%
%TO.N,unconnected-(U7-SW-Pad5)*%
X120075000Y-99750000D03*
%TO.P,U7,6,Vp*%
%TO.N,+3V3_PLL*%
X120575000Y-99750000D03*
%TO.P,U7,7,CPout*%
%TO.N,Net-(U7-CPout)*%
X121075000Y-99750000D03*
%TO.P,U7,8,CPGND*%
%TO.N,AGND*%
X121575000Y-99750000D03*
D40*
%TO.P,U7,9,AGND*%
X122225000Y-99100000D03*
%TO.P,U7,10,AVDD*%
%TO.N,+3V3_PLL*%
X122225000Y-98600000D03*
%TO.P,U7,11,AGNDVCO*%
%TO.N,AGND*%
X122225000Y-98100000D03*
%TO.P,U7,12,RF_OUT_A+*%
%TO.N,Net-(U7-RF_OUT_A+)*%
X122225000Y-97600000D03*
%TO.P,U7,13,RF_OUT_A-*%
%TO.N,Net-(U7-RF_OUT_A-)*%
X122225000Y-97100000D03*
%TO.P,U7,14,RF_OUT_B+*%
%TO.N,unconnected-(U7-RF_OUT_B+-Pad14)*%
X122225000Y-96600000D03*
%TO.P,U7,15,RF_OUT_B-*%
%TO.N,unconnected-(U7-RF_OUT_B--Pad15)*%
X122225000Y-96100000D03*
%TO.P,U7,16,VVCO*%
%TO.N,+3V3_PLL_VCO*%
X122225000Y-95600000D03*
D39*
%TO.P,U7,17,VVCO*%
X121575000Y-94950000D03*
%TO.P,U7,18,AGNDVCO*%
%TO.N,AGND*%
X121075000Y-94950000D03*
%TO.P,U7,19,TEMP*%
%TO.N,Net-(U7-TEMP)*%
X120575000Y-94950000D03*
%TO.P,U7,20,VTUNE*%
%TO.N,Net-(U7-VTUNE)*%
X120075000Y-94950000D03*
%TO.P,U7,21,AGNDVCO*%
%TO.N,AGND*%
X119575000Y-94950000D03*
%TO.P,U7,22,RSET*%
%TO.N,Net-(U7-RSET)*%
X119075000Y-94950000D03*
%TO.P,U7,23,VCOM*%
%TO.N,Net-(U7-VCOM)*%
X118575000Y-94950000D03*
%TO.P,U7,24,VREF*%
%TO.N,Net-(U7-VREF)*%
X118075000Y-94950000D03*
D40*
%TO.P,U7,25,LD*%
%TO.N,Net-(D1-A)*%
X117425000Y-95600000D03*
%TO.P,U7,26,PDB_RF*%
%TO.N,+3V3_PLL*%
X117425000Y-96100000D03*
%TO.P,U7,27,DGND*%
%TO.N,AGND*%
X117425000Y-96600000D03*
%TO.P,U7,28,DVDD*%
%TO.N,+3V3_PLL*%
X117425000Y-97100000D03*
%TO.P,U7,29,REFIN*%
%TO.N,Net-(U7-REFIN)*%
X117425000Y-97600000D03*
%TO.P,U7,30,MUXOUT*%
%TO.N,unconnected-(U7-MUXOUT-Pad30)*%
X117425000Y-98100000D03*
%TO.P,U7,31,SDGND*%
%TO.N,AGND*%
X117425000Y-98600000D03*
%TO.P,U7,32,SDVDD*%
%TO.N,+3V3_PLL*%
X117425000Y-99100000D03*
D41*
%TO.P,U7,33,EP*%
%TO.N,AGND*%
X119825000Y-97350000D03*
%TD*%
D19*
%TO.P,C9,1*%
%TO.N,Net-(C9-Pad1)*%
X148850000Y-116050000D03*
%TO.P,C9,2*%
%TO.N,ADC_IN*%
X148850000Y-117600000D03*
%TD*%
D20*
%TO.P,X3,1,OE*%
%TO.N,+3V3_A*%
X134775000Y-134025000D03*
%TO.P,X3,2,GND*%
%TO.N,AGND*%
X136875000Y-134025000D03*
%TO.P,X3,3,OUT*%
%TO.N,ADC_CLK*%
X136875000Y-132375000D03*
%TO.P,X3,4,Vcc*%
%TO.N,+3V3_A*%
X134775000Y-132375000D03*
%TD*%
D16*
%TO.P,C25,1*%
%TO.N,Net-(U5-LO_GND)*%
X139700000Y-94000000D03*
%TO.P,C25,2*%
%TO.N,AGND*%
X138150000Y-94000000D03*
%TD*%
D18*
%TO.P,C50,1*%
%TO.N,PLL_REF*%
X115275000Y-99275000D03*
%TO.P,C50,2*%
%TO.N,Net-(U7-REFIN)*%
X115275000Y-97725000D03*
%TD*%
D42*
%TO.P,U5,1,IF*%
%TO.N,Net-(U5-IF)*%
X146975000Y-97000000D03*
%TO.P,U5,2,GND*%
%TO.N,AGND*%
X146975000Y-95730000D03*
%TO.P,U5,3,GND*%
X146975000Y-94460000D03*
%TO.P,U5,4,RF*%
%TO.N,Net-(U5-RF)*%
X146975000Y-93190000D03*
%TO.P,U5,5,LO*%
%TO.N,Net-(U5-LO)*%
X141825000Y-93190000D03*
%TO.P,U5,6,LO_GND*%
%TO.N,Net-(U5-LO_GND)*%
X141825000Y-94460000D03*
%TO.P,U5,7,VCC*%
%TO.N,Net-(U5-VCC)*%
X141825000Y-95730000D03*
%TO.P,U5,8,RF_GND*%
%TO.N,Net-(U5-RF_GND)*%
X141825000Y-97000000D03*
%TD*%
D34*
%TO.P,R9,1*%
%TO.N,AGND*%
X143400000Y-91500000D03*
%TO.P,R9,2*%
%TO.N,Net-(U5-LO)*%
X141750000Y-91500000D03*
%TD*%
D19*
%TO.P,C27,1*%
%TO.N,Net-(U2-Vcc)*%
X144375000Y-114450000D03*
%TO.P,C27,2*%
%TO.N,AGND*%
X144375000Y-116000000D03*
%TD*%
%TO.P,C65,1*%
%TO.N,Net-(J4-In)*%
X146475000Y-81150000D03*
%TO.P,C65,2*%
%TO.N,Net-(C65-Pad2)*%
X146475000Y-82700000D03*
%TD*%
D22*
%TO.P,C12,1*%
%TO.N,AGND*%
X143850000Y-108200000D03*
%TO.P,C12,2*%
%TO.N,Net-(C12-Pad2)*%
X145400000Y-108200000D03*
%TD*%
D26*
%TO.P,J8,1,Pin_1*%
%TO.N,Net-(J2-In)*%
X147075000Y-122975000D03*
D27*
%TO.P,J8,2,Pin_2*%
%TO.N,ADC_IN*%
X147075000Y-120435000D03*
%TD*%
D43*
%TO.P,R7,1*%
%TO.N,Net-(U7-CPout)*%
X119075000Y-102275000D03*
%TO.P,R7,2*%
%TO.N,Net-(C58-Pad1)*%
X119075000Y-103925000D03*
%TD*%
D22*
%TO.P,C26,1*%
%TO.N,AGND*%
X143850000Y-110450000D03*
%TO.P,C26,2*%
%TO.N,Net-(C26-Pad2)*%
X145400000Y-110450000D03*
%TD*%
%TO.P,C13,1*%
%TO.N,Net-(U3-REFTS)*%
X141812500Y-122650001D03*
%TO.P,C13,2*%
%TO.N,AGND*%
X143362500Y-122650001D03*
%TD*%
D19*
%TO.P,C22,1*%
%TO.N,Net-(C22-Pad1)*%
X136675000Y-92475000D03*
%TO.P,C22,2*%
%TO.N,MIXER_LO*%
X136675000Y-94025000D03*
%TD*%
D22*
%TO.P,C10,1*%
%TO.N,AGND*%
X143850000Y-102912500D03*
%TO.P,C10,2*%
%TO.N,MIXER_IF*%
X145400000Y-102912500D03*
%TD*%
D21*
%TO.P,R17,1*%
%TO.N,JTAGENB*%
X122437500Y-114750001D03*
%TO.P,R17,2*%
%TO.N,+3V3_D*%
X122437500Y-113100001D03*
%TD*%
D19*
%TO.P,C28,1*%
%TO.N,Net-(U2-Vcc)*%
X142825000Y-114450000D03*
%TO.P,C28,2*%
%TO.N,AGND*%
X142825000Y-116000000D03*
%TD*%
D22*
%TO.P,C56,1*%
%TO.N,+3V3_D*%
X107750000Y-123205001D03*
%TO.P,C56,2*%
%TO.N,AGND*%
X109300000Y-123205001D03*
%TD*%
D19*
%TO.P,C53,1*%
%TO.N,AGND*%
X115635000Y-90927500D03*
%TO.P,C53,2*%
%TO.N,Net-(U7-VREF)*%
X115635000Y-92477500D03*
%TD*%
%TO.P,C52,1*%
%TO.N,AGND*%
X117135000Y-90902500D03*
%TO.P,C52,2*%
%TO.N,Net-(U7-VCOM)*%
X117135000Y-92452500D03*
%TD*%
D16*
%TO.P,C5,1*%
%TO.N,VCC*%
X135900000Y-105512500D03*
%TO.P,C5,2*%
%TO.N,AGND*%
X134350000Y-105512500D03*
%TD*%
D37*
%TO.P,L1,1,1*%
%TO.N,VCC*%
X139200000Y-114575000D03*
%TO.P,L1,2,2*%
%TO.N,Net-(U2-Vcc)*%
X141325000Y-114575000D03*
%TD*%
D19*
%TO.P,C30,1*%
%TO.N,Net-(U6-BP)*%
X119912500Y-110587500D03*
%TO.P,C30,2*%
%TO.N,AGND*%
X119912500Y-112137500D03*
%TD*%
D22*
%TO.P,C16,1*%
%TO.N,Net-(U3-REFTF)*%
X144837500Y-127200001D03*
%TO.P,C16,2*%
%TO.N,AGND*%
X146387500Y-127200001D03*
%TD*%
D18*
%TO.P,C23,1*%
%TO.N,MIXER_IF*%
X147025000Y-100425000D03*
%TO.P,C23,2*%
%TO.N,Net-(U5-IF)*%
X147025000Y-98875000D03*
%TD*%
D44*
%TO.P,J2,1,In*%
%TO.N,Net-(J2-In)*%
X151562500Y-123050000D03*
D45*
%TO.P,J2,2,Ext*%
%TO.N,AGND*%
X151312500Y-120225000D03*
X151312500Y-125875000D03*
%TD*%
D19*
%TO.P,C55,1*%
%TO.N,AGND*%
X123325000Y-90942500D03*
%TO.P,C55,2*%
%TO.N,Net-(U7-TEMP)*%
X123325000Y-92492500D03*
%TD*%
D22*
%TO.P,C11,1*%
%TO.N,AGND*%
X143850000Y-105262500D03*
%TO.P,C11,2*%
%TO.N,Net-(C11-Pad2)*%
X145400000Y-105262500D03*
%TD*%
D34*
%TO.P,R21,1*%
%TO.N,Net-(D4-K)*%
X105555001Y-126580001D03*
%TO.P,R21,2*%
%TO.N,AGND*%
X103905001Y-126580001D03*
%TD*%
D10*
%TO.P,R10,1*%
%TO.N,Net-(U7-CPout)*%
X120500000Y-102350000D03*
%TO.P,R10,2*%
%TO.N,Net-(U7-VTUNE)*%
X122150000Y-102350000D03*
%TD*%
D22*
%TO.P,C15,1*%
%TO.N,Net-(U3-REFBF)*%
X144862500Y-125700001D03*
%TO.P,C15,2*%
%TO.N,AGND*%
X146412500Y-125700001D03*
%TD*%
D17*
%TO.P,U6,1,IN*%
%TO.N,VCC*%
X115887500Y-108337500D03*
%TO.P,U6,2,GND*%
%TO.N,AGND*%
X115887500Y-109287500D03*
%TO.P,U6,3,EN*%
%TO.N,VCC*%
X115887500Y-110237500D03*
%TO.P,U6,4,BP*%
%TO.N,Net-(U6-BP)*%
X118162500Y-110237500D03*
%TO.P,U6,5,OUT*%
%TO.N,+3V3_D*%
X118162500Y-108337500D03*
%TD*%
D19*
%TO.P,C2,1*%
%TO.N,Net-(U4-Vcc)*%
X142475000Y-86425000D03*
%TO.P,C2,2*%
%TO.N,AGND*%
X142475000Y-87975000D03*
%TD*%
D34*
%TO.P,R6,1*%
%TO.N,Net-(D1-K)*%
X109965000Y-94442500D03*
%TO.P,R6,2*%
%TO.N,AGND*%
X108315000Y-94442500D03*
%TD*%
D19*
%TO.P,C59,1*%
%TO.N,Net-(U7-VTUNE)*%
X123575000Y-102300000D03*
%TO.P,C59,2*%
%TO.N,AGND*%
X123575000Y-103850000D03*
%TD*%
D11*
%TO.P,D3,1,K*%
%TO.N,AGND*%
X108525000Y-128260000D03*
%TO.P,D3,2,A*%
%TO.N,DONE*%
X106950000Y-128260000D03*
%TD*%
D35*
%TO.P,U4,1,Vcc*%
%TO.N,Net-(U4-Vcc)*%
X146425000Y-86150000D03*
%TO.P,U4,2,G*%
%TO.N,AGND*%
X147075000Y-86150000D03*
%TO.P,U4,3*%
%TO.N,Net-(C21-Pad1)*%
X147725000Y-86150000D03*
%TO.P,U4,4,G*%
%TO.N,AGND*%
X147725000Y-84250000D03*
%TO.P,U4,5,G*%
X147075000Y-84250000D03*
%TO.P,U4,6*%
%TO.N,Net-(C65-Pad2)*%
X146425000Y-84250000D03*
%TD*%
D18*
%TO.P,C31,1*%
%TO.N,+3V3_D*%
X119912500Y-108362500D03*
%TO.P,C31,2*%
%TO.N,AGND*%
X119912500Y-106812500D03*
%TD*%
D22*
%TO.P,C63,1*%
%TO.N,+3V3_A*%
X135000000Y-135675000D03*
%TO.P,C63,2*%
%TO.N,AGND*%
X136550000Y-135675000D03*
%TD*%
D19*
%TO.P,C21,1*%
%TO.N,Net-(C21-Pad1)*%
X147025000Y-89725000D03*
%TO.P,C21,2*%
%TO.N,Net-(U5-RF)*%
X147025000Y-91275000D03*
%TD*%
D29*
%TO.P,L6,1,1*%
%TO.N,Net-(C11-Pad2)*%
X146875000Y-105875000D03*
%TO.P,L6,2,2*%
%TO.N,Net-(C12-Pad2)*%
X146875000Y-107450000D03*
%TD*%
D26*
%TO.P,J5,1,Pin_1*%
%TO.N,unconnected-(J5-Pin_1-Pad1)*%
X107287113Y-77844521D03*
D27*
%TO.P,J5,2,Pin_2*%
%TO.N,unconnected-(J5-Pin_2-Pad2)*%
X109827113Y-77844521D03*
%TO.P,J5,3,Pin_3*%
%TO.N,unconnected-(J5-Pin_3-Pad3)*%
X112367113Y-77844521D03*
%TO.P,J5,4,Pin_4*%
%TO.N,unconnected-(J5-Pin_4-Pad4)*%
X114907113Y-77844521D03*
%TO.P,J5,5,Pin_5*%
%TO.N,unconnected-(J5-Pin_5-Pad5)*%
X117447113Y-77844521D03*
%TO.P,J5,6,Pin_6*%
%TO.N,unconnected-(J5-Pin_6-Pad6)*%
X119987113Y-77844521D03*
%TO.P,J5,7,Pin_7*%
%TO.N,unconnected-(J5-Pin_7-Pad7)*%
X122527113Y-77844521D03*
%TO.P,J5,8,Pin_8*%
%TO.N,unconnected-(J5-Pin_8-Pad8)*%
X125067113Y-77844521D03*
%TO.P,J5,9,Pin_9*%
%TO.N,unconnected-(J5-Pin_9-Pad9)*%
X127607113Y-77844521D03*
%TO.P,J5,10,Pin_10*%
%TO.N,unconnected-(J5-Pin_10-Pad10)*%
X130147113Y-77844521D03*
%TD*%
D26*
%TO.P,J7,1,Pin_1*%
%TO.N,unconnected-(J7-Pin_1-Pad1)*%
X107273600Y-146756254D03*
D27*
%TO.P,J7,2,Pin_2*%
%TO.N,AGND*%
X107273600Y-144216254D03*
%TO.P,J7,3,Pin_3*%
%TO.N,UART0_TXD*%
X109813600Y-146756254D03*
%TO.P,J7,4,Pin_4*%
%TO.N,GPIO73*%
X109813600Y-144216254D03*
%TO.P,J7,5,Pin_5*%
%TO.N,UART0_RXD*%
X112353600Y-146756254D03*
%TO.P,J7,6,Pin_6*%
%TO.N,GPIO72*%
X112353600Y-144216254D03*
%TO.P,J7,7,Pin_7*%
%TO.N,unconnected-(J7-Pin_7-Pad7)*%
X114893600Y-146756254D03*
%TO.P,J7,8,Pin_8*%
%TO.N,GPIO75*%
X114893600Y-144216254D03*
%TO.P,J7,9,Pin_9*%
%TO.N,unconnected-(J7-Pin_9-Pad9)*%
X117433600Y-146756254D03*
%TO.P,J7,10,Pin_10*%
%TO.N,GPIO74*%
X117433600Y-144216254D03*
%TO.P,J7,11,Pin_11*%
%TO.N,unconnected-(J7-Pin_11-Pad11)*%
X119973600Y-146756254D03*
%TO.P,J7,12,Pin_12*%
%TO.N,unconnected-(J7-Pin_12-Pad12)*%
X119973600Y-144216254D03*
%TO.P,J7,13,Pin_13*%
%TO.N,unconnected-(J7-Pin_13-Pad13)*%
X122513600Y-146756254D03*
%TO.P,J7,14,Pin_14*%
%TO.N,unconnected-(J7-Pin_14-Pad14)*%
X122513600Y-144216254D03*
%TO.P,J7,15,Pin_15*%
%TO.N,GPIO69*%
X125053600Y-146756254D03*
%TO.P,J7,16,Pin_16*%
%TO.N,GPIO85*%
X125053600Y-144216254D03*
%TO.P,J7,17,Pin_17*%
%TO.N,GPIO70*%
X127593600Y-146756254D03*
%TO.P,J7,18,Pin_18*%
%TO.N,GPIO84*%
X127593600Y-144216254D03*
%TO.P,J7,19,Pin_19*%
%TO.N,AGND*%
X130133600Y-146756254D03*
%TO.P,J7,20,Pin_20*%
X130133600Y-144216254D03*
%TO.P,J7,21,Pin_21*%
%TO.N,GPIO60*%
X132673600Y-146756254D03*
%TO.P,J7,22,Pin_22*%
%TO.N,GPIO63*%
X132673600Y-144216254D03*
%TO.P,J7,23,Pin_23*%
%TO.N,GPIO64*%
X135213600Y-146756254D03*
%TO.P,J7,24,Pin_24*%
%TO.N,GPIO61*%
X135213600Y-144216254D03*
%TO.P,J7,25,Pin_25*%
%TO.N,GPIO67*%
X137753600Y-146756254D03*
%TO.P,J7,26,Pin_26*%
%TO.N,GPIO62*%
X137753600Y-144216254D03*
%TO.P,J7,27,Pin_27*%
%TO.N,GPIO65*%
X140293600Y-146756254D03*
%TO.P,J7,28,Pin_28*%
%TO.N,GPIO66*%
X140293600Y-144216254D03*
%TO.P,J7,29,Pin_29*%
%TO.N,VCC*%
X142833600Y-146756254D03*
%TO.P,J7,30,Pin_30*%
%TO.N,AGND*%
X142833600Y-144216254D03*
%TD*%
D46*
%TO.N,DONE*%
X106950000Y-128260000D03*
X114575000Y-128200000D03*
%TO.N,+3V3_D*%
X113825000Y-129800000D03*
X125975000Y-131400000D03*
D47*
X104097890Y-128258842D03*
D46*
X113825000Y-123800000D03*
X123975000Y-131250000D03*
D47*
X121925000Y-107850000D03*
D46*
X113920945Y-131274897D03*
X113825000Y-120800000D03*
D47*
X107775000Y-123200000D03*
D46*
X126275000Y-128850000D03*
D47*
X121225000Y-108350000D03*
X121925000Y-108850000D03*
D46*
X113975000Y-118400000D03*
X126225000Y-119800000D03*
D47*
%TO.N,VCC*%
X138925000Y-86450000D03*
X145975000Y-141500000D03*
X146025000Y-139950000D03*
X105125000Y-84350000D03*
X136925000Y-105350000D03*
X136925000Y-106200000D03*
X145075000Y-139400000D03*
X136625000Y-95650000D03*
X112925000Y-107300000D03*
X139225000Y-114550000D03*
X145075000Y-142050000D03*
X145075000Y-140650000D03*
X105175000Y-83450000D03*
X112925000Y-108250000D03*
D46*
%TO.N,+3V3_A*%
X137525000Y-121300000D03*
D47*
X136125000Y-112600000D03*
X135475000Y-113300000D03*
X134825000Y-112600000D03*
D46*
X137725000Y-124350000D03*
X134825000Y-132400000D03*
D47*
X135525000Y-120300000D03*
D46*
%TO.N,AGND*%
X119925000Y-107150000D03*
X122825000Y-103850000D03*
D47*
X118825000Y-97700000D03*
D46*
X146575000Y-77350000D03*
D47*
X115375000Y-122250000D03*
D46*
X147775000Y-114950000D03*
X117875000Y-90900000D03*
X151475000Y-125900000D03*
D47*
X115475000Y-130600000D03*
D46*
X133525000Y-104400000D03*
X148475000Y-113300000D03*
D47*
X120925000Y-97750000D03*
D46*
X133775000Y-120750000D03*
X130625000Y-129550000D03*
X112975000Y-110050000D03*
D47*
X109325000Y-123250000D03*
D46*
X117575000Y-104750000D03*
X112975000Y-109300000D03*
X146275000Y-85200000D03*
X143375000Y-123350000D03*
X122625000Y-90900000D03*
X114875000Y-90850000D03*
X152275000Y-77400000D03*
X112175000Y-82100000D03*
X143225000Y-87950000D03*
D47*
X148975000Y-95000000D03*
D46*
X147725000Y-115800000D03*
X143875000Y-106750000D03*
X112225000Y-87350000D03*
X146375000Y-126400000D03*
D47*
X118825000Y-96600000D03*
D46*
X151525000Y-120300000D03*
X123975000Y-113100000D03*
D47*
X143075000Y-137800000D03*
D46*
X146975000Y-113250000D03*
X147675000Y-113300000D03*
X137425000Y-127700000D03*
X136525000Y-134900000D03*
X126925000Y-99700000D03*
X107025000Y-86250000D03*
D47*
X124675000Y-120850000D03*
D46*
X143875000Y-104050000D03*
X147775000Y-85200000D03*
D47*
X119925000Y-96650000D03*
X103925000Y-126550000D03*
X115425000Y-119300000D03*
D46*
X143475000Y-91450000D03*
D47*
X112125000Y-99450000D03*
D46*
X119925000Y-112100000D03*
X116425000Y-90900000D03*
X131825000Y-111600000D03*
D47*
X124725000Y-129700000D03*
D46*
X137825000Y-94050000D03*
D47*
X110975000Y-92950000D03*
D46*
X139875000Y-98900000D03*
X137625000Y-123050000D03*
X134425000Y-104400000D03*
X137375000Y-111650000D03*
X107025000Y-85650000D03*
X147025000Y-85200000D03*
D47*
X119925000Y-97700000D03*
X120925000Y-96650000D03*
D46*
X133425000Y-77450000D03*
X139175000Y-77300000D03*
%TO.N,Net-(J1-CC1)*%
X150525000Y-136700000D03*
%TO.N,Net-(J1-CC2)*%
X150575000Y-133750000D03*
%TO.N,ADC_CLK*%
X136875000Y-130700000D03*
X129775000Y-125000000D03*
%TO.N,GPIO84*%
X117275000Y-134200000D03*
%TO.N,GPIO85*%
X116275000Y-134150000D03*
%TO.N,Net-(U3-DVDD)*%
X133775000Y-122200000D03*
%TO.N,Net-(U5-VCC)*%
X139725000Y-95700000D03*
%TO.N,+3V3_PLL*%
X116325000Y-98900000D03*
D47*
X113175000Y-83800000D03*
X120475000Y-92500000D03*
X113825000Y-83200000D03*
D46*
X116325000Y-97300000D03*
D47*
X113825000Y-84400000D03*
D46*
X119625000Y-100875000D03*
X116325000Y-95900000D03*
D47*
X113575000Y-96150000D03*
D46*
X122975000Y-98600000D03*
%TO.N,Net-(U7-RSET)*%
X119225000Y-94050000D03*
%TO.N,4350_SPI_CLK*%
X110975000Y-121450000D03*
%TO.N,4350_SPI_DATA*%
X110975000Y-122300000D03*
%TO.N,+3V3_PLL_VCO*%
X123075000Y-95600000D03*
X122675000Y-94050000D03*
%TO.N,4350_SPI_LE*%
X110975000Y-123100000D03*
%TO.N,Net-(U7-VTUNE)*%
X122125000Y-102300000D03*
X120225000Y-93550000D03*
%TO.N,Net-(C61-Pad1)*%
X125575000Y-98200000D03*
%TO.N,Net-(C62-Pad1)*%
X127075000Y-96850000D03*
%TD*%
D48*
%TO.N,Net-(D2-K)*%
X149150000Y-142550000D02*
X150637500Y-142550000D01*
X150637500Y-142550000D02*
X150687500Y-142600000D01*
%TO.N,AGND*%
X152337500Y-142600000D02*
X152337500Y-140072499D01*
X152337500Y-140072499D02*
X152644999Y-139765000D01*
%TO.N,VCC*%
X147575000Y-142550000D02*
X147025000Y-142550000D01*
X147025000Y-142550000D02*
X145975000Y-141500000D01*
D49*
%TO.N,DONE*%
X125962500Y-117137500D02*
X125962500Y-118662500D01*
X106265000Y-128250000D02*
X105525000Y-128250000D01*
X123075000Y-122900000D02*
X117725000Y-128250000D01*
X125675000Y-118950000D02*
X124075000Y-118950000D01*
X114625000Y-128250000D02*
X114575000Y-128200000D01*
X106950000Y-128260000D02*
X106275000Y-128260000D01*
X125962500Y-118662500D02*
X125675000Y-118950000D01*
X106275000Y-128260000D02*
X106265000Y-128250000D01*
X117725000Y-128250000D02*
X114625000Y-128250000D01*
X123075000Y-119950000D02*
X123075000Y-122900000D01*
X124075000Y-118950000D02*
X123075000Y-119950000D01*
X114575000Y-128200000D02*
X114575000Y-128250000D01*
%TO.N,TDI*%
X109385000Y-112960000D02*
X111825000Y-115400000D01*
X116962500Y-115887500D02*
X116962500Y-117137500D01*
X111825000Y-115400000D02*
X116475000Y-115400000D01*
X116475000Y-115400000D02*
X116962500Y-115887500D01*
X104900000Y-112960000D02*
X109385000Y-112960000D01*
%TO.N,TCK*%
X105905000Y-107880000D02*
X104900000Y-107880000D01*
X118462500Y-117137500D02*
X118462500Y-115737500D01*
X118462500Y-115737500D02*
X117675000Y-114950000D01*
X117675000Y-114950000D02*
X112975000Y-114950000D01*
X112975000Y-114950000D02*
X105905000Y-107880000D01*
%TO.N,TMS*%
X118962500Y-117137500D02*
X118962500Y-115287500D01*
X114010000Y-114450000D02*
X104900000Y-105340000D01*
X118962500Y-115287500D02*
X118125000Y-114450000D01*
X118125000Y-114450000D02*
X114010000Y-114450000D01*
%TO.N,TDO*%
X109925000Y-114250000D02*
X104075000Y-114250000D01*
X103625000Y-111695000D02*
X104900000Y-110420000D01*
X116462500Y-116137500D02*
X116125000Y-115800000D01*
X116462500Y-117137500D02*
X116462500Y-116137500D01*
X104075000Y-114250000D02*
X103625000Y-113800000D01*
X111475000Y-115800000D02*
X109925000Y-114250000D01*
X116125000Y-115800000D02*
X111475000Y-115800000D01*
X103625000Y-113800000D02*
X103625000Y-111695000D01*
%TO.N,JTAGENB*%
X122962500Y-115275001D02*
X122437500Y-114750001D01*
X122962500Y-117137500D02*
X122962500Y-115275001D01*
%TO.N,PROGRAMB*%
X123462500Y-117137500D02*
X123462500Y-115250001D01*
X123462500Y-115250001D02*
X123937500Y-114775001D01*
D50*
%TO.N,+3V3_D*%
X126325000Y-128800000D02*
X126275000Y-128850000D01*
X113962500Y-132462500D02*
X113962500Y-131337500D01*
X127625000Y-119800000D02*
X126225000Y-119800000D01*
X112300000Y-123800000D02*
X113825000Y-123800000D01*
X123962500Y-131262500D02*
X123975000Y-131250000D01*
X112300000Y-120800000D02*
X113825000Y-120800000D01*
X123962500Y-132462500D02*
X123962500Y-131262500D01*
X113962500Y-131337500D02*
X113925000Y-131300000D01*
X113975000Y-118400000D02*
X113962500Y-118387500D01*
X122437500Y-109362500D02*
X121925000Y-108850000D01*
X112300000Y-129800000D02*
X113825000Y-129800000D01*
X127625000Y-128800000D02*
X126325000Y-128800000D01*
X125962500Y-131412500D02*
X125975000Y-131400000D01*
X125962500Y-132462500D02*
X125962500Y-131412500D01*
X107750000Y-120025000D02*
X107625000Y-119900000D01*
X113962500Y-117137500D02*
X113962500Y-118387500D01*
X122437500Y-113100001D02*
X122437500Y-109362500D01*
X107775000Y-123200000D02*
X107750000Y-120025000D01*
X107750000Y-123205001D02*
X107775000Y-123200000D01*
%TO.N,VCC*%
X116737500Y-110237500D02*
X116975000Y-110000000D01*
X135575000Y-108200000D02*
X135575000Y-107462500D01*
X109325000Y-85200000D02*
X109325000Y-84100000D01*
X116975000Y-108650000D02*
X116662500Y-108337500D01*
X133675000Y-107462500D02*
X133675000Y-107853736D01*
X108925000Y-83700000D02*
X108200000Y-83700000D01*
X133675000Y-107853736D02*
X134273264Y-108452000D01*
D51*
X137612500Y-95650000D02*
X136625000Y-95650000D01*
D50*
X108200000Y-85600000D02*
X108925000Y-85600000D01*
X135323000Y-108452000D02*
X135575000Y-108200000D01*
X109325000Y-84100000D02*
X108925000Y-83700000D01*
X115887500Y-110237500D02*
X116737500Y-110237500D01*
X108925000Y-85600000D02*
X109325000Y-85200000D01*
X116975000Y-110000000D02*
X116975000Y-108650000D01*
X116662500Y-108337500D02*
X115887500Y-108337500D01*
X134273264Y-108452000D02*
X135323000Y-108452000D01*
D51*
%TO.N,Net-(U8-BP)*%
X133675000Y-109737500D02*
X133675000Y-111312500D01*
X133675000Y-111312500D02*
X133375000Y-111612500D01*
D50*
%TO.N,+3V3_A*%
X137675000Y-121150000D02*
X137525000Y-121300000D01*
X139214500Y-124448001D02*
X137823001Y-124448001D01*
X139312500Y-121100001D02*
X139262501Y-121150000D01*
X136125000Y-115400000D02*
X136125000Y-112600000D01*
X139262501Y-121150000D02*
X137675000Y-121150000D01*
X137823001Y-124448001D02*
X137725000Y-124350000D01*
X138375000Y-117650000D02*
X136125000Y-115400000D01*
X134775000Y-135450000D02*
X135000000Y-135675000D01*
X138375000Y-117650000D02*
X145775000Y-117650000D01*
X134825000Y-132400000D02*
X134775000Y-135450000D01*
X139312500Y-124350001D02*
X139214500Y-124448001D01*
X134775000Y-132375000D02*
X134825000Y-132400000D01*
%TO.N,AGND*%
X119075000Y-96600000D02*
X119825000Y-97350000D01*
X113175000Y-129300000D02*
X113425000Y-129050000D01*
X112300000Y-121300000D02*
X113425000Y-121300000D01*
D49*
X123975000Y-113100000D02*
X124000001Y-113125001D01*
D51*
X148295000Y-95730000D02*
X149025000Y-95000000D01*
D50*
X117462500Y-132462500D02*
X117462500Y-131587500D01*
X143362500Y-123337500D02*
X143375000Y-123350000D01*
X143850000Y-102912500D02*
X143850000Y-104025000D01*
X137425000Y-128400000D02*
X137425000Y-127900000D01*
X139312500Y-126950001D02*
X137674999Y-126950001D01*
X118825000Y-96600000D02*
X119075000Y-96600000D01*
X130625000Y-129550000D02*
X130625001Y-129550001D01*
X109300000Y-123205001D02*
X109325000Y-123250000D01*
X108315000Y-94442500D02*
X108315000Y-93710000D01*
X122962500Y-132462500D02*
X122962500Y-131012500D01*
D51*
X146625000Y-116000000D02*
X146975000Y-115650000D01*
D50*
X143362500Y-124125001D02*
X143387500Y-124150001D01*
X114875000Y-90850000D02*
X114937500Y-90912500D01*
X127625000Y-128300000D02*
X126505646Y-128300000D01*
X112300000Y-129300000D02*
X113175000Y-129300000D01*
X120575000Y-98100000D02*
X120175000Y-97700000D01*
X121075000Y-96100000D02*
X119825000Y-97350000D01*
X122962500Y-131012500D02*
X124275000Y-129700000D01*
X124875000Y-120650000D02*
X124675000Y-120850000D01*
X115025000Y-129050000D02*
X115625000Y-129650000D01*
X124925000Y-128250000D02*
X124725000Y-128450000D01*
X118610000Y-90912500D02*
X118615000Y-90917500D01*
X143875000Y-106750000D02*
X143850000Y-106775000D01*
X117862500Y-90912500D02*
X117875000Y-90900000D01*
D49*
X143225000Y-87950000D02*
X143250000Y-87975000D01*
D50*
X136550000Y-135675000D02*
X136550000Y-134925000D01*
X136550000Y-134350000D02*
X136875000Y-134025000D01*
X113425000Y-129050000D02*
X115025000Y-129050000D01*
X137625000Y-123050000D02*
X137625000Y-122950000D01*
X143362500Y-122650001D02*
X143362500Y-123337500D01*
X132112500Y-129550001D02*
X130625001Y-129550001D01*
X108315000Y-93710000D02*
X109075000Y-92950000D01*
X118575000Y-98600000D02*
X119825000Y-97350000D01*
X116425000Y-90900000D02*
X116437500Y-90912500D01*
X137524999Y-127600001D02*
X137425000Y-127700000D01*
X146375000Y-126400000D02*
X146412500Y-126437500D01*
X109325000Y-123250000D02*
X109300000Y-121975000D01*
X122225000Y-98100000D02*
X121275000Y-98100000D01*
X137674999Y-126950001D02*
X137425000Y-127200000D01*
X120775000Y-98300000D02*
X119825000Y-97350000D01*
X117425000Y-98600000D02*
X118575000Y-98600000D01*
D51*
X147844999Y-139165000D02*
X148444999Y-139765000D01*
D50*
X111900000Y-99225000D02*
X112125000Y-99450000D01*
X137725000Y-123050000D02*
X137625000Y-123050000D01*
D49*
X143250000Y-87975000D02*
X143975000Y-87975000D01*
D50*
X117875000Y-90900000D02*
X117887500Y-90912500D01*
X111900000Y-98300000D02*
X111900000Y-99225000D01*
D49*
X122825000Y-103850000D02*
X123575000Y-103850000D01*
D50*
X146412500Y-126437500D02*
X146412500Y-127175001D01*
D51*
X151925000Y-120012500D02*
X151662500Y-120275000D01*
D50*
X137425000Y-128400000D02*
X137925001Y-128900001D01*
X120175000Y-97700000D02*
X119925000Y-97700000D01*
X113425000Y-121300000D02*
X114375000Y-122250000D01*
X120925000Y-97750000D02*
X120575000Y-98100000D01*
D49*
X117575000Y-103875000D02*
X117575000Y-104750000D01*
D50*
X136550000Y-134925000D02*
X136525000Y-134900000D01*
X109300000Y-121975000D02*
X109725000Y-121550000D01*
X143362500Y-123362500D02*
X143362500Y-124125001D01*
D51*
X148975000Y-95000000D02*
X149025000Y-95000000D01*
X148485000Y-94460000D02*
X148975000Y-94950000D01*
D50*
X143850000Y-104075000D02*
X143850000Y-106725000D01*
X136550000Y-134875000D02*
X136550000Y-134350000D01*
D49*
X103905001Y-127030001D02*
X103905001Y-126580001D01*
X124775000Y-113650000D02*
X124775000Y-115550000D01*
D50*
X124275000Y-129700000D02*
X124725000Y-129700000D01*
X119925000Y-97700000D02*
X119925000Y-97450000D01*
D49*
X104325000Y-127450000D02*
X103905001Y-127030001D01*
D50*
X126155646Y-120650000D02*
X124875000Y-120650000D01*
X116925000Y-119300000D02*
X115425000Y-119300000D01*
D49*
X107715000Y-127450000D02*
X104325000Y-127450000D01*
D50*
X115625000Y-129650000D02*
X115625000Y-130450000D01*
X146412500Y-126362500D02*
X146375000Y-126400000D01*
X136525000Y-134900000D02*
X136550000Y-134875000D01*
X114937500Y-90912500D02*
X116412500Y-90912500D01*
X116412500Y-90912500D02*
X116425000Y-90900000D01*
X119925000Y-97450000D02*
X119825000Y-97350000D01*
X122225000Y-99100000D02*
X121575000Y-99100000D01*
D49*
X123949999Y-113125001D02*
X123975000Y-113100000D01*
D50*
X114145000Y-90912500D02*
X114812500Y-90912500D01*
X143850000Y-104025000D02*
X143875000Y-104050000D01*
X119575000Y-94950000D02*
X119575000Y-96300000D01*
X143850000Y-106725000D02*
X143875000Y-106750000D01*
X133424999Y-121100001D02*
X133775000Y-120750000D01*
D51*
X146975000Y-94460000D02*
X148485000Y-94460000D01*
D50*
X137775001Y-128250001D02*
X137425000Y-127900000D01*
D51*
X151925000Y-117600000D02*
X151925000Y-120012500D01*
D50*
X117962500Y-118262500D02*
X116925000Y-119300000D01*
D49*
X124775000Y-115550000D02*
X124462500Y-115862500D01*
D50*
X121275000Y-98100000D02*
X120925000Y-97750000D01*
X126455646Y-128250000D02*
X124925000Y-128250000D01*
X122667500Y-90942500D02*
X122625000Y-90900000D01*
X117425000Y-96600000D02*
X118825000Y-96600000D01*
X111775000Y-98175000D02*
X111900000Y-98300000D01*
D51*
X147844999Y-138645000D02*
X147844999Y-139165000D01*
D50*
X121575000Y-99750000D02*
X121575000Y-99100000D01*
D49*
X108525000Y-128260000D02*
X107715000Y-127450000D01*
D50*
X122582500Y-90942500D02*
X121890000Y-90942500D01*
D51*
X142825000Y-116000000D02*
X146625000Y-116000000D01*
D49*
X124462500Y-115862500D02*
X124462500Y-117137500D01*
D50*
X120875000Y-98400000D02*
X120775000Y-98400000D01*
X119925000Y-96650000D02*
X119575000Y-97000000D01*
D49*
X142475000Y-87975000D02*
X143200000Y-87975000D01*
D50*
X137625000Y-122950000D02*
X137725001Y-123050001D01*
X146412500Y-127175001D02*
X146387500Y-127200001D01*
X143375000Y-123350000D02*
X143362500Y-123362500D01*
D51*
X148975000Y-94950000D02*
X148975000Y-95000000D01*
D49*
X123937500Y-113125001D02*
X123949999Y-113125001D01*
D50*
X126505646Y-128300000D02*
X126455646Y-128250000D01*
X121075000Y-94950000D02*
X121075000Y-96100000D01*
X139312500Y-127600001D02*
X137524999Y-127600001D01*
X114812500Y-90912500D02*
X114875000Y-90850000D01*
X109075000Y-92950000D02*
X110975000Y-92950000D01*
X123325000Y-90942500D02*
X122667500Y-90942500D01*
X139312500Y-123050001D02*
X137725001Y-123050001D01*
X117962500Y-117137500D02*
X117962500Y-118262500D01*
X119575000Y-97000000D02*
X119575000Y-97100000D01*
X122625000Y-90900000D02*
X122582500Y-90942500D01*
X115625000Y-130450000D02*
X115475000Y-130600000D01*
X146412500Y-125700001D02*
X146412500Y-126362500D01*
D49*
X124000001Y-113125001D02*
X124250001Y-113125001D01*
D50*
X114375000Y-122250000D02*
X115375000Y-122250000D01*
X127625000Y-120300000D02*
X126505646Y-120300000D01*
X143850000Y-106775000D02*
X143850000Y-110412500D01*
X137425000Y-127900000D02*
X137425000Y-127700000D01*
X119575000Y-97100000D02*
X119825000Y-97350000D01*
D49*
X124250001Y-113125001D02*
X124775000Y-113650000D01*
D50*
X116437500Y-90912500D02*
X117862500Y-90912500D01*
X121890000Y-90942500D02*
X121865000Y-90917500D01*
X110225000Y-98175000D02*
X111775000Y-98175000D01*
D51*
X147844999Y-131725000D02*
X148444999Y-131125000D01*
X147844999Y-132245000D02*
X147844999Y-131725000D01*
D50*
X139312500Y-128900001D02*
X137925001Y-128900001D01*
X137425000Y-127200000D02*
X137425000Y-127700000D01*
X116475000Y-130600000D02*
X115475000Y-130600000D01*
X120775000Y-98400000D02*
X120775000Y-98300000D01*
X119575000Y-96300000D02*
X119925000Y-96650000D01*
X143875000Y-104050000D02*
X143850000Y-104075000D01*
X139312500Y-128250001D02*
X137775001Y-128250001D01*
X126505646Y-120300000D02*
X126155646Y-120650000D01*
D51*
X146975000Y-95730000D02*
X148295000Y-95730000D01*
D49*
X143200000Y-87975000D02*
X143225000Y-87950000D01*
D50*
X132112500Y-121100001D02*
X133424999Y-121100001D01*
X117462500Y-131587500D02*
X116475000Y-130600000D01*
D49*
X122125000Y-103850000D02*
X122825000Y-103850000D01*
D50*
X117887500Y-90912500D02*
X118610000Y-90912500D01*
X124725000Y-128450000D02*
X124725000Y-129700000D01*
X121575000Y-99100000D02*
X120875000Y-98400000D01*
D49*
%TO.N,Net-(J1-CC1)*%
X147844999Y-136695000D02*
X150520000Y-136695000D01*
X150520000Y-136695000D02*
X150525000Y-136700000D01*
%TO.N,Net-(J1-CC2)*%
X147844999Y-133695000D02*
X150520000Y-133695000D01*
X150520000Y-133695000D02*
X150575000Y-133750000D01*
%TO.N,ADC_D7*%
X129675001Y-126950001D02*
X132112500Y-126950001D01*
X129025000Y-126300000D02*
X129675001Y-126950001D01*
X127625000Y-126300000D02*
X129025000Y-126300000D01*
%TO.N,ADC_D6*%
X129625001Y-126300001D02*
X132112500Y-126300001D01*
X127625000Y-125800000D02*
X129125000Y-125800000D01*
X129125000Y-125800000D02*
X129625001Y-126300001D01*
%TO.N,ADC_D3*%
X130025000Y-123800000D02*
X130575001Y-124350001D01*
X127625000Y-123800000D02*
X130025000Y-123800000D01*
X130575001Y-124350001D02*
X132112500Y-124350001D01*
%TO.N,ADC_D2*%
X127625000Y-123300000D02*
X130325000Y-123300000D01*
X130725001Y-123700001D02*
X132112500Y-123700001D01*
X130325000Y-123300000D02*
X130725001Y-123700001D01*
%TO.N,ADC_D8*%
X127625000Y-126800000D02*
X128975000Y-126800000D01*
X128975000Y-126800000D02*
X129775001Y-127600001D01*
X129775001Y-127600001D02*
X132112500Y-127600001D01*
%TO.N,ADC_CLK*%
X129575000Y-124800000D02*
X129775000Y-125000000D01*
X127625000Y-124800000D02*
X129575000Y-124800000D01*
D50*
X137924999Y-129550001D02*
X139312500Y-129550001D01*
X136875000Y-130600000D02*
X137924999Y-129550001D01*
X136875000Y-132375000D02*
X136875000Y-130600000D01*
D49*
%TO.N,ADC_D4*%
X129975000Y-124300000D02*
X130675001Y-125000001D01*
X130675001Y-125000001D02*
X132112500Y-125000001D01*
X127625000Y-124300000D02*
X129975000Y-124300000D01*
%TO.N,ADC_D1*%
X130525000Y-122800000D02*
X130775001Y-123050001D01*
X130775001Y-123050001D02*
X132112500Y-123050001D01*
X127625000Y-122800000D02*
X130525000Y-122800000D01*
%TO.N,ADC_D5*%
X129525000Y-125650000D02*
X130025000Y-125650000D01*
X127625000Y-125300000D02*
X129175000Y-125300000D01*
X129175000Y-125300000D02*
X129525000Y-125650000D01*
X130025000Y-125650000D02*
X130025001Y-125650001D01*
X130025001Y-125650001D02*
X132112500Y-125650001D01*
%TO.N,ADC_D0*%
X128975000Y-122300000D02*
X127625000Y-122300000D01*
X132112500Y-122400001D02*
X129075001Y-122400001D01*
X129075001Y-122400001D02*
X128975000Y-122300000D01*
%TO.N,ADC_OTR*%
X127625000Y-127800000D02*
X128575000Y-127800000D01*
X128575000Y-127800000D02*
X129675001Y-128900001D01*
X129675001Y-128900001D02*
X132112500Y-128900001D01*
%TO.N,ADC_D9*%
X129825001Y-128250001D02*
X132112500Y-128250001D01*
X128875000Y-127300000D02*
X129825001Y-128250001D01*
X127625000Y-127300000D02*
X128875000Y-127300000D01*
%TO.N,EXT_LO*%
X131475000Y-91700000D02*
X131475000Y-89150000D01*
X136225000Y-84400000D02*
X136225000Y-77112500D01*
X131475000Y-89150000D02*
X136225000Y-84400000D01*
%TO.N,GPIO63*%
X131575000Y-139300000D02*
X132673600Y-140398600D01*
X132673600Y-140398600D02*
X132673600Y-144216254D01*
X119462500Y-134187500D02*
X124575000Y-139300000D01*
X124575000Y-139300000D02*
X131575000Y-139300000D01*
X119462500Y-132462500D02*
X119462500Y-134187500D01*
%TO.N,GPIO64*%
X131875000Y-138800000D02*
X133925000Y-140850000D01*
X124625000Y-138800000D02*
X131875000Y-138800000D01*
X133925000Y-145467654D02*
X135213600Y-146756254D01*
X133925000Y-140850000D02*
X133925000Y-145467654D01*
X119962500Y-134137500D02*
X124625000Y-138800000D01*
X119962500Y-132462500D02*
X119962500Y-134137500D01*
D48*
%TO.N,GPIO75*%
X110425000Y-128650000D02*
X110775000Y-128300000D01*
X110425000Y-130750000D02*
X110425000Y-128650000D01*
X109325000Y-138647654D02*
X109325000Y-131850000D01*
X109325000Y-131850000D02*
X110425000Y-130750000D01*
X114893600Y-144216254D02*
X109325000Y-138647654D01*
X110775000Y-128300000D02*
X112300000Y-128300000D01*
%TO.N,GPIO72*%
X109975000Y-130550000D02*
X109975000Y-128150000D01*
X108625000Y-131900000D02*
X109975000Y-130550000D01*
X112353600Y-142728600D02*
X108625000Y-139000000D01*
X109975000Y-128150000D02*
X110325000Y-127800000D01*
X108625000Y-139000000D02*
X108625000Y-131900000D01*
X112353600Y-144216254D02*
X112353600Y-142728600D01*
X110325000Y-127800000D02*
X112300000Y-127800000D01*
D49*
%TO.N,GPIO84*%
X116962500Y-132462500D02*
X116962500Y-133887500D01*
X116962500Y-133887500D02*
X117275000Y-134200000D01*
%TO.N,FPGA_CLK*%
X109825000Y-119800000D02*
X112300000Y-119800000D01*
X109725000Y-119900000D02*
X109825000Y-119800000D01*
D48*
%TO.N,USR*%
X112300000Y-124300000D02*
X110925000Y-124300000D01*
X110925000Y-124300000D02*
X108625000Y-126600000D01*
X108625000Y-126600000D02*
X108512501Y-126600000D01*
D49*
%TO.N,Net-(D4-K)*%
X106937501Y-126600000D02*
X105575000Y-126600000D01*
X105575000Y-126600000D02*
X105555001Y-126580001D01*
%TO.N,GPIO62*%
X137753600Y-141928600D02*
X137753600Y-144216254D01*
X121462500Y-132462500D02*
X121462500Y-133937500D01*
X133175000Y-137350000D02*
X137753600Y-141928600D01*
X121462500Y-133937500D02*
X124875000Y-137350000D01*
X124875000Y-137350000D02*
X133175000Y-137350000D01*
%TO.N,GPIO65*%
X139025000Y-145487654D02*
X140293600Y-146756254D01*
X121962500Y-133837500D02*
X124925000Y-136800000D01*
X121962500Y-132462500D02*
X121962500Y-133837500D01*
X133275000Y-136800000D02*
X139025000Y-142550000D01*
X124925000Y-136800000D02*
X133275000Y-136800000D01*
X139025000Y-142550000D02*
X139025000Y-145487654D01*
%TO.N,GPIO66*%
X140293600Y-144216254D02*
X140293600Y-142968600D01*
X125425000Y-136350000D02*
X122462500Y-133387500D01*
X140293600Y-142968600D02*
X133675000Y-136350000D01*
X133675000Y-136350000D02*
X125425000Y-136350000D01*
X122462500Y-133387500D02*
X122462500Y-132462500D01*
%TO.N,GPIO60*%
X131375000Y-145457654D02*
X131375000Y-140350000D01*
X124325000Y-139750000D02*
X118962500Y-134387500D01*
X132673600Y-146756254D02*
X131375000Y-145457654D01*
X130775000Y-139750000D02*
X124325000Y-139750000D01*
X118962500Y-134387500D02*
X118962500Y-132462500D01*
X131375000Y-140350000D02*
X130775000Y-139750000D01*
%TO.N,GPIO69*%
X123725000Y-143150000D02*
X123725000Y-145427654D01*
X123725000Y-145427654D02*
X125053600Y-146756254D01*
X127725000Y-141100000D02*
X127725000Y-141950000D01*
X124775000Y-142100000D02*
X123725000Y-143150000D01*
X127375000Y-140750000D02*
X127725000Y-141100000D01*
X127575000Y-142100000D02*
X124775000Y-142100000D01*
X127725000Y-141950000D02*
X127575000Y-142100000D01*
X117962500Y-134787500D02*
X123925000Y-140750000D01*
X123925000Y-140750000D02*
X127375000Y-140750000D01*
X117962500Y-132462500D02*
X117962500Y-134787500D01*
%TO.N,GPIO61*%
X120462500Y-132462500D02*
X120462500Y-134087500D01*
X124581000Y-138206000D02*
X132775000Y-138206000D01*
X120462500Y-134087500D02*
X124581000Y-138206000D01*
X135213600Y-140644600D02*
X135213600Y-144216254D01*
X132775000Y-138206000D02*
X135213600Y-140644600D01*
%TO.N,GPIO70*%
X126925000Y-142650000D02*
X126325000Y-143250000D01*
X126325000Y-145487654D02*
X127593600Y-146756254D01*
X128825000Y-142650000D02*
X126925000Y-142650000D01*
X126325000Y-143250000D02*
X126325000Y-145487654D01*
X129475000Y-142000000D02*
X128825000Y-142650000D01*
X118462500Y-132462500D02*
X118462500Y-134587500D01*
X124025000Y-140150000D02*
X128675000Y-140150000D01*
X128675000Y-140150000D02*
X129475000Y-140950000D01*
X129475000Y-140950000D02*
X129475000Y-142000000D01*
X118462500Y-134587500D02*
X124025000Y-140150000D01*
D48*
%TO.N,GPIO73*%
X107875000Y-131650000D02*
X109425000Y-130100000D01*
X107875000Y-139250000D02*
X107875000Y-131650000D01*
X109813600Y-144216254D02*
X109813600Y-141188600D01*
X109425000Y-130100000D02*
X109425000Y-127700000D01*
X109825000Y-127300000D02*
X112300000Y-127300000D01*
X109425000Y-127700000D02*
X109825000Y-127300000D01*
X109813600Y-141188600D02*
X107875000Y-139250000D01*
%TO.N,GPIO74*%
X111375000Y-128800000D02*
X112300000Y-128800000D01*
X110975000Y-129200000D02*
X111375000Y-128800000D01*
X110075000Y-136857654D02*
X110075000Y-131950000D01*
X110975000Y-131050000D02*
X110975000Y-129200000D01*
X110075000Y-131950000D02*
X110975000Y-131050000D01*
X117433600Y-144216254D02*
X110075000Y-136857654D01*
D49*
%TO.N,GPIO67*%
X120962500Y-132462500D02*
X120962500Y-134037500D01*
X136475000Y-145477654D02*
X137753600Y-146756254D01*
X120962500Y-134037500D02*
X124775000Y-137850000D01*
X132925000Y-137850000D02*
X136475000Y-141400000D01*
X136475000Y-141400000D02*
X136475000Y-145477654D01*
X124775000Y-137850000D02*
X132925000Y-137850000D01*
%TO.N,GPIO85*%
X116462500Y-132462500D02*
X116462500Y-133962500D01*
X116462500Y-133962500D02*
X116275000Y-134150000D01*
D50*
%TO.N,Net-(U3-REFTS)*%
X136925000Y-122650000D02*
X136925000Y-124800000D01*
X141837500Y-124150001D02*
X141837500Y-122675001D01*
X137775001Y-125650001D02*
X139312500Y-125650001D01*
X139312500Y-122400001D02*
X141562500Y-122400001D01*
X141562500Y-122400001D02*
X141812500Y-122650001D01*
X139312500Y-122400001D02*
X137174999Y-122400001D01*
X141837500Y-122675001D02*
X141812500Y-122650001D01*
X136925000Y-124800000D02*
X137775001Y-125650001D01*
X137174999Y-122400001D02*
X136925000Y-122650000D01*
%TO.N,Net-(U3-REFBF)*%
X140925000Y-124150000D02*
X140925000Y-124700000D01*
X141862500Y-125675001D02*
X144837500Y-125675001D01*
X139312500Y-123700001D02*
X140475001Y-123700001D01*
X141862500Y-125675001D02*
X141862500Y-125637500D01*
X140475001Y-123700001D02*
X140925000Y-124150000D01*
X144837500Y-125675001D02*
X144862500Y-125700001D01*
X141862500Y-125637500D02*
X140925000Y-124700000D01*
%TO.N,Net-(U3-REFTF)*%
X139312500Y-125000001D02*
X140441500Y-125000001D01*
X141175001Y-127200001D02*
X144837500Y-127200001D01*
X140775000Y-125333501D02*
X140775000Y-126800000D01*
X140775000Y-126800000D02*
X141175001Y-127200001D01*
X140441500Y-125000001D02*
X140775000Y-125333501D01*
%TO.N,Net-(U3-DVDD)*%
X133325001Y-121750001D02*
X133775000Y-122200000D01*
X132112500Y-121750001D02*
X133325001Y-121750001D01*
D49*
%TO.N,ADC_IN*%
X147425000Y-117650000D02*
X150225000Y-117650000D01*
X140824999Y-121750001D02*
X142090000Y-120485000D01*
X142090000Y-120485000D02*
X147475000Y-120485000D01*
X147425000Y-117650000D02*
X147425000Y-120435000D01*
X139312500Y-121750001D02*
X140824999Y-121750001D01*
X150225000Y-117650000D02*
X150275000Y-117600000D01*
X147425000Y-120435000D02*
X147475000Y-120485000D01*
%TO.N,Net-(U5-VCC)*%
X139725000Y-95700000D02*
X139725000Y-95637500D01*
X139787500Y-95700000D02*
X139725000Y-95700000D01*
D51*
X141825000Y-95730000D02*
X139817500Y-95730000D01*
D49*
X139817500Y-95730000D02*
X139787500Y-95700000D01*
X139725000Y-95637500D02*
X139737500Y-95650000D01*
D51*
X139817500Y-95730000D02*
X139737500Y-95650000D01*
D49*
%TO.N,Net-(C9-Pad1)*%
X148350000Y-114200000D02*
X148350000Y-115550000D01*
X148350000Y-115550000D02*
X148850000Y-116050000D01*
%TO.N,MIXER_IF*%
X147025000Y-100425000D02*
X147025000Y-102762500D01*
X147025000Y-102762500D02*
X146875000Y-102912500D01*
X145400000Y-102912500D02*
X146875000Y-102912500D01*
%TO.N,Net-(C11-Pad2)*%
X146262500Y-105262500D02*
X146875000Y-105875000D01*
X146875000Y-104487500D02*
X146875000Y-105875000D01*
X145400000Y-105262500D02*
X146262500Y-105262500D01*
%TO.N,Net-(C12-Pad2)*%
X146162500Y-108162500D02*
X146875000Y-107450000D01*
X146875000Y-107450000D02*
X146875000Y-108862500D01*
X145400000Y-108162500D02*
X146162500Y-108162500D01*
%TO.N,Net-(J4-In)*%
X147375000Y-81150000D02*
X146475000Y-81150000D01*
X147375000Y-81150000D02*
X149375000Y-79150000D01*
X149375000Y-79150000D02*
X149375000Y-77062500D01*
%TO.N,Net-(U5-RF)*%
X146975000Y-91325000D02*
X147025000Y-91275000D01*
X146975000Y-93190000D02*
X146975000Y-91325000D01*
%TO.N,MIXER_LO*%
X134065000Y-96740000D02*
X134065000Y-94200000D01*
X134015000Y-91700000D02*
X134015000Y-94240000D01*
X136325000Y-94200000D02*
X136625000Y-93900000D01*
X134065000Y-94200000D02*
X136325000Y-94200000D01*
%TO.N,Net-(C22-Pad1)*%
X138025000Y-92350000D02*
X138125000Y-92450000D01*
X136625000Y-92350000D02*
X138025000Y-92350000D01*
%TO.N,Net-(U5-IF)*%
X146975000Y-98825000D02*
X147025000Y-98875000D01*
X146975000Y-97000000D02*
X146975000Y-98825000D01*
%TO.N,Net-(U5-LO_GND)*%
X141825000Y-94460000D02*
X140160000Y-94460000D01*
X140160000Y-94460000D02*
X139700000Y-94000000D01*
%TO.N,Net-(C26-Pad2)*%
X145450000Y-110462500D02*
X146850000Y-110462500D01*
X146850000Y-110462500D02*
X146875000Y-110437500D01*
X146875000Y-110437500D02*
X146875000Y-111300000D01*
X147050000Y-112300000D02*
X147050000Y-111475000D01*
X147050000Y-111475000D02*
X146875000Y-111300000D01*
%TO.N,Net-(U5-LO)*%
X141825000Y-91825000D02*
X141600000Y-91600000D01*
X139775000Y-92450000D02*
X140075000Y-92450000D01*
X140815000Y-93190000D02*
X141825000Y-93190000D01*
X141825000Y-93190000D02*
X141825000Y-91825000D01*
X140075000Y-92450000D02*
X140815000Y-93190000D01*
%TO.N,Net-(U5-RF_GND)*%
X141825000Y-97000000D02*
X140050000Y-97000000D01*
X140050000Y-97000000D02*
X139750000Y-97300000D01*
%TO.N,Net-(J2-In)*%
X147550000Y-123100000D02*
X147475000Y-123025000D01*
X151912500Y-123100000D02*
X147550000Y-123100000D01*
D51*
%TO.N,Net-(U6-BP)*%
X118162500Y-110237500D02*
X119562500Y-110237500D01*
X119562500Y-110237500D02*
X119912500Y-110587500D01*
D49*
%TO.N,Net-(C21-Pad1)*%
X147725000Y-88000000D02*
X147725000Y-86150000D01*
X147025000Y-88700000D02*
X147725000Y-88000000D01*
X147025000Y-89725000D02*
X147025000Y-88700000D01*
D51*
%TO.N,Net-(U9-BP)*%
X112050000Y-85600000D02*
X112237500Y-85787500D01*
X110475000Y-85600000D02*
X112050000Y-85600000D01*
D50*
%TO.N,+3V3_PLL*%
X117425000Y-99100000D02*
X116525000Y-99100000D01*
X116525000Y-97100000D02*
X116325000Y-97300000D01*
X120575000Y-100454000D02*
X120575000Y-99750000D01*
X119625000Y-100875000D02*
X119625000Y-100504000D01*
X119575000Y-100454000D02*
X119575000Y-99750000D01*
X113550000Y-96200000D02*
X113575000Y-96150000D01*
X119625000Y-100875000D02*
X120154000Y-100875000D01*
X120154000Y-100875000D02*
X120575000Y-100454000D01*
D49*
X122225000Y-98600000D02*
X122975000Y-98600000D01*
D50*
X110650000Y-96200000D02*
X110225000Y-96625000D01*
X117425000Y-96100000D02*
X116525000Y-96100000D01*
X117425000Y-97100000D02*
X116525000Y-97100000D01*
X119625000Y-100504000D02*
X119575000Y-100454000D01*
X116525000Y-99100000D02*
X116325000Y-98900000D01*
X113575000Y-96150000D02*
X110650000Y-96200000D01*
X116525000Y-96100000D02*
X116325000Y-95900000D01*
D49*
%TO.N,Net-(U7-REFIN)*%
X116875000Y-97600000D02*
X116672000Y-97803000D01*
X117425000Y-97600000D02*
X116875000Y-97600000D01*
X116672000Y-97803000D02*
X114900500Y-97803000D01*
%TO.N,PLL_REF*%
X114550000Y-99300000D02*
X115250000Y-99300000D01*
X113550000Y-98300000D02*
X114550000Y-99300000D01*
X115250000Y-99300000D02*
X115275000Y-99275000D01*
D50*
%TO.N,Net-(U7-VCOM)*%
X118575000Y-92507500D02*
X118615000Y-92467500D01*
X118600000Y-92452500D02*
X118615000Y-92467500D01*
X117135000Y-92452500D02*
X118600000Y-92452500D01*
X118575000Y-94950000D02*
X118575000Y-92507500D01*
%TO.N,Net-(U7-VREF)*%
X118075000Y-94450000D02*
X117375000Y-93750000D01*
X115635000Y-93310000D02*
X115635000Y-92477500D01*
X118075000Y-94950000D02*
X118075000Y-94450000D01*
X117375000Y-93750000D02*
X116075000Y-93750000D01*
X115635000Y-92477500D02*
X114160000Y-92477500D01*
X114160000Y-92477500D02*
X114145000Y-92462500D01*
X116075000Y-93750000D02*
X115635000Y-93310000D01*
D49*
%TO.N,Net-(U7-TEMP)*%
X121865000Y-92621350D02*
X121865000Y-92467500D01*
X123325000Y-92492500D02*
X121890000Y-92492500D01*
X121890000Y-92492500D02*
X121865000Y-92467500D01*
X120575000Y-94950000D02*
X120575000Y-93911350D01*
X120575000Y-93911350D02*
X121865000Y-92621350D01*
D50*
%TO.N,Net-(D1-A)*%
X116875000Y-95600000D02*
X115687500Y-94412500D01*
X117425000Y-95600000D02*
X116875000Y-95600000D01*
X115687500Y-94412500D02*
X113002500Y-94412500D01*
D49*
%TO.N,Net-(D1-K)*%
X111397500Y-94442500D02*
X111427500Y-94412500D01*
X109965000Y-94442500D02*
X111397500Y-94442500D01*
%TO.N,Net-(U7-RSET)*%
X119075000Y-94200000D02*
X119225000Y-94050000D01*
X119075000Y-94950000D02*
X119075000Y-94200000D01*
%TO.N,4350_SPI_CLK*%
X114575000Y-102100000D02*
X116175000Y-100500000D01*
D48*
X112300000Y-121800000D02*
X111325000Y-121800000D01*
D49*
X106675000Y-94750000D02*
X107425000Y-95500000D01*
X116175000Y-100500000D02*
X117875000Y-100500000D01*
X117875000Y-100500000D02*
X118075000Y-100300000D01*
X118075000Y-100300000D02*
X118075000Y-99750000D01*
X107425000Y-101050000D02*
X108475000Y-102100000D01*
D48*
X111325000Y-121800000D02*
X110975000Y-121450000D01*
D49*
X107425000Y-95500000D02*
X107425000Y-101050000D01*
X108475000Y-102100000D02*
X114575000Y-102100000D01*
X104925000Y-94750000D02*
X106675000Y-94750000D01*
%TO.N,4350_SPI_DATA*%
X108181000Y-102456000D02*
X114869000Y-102456000D01*
D48*
X110975000Y-122300000D02*
X112300000Y-122300000D01*
D49*
X106875000Y-101150000D02*
X108181000Y-102456000D01*
X114869000Y-102456000D02*
X116469000Y-100856000D01*
X106315000Y-97290000D02*
X106875000Y-97850000D01*
X104925000Y-97290000D02*
X106315000Y-97290000D01*
X118119000Y-100856000D02*
X118575000Y-100400000D01*
X106875000Y-97850000D02*
X106875000Y-101150000D01*
X118575000Y-100400000D02*
X118575000Y-99750000D01*
X116469000Y-100856000D02*
X118119000Y-100856000D01*
D50*
%TO.N,+3V3_PLL_VCO*%
X121575000Y-94950000D02*
X121575000Y-94600000D01*
X122125000Y-94050000D02*
X122675000Y-94050000D01*
X122225000Y-95600000D02*
X122875000Y-95600000D01*
X122875000Y-95600000D02*
X123075000Y-95600000D01*
X121575000Y-94600000D02*
X122125000Y-94050000D01*
D49*
%TO.N,4350_SPI_LE*%
X105905000Y-99830000D02*
X106325000Y-100250000D01*
X106325000Y-100250000D02*
X106325000Y-101500000D01*
D48*
X111275000Y-122800000D02*
X110975000Y-123100000D01*
D49*
X118313000Y-101212000D02*
X119075000Y-100450000D01*
X106325000Y-101500000D02*
X107725000Y-102900000D01*
X104925000Y-99830000D02*
X105905000Y-99830000D01*
D48*
X112300000Y-122800000D02*
X111275000Y-122800000D01*
D49*
X119075000Y-100450000D02*
X119075000Y-99750000D01*
X107725000Y-102900000D02*
X114975000Y-102900000D01*
X114975000Y-102900000D02*
X116663000Y-101212000D01*
X116663000Y-101212000D02*
X118313000Y-101212000D01*
%TO.N,Net-(C58-Pad1)*%
X120500000Y-103925000D02*
X120575000Y-103850000D01*
X119075000Y-103925000D02*
X120500000Y-103925000D01*
%TO.N,Net-(U7-VTUNE)*%
X120075000Y-93700000D02*
X120225000Y-93550000D01*
X123575000Y-102300000D02*
X122200000Y-102300000D01*
X120075000Y-94950000D02*
X120075000Y-93700000D01*
X122200000Y-102300000D02*
X122150000Y-102350000D01*
%TO.N,Net-(U7-CPout)*%
X120500000Y-102275000D02*
X120500000Y-102350000D01*
X121075000Y-101700000D02*
X120500000Y-102275000D01*
X121075000Y-99750000D02*
X121075000Y-101700000D01*
X117600000Y-102350000D02*
X117575000Y-102325000D01*
X120500000Y-102350000D02*
X117600000Y-102350000D01*
%TO.N,Net-(C61-Pad1)*%
X125575000Y-98200000D02*
X127025000Y-98200000D01*
X125550000Y-98200000D02*
X125575000Y-98200000D01*
%TO.N,PLL_LO*%
X129825000Y-94200000D02*
X131525000Y-94200000D01*
X128575000Y-96710000D02*
X128575000Y-95450000D01*
X128575000Y-95450000D02*
X129825000Y-94200000D01*
%TO.N,Net-(C62-Pad1)*%
X127075000Y-96850000D02*
X127025000Y-96710000D01*
X125550000Y-96700000D02*
X127015000Y-96700000D01*
X127015000Y-96700000D02*
X127075000Y-96850000D01*
%TO.N,FPGA_LO*%
X131525000Y-103000000D02*
X131525000Y-96740000D01*
X125462500Y-109062500D02*
X131525000Y-103000000D01*
X125462500Y-117137500D02*
X125462500Y-109062500D01*
%TO.N,Net-(U7-RF_OUT_A+)*%
X123475000Y-97600000D02*
X123900000Y-98025000D01*
X122225000Y-97600000D02*
X123475000Y-97600000D01*
X123900000Y-98025000D02*
X123900000Y-98200000D01*
%TO.N,Net-(U7-RF_OUT_A-)*%
X122225000Y-97100000D02*
X123500000Y-97100000D01*
X123500000Y-97100000D02*
X123900000Y-96700000D01*
%TO.N,Net-(C61-Pad2)*%
X128575000Y-98200000D02*
X128575000Y-99675000D01*
X128575000Y-99675000D02*
X128600000Y-99700000D01*
%TO.N,Net-(C65-Pad2)*%
X146475000Y-83150000D02*
X146475000Y-82700000D01*
X146425000Y-83200000D02*
X146475000Y-83150000D01*
X146425000Y-83200000D02*
X146425000Y-84250000D01*
%TD*%
%TA.AperFunction,Conductor*%
%TO.N,Net-(U2-Vcc)*%
G36*
X145231723Y-113920002D02*
G01*
X145243534Y-113928599D01*
X145276059Y-113955292D01*
X145315745Y-113981810D01*
X145316781Y-113982502D01*
X145316782Y-113982503D01*
X145316784Y-113982504D01*
X145316787Y-113982506D01*
X145361653Y-114006488D01*
X145382229Y-114015010D01*
X145407071Y-114025301D01*
X145418696Y-114028827D01*
X145455750Y-114040067D01*
X145516201Y-114052092D01*
X145541395Y-114055830D01*
X145565977Y-114058251D01*
X145591411Y-114059500D01*
X145591418Y-114059500D01*
X146571479Y-114059500D01*
X146571483Y-114059499D01*
X146599205Y-114058014D01*
X146599219Y-114058012D01*
X146599227Y-114058012D01*
X146611346Y-114056708D01*
X146625988Y-114055135D01*
X146625996Y-114055134D01*
X146722621Y-114024877D01*
X146784933Y-113990851D01*
X146844060Y-113946588D01*
X146853740Y-113936907D01*
X146916050Y-113902881D01*
X146942838Y-113900000D01*
X146958589Y-113900000D01*
X146983170Y-113902421D01*
X147009458Y-113907649D01*
X147043621Y-113914445D01*
X147089037Y-113933257D01*
X147129768Y-113960472D01*
X147164527Y-113995231D01*
X147191741Y-114035959D01*
X147210554Y-114081378D01*
X147222579Y-114141829D01*
X147225000Y-114166411D01*
X147225000Y-114633588D01*
X147222579Y-114658170D01*
X147216430Y-114689082D01*
X147183522Y-114751992D01*
X147121827Y-114787123D01*
X147092851Y-114790500D01*
X146141406Y-114790500D01*
X146120214Y-114791541D01*
X146115975Y-114791750D01*
X146115972Y-114791750D01*
X146115948Y-114791752D01*
X146091412Y-114794168D01*
X146066221Y-114797904D01*
X146043502Y-114802422D01*
X146029477Y-114805212D01*
X146029471Y-114805213D01*
X146028095Y-114805487D01*
X146028087Y-114805488D01*
X146015105Y-114808071D01*
X146005750Y-114809932D01*
X146005746Y-114809933D01*
X146005742Y-114809934D01*
X145957073Y-114824697D01*
X145911662Y-114843506D01*
X145866793Y-114867489D01*
X145849915Y-114878766D01*
X145782166Y-114899980D01*
X145779916Y-114900000D01*
X141925000Y-114900000D01*
X141925000Y-115100000D01*
X141920935Y-115120433D01*
X141914665Y-115151955D01*
X141895850Y-115197376D01*
X141880343Y-115220583D01*
X141845583Y-115255343D01*
X141822376Y-115270850D01*
X141776956Y-115289664D01*
X141737174Y-115297578D01*
X141712590Y-115300000D01*
X141091411Y-115300000D01*
X141066829Y-115297579D01*
X141006378Y-115285554D01*
X140960959Y-115266741D01*
X140920231Y-115239527D01*
X140885472Y-115204768D01*
X140858257Y-115164037D01*
X140839445Y-115118619D01*
X140827421Y-115058168D01*
X140825000Y-115033588D01*
X140825000Y-114166411D01*
X140827421Y-114141831D01*
X140839445Y-114081380D01*
X140858256Y-114035963D01*
X140885474Y-113995228D01*
X140920228Y-113960474D01*
X140960963Y-113933256D01*
X141006378Y-113914445D01*
X141030096Y-113909727D01*
X141066831Y-113902421D01*
X141091411Y-113900000D01*
X145163602Y-113900000D01*
X145231723Y-113920002D01*
G37*
%TD.AperFunction*%
%TD*%
%TA.AperFunction,Conductor*%
%TO.N,Net-(U4-Vcc)*%
G36*
X146381614Y-85903988D02*
G01*
X146442369Y-85915721D01*
X146488060Y-85934392D01*
X146529051Y-85961546D01*
X146564066Y-85996339D01*
X146591480Y-86037157D01*
X146610440Y-86082724D01*
X146617560Y-86118371D01*
X146620000Y-86143044D01*
X146620000Y-86260214D01*
X146620348Y-86267293D01*
X146620500Y-86273479D01*
X146620500Y-86408649D01*
X146623684Y-86430499D01*
X146625000Y-86448664D01*
X146625000Y-86924041D01*
X146604998Y-86992162D01*
X146551342Y-87038655D01*
X146499204Y-87050041D01*
X140776826Y-87059288D01*
X140603951Y-87059567D01*
X140579347Y-87057182D01*
X140518817Y-87045231D01*
X140473330Y-87026454D01*
X140432537Y-86999256D01*
X140397712Y-86964488D01*
X140370447Y-86923738D01*
X140351596Y-86878278D01*
X140339548Y-86817771D01*
X140337122Y-86793166D01*
X140337122Y-86204750D01*
X140339523Y-86180268D01*
X140351452Y-86120044D01*
X140370118Y-86074775D01*
X140397131Y-86034139D01*
X140431643Y-85999408D01*
X140467199Y-85975445D01*
X140472105Y-85972138D01*
X140517252Y-85953184D01*
X140559378Y-85944560D01*
X140577399Y-85940872D01*
X140601862Y-85938315D01*
X144896662Y-85910994D01*
X144945676Y-85920581D01*
X144956036Y-85924872D01*
X144957072Y-85925301D01*
X145005750Y-85940067D01*
X145066201Y-85952092D01*
X145091395Y-85955830D01*
X145115977Y-85958251D01*
X145141411Y-85959500D01*
X145141418Y-85959500D01*
X145996482Y-85959500D01*
X146009738Y-85958788D01*
X146024213Y-85958013D01*
X146044283Y-85955854D01*
X146047354Y-85955690D01*
X146050986Y-85955134D01*
X146050998Y-85955133D01*
X146051001Y-85955133D01*
X146147626Y-85924875D01*
X146147630Y-85924872D01*
X146147632Y-85924872D01*
X146160235Y-85917990D01*
X146219823Y-85902577D01*
X146356923Y-85901705D01*
X146381614Y-85903988D01*
G37*
%TD.AperFunction*%
%TD*%
%TA.AperFunction,Conductor*%
%TO.N,VCC*%
G36*
X137032865Y-105002724D02*
G01*
X137093378Y-105014693D01*
X137138847Y-105033478D01*
X137179627Y-105060680D01*
X137214437Y-105095447D01*
X137225671Y-105112242D01*
X137241690Y-105136193D01*
X137260532Y-105181641D01*
X137272575Y-105242133D01*
X137275000Y-105266735D01*
X137275000Y-107833588D01*
X137272579Y-107858170D01*
X137260554Y-107918621D01*
X137241741Y-107964040D01*
X137214530Y-108004765D01*
X137179765Y-108039530D01*
X137139040Y-108066741D01*
X137093622Y-108085554D01*
X137055376Y-108093162D01*
X137033169Y-108097579D01*
X137008589Y-108100000D01*
X135541411Y-108100000D01*
X135516829Y-108097579D01*
X135456378Y-108085554D01*
X135410959Y-108066741D01*
X135370231Y-108039527D01*
X135335472Y-108004768D01*
X135308257Y-107964037D01*
X135289445Y-107918619D01*
X135277421Y-107858168D01*
X135275000Y-107833588D01*
X135275000Y-106789435D01*
X135295002Y-106721314D01*
X135318489Y-106694210D01*
X135324934Y-106688626D01*
X135357056Y-106655337D01*
X135403987Y-106565618D01*
X135423989Y-106497497D01*
X135434500Y-106424388D01*
X135434500Y-105128132D01*
X135454502Y-105060011D01*
X135508158Y-105013518D01*
X135560337Y-105002133D01*
X137008266Y-105000331D01*
X137032865Y-105002724D01*
G37*
%TD.AperFunction*%
%TD*%
%TA.AperFunction,Conductor*%
%TO.N,AGND*%
G36*
X134933170Y-104052421D02*
G01*
X134959458Y-104057649D01*
X134993621Y-104064445D01*
X135039037Y-104083257D01*
X135079768Y-104110472D01*
X135114527Y-104145231D01*
X135141741Y-104185959D01*
X135160554Y-104231378D01*
X135172579Y-104291829D01*
X135175000Y-104316411D01*
X135175000Y-106424388D01*
X135154998Y-106492509D01*
X135101342Y-106539002D01*
X135097220Y-106540796D01*
X135084623Y-106546013D01*
X135075000Y-106550000D01*
X134975000Y-106550000D01*
X134975000Y-106649998D01*
X134975000Y-107533588D01*
X134972579Y-107558170D01*
X134960554Y-107618621D01*
X134941741Y-107664040D01*
X134914530Y-107704765D01*
X134879765Y-107739530D01*
X134839040Y-107766741D01*
X134793622Y-107785554D01*
X134755376Y-107793162D01*
X134733169Y-107797579D01*
X134708589Y-107800000D01*
X134541411Y-107800000D01*
X134516829Y-107797579D01*
X134456378Y-107785554D01*
X134410959Y-107766741D01*
X134370231Y-107739527D01*
X134335472Y-107704768D01*
X134308257Y-107664037D01*
X134289445Y-107618619D01*
X134277421Y-107558168D01*
X134275000Y-107533588D01*
X134275000Y-106553999D01*
X134275000Y-106300000D01*
X134021003Y-106300000D01*
X133391411Y-106300000D01*
X133366829Y-106297579D01*
X133306378Y-106285554D01*
X133260959Y-106266741D01*
X133220231Y-106239527D01*
X133185472Y-106204768D01*
X133158257Y-106164037D01*
X133139445Y-106118619D01*
X133127421Y-106058168D01*
X133125000Y-106033588D01*
X133125000Y-104316411D01*
X133127421Y-104291831D01*
X133139445Y-104231380D01*
X133158256Y-104185963D01*
X133185474Y-104145228D01*
X133220228Y-104110474D01*
X133260963Y-104083256D01*
X133306378Y-104064445D01*
X133330096Y-104059727D01*
X133366831Y-104052421D01*
X133391411Y-104050000D01*
X134908589Y-104050000D01*
X134933170Y-104052421D01*
G37*
%TD.AperFunction*%
%TD*%
%TA.AperFunction,Conductor*%
%TO.N,VCC*%
G36*
X116318671Y-106902600D02*
G01*
X116381149Y-106915492D01*
X116427913Y-106935648D01*
X116469424Y-106964688D01*
X116504393Y-107001713D01*
X116531018Y-107044814D01*
X116548474Y-107092651D01*
X116557781Y-107155762D01*
X116558924Y-107181332D01*
X116489368Y-108398553D01*
X116485771Y-108422086D01*
X116471273Y-108479755D01*
X116451277Y-108522728D01*
X116423619Y-108561085D01*
X116389161Y-108593630D01*
X116349288Y-108619055D01*
X116305244Y-108636567D01*
X116275736Y-108642218D01*
X116246842Y-108647751D01*
X116223146Y-108650000D01*
X112841411Y-108650000D01*
X112816829Y-108647579D01*
X112756378Y-108635554D01*
X112710959Y-108616741D01*
X112670231Y-108589527D01*
X112635472Y-108554768D01*
X112608257Y-108514037D01*
X112589445Y-108468619D01*
X112577421Y-108408168D01*
X112575000Y-108383588D01*
X112575000Y-107166411D01*
X112577421Y-107141831D01*
X112589445Y-107081380D01*
X112608256Y-107035963D01*
X112635474Y-106995228D01*
X112670228Y-106960474D01*
X112710963Y-106933256D01*
X112756378Y-106914445D01*
X112780096Y-106909727D01*
X112816831Y-106902421D01*
X112841411Y-106900000D01*
X116293208Y-106900000D01*
X116318671Y-106902600D01*
G37*
%TD.AperFunction*%
%TD*%
%TA.AperFunction,Conductor*%
%TO.N,VCC*%
G36*
X108533170Y-83002421D02*
G01*
X108559458Y-83007649D01*
X108593621Y-83014445D01*
X108639037Y-83033257D01*
X108679768Y-83060472D01*
X108714527Y-83095231D01*
X108741741Y-83135959D01*
X108760554Y-83181378D01*
X108772579Y-83241829D01*
X108775000Y-83266411D01*
X108775000Y-83733588D01*
X108772579Y-83758170D01*
X108760554Y-83818621D01*
X108741741Y-83864040D01*
X108714530Y-83904765D01*
X108679765Y-83939530D01*
X108639040Y-83966741D01*
X108593622Y-83985554D01*
X108555376Y-83993162D01*
X108533169Y-83997579D01*
X108508589Y-84000000D01*
X105625000Y-84000000D01*
X105625000Y-84253996D01*
X105625000Y-84433588D01*
X105622579Y-84458170D01*
X105610554Y-84518621D01*
X105591741Y-84564040D01*
X105564530Y-84604765D01*
X105529765Y-84639530D01*
X105489040Y-84666741D01*
X105443622Y-84685554D01*
X105405376Y-84693162D01*
X105383169Y-84697579D01*
X105358589Y-84700000D01*
X104991411Y-84700000D01*
X104966829Y-84697579D01*
X104906378Y-84685554D01*
X104860959Y-84666741D01*
X104820231Y-84639527D01*
X104785472Y-84604768D01*
X104758257Y-84564037D01*
X104739445Y-84518619D01*
X104727421Y-84458168D01*
X104725000Y-84433588D01*
X104725000Y-83266411D01*
X104727421Y-83241831D01*
X104739445Y-83181380D01*
X104758256Y-83135963D01*
X104785474Y-83095228D01*
X104820228Y-83060474D01*
X104860963Y-83033256D01*
X104906378Y-83014445D01*
X104930096Y-83009727D01*
X104966831Y-83002421D01*
X104991411Y-83000000D01*
X108508589Y-83000000D01*
X108533170Y-83002421D01*
G37*
%TD.AperFunction*%
%TD*%
%TA.AperFunction,Conductor*%
%TO.N,AGND*%
G36*
X146433169Y-111402421D02*
G01*
X146461301Y-111408016D01*
X146493623Y-111414445D01*
X146539036Y-111433256D01*
X146561760Y-111448440D01*
X146600874Y-111490201D01*
X146608932Y-111504158D01*
X146608934Y-111504161D01*
X146627170Y-111522397D01*
X146661196Y-111584709D01*
X146661654Y-111586909D01*
X146672579Y-111641828D01*
X146675000Y-111666411D01*
X146675000Y-111801285D01*
X146659129Y-111855334D01*
X146662086Y-111856780D01*
X146605540Y-111972447D01*
X146605539Y-111972449D01*
X146595500Y-112041352D01*
X146595500Y-112558647D01*
X146605539Y-112627550D01*
X146605540Y-112627552D01*
X146657500Y-112733839D01*
X146657501Y-112733841D01*
X146741158Y-112817498D01*
X146741160Y-112817499D01*
X146847450Y-112869461D01*
X146916354Y-112879500D01*
X146916360Y-112879500D01*
X147183640Y-112879500D01*
X147183646Y-112879500D01*
X147252550Y-112869461D01*
X147358840Y-112817499D01*
X147442499Y-112733840D01*
X147494461Y-112627550D01*
X147504500Y-112558646D01*
X147504500Y-112041354D01*
X147498163Y-111997859D01*
X147508134Y-111927566D01*
X147554525Y-111873823D01*
X147598266Y-111856113D01*
X147612755Y-111853231D01*
X147616835Y-111852420D01*
X147641411Y-111850000D01*
X148458589Y-111850000D01*
X148483170Y-111852421D01*
X148505085Y-111856780D01*
X148543621Y-111864445D01*
X148589037Y-111883257D01*
X148629768Y-111910472D01*
X148664527Y-111945231D01*
X148682714Y-111972449D01*
X148691741Y-111985959D01*
X148710554Y-112031378D01*
X148722579Y-112091829D01*
X148725000Y-112116411D01*
X148725000Y-113513013D01*
X148704998Y-113581134D01*
X148651342Y-113627627D01*
X148581068Y-113637731D01*
X148561806Y-113633398D01*
X148552556Y-113630540D01*
X148552550Y-113630539D01*
X148520622Y-113625887D01*
X148483647Y-113620500D01*
X148483646Y-113620500D01*
X148216354Y-113620500D01*
X148216352Y-113620500D01*
X148147449Y-113630539D01*
X148147447Y-113630540D01*
X148041160Y-113682500D01*
X148041158Y-113682501D01*
X147957501Y-113766158D01*
X147957500Y-113766160D01*
X147916514Y-113850000D01*
X147875000Y-113850000D01*
X147875000Y-114099997D01*
X147875000Y-114262453D01*
X147854998Y-114330574D01*
X147839343Y-114350000D01*
X147825000Y-114350000D01*
X147825000Y-114100000D01*
X147525000Y-114100000D01*
X147525000Y-113800000D01*
X147459042Y-113800000D01*
X147458956Y-113799825D01*
X147442499Y-113766160D01*
X147442498Y-113766158D01*
X147358841Y-113682501D01*
X147358839Y-113682500D01*
X147252552Y-113630540D01*
X147252550Y-113630539D01*
X147183647Y-113620500D01*
X147183646Y-113620500D01*
X146916354Y-113620500D01*
X146916352Y-113620500D01*
X146847449Y-113630539D01*
X146847447Y-113630540D01*
X146741160Y-113682500D01*
X146741158Y-113682501D01*
X146660565Y-113763095D01*
X146598253Y-113797121D01*
X146571470Y-113800000D01*
X145591411Y-113800000D01*
X145566829Y-113797579D01*
X145506378Y-113785554D01*
X145460959Y-113766741D01*
X145420231Y-113739527D01*
X145385472Y-113704768D01*
X145358257Y-113664037D01*
X145339445Y-113618619D01*
X145327421Y-113558168D01*
X145325000Y-113533588D01*
X145325000Y-111666411D01*
X145327421Y-111641831D01*
X145339445Y-111581380D01*
X145358256Y-111535963D01*
X145385474Y-111495228D01*
X145420228Y-111460474D01*
X145460963Y-111433256D01*
X145506378Y-111414445D01*
X145530096Y-111409727D01*
X145566831Y-111402421D01*
X145591411Y-111400000D01*
X146408589Y-111400000D01*
X146433169Y-111402421D01*
G37*
%TD.AperFunction*%
%TD*%
%TA.AperFunction,Conductor*%
%TO.N,+3V3_PLL*%
G36*
X113933170Y-82852421D02*
G01*
X113959458Y-82857649D01*
X113993621Y-82864445D01*
X114039037Y-82883257D01*
X114079768Y-82910472D01*
X114114527Y-82945231D01*
X114122799Y-82957610D01*
X114141741Y-82985959D01*
X114160554Y-83031378D01*
X114172579Y-83091829D01*
X114175000Y-83116411D01*
X114175000Y-84583588D01*
X114172579Y-84608170D01*
X114160554Y-84668621D01*
X114141741Y-84714040D01*
X114114530Y-84754765D01*
X114079765Y-84789530D01*
X114039040Y-84816741D01*
X113993622Y-84835554D01*
X113955376Y-84843162D01*
X113933169Y-84847579D01*
X113908589Y-84850000D01*
X109991411Y-84850000D01*
X109966829Y-84847579D01*
X109906378Y-84835554D01*
X109860959Y-84816741D01*
X109820231Y-84789527D01*
X109785472Y-84754768D01*
X109758257Y-84714037D01*
X109739445Y-84668619D01*
X109727421Y-84608168D01*
X109725000Y-84583588D01*
X109725000Y-83616411D01*
X109727421Y-83591831D01*
X109739445Y-83531380D01*
X109758256Y-83485963D01*
X109785474Y-83445228D01*
X109820228Y-83410474D01*
X109860963Y-83383256D01*
X109906378Y-83364445D01*
X109930096Y-83359727D01*
X109966831Y-83352421D01*
X109991411Y-83350000D01*
X111274999Y-83350000D01*
X111275000Y-83350000D01*
X111375000Y-83350000D01*
X111375000Y-83250000D01*
X111384203Y-83227781D01*
X111428748Y-83172503D01*
X111496111Y-83150080D01*
X111500611Y-83150000D01*
X112824998Y-83150000D01*
X112825000Y-83150000D01*
X112975000Y-83150000D01*
X112975000Y-83000000D01*
X112986358Y-82957609D01*
X113018968Y-82901127D01*
X113026127Y-82893968D01*
X113082611Y-82861358D01*
X113108980Y-82854293D01*
X113141589Y-82850000D01*
X113908589Y-82850000D01*
X113933170Y-82852421D01*
G37*
%TD.AperFunction*%
%TD*%
%TA.AperFunction,Conductor*%
%TO.N,VCC*%
G36*
X146275000Y-137550000D02*
G01*
X147035494Y-137550000D01*
X147103615Y-137570002D01*
X147105473Y-137571220D01*
X147125698Y-137584734D01*
X147199932Y-137599500D01*
X147966622Y-137599499D01*
X148034742Y-137619501D01*
X148071385Y-137655496D01*
X148091739Y-137685957D01*
X148110554Y-137731378D01*
X148122579Y-137791829D01*
X148125000Y-137816411D01*
X148125000Y-137883588D01*
X148122579Y-137908170D01*
X148110554Y-137968621D01*
X148091742Y-138014039D01*
X148078071Y-138034500D01*
X148023595Y-138080029D01*
X147973304Y-138090500D01*
X147199935Y-138090500D01*
X147199925Y-138090501D01*
X147125698Y-138105265D01*
X147090530Y-138128765D01*
X147022777Y-138149980D01*
X147020527Y-138150000D01*
X146725000Y-138150000D01*
X146725000Y-138249998D01*
X146725000Y-138348391D01*
X146724999Y-138348795D01*
X146724996Y-138349731D01*
X146724994Y-138350257D01*
X146724987Y-138351205D01*
X146724983Y-138351587D01*
X146630991Y-147374812D01*
X146610281Y-147442721D01*
X146556144Y-147488653D01*
X146504998Y-147499500D01*
X141551000Y-147499500D01*
X141482879Y-147479498D01*
X141436386Y-147425842D01*
X141425000Y-147373500D01*
X141425000Y-145616411D01*
X141427421Y-145591831D01*
X141439445Y-145531380D01*
X141458256Y-145485963D01*
X141485474Y-145445228D01*
X141520228Y-145410474D01*
X141560963Y-145383256D01*
X141606378Y-145364445D01*
X141630096Y-145359727D01*
X141666831Y-145352421D01*
X141691411Y-145350000D01*
X144221000Y-145350000D01*
X144475000Y-145350000D01*
X144475000Y-138100000D01*
X145475000Y-138150000D01*
X145475000Y-137128947D01*
X146275000Y-137550000D01*
G37*
%TD.AperFunction*%
%TD*%
%TA.AperFunction,Conductor*%
%TO.N,AGND*%
G36*
X108461744Y-84352683D02*
G01*
X108480598Y-84356637D01*
X108525149Y-84365981D01*
X108572515Y-84386765D01*
X108614362Y-84416654D01*
X108649386Y-84454718D01*
X108667989Y-84485959D01*
X108675697Y-84498902D01*
X108692477Y-84547834D01*
X108700464Y-84612122D01*
X108700990Y-84638122D01*
X108695384Y-84705388D01*
X108691284Y-84728422D01*
X108675740Y-84784783D01*
X108655264Y-84826632D01*
X108627447Y-84863915D01*
X108593160Y-84895463D01*
X108553701Y-84920085D01*
X108510295Y-84937017D01*
X108452831Y-84947828D01*
X108429535Y-84950000D01*
X107325000Y-84950000D01*
X107325000Y-85203996D01*
X107325000Y-85240208D01*
X107311267Y-85297410D01*
X107298001Y-85323444D01*
X107283000Y-85418167D01*
X107283000Y-85781832D01*
X107298001Y-85876554D01*
X107311266Y-85902587D01*
X107325000Y-85959791D01*
X107325000Y-86283588D01*
X107322579Y-86308170D01*
X107310554Y-86368621D01*
X107291741Y-86414040D01*
X107264530Y-86454765D01*
X107229765Y-86489530D01*
X107189040Y-86516741D01*
X107143622Y-86535554D01*
X107105376Y-86543162D01*
X107083169Y-86547579D01*
X107058589Y-86550000D01*
X106191411Y-86550000D01*
X106166829Y-86547579D01*
X106106378Y-86535554D01*
X106060959Y-86516741D01*
X106020231Y-86489527D01*
X105985472Y-86454768D01*
X105958257Y-86414037D01*
X105939445Y-86368619D01*
X105927421Y-86308168D01*
X105925000Y-86283588D01*
X105925000Y-84616411D01*
X105927421Y-84591831D01*
X105939445Y-84531380D01*
X105958256Y-84485963D01*
X105985474Y-84445228D01*
X106020228Y-84410474D01*
X106060963Y-84383256D01*
X106106378Y-84364445D01*
X106130096Y-84359727D01*
X106166831Y-84352421D01*
X106191411Y-84350000D01*
X108435880Y-84350000D01*
X108461744Y-84352683D01*
G37*
%TD.AperFunction*%
%TD*%
%TA.AperFunction,Conductor*%
%TO.N,AGND*%
G36*
X116111744Y-109002683D02*
G01*
X116130598Y-109006637D01*
X116175149Y-109015981D01*
X116222515Y-109036765D01*
X116264362Y-109066654D01*
X116299386Y-109104718D01*
X116317989Y-109135959D01*
X116325697Y-109148902D01*
X116342477Y-109197834D01*
X116350464Y-109262122D01*
X116350990Y-109288122D01*
X116345384Y-109355388D01*
X116341284Y-109378422D01*
X116325740Y-109434783D01*
X116305264Y-109476632D01*
X116277447Y-109513915D01*
X116243160Y-109545463D01*
X116203701Y-109570085D01*
X116160295Y-109587017D01*
X116102831Y-109597828D01*
X116079535Y-109600000D01*
X114725000Y-109600000D01*
X114725000Y-109853996D01*
X114725000Y-110283588D01*
X114722579Y-110308170D01*
X114710554Y-110368621D01*
X114691741Y-110414040D01*
X114664530Y-110454765D01*
X114629765Y-110489530D01*
X114589040Y-110516741D01*
X114543622Y-110535554D01*
X114505376Y-110543162D01*
X114483169Y-110547579D01*
X114458589Y-110550000D01*
X112891411Y-110550000D01*
X112866829Y-110547579D01*
X112806378Y-110535554D01*
X112760959Y-110516741D01*
X112720231Y-110489527D01*
X112685472Y-110454768D01*
X112658257Y-110414037D01*
X112639445Y-110368619D01*
X112627421Y-110308168D01*
X112625000Y-110283588D01*
X112625000Y-109266411D01*
X112627421Y-109241831D01*
X112639445Y-109181380D01*
X112658256Y-109135963D01*
X112685474Y-109095228D01*
X112720228Y-109060474D01*
X112760963Y-109033256D01*
X112806378Y-109014445D01*
X112830096Y-109009727D01*
X112866831Y-109002421D01*
X112891411Y-109000000D01*
X116085880Y-109000000D01*
X116111744Y-109002683D01*
G37*
%TD.AperFunction*%
%TD*%
%TA.AperFunction,Conductor*%
%TO.N,VCC*%
G36*
X147103615Y-132770002D02*
G01*
X147105473Y-132771220D01*
X147125698Y-132784734D01*
X147199932Y-132799500D01*
X147671726Y-132799499D01*
X147739845Y-132819501D01*
X147783144Y-132866664D01*
X147807067Y-132911969D01*
X147821478Y-132964274D01*
X147824995Y-133032050D01*
X147823450Y-133059294D01*
X147812197Y-133126814D01*
X147806663Y-133148219D01*
X147788168Y-133200364D01*
X147766414Y-133238665D01*
X147761228Y-133244920D01*
X147702351Y-133284595D01*
X147664230Y-133290500D01*
X147199935Y-133290500D01*
X147199925Y-133290501D01*
X147125698Y-133305265D01*
X147090530Y-133328765D01*
X147022777Y-133349980D01*
X147020527Y-133350000D01*
X145475000Y-133350000D01*
X145475000Y-138150000D01*
X144475000Y-138100000D01*
X144475000Y-133016411D01*
X144477421Y-132991831D01*
X144489445Y-132931380D01*
X144508256Y-132885963D01*
X144535474Y-132845228D01*
X144570228Y-132810474D01*
X144610963Y-132783256D01*
X144656378Y-132764445D01*
X144680096Y-132759727D01*
X144716831Y-132752421D01*
X144741411Y-132750000D01*
X147035494Y-132750000D01*
X147103615Y-132770002D01*
G37*
%TD.AperFunction*%
%TD*%
%TA.AperFunction,Conductor*%
%TO.N,AGND*%
G36*
X147883170Y-83952421D02*
G01*
X147909458Y-83957649D01*
X147943621Y-83964445D01*
X147989037Y-83983257D01*
X148029768Y-84010472D01*
X148064527Y-84045231D01*
X148091741Y-84085959D01*
X148110554Y-84131378D01*
X148122579Y-84191829D01*
X148125000Y-84216411D01*
X148125000Y-85433588D01*
X148122579Y-85458170D01*
X148115032Y-85496110D01*
X148082124Y-85559020D01*
X148020429Y-85594151D01*
X147949534Y-85590351D01*
X147936116Y-85584726D01*
X147927553Y-85580540D01*
X147927550Y-85580539D01*
X147858647Y-85570500D01*
X147858646Y-85570500D01*
X147591354Y-85570500D01*
X147591352Y-85570500D01*
X147522449Y-85580539D01*
X147522447Y-85580540D01*
X147416160Y-85632500D01*
X147416158Y-85632501D01*
X147348659Y-85700000D01*
X147275000Y-85700000D01*
X147275000Y-85860466D01*
X147270500Y-85891352D01*
X147270500Y-86260213D01*
X147268078Y-86284800D01*
X147264664Y-86301959D01*
X147245850Y-86347376D01*
X147230343Y-86370583D01*
X147195583Y-86405343D01*
X147172376Y-86420850D01*
X147126955Y-86439665D01*
X147099583Y-86445110D01*
X147050418Y-86445110D01*
X147023045Y-86439665D01*
X146977623Y-86420850D01*
X146954416Y-86405343D01*
X146919656Y-86370583D01*
X146904149Y-86347376D01*
X146885334Y-86301952D01*
X146881921Y-86284793D01*
X146879500Y-86260213D01*
X146879500Y-85891360D01*
X146879500Y-85891354D01*
X146875000Y-85860466D01*
X146875000Y-85700000D01*
X146801340Y-85700000D01*
X146733841Y-85632501D01*
X146733839Y-85632500D01*
X146627552Y-85580540D01*
X146627550Y-85580539D01*
X146558647Y-85570500D01*
X146558646Y-85570500D01*
X146291354Y-85570500D01*
X146291352Y-85570500D01*
X146222449Y-85580539D01*
X146222447Y-85580540D01*
X146116161Y-85632499D01*
X146100864Y-85647796D01*
X146085565Y-85663095D01*
X146023256Y-85697120D01*
X145996471Y-85700000D01*
X145141411Y-85700000D01*
X145116829Y-85697579D01*
X145056378Y-85685554D01*
X145010959Y-85666741D01*
X145005501Y-85663094D01*
X144970231Y-85639527D01*
X144935472Y-85604768D01*
X144908257Y-85564037D01*
X144889445Y-85518619D01*
X144877421Y-85458168D01*
X144875000Y-85433588D01*
X144875000Y-84916411D01*
X144877421Y-84891831D01*
X144889445Y-84831380D01*
X144908256Y-84785963D01*
X144935474Y-84745228D01*
X144970228Y-84710474D01*
X145010963Y-84683256D01*
X145056378Y-84664445D01*
X145080096Y-84659727D01*
X145116831Y-84652421D01*
X145141411Y-84650000D01*
X145946470Y-84650000D01*
X146014591Y-84670002D01*
X146035565Y-84686905D01*
X146116158Y-84767498D01*
X146116160Y-84767499D01*
X146222450Y-84819461D01*
X146291354Y-84829500D01*
X146291360Y-84829500D01*
X146558640Y-84829500D01*
X146558646Y-84829500D01*
X146627550Y-84819461D01*
X146733840Y-84767499D01*
X146817499Y-84683840D01*
X146834042Y-84650000D01*
X146875000Y-84650000D01*
X146875000Y-84539532D01*
X146879500Y-84508646D01*
X146879500Y-84193788D01*
X146881921Y-84169208D01*
X146889445Y-84131380D01*
X146908256Y-84085963D01*
X146935474Y-84045228D01*
X146970228Y-84010474D01*
X147010963Y-83983256D01*
X147056378Y-83964445D01*
X147080096Y-83959727D01*
X147116831Y-83952421D01*
X147141411Y-83950000D01*
X147858589Y-83950000D01*
X147883170Y-83952421D01*
G37*
%TD.AperFunction*%
%TD*%
%TA.AperFunction,Conductor*%
%TO.N,+3V3_A*%
G36*
X136383170Y-109102421D02*
G01*
X136409458Y-109107649D01*
X136443621Y-109114445D01*
X136489037Y-109133257D01*
X136529768Y-109160472D01*
X136564527Y-109195231D01*
X136591741Y-109235959D01*
X136610554Y-109281378D01*
X136622579Y-109341829D01*
X136625000Y-109366411D01*
X136625000Y-113483588D01*
X136622579Y-113508170D01*
X136610554Y-113568621D01*
X136591741Y-113614040D01*
X136564530Y-113654765D01*
X136529765Y-113689530D01*
X136489040Y-113716741D01*
X136443622Y-113735554D01*
X136405376Y-113743162D01*
X136383169Y-113747579D01*
X136358589Y-113750000D01*
X134691411Y-113750000D01*
X134666829Y-113747579D01*
X134606378Y-113735554D01*
X134560959Y-113716741D01*
X134520231Y-113689527D01*
X134485472Y-113654768D01*
X134458257Y-113614037D01*
X134439445Y-113568619D01*
X134427421Y-113508168D01*
X134425000Y-113483588D01*
X134425000Y-112466411D01*
X134427421Y-112441831D01*
X134439445Y-112381380D01*
X134458256Y-112335963D01*
X134485474Y-112295228D01*
X134520228Y-112260474D01*
X134560963Y-112233256D01*
X134606378Y-112214445D01*
X134630096Y-112209727D01*
X134666831Y-112202421D01*
X134691411Y-112200000D01*
X134971000Y-112200000D01*
X135225000Y-112200000D01*
X135225000Y-109366411D01*
X135227421Y-109341831D01*
X135239445Y-109281380D01*
X135258256Y-109235963D01*
X135285474Y-109195228D01*
X135320228Y-109160474D01*
X135360963Y-109133256D01*
X135406378Y-109114445D01*
X135430096Y-109109727D01*
X135466831Y-109102421D01*
X135491411Y-109100000D01*
X136358589Y-109100000D01*
X136383170Y-109102421D01*
G37*
%TD.AperFunction*%
%TD*%
%TA.AperFunction,Conductor*%
%TO.N,AGND*%
G36*
X147825000Y-114700000D02*
G01*
X147946483Y-114700000D01*
X147984734Y-114723316D01*
X148015756Y-114787177D01*
X148017500Y-114808071D01*
X148017500Y-115506226D01*
X148017500Y-115593774D01*
X148040159Y-115678341D01*
X148083934Y-115754160D01*
X148083937Y-115754163D01*
X148088963Y-115760713D01*
X148087670Y-115761704D01*
X148117118Y-115815620D01*
X148120000Y-115842416D01*
X148120000Y-116555655D01*
X148117544Y-116580409D01*
X148105352Y-116641257D01*
X148086279Y-116686943D01*
X148058713Y-116727827D01*
X148023514Y-116762636D01*
X147982327Y-116789744D01*
X147936430Y-116808308D01*
X147875449Y-116819821D01*
X147850671Y-116822000D01*
X146138495Y-116802934D01*
X146114114Y-116800276D01*
X146054194Y-116787749D01*
X146009251Y-116768691D01*
X145968985Y-116741379D01*
X145934661Y-116706670D01*
X145921599Y-116686943D01*
X145907800Y-116666103D01*
X145889245Y-116620953D01*
X145877387Y-116560900D01*
X145875000Y-116536492D01*
X145875000Y-115316411D01*
X145877421Y-115291831D01*
X145889445Y-115231380D01*
X145908256Y-115185963D01*
X145935474Y-115145228D01*
X145970228Y-115110474D01*
X146010963Y-115083256D01*
X146056378Y-115064445D01*
X146080096Y-115059727D01*
X146116831Y-115052421D01*
X146141411Y-115050000D01*
X147271000Y-115050000D01*
X147525000Y-115050000D01*
X147525000Y-114100000D01*
X147825000Y-114100000D01*
X147825000Y-114700000D01*
G37*
%TD.AperFunction*%
%TD*%
%TA.AperFunction,Conductor*%
%TO.N,+3V3_D*%
G36*
X122083170Y-107402421D02*
G01*
X122109458Y-107407649D01*
X122143621Y-107414445D01*
X122189037Y-107433257D01*
X122229768Y-107460472D01*
X122264527Y-107495231D01*
X122291741Y-107535959D01*
X122310554Y-107581378D01*
X122322579Y-107641829D01*
X122325000Y-107666411D01*
X122325000Y-109033588D01*
X122322579Y-109058170D01*
X122310554Y-109118621D01*
X122291741Y-109164040D01*
X122264530Y-109204765D01*
X122229765Y-109239530D01*
X122189040Y-109266741D01*
X122143622Y-109285554D01*
X122105376Y-109293162D01*
X122083169Y-109297579D01*
X122058589Y-109300000D01*
X117841411Y-109300000D01*
X117816829Y-109297579D01*
X117756378Y-109285554D01*
X117710959Y-109266741D01*
X117670231Y-109239527D01*
X117635472Y-109204768D01*
X117608257Y-109164037D01*
X117589445Y-109118619D01*
X117577421Y-109058168D01*
X117575000Y-109033588D01*
X117575000Y-108266411D01*
X117577421Y-108241831D01*
X117589445Y-108181380D01*
X117608256Y-108135963D01*
X117635474Y-108095228D01*
X117670228Y-108060474D01*
X117710963Y-108033256D01*
X117756378Y-108014445D01*
X117780096Y-108009727D01*
X117816831Y-108002421D01*
X117841411Y-108000000D01*
X119074999Y-108000000D01*
X119075000Y-108000000D01*
X119175000Y-108000000D01*
X119175000Y-107900000D01*
X119184203Y-107877781D01*
X119228748Y-107822503D01*
X119296111Y-107800080D01*
X119300611Y-107800000D01*
X120474999Y-107800000D01*
X120475000Y-107800000D01*
X120675000Y-107800000D01*
X120675000Y-107600000D01*
X120685334Y-107548045D01*
X120704149Y-107502623D01*
X120719656Y-107479416D01*
X120754416Y-107444656D01*
X120777623Y-107429149D01*
X120823047Y-107410334D01*
X120862830Y-107402421D01*
X120887410Y-107400000D01*
X122058589Y-107400000D01*
X122083170Y-107402421D01*
G37*
%TD.AperFunction*%
%TD*%
%TA.AperFunction,Conductor*%
%TO.N,AGND*%
G36*
X152651553Y-139772895D02*
G01*
X153007745Y-140256299D01*
X153009894Y-140264992D01*
X153005991Y-140272079D01*
X152440798Y-140762140D01*
X152433133Y-140765000D01*
X152245210Y-140765000D01*
X152236937Y-140761573D01*
X152234459Y-140757915D01*
X152142288Y-140543200D01*
X151994785Y-140199586D01*
X151994671Y-140190634D01*
X151999143Y-140185176D01*
X152635745Y-139770034D01*
X152644545Y-139768386D01*
X152651553Y-139772895D01*
G37*
%TD.AperFunction*%
%TD*%
%TA.AperFunction,Conductor*%
%TO.N,VCC*%
G36*
X146469974Y-141853553D02*
G01*
X146328553Y-141994974D01*
X145860195Y-141777164D01*
X145974293Y-141499293D01*
X146252164Y-141385195D01*
X146469974Y-141853553D01*
G37*
%TD.AperFunction*%
%TD*%
%TA.AperFunction,Conductor*%
%TO.N,DONE*%
G36*
X106862399Y-128056299D02*
G01*
X106868179Y-128062350D01*
X106949105Y-128255478D01*
X106949142Y-128264433D01*
X106949105Y-128264522D01*
X106868179Y-128457649D01*
X106861821Y-128463955D01*
X106853455Y-128464146D01*
X106507767Y-128340772D01*
X106501127Y-128334764D01*
X106500000Y-128329753D01*
X106500000Y-128190246D01*
X106503427Y-128181973D01*
X106507763Y-128179229D01*
X106853455Y-128055853D01*
X106862399Y-128056299D01*
G37*
%TD.AperFunction*%
%TD*%
%TA.AperFunction,Conductor*%
%TO.N,DONE*%
G36*
X114671550Y-127997470D02*
G01*
X114672319Y-127997826D01*
X115008655Y-128168748D01*
X115014478Y-128175551D01*
X115015054Y-128179178D01*
X115015054Y-128318646D01*
X115011627Y-128326919D01*
X115005929Y-128330059D01*
X114670677Y-128405712D01*
X114661853Y-128404190D01*
X114657311Y-128398821D01*
X114627182Y-128326919D01*
X114575893Y-128204519D01*
X114575857Y-128195568D01*
X114656239Y-128003736D01*
X114662595Y-127997433D01*
X114671550Y-127997470D01*
G37*
%TD.AperFunction*%
%TD*%
%TA.AperFunction,Conductor*%
%TO.N,TDI*%
G36*
X105575329Y-112464196D02*
G01*
X106244460Y-112878569D01*
X106249689Y-112885838D01*
X106250000Y-112888516D01*
X106250000Y-113031483D01*
X106246573Y-113039756D01*
X106244460Y-113041430D01*
X105575329Y-113455803D01*
X105566491Y-113457245D01*
X105562168Y-113455231D01*
X105171949Y-113163829D01*
X104911553Y-112969374D01*
X104906976Y-112961679D01*
X104909180Y-112952999D01*
X104911554Y-112950625D01*
X105008045Y-112878569D01*
X105562169Y-112464767D01*
X105570848Y-112462564D01*
X105575329Y-112464196D01*
G37*
%TD.AperFunction*%
%TD*%
%TA.AperFunction,Conductor*%
%TO.N,TCK*%
G36*
X105667268Y-107524918D02*
G01*
X106195940Y-108060524D01*
X106199313Y-108068819D01*
X106195886Y-108077016D01*
X106095082Y-108177820D01*
X106092182Y-108179940D01*
X105479394Y-108496704D01*
X105470471Y-108497459D01*
X105465414Y-108494235D01*
X104910067Y-107890996D01*
X104906985Y-107882589D01*
X104910751Y-107874464D01*
X104913672Y-107872495D01*
X105653941Y-107522558D01*
X105662885Y-107522122D01*
X105667268Y-107524918D01*
G37*
%TD.AperFunction*%
%TD*%
%TA.AperFunction,Conductor*%
%TO.N,TMS*%
G36*
X105718407Y-105458042D02*
G01*
X105726102Y-105462620D01*
X105728116Y-105466943D01*
X105908256Y-106233096D01*
X105906814Y-106241934D01*
X105905140Y-106244047D01*
X105804047Y-106345140D01*
X105795774Y-106348567D01*
X105793096Y-106348256D01*
X105242450Y-106218786D01*
X105026942Y-106168115D01*
X105019674Y-106162887D01*
X105018043Y-106158409D01*
X104901540Y-105354795D01*
X104903744Y-105346118D01*
X104911440Y-105341540D01*
X104914792Y-105341540D01*
X105718407Y-105458042D01*
G37*
%TD.AperFunction*%
%TD*%
%TA.AperFunction,Conductor*%
%TO.N,TDO*%
G36*
X104893881Y-110423744D02*
G01*
X104898459Y-110431440D01*
X104898459Y-110434798D01*
X104781956Y-111238406D01*
X104777378Y-111246102D01*
X104773055Y-111248116D01*
X104006903Y-111428256D01*
X103998065Y-111426814D01*
X103995952Y-111425140D01*
X103894859Y-111324047D01*
X103891432Y-111315774D01*
X103891742Y-111313101D01*
X104071883Y-110546940D01*
X104077111Y-110539674D01*
X104081587Y-110538043D01*
X104885203Y-110421540D01*
X104893881Y-110423744D01*
G37*
%TD.AperFunction*%
%TD*%
%TA.AperFunction,Conductor*%
%TO.N,+3V3_D*%
G36*
X114132713Y-131274838D02*
G01*
X114140971Y-131278302D01*
X114144361Y-131286590D01*
X114144267Y-131288021D01*
X114090806Y-131706414D01*
X114086358Y-131714186D01*
X114079200Y-131716631D01*
X113843846Y-131716631D01*
X113835573Y-131713204D01*
X113832783Y-131708739D01*
X113831983Y-131706414D01*
X113716639Y-131371362D01*
X113717186Y-131362426D01*
X113723179Y-131356765D01*
X113918753Y-131274815D01*
X113923321Y-131273907D01*
X114132713Y-131274838D01*
G37*
%TD.AperFunction*%
%TD*%
%TA.AperFunction,Conductor*%
%TO.N,+3V3_D*%
G36*
X126665839Y-119670964D02*
G01*
X126673171Y-119676103D01*
X126675000Y-119682384D01*
X126675000Y-119917615D01*
X126671573Y-119925888D01*
X126665838Y-119929036D01*
X126471523Y-119972221D01*
X126468985Y-119972500D01*
X126462527Y-119972500D01*
X126425150Y-119982514D01*
X126424660Y-119982634D01*
X126320652Y-120005750D01*
X126311833Y-120004200D01*
X126307324Y-119998852D01*
X126225893Y-119804519D01*
X126225857Y-119795568D01*
X126307324Y-119601146D01*
X126313681Y-119594842D01*
X126320652Y-119594249D01*
X126665839Y-119670964D01*
G37*
%TD.AperFunction*%
%TD*%
%TA.AperFunction,Conductor*%
%TO.N,+3V3_D*%
G36*
X113738166Y-123595799D02*
G01*
X113742676Y-123601148D01*
X113824105Y-123795478D01*
X113824142Y-123804433D01*
X113824105Y-123804522D01*
X113742676Y-123998851D01*
X113736318Y-124005157D01*
X113729347Y-124005750D01*
X113384162Y-123929036D01*
X113376829Y-123923896D01*
X113375000Y-123917615D01*
X113375000Y-123682384D01*
X113378427Y-123674111D01*
X113384159Y-123670964D01*
X113729347Y-123594249D01*
X113738166Y-123595799D01*
G37*
%TD.AperFunction*%
%TD*%
%TA.AperFunction,Conductor*%
%TO.N,+3V3_D*%
G36*
X113738166Y-120595799D02*
G01*
X113742676Y-120601148D01*
X113824105Y-120795478D01*
X113824142Y-120804433D01*
X113824105Y-120804522D01*
X113742676Y-120998851D01*
X113736318Y-121005157D01*
X113729347Y-121005750D01*
X113384162Y-120929036D01*
X113376829Y-120923896D01*
X113375000Y-120917615D01*
X113375000Y-120682384D01*
X113378427Y-120674111D01*
X113384159Y-120670964D01*
X113729347Y-120594249D01*
X113738166Y-120595799D01*
G37*
%TD.AperFunction*%
%TD*%
%TA.AperFunction,Conductor*%
%TO.N,+3V3_D*%
G36*
X123977192Y-131249918D02*
G01*
X124173533Y-131332190D01*
X124179839Y-131338548D01*
X124180339Y-131345908D01*
X124117251Y-131590097D01*
X124091956Y-131688010D01*
X124091767Y-131688741D01*
X124086380Y-131695894D01*
X124080439Y-131697514D01*
X123845176Y-131697514D01*
X123836903Y-131694087D01*
X123833684Y-131688010D01*
X123752642Y-131263830D01*
X123754455Y-131255063D01*
X123761938Y-131250145D01*
X123764077Y-131249937D01*
X123972622Y-131249010D01*
X123977192Y-131249918D01*
G37*
%TD.AperFunction*%
%TD*%
%TA.AperFunction,Conductor*%
%TO.N,+3V3_D*%
G36*
X122325000Y-108968143D02*
G01*
X122325000Y-108968146D01*
X122435042Y-109176830D01*
X122435870Y-109185746D01*
X122432966Y-109190560D01*
X122325172Y-109298353D01*
X122325172Y-109298354D01*
X122265560Y-109357966D01*
X122257287Y-109361393D01*
X122251830Y-109360042D01*
X122137968Y-109300000D01*
X122137965Y-109300000D01*
X121810195Y-109127164D01*
X121924293Y-108849293D01*
X122202164Y-108735195D01*
X122325000Y-108968143D01*
G37*
%TD.AperFunction*%
%TD*%
%TA.AperFunction,Conductor*%
%TO.N,+3V3_D*%
G36*
X113738166Y-129595799D02*
G01*
X113742676Y-129601148D01*
X113824105Y-129795478D01*
X113824142Y-129804433D01*
X113824105Y-129804522D01*
X113742676Y-129998851D01*
X113736318Y-130005157D01*
X113729347Y-130005750D01*
X113384162Y-129929036D01*
X113376829Y-129923896D01*
X113375000Y-129917615D01*
X113375000Y-129682384D01*
X113378427Y-129674111D01*
X113384159Y-129670964D01*
X113729347Y-129594249D01*
X113738166Y-129595799D01*
G37*
%TD.AperFunction*%
%TD*%
%TA.AperFunction,Conductor*%
%TO.N,+3V3_D*%
G36*
X126287905Y-128626407D02*
G01*
X126704623Y-128671862D01*
X126712475Y-128676166D01*
X126715054Y-128683493D01*
X126715054Y-128918851D01*
X126711627Y-128927124D01*
X126707412Y-128929825D01*
X126371620Y-129053984D01*
X126362671Y-129053639D01*
X126356771Y-129047532D01*
X126274919Y-128852194D01*
X126274010Y-128847622D01*
X126274942Y-128637986D01*
X126278406Y-128629729D01*
X126286694Y-128626339D01*
X126287905Y-128626407D01*
G37*
%TD.AperFunction*%
%TD*%
%TA.AperFunction,Conductor*%
%TO.N,+3V3_D*%
G36*
X125977192Y-131399918D02*
G01*
X126173533Y-131482190D01*
X126179839Y-131488548D01*
X126180339Y-131495908D01*
X126117251Y-131740097D01*
X126091956Y-131838010D01*
X126091767Y-131838741D01*
X126086380Y-131845894D01*
X126080439Y-131847514D01*
X125845176Y-131847514D01*
X125836903Y-131844087D01*
X125833684Y-131838010D01*
X125752642Y-131413830D01*
X125754455Y-131405063D01*
X125761938Y-131400145D01*
X125764077Y-131399937D01*
X125972622Y-131399010D01*
X125977192Y-131399918D01*
G37*
%TD.AperFunction*%
%TD*%
%TA.AperFunction,Conductor*%
%TO.N,+3V3_D*%
G36*
X114088712Y-117955913D02*
G01*
X114091766Y-117961257D01*
X114122589Y-118080562D01*
X114180339Y-118304091D01*
X114179091Y-118312959D01*
X114173533Y-118317809D01*
X113977194Y-118400080D01*
X113972620Y-118400989D01*
X113764082Y-118400062D01*
X113755824Y-118396598D01*
X113752434Y-118388310D01*
X113752640Y-118386177D01*
X113833684Y-117961989D01*
X113838602Y-117954507D01*
X113845176Y-117952486D01*
X114080439Y-117952486D01*
X114088712Y-117955913D01*
G37*
%TD.AperFunction*%
%TD*%
%TA.AperFunction,Conductor*%
%TO.N,+3V3_D*%
G36*
X107896954Y-122602908D02*
G01*
X107899893Y-122607691D01*
X108048905Y-123074978D01*
X108048154Y-123083902D01*
X108042269Y-123089329D01*
X107779517Y-123199114D01*
X107770562Y-123199141D01*
X107770496Y-123199114D01*
X107507566Y-123089260D01*
X107501253Y-123082908D01*
X107500872Y-123075097D01*
X107640798Y-122609741D01*
X107646462Y-122602806D01*
X107651909Y-122601411D01*
X107888656Y-122599546D01*
X107896954Y-122602908D01*
G37*
%TD.AperFunction*%
%TD*%
%TA.AperFunction,Conductor*%
%TO.N,VCC*%
G36*
X137215711Y-95473044D02*
G01*
X137223100Y-95478102D01*
X137225000Y-95484493D01*
X137225000Y-95815506D01*
X137221573Y-95823779D01*
X137215711Y-95826955D01*
X136749279Y-95925169D01*
X136740477Y-95923520D01*
X136736073Y-95918232D01*
X136625883Y-95654509D01*
X136625857Y-95645556D01*
X136625862Y-95645542D01*
X136736073Y-95381766D01*
X136742424Y-95375456D01*
X136749276Y-95374830D01*
X137215711Y-95473044D01*
G37*
%TD.AperFunction*%
%TD*%
%TA.AperFunction,Conductor*%
%TO.N,+3V3_A*%
G36*
X137821474Y-124147654D02*
G01*
X137822415Y-124148098D01*
X138143687Y-124317708D01*
X138149403Y-124324600D01*
X138149924Y-124328054D01*
X138149924Y-124563300D01*
X138146497Y-124571573D01*
X138138224Y-124575000D01*
X137736648Y-124575000D01*
X137728375Y-124571573D01*
X137724948Y-124563352D01*
X137724948Y-124563300D01*
X137724010Y-124352376D01*
X137724918Y-124347808D01*
X137806161Y-124153922D01*
X137812519Y-124147617D01*
X137821474Y-124147654D01*
G37*
%TD.AperFunction*%
%TD*%
%TA.AperFunction,Conductor*%
%TO.N,+3V3_A*%
G36*
X136402164Y-112714805D02*
G01*
X136252000Y-113200000D01*
X135998000Y-113200000D01*
X135847836Y-112714805D01*
X136125000Y-112599000D01*
X136402164Y-112714805D01*
G37*
%TD.AperFunction*%
%TD*%
%TA.AperFunction,Conductor*%
%TO.N,+3V3_A*%
G36*
X137910587Y-121027068D02*
G01*
X137915076Y-121034816D01*
X137915179Y-121036362D01*
X137915179Y-121271323D01*
X137911752Y-121279596D01*
X137910721Y-121280513D01*
X137692237Y-121452685D01*
X137683618Y-121455114D01*
X137676748Y-121451794D01*
X137527473Y-121303451D01*
X137524021Y-121295191D01*
X137524954Y-121085195D01*
X137528418Y-121076939D01*
X137535105Y-121073653D01*
X137901933Y-121024765D01*
X137910587Y-121027068D01*
G37*
%TD.AperFunction*%
%TD*%
%TA.AperFunction,Conductor*%
%TO.N,+3V3_A*%
G36*
X135023681Y-132482252D02*
G01*
X135029987Y-132488610D01*
X135030532Y-132495791D01*
X134946816Y-132842216D01*
X134941541Y-132849453D01*
X134935251Y-132851166D01*
X134700050Y-132847311D01*
X134691834Y-132843749D01*
X134688778Y-132837950D01*
X134619043Y-132495514D01*
X134620750Y-132486726D01*
X134625985Y-132482392D01*
X134820495Y-132400894D01*
X134829447Y-132400858D01*
X135023681Y-132482252D01*
G37*
%TD.AperFunction*%
%TD*%
%TA.AperFunction,Conductor*%
%TO.N,AGND*%
G36*
X119045377Y-96395998D02*
G01*
X119410249Y-96755761D01*
X119413734Y-96764010D01*
X119410365Y-96772307D01*
X119242982Y-96939690D01*
X119234709Y-96943117D01*
X119233483Y-96943053D01*
X118835449Y-96901101D01*
X118827580Y-96896825D01*
X118824975Y-96889493D01*
X118824304Y-96604177D01*
X118827710Y-96595898D01*
X119028918Y-96396027D01*
X119037201Y-96392629D01*
X119045377Y-96395998D01*
G37*
%TD.AperFunction*%
%TD*%
%TA.AperFunction,Conductor*%
%TO.N,AGND*%
G36*
X148707472Y-94889151D02*
G01*
X148973517Y-94998393D01*
X148977373Y-95000970D01*
X149177578Y-95202514D01*
X149180977Y-95210799D01*
X149177523Y-95219061D01*
X149176221Y-95220177D01*
X148712553Y-95562061D01*
X148703860Y-95564213D01*
X148697336Y-95560917D01*
X148463195Y-95326776D01*
X148459768Y-95318503D01*
X148461229Y-95312841D01*
X148692792Y-94894310D01*
X148699796Y-94888731D01*
X148707472Y-94889151D01*
G37*
%TD.AperFunction*%
%TD*%
%TA.AperFunction,Conductor*%
%TO.N,AGND*%
G36*
X143976526Y-103608400D02*
G01*
X143979475Y-103613363D01*
X144079908Y-103953844D01*
X144078962Y-103962748D01*
X144073208Y-103967945D01*
X143877194Y-104050080D01*
X143872620Y-104050989D01*
X143663713Y-104050060D01*
X143655455Y-104046596D01*
X143652065Y-104038308D01*
X143652217Y-104036479D01*
X143721391Y-103614777D01*
X143726112Y-103607170D01*
X143732937Y-103604973D01*
X143968253Y-103604973D01*
X143976526Y-103608400D01*
G37*
%TD.AperFunction*%
%TD*%
%TA.AperFunction,Conductor*%
%TO.N,AGND*%
G36*
X137623851Y-127782323D02*
G01*
X137630157Y-127788681D01*
X137630750Y-127795652D01*
X137554036Y-128140838D01*
X137548896Y-128148171D01*
X137542615Y-128150000D01*
X137307385Y-128150000D01*
X137299112Y-128146573D01*
X137295964Y-128140838D01*
X137219249Y-127795652D01*
X137220799Y-127786833D01*
X137226145Y-127782324D01*
X137420480Y-127700893D01*
X137429431Y-127700857D01*
X137623851Y-127782323D01*
G37*
%TD.AperFunction*%
%TD*%
%TA.AperFunction,Conductor*%
%TO.N,AGND*%
G36*
X120145377Y-97495998D02*
G01*
X120510249Y-97855761D01*
X120513734Y-97864010D01*
X120510365Y-97872307D01*
X120342982Y-98039690D01*
X120334709Y-98043117D01*
X120333483Y-98043053D01*
X119935449Y-98001101D01*
X119927580Y-97996825D01*
X119924975Y-97989493D01*
X119924304Y-97704177D01*
X119927710Y-97695898D01*
X120128918Y-97496027D01*
X120137201Y-97492629D01*
X120145377Y-97495998D01*
G37*
%TD.AperFunction*%
%TD*%
%TA.AperFunction,Conductor*%
%TO.N,AGND*%
G36*
X120794899Y-96218824D02*
G01*
X120798599Y-96221320D01*
X120965942Y-96388663D01*
X121017984Y-96377511D01*
X121026790Y-96379128D01*
X121031874Y-96386499D01*
X121031238Y-96393442D01*
X120928792Y-96639882D01*
X120922452Y-96646206D01*
X120913497Y-96646195D01*
X120913477Y-96646187D01*
X120658694Y-96539731D01*
X120652382Y-96533379D01*
X120652408Y-96524426D01*
X120779559Y-96225017D01*
X120785945Y-96218744D01*
X120794899Y-96218824D01*
G37*
%TD.AperFunction*%
%TD*%
%TA.AperFunction,Conductor*%
%TO.N,AGND*%
G36*
X136736286Y-134899939D02*
G01*
X136744544Y-134903403D01*
X136747934Y-134911691D01*
X136747780Y-134913533D01*
X136678609Y-135335221D01*
X136673888Y-135342830D01*
X136667063Y-135345027D01*
X136431747Y-135345027D01*
X136423474Y-135341600D01*
X136420525Y-135336637D01*
X136420107Y-135335221D01*
X136320091Y-134996153D01*
X136321037Y-134987251D01*
X136326789Y-134982055D01*
X136522808Y-134899918D01*
X136527376Y-134899010D01*
X136736286Y-134899939D01*
G37*
%TD.AperFunction*%
%TD*%
%TA.AperFunction,Conductor*%
%TO.N,AGND*%
G36*
X143488712Y-122905913D02*
G01*
X143491766Y-122911257D01*
X143522589Y-123030562D01*
X143580339Y-123254091D01*
X143579091Y-123262959D01*
X143573533Y-123267809D01*
X143377194Y-123350080D01*
X143372620Y-123350989D01*
X143164082Y-123350062D01*
X143155824Y-123346598D01*
X143152434Y-123338310D01*
X143152640Y-123336177D01*
X143233684Y-122911989D01*
X143238602Y-122904507D01*
X143245176Y-122902486D01*
X143480439Y-122902486D01*
X143488712Y-122905913D01*
G37*
%TD.AperFunction*%
%TD*%
%TA.AperFunction,Conductor*%
%TO.N,AGND*%
G36*
X131065839Y-129420965D02*
G01*
X131073171Y-129426104D01*
X131075000Y-129432385D01*
X131075000Y-129667616D01*
X131071573Y-129675889D01*
X131065838Y-129679037D01*
X130720652Y-129755750D01*
X130711833Y-129754200D01*
X130707324Y-129748852D01*
X130625893Y-129554519D01*
X130625857Y-129545568D01*
X130707324Y-129351146D01*
X130713681Y-129344842D01*
X130720652Y-129344249D01*
X131065839Y-129420965D01*
G37*
%TD.AperFunction*%
%TD*%
%TA.AperFunction,Conductor*%
%TO.N,AGND*%
G36*
X109439963Y-122652166D02*
G01*
X109442955Y-122656905D01*
X109598734Y-123124891D01*
X109598096Y-123133823D01*
X109592144Y-123139381D01*
X109329530Y-123249113D01*
X109320575Y-123249141D01*
X109320509Y-123249114D01*
X109057449Y-123139211D01*
X109051136Y-123132859D01*
X109050715Y-123125182D01*
X109050799Y-123124891D01*
X109183900Y-122662007D01*
X109189478Y-122655005D01*
X109194910Y-122653544D01*
X109431627Y-122648902D01*
X109439963Y-122652166D01*
G37*
%TD.AperFunction*%
%TD*%
%TA.AperFunction,Conductor*%
%TO.N,AGND*%
G36*
X120145350Y-97495173D02*
G01*
X120175955Y-97522380D01*
X120179862Y-97530437D01*
X120176926Y-97538897D01*
X120176455Y-97539397D01*
X120082498Y-97633353D01*
X120078669Y-97635903D01*
X119978742Y-97676935D01*
X119969787Y-97676908D01*
X119963475Y-97670556D01*
X119963502Y-97661601D01*
X119966052Y-97657811D01*
X120129333Y-97495615D01*
X120137616Y-97492217D01*
X120145350Y-97495173D01*
G37*
%TD.AperFunction*%
%TD*%
%TA.AperFunction,Conductor*%
%TO.N,AGND*%
G36*
X148022916Y-138808328D02*
G01*
X148712346Y-139259059D01*
X148717396Y-139266455D01*
X148716188Y-139274504D01*
X148450334Y-139756330D01*
X148443337Y-139761918D01*
X148435038Y-139761231D01*
X147610940Y-139366718D01*
X147604958Y-139360055D01*
X147604375Y-139354775D01*
X147613982Y-139274504D01*
X147668765Y-138816730D01*
X147673151Y-138808923D01*
X147680382Y-138806421D01*
X148016514Y-138806421D01*
X148022916Y-138808328D01*
G37*
%TD.AperFunction*%
%TD*%
%TA.AperFunction,Conductor*%
%TO.N,AGND*%
G36*
X112030386Y-98946415D02*
G01*
X112040571Y-98956092D01*
X112328450Y-99229619D01*
X112332087Y-99237802D01*
X112328873Y-99246160D01*
X112328684Y-99246355D01*
X112128446Y-99447537D01*
X112120181Y-99450983D01*
X112120114Y-99450983D01*
X111835525Y-99450035D01*
X111827263Y-99446581D01*
X111823925Y-99439530D01*
X111774323Y-98956092D01*
X111776888Y-98947512D01*
X111784768Y-98943259D01*
X111785962Y-98943198D01*
X112022328Y-98943198D01*
X112030386Y-98946415D01*
G37*
%TD.AperFunction*%
%TD*%
%TA.AperFunction,Conductor*%
%TO.N,AGND*%
G36*
X143321847Y-87746763D02*
G01*
X143321916Y-87746792D01*
X143662962Y-87893951D01*
X143669201Y-87900376D01*
X143670027Y-87904694D01*
X143670027Y-88044229D01*
X143666600Y-88052502D01*
X143661608Y-88055459D01*
X143321136Y-88154941D01*
X143312234Y-88153972D01*
X143307065Y-88148234D01*
X143225893Y-87954519D01*
X143225857Y-87945568D01*
X143306534Y-87753031D01*
X143312892Y-87746726D01*
X143321847Y-87746763D01*
G37*
%TD.AperFunction*%
%TD*%
%TA.AperFunction,Conductor*%
%TO.N,AGND*%
G36*
X123267234Y-103769228D02*
G01*
X123273873Y-103775235D01*
X123275000Y-103780246D01*
X123275000Y-103919753D01*
X123271573Y-103928026D01*
X123267233Y-103930772D01*
X122921544Y-104054146D01*
X122912600Y-104053700D01*
X122906820Y-104047649D01*
X122857845Y-103930772D01*
X122825893Y-103854519D01*
X122825857Y-103845568D01*
X122906820Y-103652349D01*
X122913178Y-103646044D01*
X122921544Y-103645853D01*
X123267234Y-103769228D01*
G37*
%TD.AperFunction*%
%TD*%
%TA.AperFunction,Conductor*%
%TO.N,AGND*%
G36*
X146586652Y-126399940D02*
G01*
X146594909Y-126403404D01*
X146598299Y-126411692D01*
X146598191Y-126413225D01*
X146540883Y-126832426D01*
X146536367Y-126840158D01*
X146529291Y-126842541D01*
X146293943Y-126842541D01*
X146285670Y-126839114D01*
X146282839Y-126834529D01*
X146170544Y-126496393D01*
X146171189Y-126487461D01*
X146177126Y-126481914D01*
X146372808Y-126399918D01*
X146377376Y-126399010D01*
X146586652Y-126399940D01*
G37*
%TD.AperFunction*%
%TD*%
%TA.AperFunction,Conductor*%
%TO.N,AGND*%
G36*
X151770536Y-119931519D02*
G01*
X152003146Y-120164129D01*
X152006573Y-120172402D01*
X152003146Y-120180675D01*
X152002565Y-120181218D01*
X151692298Y-120451944D01*
X151683812Y-120454801D01*
X151676370Y-120451438D01*
X151525983Y-120302382D01*
X151523391Y-120298505D01*
X151475371Y-120181218D01*
X151442969Y-120102075D01*
X151443006Y-120093121D01*
X151448464Y-120087230D01*
X151756935Y-119929376D01*
X151765859Y-119928658D01*
X151770536Y-119931519D01*
G37*
%TD.AperFunction*%
%TD*%
%TA.AperFunction,Conductor*%
%TO.N,AGND*%
G36*
X120661119Y-97640717D02*
G01*
X120918479Y-97747702D01*
X120924803Y-97754042D01*
X120925688Y-97758534D01*
X120925024Y-98039721D01*
X120921578Y-98047986D01*
X120914804Y-98051299D01*
X120444894Y-98111207D01*
X120436254Y-98108854D01*
X120431808Y-98101081D01*
X120434161Y-98092441D01*
X120435133Y-98091336D01*
X120590537Y-97935933D01*
X120645142Y-97649332D01*
X120650056Y-97641848D01*
X120658825Y-97640030D01*
X120661119Y-97640717D01*
G37*
%TD.AperFunction*%
%TD*%
%TA.AperFunction,Conductor*%
%TO.N,AGND*%
G36*
X117653026Y-104303427D02*
G01*
X117655772Y-104307767D01*
X117779146Y-104653455D01*
X117778700Y-104662399D01*
X117772649Y-104668179D01*
X117579522Y-104749105D01*
X117570567Y-104749142D01*
X117570478Y-104749105D01*
X117377350Y-104668179D01*
X117371044Y-104661821D01*
X117370853Y-104653455D01*
X117494228Y-104307767D01*
X117500236Y-104301127D01*
X117505247Y-104300000D01*
X117644753Y-104300000D01*
X117653026Y-104303427D01*
G37*
%TD.AperFunction*%
%TD*%
%TA.AperFunction,Conductor*%
%TO.N,AGND*%
G36*
X143377192Y-123349918D02*
G01*
X143573533Y-123432190D01*
X143579839Y-123438548D01*
X143580339Y-123445908D01*
X143517251Y-123690097D01*
X143491956Y-123788010D01*
X143491767Y-123788741D01*
X143486380Y-123795894D01*
X143480439Y-123797514D01*
X143245176Y-123797514D01*
X143236903Y-123794087D01*
X143233684Y-123788010D01*
X143152642Y-123363830D01*
X143154455Y-123355063D01*
X143161938Y-123350145D01*
X143164077Y-123349937D01*
X143372622Y-123349010D01*
X143377192Y-123349918D01*
G37*
%TD.AperFunction*%
%TD*%
%TA.AperFunction,Conductor*%
%TO.N,AGND*%
G36*
X148712551Y-94437937D02*
G01*
X149176221Y-94779823D01*
X149180846Y-94787490D01*
X149178694Y-94796183D01*
X149177578Y-94797485D01*
X148977373Y-94999029D01*
X148973516Y-95001606D01*
X148707474Y-95110847D01*
X148698519Y-95110820D01*
X148692792Y-95105688D01*
X148461230Y-94687160D01*
X148460224Y-94678262D01*
X148463193Y-94673225D01*
X148697337Y-94439081D01*
X148705609Y-94435655D01*
X148712551Y-94437937D01*
G37*
%TD.AperFunction*%
%TD*%
%TA.AperFunction,Conductor*%
%TO.N,AGND*%
G36*
X143877192Y-104049918D02*
G01*
X144073208Y-104132054D01*
X144079514Y-104138412D01*
X144079908Y-104146155D01*
X143979475Y-104486637D01*
X143973847Y-104493603D01*
X143968253Y-104495027D01*
X143732937Y-104495027D01*
X143724664Y-104491600D01*
X143721391Y-104485221D01*
X143652219Y-104063530D01*
X143654262Y-104054814D01*
X143661871Y-104050093D01*
X143663712Y-104049939D01*
X143872622Y-104049010D01*
X143877192Y-104049918D01*
G37*
%TD.AperFunction*%
%TD*%
%TA.AperFunction,Conductor*%
%TO.N,AGND*%
G36*
X143976526Y-106308400D02*
G01*
X143979475Y-106313363D01*
X144079908Y-106653844D01*
X144078962Y-106662748D01*
X144073208Y-106667945D01*
X143877194Y-106750080D01*
X143872620Y-106750989D01*
X143663713Y-106750060D01*
X143655455Y-106746596D01*
X143652065Y-106738308D01*
X143652217Y-106736479D01*
X143721391Y-106314777D01*
X143726112Y-106307170D01*
X143732937Y-106304973D01*
X143968253Y-106304973D01*
X143976526Y-106308400D01*
G37*
%TD.AperFunction*%
%TD*%
%TA.AperFunction,Conductor*%
%TO.N,AGND*%
G36*
X136675336Y-134458400D02*
G01*
X136678609Y-134464779D01*
X136747780Y-134886466D01*
X136745737Y-134895185D01*
X136738128Y-134899906D01*
X136736286Y-134900060D01*
X136527379Y-134900989D01*
X136522805Y-134900080D01*
X136326791Y-134817945D01*
X136320485Y-134811587D01*
X136320091Y-134803847D01*
X136420525Y-134463362D01*
X136426153Y-134456397D01*
X136431747Y-134454973D01*
X136667063Y-134454973D01*
X136675336Y-134458400D01*
G37*
%TD.AperFunction*%
%TD*%
%TA.AperFunction,Conductor*%
%TO.N,AGND*%
G36*
X104126544Y-126633369D02*
G01*
X104191430Y-126660343D01*
X104197754Y-126666683D01*
X104197772Y-126675567D01*
X104043085Y-127054700D01*
X104040525Y-127058553D01*
X103942767Y-127156311D01*
X103934494Y-127159738D01*
X103926221Y-127156311D01*
X103924312Y-127153800D01*
X103654321Y-126676276D01*
X103653233Y-126667389D01*
X103658749Y-126660334D01*
X103659979Y-126659731D01*
X103919795Y-126551171D01*
X103928748Y-126551145D01*
X104126544Y-126633369D01*
G37*
%TD.AperFunction*%
%TD*%
%TA.AperFunction,Conductor*%
%TO.N,AGND*%
G36*
X124614671Y-129433730D02*
G01*
X124615226Y-129434877D01*
X124723827Y-129694793D01*
X124723854Y-129703748D01*
X124723835Y-129703795D01*
X124613993Y-129968025D01*
X124607653Y-129974349D01*
X124600552Y-129974933D01*
X124262002Y-129896623D01*
X124256366Y-129893497D01*
X124090126Y-129727257D01*
X124086699Y-129718984D01*
X124090126Y-129710711D01*
X124092737Y-129708745D01*
X124598773Y-129429146D01*
X124607670Y-129428146D01*
X124614671Y-129433730D01*
G37*
%TD.AperFunction*%
%TD*%
%TA.AperFunction,Conductor*%
%TO.N,AGND*%
G36*
X125191371Y-120526631D02*
G01*
X125195222Y-120534716D01*
X125195238Y-120535322D01*
X125195238Y-120771886D01*
X125191811Y-120780159D01*
X125191485Y-120780473D01*
X124895374Y-121054504D01*
X124886974Y-121057608D01*
X124879173Y-121054210D01*
X124677462Y-120853446D01*
X124674016Y-120845181D01*
X124674016Y-120845114D01*
X124674963Y-120561071D01*
X124678417Y-120552809D01*
X124686056Y-120549426D01*
X125182933Y-120523638D01*
X125191371Y-120526631D01*
G37*
%TD.AperFunction*%
%TD*%
%TA.AperFunction,Conductor*%
%TO.N,AGND*%
G36*
X116016759Y-119170449D02*
G01*
X116023649Y-119176169D01*
X116025000Y-119181626D01*
X116025000Y-119418373D01*
X116021573Y-119426646D01*
X116016759Y-119429550D01*
X115549961Y-119574020D01*
X115541045Y-119573192D01*
X115535706Y-119567354D01*
X115425883Y-119304509D01*
X115425857Y-119295556D01*
X115425862Y-119295542D01*
X115535707Y-119032643D01*
X115542058Y-119026333D01*
X115549960Y-119025979D01*
X116016759Y-119170449D01*
G37*
%TD.AperFunction*%
%TD*%
%TA.AperFunction,Conductor*%
%TO.N,AGND*%
G36*
X115749049Y-130049780D02*
G01*
X115752466Y-130057567D01*
X115774495Y-130587854D01*
X115771414Y-130596263D01*
X115763291Y-130600030D01*
X115762844Y-130600040D01*
X115479885Y-130600983D01*
X115471600Y-130597584D01*
X115471553Y-130597537D01*
X115470285Y-130596263D01*
X115269720Y-130394752D01*
X115266314Y-130386473D01*
X115268376Y-130379867D01*
X115494513Y-130051418D01*
X115502027Y-130046547D01*
X115504150Y-130046353D01*
X115740776Y-130046353D01*
X115749049Y-130049780D01*
G37*
%TD.AperFunction*%
%TD*%
%TA.AperFunction,Conductor*%
%TO.N,AGND*%
G36*
X116337959Y-90695908D02*
G01*
X116342809Y-90701466D01*
X116425080Y-90897805D01*
X116425989Y-90902379D01*
X116425062Y-91110917D01*
X116421598Y-91119175D01*
X116413310Y-91122565D01*
X116411166Y-91122357D01*
X115986990Y-91041315D01*
X115979507Y-91036397D01*
X115977486Y-91029823D01*
X115977486Y-90794561D01*
X115980913Y-90786288D01*
X115986257Y-90783233D01*
X116329091Y-90694660D01*
X116337959Y-90695908D01*
G37*
%TD.AperFunction*%
%TD*%
%TA.AperFunction,Conductor*%
%TO.N,AGND*%
G36*
X115305288Y-90782530D02*
G01*
X115311653Y-90788827D01*
X115312568Y-90793362D01*
X115312568Y-91028710D01*
X115309141Y-91036983D01*
X115301814Y-91040372D01*
X114887589Y-91073978D01*
X114879066Y-91071231D01*
X114874981Y-91063262D01*
X114874943Y-91062390D01*
X114874010Y-90852376D01*
X114874918Y-90847808D01*
X114956625Y-90652814D01*
X114962983Y-90646509D01*
X114971833Y-90646504D01*
X115305288Y-90782530D01*
G37*
%TD.AperFunction*%
%TD*%
%TA.AperFunction,Conductor*%
%TO.N,AGND*%
G36*
X119921257Y-97403582D02*
G01*
X119925018Y-97411709D01*
X119925028Y-97412158D01*
X119925679Y-97687592D01*
X119922272Y-97695874D01*
X119914007Y-97699320D01*
X119914006Y-97699320D01*
X119659075Y-97699919D01*
X119650794Y-97696512D01*
X119647348Y-97688246D01*
X119650755Y-97679965D01*
X119651828Y-97679013D01*
X119760966Y-97593640D01*
X119600233Y-97432907D01*
X119596806Y-97424634D01*
X119600233Y-97416361D01*
X119608026Y-97412944D01*
X119912851Y-97400496D01*
X119921257Y-97403582D01*
G37*
%TD.AperFunction*%
%TD*%
%TA.AperFunction,Conductor*%
%TO.N,AGND*%
G36*
X114787118Y-90646552D02*
G01*
X114793374Y-90652815D01*
X114875080Y-90847805D01*
X114875989Y-90852379D01*
X114875056Y-91062368D01*
X114871592Y-91070626D01*
X114863304Y-91074016D01*
X114862410Y-91073978D01*
X114448186Y-91040372D01*
X114440217Y-91036287D01*
X114437432Y-91028710D01*
X114437432Y-90793362D01*
X114440859Y-90785089D01*
X114444709Y-90782531D01*
X114778166Y-90646504D01*
X114787118Y-90646552D01*
G37*
%TD.AperFunction*%
%TD*%
%TA.AperFunction,Conductor*%
%TO.N,AGND*%
G36*
X133576179Y-120667602D02*
G01*
X133771169Y-120747435D01*
X133777527Y-120753741D01*
X133777564Y-120753830D01*
X133857397Y-120948820D01*
X133857360Y-120957775D01*
X133852850Y-120963124D01*
X133554522Y-121152961D01*
X133545703Y-121154511D01*
X133539968Y-121151363D01*
X133373636Y-120985031D01*
X133370209Y-120976758D01*
X133372037Y-120970478D01*
X133561875Y-120672148D01*
X133569208Y-120667009D01*
X133576179Y-120667602D01*
G37*
%TD.AperFunction*%
%TD*%
%TA.AperFunction,Conductor*%
%TO.N,AGND*%
G36*
X137639999Y-127699968D02*
G01*
X137648260Y-127703421D01*
X137651524Y-127709884D01*
X137693848Y-127984285D01*
X137691723Y-127992984D01*
X137690558Y-127994342D01*
X137524378Y-128160522D01*
X137516105Y-128163949D01*
X137507832Y-128160522D01*
X137506979Y-128159571D01*
X137398012Y-128023759D01*
X137272433Y-127867241D01*
X137269930Y-127858644D01*
X137273250Y-127851684D01*
X137420845Y-127702771D01*
X137429101Y-127699308D01*
X137639999Y-127699968D01*
G37*
%TD.AperFunction*%
%TD*%
%TA.AperFunction,Conductor*%
%TO.N,AGND*%
G36*
X121201267Y-97639272D02*
G01*
X121207129Y-97644625D01*
X121378679Y-97970441D01*
X121380026Y-97975892D01*
X121380026Y-98210498D01*
X121376599Y-98218771D01*
X121368326Y-98222198D01*
X121364454Y-98221539D01*
X120821828Y-98031243D01*
X120815155Y-98025271D01*
X120814659Y-98016330D01*
X120814859Y-98015804D01*
X120922148Y-97754507D01*
X120928456Y-97748160D01*
X121192312Y-97639261D01*
X121201267Y-97639272D01*
G37*
%TD.AperFunction*%
%TD*%
%TA.AperFunction,Conductor*%
%TO.N,AGND*%
G36*
X118708954Y-96326807D02*
G01*
X118714293Y-96332645D01*
X118824115Y-96595489D01*
X118824142Y-96604444D01*
X118824115Y-96604511D01*
X118714293Y-96867354D01*
X118707941Y-96873666D01*
X118700038Y-96874020D01*
X118233241Y-96729550D01*
X118226351Y-96723830D01*
X118225000Y-96718373D01*
X118225000Y-96481626D01*
X118228427Y-96473353D01*
X118233239Y-96470449D01*
X118700039Y-96325979D01*
X118708954Y-96326807D01*
G37*
%TD.AperFunction*%
%TD*%
%TA.AperFunction,Conductor*%
%TO.N,AGND*%
G36*
X122537454Y-90696254D02*
G01*
X122543142Y-90702261D01*
X122625080Y-90897805D01*
X122625989Y-90902379D01*
X122625058Y-91111796D01*
X122621594Y-91120054D01*
X122613306Y-91123444D01*
X122611899Y-91123353D01*
X122193695Y-91070787D01*
X122185914Y-91066355D01*
X122183454Y-91059178D01*
X122183454Y-90823823D01*
X122186881Y-90815550D01*
X122191316Y-90812770D01*
X122528515Y-90695730D01*
X122537454Y-90696254D01*
G37*
%TD.AperFunction*%
%TD*%
%TA.AperFunction,Conductor*%
%TO.N,AGND*%
G36*
X119659179Y-96539852D02*
G01*
X119920490Y-96647148D01*
X119926839Y-96653457D01*
X119926860Y-96653506D01*
X120035690Y-96917195D01*
X120035679Y-96926150D01*
X120030204Y-96932075D01*
X119753058Y-97073876D01*
X119724868Y-97088300D01*
X119704510Y-97098716D01*
X119699181Y-97100000D01*
X119464551Y-97100000D01*
X119456278Y-97096573D01*
X119452851Y-97088300D01*
X119453521Y-97084397D01*
X119530232Y-96867582D01*
X119643736Y-96546782D01*
X119649725Y-96540128D01*
X119658668Y-96539657D01*
X119659179Y-96539852D01*
G37*
%TD.AperFunction*%
%TD*%
%TA.AperFunction,Conductor*%
%TO.N,AGND*%
G36*
X143143417Y-87752919D02*
G01*
X143143465Y-87753032D01*
X143224105Y-87945478D01*
X143224142Y-87954433D01*
X143224105Y-87954522D01*
X143142935Y-88148233D01*
X143136577Y-88154539D01*
X143128863Y-88154941D01*
X142788392Y-88055459D01*
X142781412Y-88049850D01*
X142779973Y-88044229D01*
X142779973Y-87904694D01*
X142783400Y-87896421D01*
X142787035Y-87893952D01*
X143128040Y-87746810D01*
X143136992Y-87746680D01*
X143143417Y-87752919D01*
G37*
%TD.AperFunction*%
%TD*%
%TA.AperFunction,Conductor*%
%TO.N,AGND*%
G36*
X137845123Y-127476444D02*
G01*
X137848589Y-127484701D01*
X137848589Y-127719997D01*
X137845162Y-127728270D01*
X137842416Y-127730309D01*
X137522448Y-127901793D01*
X137513537Y-127902681D01*
X137506609Y-127897008D01*
X137506130Y-127896003D01*
X137424919Y-127702194D01*
X137424010Y-127697622D01*
X137424948Y-127486591D01*
X137428412Y-127478335D01*
X137436592Y-127474945D01*
X137836835Y-127473056D01*
X137845123Y-127476444D01*
G37*
%TD.AperFunction*%
%TD*%
%TA.AperFunction,Conductor*%
%TO.N,AGND*%
G36*
X110858954Y-92676807D02*
G01*
X110864293Y-92682645D01*
X110974115Y-92945489D01*
X110974142Y-92954444D01*
X110974115Y-92954511D01*
X110864293Y-93217354D01*
X110857941Y-93223666D01*
X110850038Y-93224020D01*
X110383241Y-93079550D01*
X110376351Y-93073830D01*
X110375000Y-93068373D01*
X110375000Y-92831626D01*
X110378427Y-92823353D01*
X110383239Y-92820449D01*
X110850039Y-92675979D01*
X110858954Y-92676807D01*
G37*
%TD.AperFunction*%
%TD*%
%TA.AperFunction,Conductor*%
%TO.N,AGND*%
G36*
X122740300Y-90702261D02*
G01*
X123058682Y-90812770D01*
X123065375Y-90818720D01*
X123066546Y-90823823D01*
X123066546Y-91059178D01*
X123063119Y-91067451D01*
X123056305Y-91070787D01*
X122638100Y-91123353D01*
X122629464Y-91120984D01*
X122625032Y-91113203D01*
X122624941Y-91111796D01*
X122624707Y-91059178D01*
X122624010Y-90902376D01*
X122624918Y-90897808D01*
X122706858Y-90702259D01*
X122713215Y-90695955D01*
X122721484Y-90695730D01*
X122740300Y-90702261D01*
G37*
%TD.AperFunction*%
%TD*%
%TA.AperFunction,Conductor*%
%TO.N,AGND*%
G36*
X138065839Y-122920965D02*
G01*
X138073171Y-122926104D01*
X138075000Y-122932385D01*
X138075000Y-123167616D01*
X138071573Y-123175889D01*
X138065838Y-123179037D01*
X137720652Y-123255750D01*
X137711833Y-123254200D01*
X137707324Y-123248852D01*
X137625893Y-123054519D01*
X137625857Y-123045568D01*
X137707324Y-122851146D01*
X137713681Y-122844842D01*
X137720652Y-122844249D01*
X138065839Y-122920965D01*
G37*
%TD.AperFunction*%
%TD*%
%TA.AperFunction,Conductor*%
%TO.N,AGND*%
G36*
X146537564Y-125960886D02*
G01*
X146540883Y-125967574D01*
X146598191Y-126386774D01*
X146595916Y-126395435D01*
X146588184Y-126399951D01*
X146586651Y-126400059D01*
X146377379Y-126400989D01*
X146372805Y-126400080D01*
X146177126Y-126318085D01*
X146170820Y-126311727D01*
X146170544Y-126303606D01*
X146282839Y-125965471D01*
X146288699Y-125958700D01*
X146293943Y-125957459D01*
X146529291Y-125957459D01*
X146537564Y-125960886D01*
G37*
%TD.AperFunction*%
%TD*%
%TA.AperFunction,Conductor*%
%TO.N,AGND*%
G36*
X124142286Y-112947904D02*
G01*
X124415770Y-113181851D01*
X124419830Y-113189833D01*
X124417056Y-113198347D01*
X124416438Y-113199015D01*
X124318154Y-113297299D01*
X124310726Y-113300695D01*
X123987505Y-113324094D01*
X123979006Y-113321274D01*
X123974991Y-113313270D01*
X123974960Y-113312482D01*
X123974308Y-113104190D01*
X123977709Y-113095907D01*
X124126446Y-112948485D01*
X124134734Y-112945096D01*
X124142286Y-112947904D01*
G37*
%TD.AperFunction*%
%TD*%
%TA.AperFunction,Conductor*%
%TO.N,AGND*%
G36*
X115258954Y-121976807D02*
G01*
X115264293Y-121982645D01*
X115374115Y-122245489D01*
X115374142Y-122254444D01*
X115374115Y-122254511D01*
X115264293Y-122517354D01*
X115257941Y-122523666D01*
X115250038Y-122524020D01*
X114783241Y-122379550D01*
X114776351Y-122373830D01*
X114775000Y-122368373D01*
X114775000Y-122131626D01*
X114778427Y-122123353D01*
X114783239Y-122120449D01*
X115250039Y-121975979D01*
X115258954Y-121976807D01*
G37*
%TD.AperFunction*%
%TD*%
%TA.AperFunction,Conductor*%
%TO.N,AGND*%
G36*
X143877192Y-106749918D02*
G01*
X144073208Y-106832054D01*
X144079514Y-106838412D01*
X144079908Y-106846155D01*
X143979475Y-107186637D01*
X143973847Y-107193603D01*
X143968253Y-107195027D01*
X143732937Y-107195027D01*
X143724664Y-107191600D01*
X143721391Y-107185221D01*
X143652219Y-106763530D01*
X143654262Y-106754814D01*
X143661871Y-106750093D01*
X143663712Y-106749939D01*
X143872622Y-106749010D01*
X143877192Y-106749918D01*
G37*
%TD.AperFunction*%
%TD*%
%TA.AperFunction,Conductor*%
%TO.N,AGND*%
G36*
X116564563Y-90705938D02*
G01*
X116863741Y-90783233D01*
X116870894Y-90788620D01*
X116872514Y-90794561D01*
X116872514Y-91029823D01*
X116869087Y-91038096D01*
X116863010Y-91041315D01*
X116438833Y-91122357D01*
X116430063Y-91120544D01*
X116425145Y-91113061D01*
X116424937Y-91110917D01*
X116424620Y-91039500D01*
X116424010Y-90902376D01*
X116424918Y-90897808D01*
X116507191Y-90701464D01*
X116513548Y-90695160D01*
X116520908Y-90694660D01*
X116564563Y-90705938D01*
G37*
%TD.AperFunction*%
%TD*%
%TA.AperFunction,Conductor*%
%TO.N,AGND*%
G36*
X117787959Y-90695908D02*
G01*
X117792809Y-90701466D01*
X117875080Y-90897805D01*
X117875989Y-90902379D01*
X117875062Y-91110917D01*
X117871598Y-91119175D01*
X117863310Y-91122565D01*
X117861166Y-91122357D01*
X117436990Y-91041315D01*
X117429507Y-91036397D01*
X117427486Y-91029823D01*
X117427486Y-90794561D01*
X117430913Y-90786288D01*
X117436257Y-90783233D01*
X117779091Y-90694660D01*
X117787959Y-90695908D01*
G37*
%TD.AperFunction*%
%TD*%
%TA.AperFunction,Conductor*%
%TO.N,AGND*%
G36*
X148450334Y-131133669D02*
G01*
X148716188Y-131615495D01*
X148717184Y-131624394D01*
X148712346Y-131630940D01*
X148022916Y-132081672D01*
X148016514Y-132083579D01*
X147680382Y-132083579D01*
X147672109Y-132080152D01*
X147668765Y-132073269D01*
X147613981Y-131615495D01*
X147604375Y-131535222D01*
X147606794Y-131526602D01*
X147610938Y-131523280D01*
X148435039Y-131128767D01*
X148443980Y-131128287D01*
X148450334Y-131133669D01*
G37*
%TD.AperFunction*%
%TD*%
%TA.AperFunction,Conductor*%
%TO.N,AGND*%
G36*
X137550888Y-127253427D02*
G01*
X137554036Y-127259162D01*
X137630750Y-127604347D01*
X137629200Y-127613166D01*
X137623851Y-127617676D01*
X137429522Y-127699105D01*
X137420567Y-127699142D01*
X137420478Y-127699105D01*
X137226148Y-127617676D01*
X137219842Y-127611318D01*
X137219249Y-127604347D01*
X137295964Y-127259162D01*
X137301104Y-127251829D01*
X137307385Y-127250000D01*
X137542615Y-127250000D01*
X137550888Y-127253427D01*
G37*
%TD.AperFunction*%
%TD*%
%TA.AperFunction,Conductor*%
%TO.N,AGND*%
G36*
X116066759Y-130470449D02*
G01*
X116073649Y-130476169D01*
X116075000Y-130481626D01*
X116075000Y-130718373D01*
X116071573Y-130726646D01*
X116066759Y-130729550D01*
X115599961Y-130874020D01*
X115591045Y-130873192D01*
X115585706Y-130867354D01*
X115475883Y-130604509D01*
X115475857Y-130595556D01*
X115475862Y-130595542D01*
X115585707Y-130332643D01*
X115592058Y-130326333D01*
X115599960Y-130325979D01*
X116066759Y-130470449D01*
G37*
%TD.AperFunction*%
%TD*%
%TA.AperFunction,Conductor*%
%TO.N,AGND*%
G36*
X119704558Y-96196321D02*
G01*
X120030374Y-96367870D01*
X120036098Y-96374757D01*
X120035738Y-96382687D01*
X119926860Y-96646493D01*
X119920536Y-96652833D01*
X119920489Y-96652852D01*
X119659241Y-96760122D01*
X119650286Y-96760095D01*
X119643974Y-96753743D01*
X119643756Y-96753171D01*
X119453461Y-96210546D01*
X119453957Y-96201605D01*
X119460630Y-96195633D01*
X119464502Y-96194974D01*
X119699107Y-96194974D01*
X119704558Y-96196321D01*
G37*
%TD.AperFunction*%
%TD*%
%TA.AperFunction,Conductor*%
%TO.N,AGND*%
G36*
X122737399Y-103646299D02*
G01*
X122743179Y-103652350D01*
X122824105Y-103845478D01*
X122824142Y-103854433D01*
X122824105Y-103854522D01*
X122743179Y-104047649D01*
X122736821Y-104053955D01*
X122728455Y-104054146D01*
X122382767Y-103930772D01*
X122376127Y-103924764D01*
X122375000Y-103919753D01*
X122375000Y-103780246D01*
X122378427Y-103771973D01*
X122382763Y-103769229D01*
X122728455Y-103645853D01*
X122737399Y-103646299D01*
G37*
%TD.AperFunction*%
%TD*%
%TA.AperFunction,Conductor*%
%TO.N,AGND*%
G36*
X118014563Y-90705938D02*
G01*
X118313741Y-90783233D01*
X118320894Y-90788620D01*
X118322514Y-90794561D01*
X118322514Y-91029823D01*
X118319087Y-91038096D01*
X118313010Y-91041315D01*
X117888833Y-91122357D01*
X117880063Y-91120544D01*
X117875145Y-91113061D01*
X117874937Y-91110917D01*
X117874620Y-91039500D01*
X117874010Y-90902376D01*
X117874918Y-90897808D01*
X117957191Y-90701464D01*
X117963548Y-90695160D01*
X117970908Y-90694660D01*
X118014563Y-90705938D01*
G37*
%TD.AperFunction*%
%TD*%
%TA.AperFunction,Conductor*%
%TO.N,AGND*%
G36*
X124851647Y-129103427D02*
G01*
X124854551Y-129108241D01*
X124999020Y-129575038D01*
X124998192Y-129583954D01*
X124992354Y-129589293D01*
X124729511Y-129699115D01*
X124720556Y-129699142D01*
X124720489Y-129699115D01*
X124457645Y-129589293D01*
X124451333Y-129582941D01*
X124450979Y-129575039D01*
X124595449Y-129108240D01*
X124601169Y-129101351D01*
X124606626Y-129100000D01*
X124843374Y-129100000D01*
X124851647Y-129103427D01*
G37*
%TD.AperFunction*%
%TD*%
%TA.AperFunction,Conductor*%
%TO.N,Net-(J1-CC1)*%
G36*
X150437471Y-136496240D02*
G01*
X150443131Y-136502233D01*
X150524105Y-136695478D01*
X150524142Y-136704433D01*
X150524105Y-136704522D01*
X150443236Y-136897515D01*
X150436878Y-136903821D01*
X150428369Y-136903960D01*
X150083619Y-136775833D01*
X150077058Y-136769739D01*
X150075995Y-136764866D01*
X150075995Y-136625347D01*
X150079422Y-136617074D01*
X150083888Y-136614284D01*
X150428535Y-136495692D01*
X150437471Y-136496240D01*
G37*
%TD.AperFunction*%
%TD*%
%TA.AperFunction,Conductor*%
%TO.N,Net-(J1-CC2)*%
G36*
X150488224Y-133545772D02*
G01*
X150492639Y-133551060D01*
X150574105Y-133745478D01*
X150574142Y-133754433D01*
X150574105Y-133754522D01*
X150493822Y-133946115D01*
X150487464Y-133952421D01*
X150478509Y-133952384D01*
X150477602Y-133951957D01*
X150142211Y-133776284D01*
X150136473Y-133769410D01*
X150135940Y-133765920D01*
X150135940Y-133626478D01*
X150139367Y-133618205D01*
X150145211Y-133615033D01*
X150479420Y-133544137D01*
X150488224Y-133545772D01*
G37*
%TD.AperFunction*%
%TD*%
%TA.AperFunction,Conductor*%
%TO.N,ADC_CLK*%
G36*
X129421210Y-124723929D02*
G01*
X129765017Y-124773559D01*
X129772714Y-124778132D01*
X129775044Y-124785086D01*
X129775978Y-124995102D01*
X129772588Y-125003390D01*
X129772525Y-125003453D01*
X129625500Y-125149559D01*
X129617216Y-125152960D01*
X129608954Y-125149507D01*
X129607852Y-125148225D01*
X129410138Y-124881102D01*
X129407842Y-124874141D01*
X129407842Y-124735510D01*
X129411269Y-124727237D01*
X129419542Y-124723810D01*
X129421210Y-124723929D01*
G37*
%TD.AperFunction*%
%TD*%
%TA.AperFunction,Conductor*%
%TO.N,ADC_CLK*%
G36*
X137051221Y-130259716D02*
G01*
X137217623Y-130426118D01*
X137221050Y-130434391D01*
X137220230Y-130438693D01*
X137087227Y-130775091D01*
X137080999Y-130781525D01*
X137072045Y-130781669D01*
X137071914Y-130781617D01*
X136876494Y-130701608D01*
X136872617Y-130699016D01*
X136724629Y-130549707D01*
X136721239Y-130541419D01*
X136724703Y-130533161D01*
X136725170Y-130532723D01*
X137035209Y-130259214D01*
X137043679Y-130256312D01*
X137051221Y-130259716D01*
G37*
%TD.AperFunction*%
%TD*%
%TA.AperFunction,Conductor*%
%TO.N,ADC_CLK*%
G36*
X137073851Y-130782323D02*
G01*
X137080157Y-130788681D01*
X137080750Y-130795652D01*
X137004036Y-131140838D01*
X136998896Y-131148171D01*
X136992615Y-131150000D01*
X136757385Y-131150000D01*
X136749112Y-131146573D01*
X136745964Y-131140838D01*
X136669249Y-130795652D01*
X136670799Y-130786833D01*
X136676145Y-130782324D01*
X136870480Y-130700893D01*
X136879431Y-130700857D01*
X137073851Y-130782323D01*
G37*
%TD.AperFunction*%
%TD*%
%TA.AperFunction,Conductor*%
%TO.N,EXT_LO*%
G36*
X131554757Y-90353427D02*
G01*
X131556431Y-90355540D01*
X131970803Y-91024669D01*
X131972245Y-91033507D01*
X131970231Y-91037830D01*
X131484375Y-91688445D01*
X131476679Y-91693023D01*
X131467999Y-91690819D01*
X131465625Y-91688445D01*
X130979768Y-91037830D01*
X130977564Y-91029150D01*
X130979196Y-91024669D01*
X131393569Y-90355540D01*
X131400838Y-90350311D01*
X131403516Y-90350000D01*
X131546484Y-90350000D01*
X131554757Y-90353427D01*
G37*
%TD.AperFunction*%
%TD*%
%TA.AperFunction,Conductor*%
%TO.N,GPIO63*%
G36*
X132753357Y-142869681D02*
G01*
X132755031Y-142871794D01*
X133169403Y-143540923D01*
X133170845Y-143549761D01*
X133168831Y-143554084D01*
X132682975Y-144204699D01*
X132675279Y-144209277D01*
X132666599Y-144207073D01*
X132664225Y-144204699D01*
X132178368Y-143554084D01*
X132176164Y-143545404D01*
X132177796Y-143540923D01*
X132592169Y-142871794D01*
X132599438Y-142866565D01*
X132602116Y-142866254D01*
X132745084Y-142866254D01*
X132753357Y-142869681D01*
G37*
%TD.AperFunction*%
%TD*%
%TA.AperFunction,Conductor*%
%TO.N,GPIO64*%
G36*
X134320499Y-145747996D02*
G01*
X135086656Y-145928137D01*
X135093924Y-145933365D01*
X135095556Y-145937846D01*
X135212059Y-146741455D01*
X135209855Y-146750135D01*
X135202159Y-146754713D01*
X135198801Y-146754713D01*
X134395192Y-146638210D01*
X134387496Y-146633632D01*
X134385483Y-146629312D01*
X134205343Y-145863156D01*
X134206785Y-145854319D01*
X134208455Y-145852210D01*
X134309553Y-145751112D01*
X134317825Y-145747686D01*
X134320499Y-145747996D01*
G37*
%TD.AperFunction*%
%TD*%
%TA.AperFunction,Conductor*%
%TO.N,GPIO75*%
G36*
X114016199Y-143192636D02*
G01*
X114766895Y-143388004D01*
X114774038Y-143393404D01*
X114775527Y-143397648D01*
X114892059Y-144201455D01*
X114889855Y-144210135D01*
X114882159Y-144214713D01*
X114878801Y-144214713D01*
X114074994Y-144098181D01*
X114067298Y-144093603D01*
X114065350Y-144089549D01*
X113869982Y-143338853D01*
X113871215Y-143329983D01*
X113873028Y-143327637D01*
X114004980Y-143195685D01*
X114013252Y-143192259D01*
X114016199Y-143192636D01*
G37*
%TD.AperFunction*%
%TD*%
%TA.AperFunction,Conductor*%
%TO.N,GPIO72*%
G36*
X112455174Y-142869681D02*
G01*
X112456991Y-142872031D01*
X112849667Y-143540998D01*
X112850900Y-143549868D01*
X112848952Y-143553922D01*
X112362975Y-144204699D01*
X112355279Y-144209277D01*
X112346599Y-144207073D01*
X112344225Y-144204699D01*
X111858247Y-143553922D01*
X111856043Y-143545242D01*
X111857529Y-143541003D01*
X112250209Y-142872031D01*
X112257352Y-142866631D01*
X112260299Y-142866254D01*
X112446901Y-142866254D01*
X112455174Y-142869681D01*
G37*
%TD.AperFunction*%
%TD*%
%TA.AperFunction,Conductor*%
%TO.N,GPIO84*%
G36*
X117042383Y-133880103D02*
G01*
X117349465Y-133988036D01*
X117356133Y-133994012D01*
X117356623Y-134002954D01*
X117356402Y-134003533D01*
X117276862Y-134196482D01*
X117270541Y-134202825D01*
X117270478Y-134202851D01*
X117077597Y-134281817D01*
X117068642Y-134281780D01*
X117062491Y-134275782D01*
X116891907Y-133895934D01*
X116891644Y-133886983D01*
X116897787Y-133880468D01*
X116902580Y-133879441D01*
X117038503Y-133879441D01*
X117042383Y-133880103D01*
G37*
%TD.AperFunction*%
%TD*%
%TA.AperFunction,Conductor*%
%TO.N,GPIO62*%
G36*
X137833357Y-142869681D02*
G01*
X137835031Y-142871794D01*
X138249403Y-143540923D01*
X138250845Y-143549761D01*
X138248831Y-143554084D01*
X137762975Y-144204699D01*
X137755279Y-144209277D01*
X137746599Y-144207073D01*
X137744225Y-144204699D01*
X137258368Y-143554084D01*
X137256164Y-143545404D01*
X137257796Y-143540923D01*
X137672169Y-142871794D01*
X137679438Y-142866565D01*
X137682116Y-142866254D01*
X137825084Y-142866254D01*
X137833357Y-142869681D01*
G37*
%TD.AperFunction*%
%TD*%
%TA.AperFunction,Conductor*%
%TO.N,GPIO65*%
G36*
X139400499Y-145747996D02*
G01*
X140166656Y-145928137D01*
X140173924Y-145933365D01*
X140175556Y-145937846D01*
X140292059Y-146741455D01*
X140289855Y-146750135D01*
X140282159Y-146754713D01*
X140278801Y-146754713D01*
X139475192Y-146638210D01*
X139467496Y-146633632D01*
X139465483Y-146629312D01*
X139285343Y-145863156D01*
X139286785Y-145854319D01*
X139288455Y-145852210D01*
X139389553Y-145751112D01*
X139397825Y-145747686D01*
X139400499Y-145747996D01*
G37*
%TD.AperFunction*%
%TD*%
%TA.AperFunction,Conductor*%
%TO.N,GPIO66*%
G36*
X140283098Y-142850909D02*
G01*
X140284391Y-142852445D01*
X140752060Y-143516473D01*
X140754022Y-143525210D01*
X140752231Y-143529698D01*
X140303008Y-144203901D01*
X140295568Y-144208885D01*
X140286783Y-144207150D01*
X140284274Y-144204892D01*
X140283450Y-144203901D01*
X139763377Y-143578265D01*
X139760723Y-143569713D01*
X139762599Y-143564356D01*
X140165425Y-142952374D01*
X140166917Y-142950544D01*
X140266553Y-142850908D01*
X140274825Y-142847482D01*
X140283098Y-142850909D01*
G37*
%TD.AperFunction*%
%TD*%
%TA.AperFunction,Conductor*%
%TO.N,GPIO60*%
G36*
X131780499Y-145747996D02*
G01*
X132546656Y-145928137D01*
X132553924Y-145933365D01*
X132555556Y-145937846D01*
X132672059Y-146741455D01*
X132669855Y-146750135D01*
X132662159Y-146754713D01*
X132658801Y-146754713D01*
X131855192Y-146638210D01*
X131847496Y-146633632D01*
X131845483Y-146629312D01*
X131665343Y-145863156D01*
X131666785Y-145854319D01*
X131668455Y-145852210D01*
X131769553Y-145751112D01*
X131777825Y-145747686D01*
X131780499Y-145747996D01*
G37*
%TD.AperFunction*%
%TD*%
%TA.AperFunction,Conductor*%
%TO.N,GPIO69*%
G36*
X124160499Y-145747996D02*
G01*
X124926656Y-145928137D01*
X124933924Y-145933365D01*
X124935556Y-145937846D01*
X125052059Y-146741455D01*
X125049855Y-146750135D01*
X125042159Y-146754713D01*
X125038801Y-146754713D01*
X124235192Y-146638210D01*
X124227496Y-146633632D01*
X124225483Y-146629312D01*
X124045343Y-145863156D01*
X124046785Y-145854319D01*
X124048455Y-145852210D01*
X124149553Y-145751112D01*
X124157825Y-145747686D01*
X124160499Y-145747996D01*
G37*
%TD.AperFunction*%
%TD*%
%TA.AperFunction,Conductor*%
%TO.N,GPIO61*%
G36*
X135293357Y-142869681D02*
G01*
X135295031Y-142871794D01*
X135709403Y-143540923D01*
X135710845Y-143549761D01*
X135708831Y-143554084D01*
X135222975Y-144204699D01*
X135215279Y-144209277D01*
X135206599Y-144207073D01*
X135204225Y-144204699D01*
X134718368Y-143554084D01*
X134716164Y-143545404D01*
X134717796Y-143540923D01*
X135132169Y-142871794D01*
X135139438Y-142866565D01*
X135142116Y-142866254D01*
X135285084Y-142866254D01*
X135293357Y-142869681D01*
G37*
%TD.AperFunction*%
%TD*%
%TA.AperFunction,Conductor*%
%TO.N,GPIO70*%
G36*
X126700499Y-145747996D02*
G01*
X127466656Y-145928137D01*
X127473924Y-145933365D01*
X127475556Y-145937846D01*
X127592059Y-146741455D01*
X127589855Y-146750135D01*
X127582159Y-146754713D01*
X127578801Y-146754713D01*
X126775192Y-146638210D01*
X126767496Y-146633632D01*
X126765483Y-146629312D01*
X126585343Y-145863156D01*
X126586785Y-145854319D01*
X126588455Y-145852210D01*
X126689553Y-145751112D01*
X126697825Y-145747686D01*
X126700499Y-145747996D01*
G37*
%TD.AperFunction*%
%TD*%
%TA.AperFunction,Conductor*%
%TO.N,GPIO73*%
G36*
X109915174Y-142869681D02*
G01*
X109916991Y-142872031D01*
X110309667Y-143540998D01*
X110310900Y-143549868D01*
X110308952Y-143553922D01*
X109822975Y-144204699D01*
X109815279Y-144209277D01*
X109806599Y-144207073D01*
X109804225Y-144204699D01*
X109318247Y-143553922D01*
X109316043Y-143545242D01*
X109317529Y-143541003D01*
X109710209Y-142872031D01*
X109717352Y-142866631D01*
X109720299Y-142866254D01*
X109906901Y-142866254D01*
X109915174Y-142869681D01*
G37*
%TD.AperFunction*%
%TD*%
%TA.AperFunction,Conductor*%
%TO.N,GPIO74*%
G36*
X116556199Y-143192636D02*
G01*
X117306895Y-143388004D01*
X117314038Y-143393404D01*
X117315527Y-143397648D01*
X117432059Y-144201455D01*
X117429855Y-144210135D01*
X117422159Y-144214713D01*
X117418801Y-144214713D01*
X116614994Y-144098181D01*
X116607298Y-144093603D01*
X116605350Y-144089549D01*
X116409982Y-143338853D01*
X116411215Y-143329983D01*
X116413028Y-143327637D01*
X116544980Y-143195685D01*
X116553252Y-143192259D01*
X116556199Y-143192636D01*
G37*
%TD.AperFunction*%
%TD*%
%TA.AperFunction,Conductor*%
%TO.N,GPIO67*%
G36*
X136860499Y-145747996D02*
G01*
X137626656Y-145928137D01*
X137633924Y-145933365D01*
X137635556Y-145937846D01*
X137752059Y-146741455D01*
X137749855Y-146750135D01*
X137742159Y-146754713D01*
X137738801Y-146754713D01*
X136935192Y-146638210D01*
X136927496Y-146633632D01*
X136925483Y-146629312D01*
X136745343Y-145863156D01*
X136746785Y-145854319D01*
X136748455Y-145852210D01*
X136849553Y-145751112D01*
X136857825Y-145747686D01*
X136860499Y-145747996D01*
G37*
%TD.AperFunction*%
%TD*%
%TA.AperFunction,Conductor*%
%TO.N,GPIO85*%
G36*
X116535732Y-133781092D02*
G01*
X116539159Y-133789365D01*
X116539090Y-133790630D01*
X116501129Y-134139611D01*
X116496828Y-134147465D01*
X116489550Y-134150046D01*
X116279897Y-134150978D01*
X116271609Y-134147588D01*
X116125119Y-134000177D01*
X116121719Y-133991894D01*
X116125172Y-133983632D01*
X116126130Y-133982779D01*
X116381304Y-133780201D01*
X116388579Y-133777665D01*
X116527459Y-133777665D01*
X116535732Y-133781092D01*
G37*
%TD.AperFunction*%
%TD*%
%TA.AperFunction,Conductor*%
%TO.N,Net-(U3-DVDD)*%
G36*
X133554522Y-121797038D02*
G01*
X133852850Y-121986875D01*
X133857990Y-121994208D01*
X133857397Y-122001179D01*
X133777564Y-122196169D01*
X133771258Y-122202527D01*
X133771169Y-122202564D01*
X133576179Y-122282397D01*
X133567224Y-122282360D01*
X133561875Y-122277850D01*
X133372038Y-121979522D01*
X133370488Y-121970703D01*
X133373634Y-121964970D01*
X133539969Y-121798635D01*
X133548241Y-121795209D01*
X133554522Y-121797038D01*
G37*
%TD.AperFunction*%
%TD*%
%TA.AperFunction,Conductor*%
%TO.N,ADC_IN*%
G36*
X146396188Y-119964817D02*
G01*
X147063101Y-120426079D01*
X147067956Y-120433603D01*
X147066069Y-120442356D01*
X147063774Y-120444822D01*
X146429184Y-120954683D01*
X146420588Y-120957193D01*
X146416012Y-120955698D01*
X145740802Y-120566376D01*
X145735346Y-120559275D01*
X145734946Y-120556240D01*
X145734946Y-120413180D01*
X145738373Y-120404907D01*
X145740051Y-120403516D01*
X146382938Y-119964775D01*
X146391702Y-119962943D01*
X146396188Y-119964817D01*
G37*
%TD.AperFunction*%
%TD*%
%TA.AperFunction,Conductor*%
%TO.N,ADC_IN*%
G36*
X147502626Y-119169646D02*
G01*
X147505538Y-119174485D01*
X147732822Y-119914769D01*
X147731974Y-119923684D01*
X147728820Y-119927438D01*
X147087497Y-120426279D01*
X147078863Y-120428654D01*
X147071079Y-120424227D01*
X147069378Y-120421202D01*
X146777400Y-119652570D01*
X146777665Y-119643621D01*
X146780831Y-119639443D01*
X147343742Y-119168941D01*
X147351245Y-119166219D01*
X147494353Y-119166219D01*
X147502626Y-119169646D01*
G37*
%TD.AperFunction*%
%TD*%
%TA.AperFunction,Conductor*%
%TO.N,Net-(U5-VCC)*%
G36*
X139738705Y-95477469D02*
G01*
X140159409Y-95553266D01*
X140166942Y-95558105D01*
X140169033Y-95564780D01*
X140169033Y-95893815D01*
X140165606Y-95902088D01*
X140157859Y-95905503D01*
X139737171Y-95924451D01*
X139728752Y-95921400D01*
X139724957Y-95913289D01*
X139724946Y-95912855D01*
X139724000Y-95700000D01*
X139724938Y-95488932D01*
X139728402Y-95480675D01*
X139736690Y-95477285D01*
X139738705Y-95477469D01*
G37*
%TD.AperFunction*%
%TD*%
%TA.AperFunction,Conductor*%
%TO.N,MIXER_LO*%
G36*
X134022356Y-94248930D02*
G01*
X134024822Y-94251225D01*
X134534683Y-94885814D01*
X134537193Y-94894410D01*
X134535698Y-94898986D01*
X134146377Y-95574198D01*
X134139276Y-95579654D01*
X134136241Y-95580054D01*
X133993180Y-95580054D01*
X133984907Y-95576627D01*
X133983516Y-95574949D01*
X133983003Y-95574198D01*
X133544776Y-94932061D01*
X133542943Y-94923296D01*
X133544817Y-94918811D01*
X133567639Y-94885814D01*
X134006080Y-94251896D01*
X134013603Y-94247043D01*
X134022356Y-94248930D01*
G37*
%TD.AperFunction*%
%TD*%
%TA.AperFunction,Conductor*%
%TO.N,MIXER_LO*%
G36*
X134145861Y-95083427D02*
G01*
X134146505Y-95084126D01*
X134858021Y-95921784D01*
X134860765Y-95930308D01*
X134857382Y-95937626D01*
X134023401Y-96772588D01*
X134015130Y-96776020D01*
X134006855Y-96772598D01*
X134006724Y-96772466D01*
X133531195Y-96282160D01*
X133197416Y-95938010D01*
X133194117Y-95929686D01*
X133197282Y-95921861D01*
X133983534Y-95083695D01*
X133991693Y-95080006D01*
X133992067Y-95080000D01*
X134137588Y-95080000D01*
X134145861Y-95083427D01*
G37*
%TD.AperFunction*%
%TD*%
%TA.AperFunction,Conductor*%
%TO.N,MIXER_LO*%
G36*
X134022001Y-91709180D02*
G01*
X134024375Y-91711554D01*
X134510231Y-92362168D01*
X134512435Y-92370848D01*
X134510803Y-92375329D01*
X134096431Y-93044460D01*
X134089162Y-93049689D01*
X134086484Y-93050000D01*
X133943516Y-93050000D01*
X133935243Y-93046573D01*
X133933569Y-93044460D01*
X133519196Y-92375329D01*
X133517754Y-92366491D01*
X133519766Y-92362171D01*
X134005625Y-91711553D01*
X134013321Y-91706976D01*
X134022001Y-91709180D01*
G37*
%TD.AperFunction*%
%TD*%
%TA.AperFunction,Conductor*%
%TO.N,MIXER_LO*%
G36*
X134094757Y-92893427D02*
G01*
X134096431Y-92895540D01*
X134510803Y-93564669D01*
X134512245Y-93573507D01*
X134510231Y-93577830D01*
X134024375Y-94228445D01*
X134016679Y-94233023D01*
X134007999Y-94230819D01*
X134005625Y-94228445D01*
X133519768Y-93577830D01*
X133517564Y-93569150D01*
X133519196Y-93564669D01*
X133933569Y-92895540D01*
X133940838Y-92890311D01*
X133943516Y-92890000D01*
X134086484Y-92890000D01*
X134094757Y-92893427D01*
G37*
%TD.AperFunction*%
%TD*%
%TA.AperFunction,Conductor*%
%TO.N,MIXER_LO*%
G36*
X134677247Y-93724268D02*
G01*
X135351252Y-94118611D01*
X135356663Y-94125747D01*
X135357044Y-94128710D01*
X135357044Y-94271753D01*
X135353617Y-94280026D01*
X135351853Y-94281475D01*
X134703666Y-94715414D01*
X134694885Y-94717169D01*
X134690431Y-94715265D01*
X134026827Y-94249012D01*
X134022027Y-94241452D01*
X134023980Y-94232713D01*
X134026284Y-94230271D01*
X134664075Y-93725194D01*
X134672689Y-93722745D01*
X134677247Y-93724268D01*
G37*
%TD.AperFunction*%
%TD*%
%TA.AperFunction,Conductor*%
%TO.N,Net-(J2-In)*%
G36*
X147932969Y-122193089D02*
G01*
X148718858Y-122966733D01*
X148771508Y-123018562D01*
X148775000Y-123026808D01*
X148775000Y-123172202D01*
X148771573Y-123180475D01*
X148770386Y-123181512D01*
X147933127Y-123818813D01*
X147924469Y-123821097D01*
X147917773Y-123817781D01*
X147082598Y-122983587D01*
X147079166Y-122975316D01*
X147082588Y-122967041D01*
X147082880Y-122966759D01*
X147916803Y-122192850D01*
X147925197Y-122189735D01*
X147932969Y-122193089D01*
G37*
%TD.AperFunction*%
%TD*%
%TA.AperFunction,Conductor*%
%TO.N,+3V3_PLL*%
G36*
X116686356Y-96978068D02*
G01*
X116691774Y-96985198D01*
X116692158Y-96988172D01*
X116692158Y-97222523D01*
X116689170Y-97230333D01*
X116492320Y-97449927D01*
X116484246Y-97453800D01*
X116475798Y-97450829D01*
X116475361Y-97450416D01*
X116474869Y-97449927D01*
X116325680Y-97301670D01*
X116323102Y-97297808D01*
X116243954Y-97104481D01*
X116243991Y-97095527D01*
X116250349Y-97089221D01*
X116251801Y-97088735D01*
X116677485Y-96976856D01*
X116686356Y-96978068D01*
G37*
%TD.AperFunction*%
%TD*%
%TA.AperFunction,Conductor*%
%TO.N,+3V3_PLL*%
G36*
X119668752Y-100376794D02*
G01*
X119671358Y-100380762D01*
X119828652Y-100778232D01*
X119828510Y-100787185D01*
X119822295Y-100793328D01*
X119630213Y-100873818D01*
X119621258Y-100873855D01*
X119621195Y-100873829D01*
X119554713Y-100846159D01*
X119426669Y-100792867D01*
X119420349Y-100786525D01*
X119419893Y-100778936D01*
X119484374Y-100546766D01*
X119487372Y-100541628D01*
X119652207Y-100376793D01*
X119660479Y-100373367D01*
X119668752Y-100376794D01*
G37*
%TD.AperFunction*%
%TD*%
%TA.AperFunction,Conductor*%
%TO.N,+3V3_PLL*%
G36*
X120065839Y-100745964D02*
G01*
X120073171Y-100751103D01*
X120075000Y-100757384D01*
X120075000Y-100992615D01*
X120071573Y-101000888D01*
X120065838Y-101004036D01*
X119720652Y-101080750D01*
X119711833Y-101079200D01*
X119707324Y-101073852D01*
X119625893Y-100879519D01*
X119625857Y-100870568D01*
X119707324Y-100676146D01*
X119713681Y-100669842D01*
X119720652Y-100669249D01*
X120065839Y-100745964D01*
G37*
%TD.AperFunction*%
%TD*%
%TA.AperFunction,Conductor*%
%TO.N,+3V3_PLL*%
G36*
X122887399Y-98396299D02*
G01*
X122893179Y-98402350D01*
X122974105Y-98595478D01*
X122974142Y-98604433D01*
X122974105Y-98604522D01*
X122893179Y-98797649D01*
X122886821Y-98803955D01*
X122878455Y-98804146D01*
X122532767Y-98680772D01*
X122526127Y-98674764D01*
X122525000Y-98669753D01*
X122525000Y-98530246D01*
X122528427Y-98521973D01*
X122532763Y-98519229D01*
X122878455Y-98395853D01*
X122887399Y-98396299D01*
G37*
%TD.AperFunction*%
%TD*%
%TA.AperFunction,Conductor*%
%TO.N,+3V3_PLL*%
G36*
X116491907Y-98749635D02*
G01*
X116492320Y-98750072D01*
X116689170Y-98969667D01*
X116692158Y-98977476D01*
X116692158Y-99211827D01*
X116688731Y-99220100D01*
X116680458Y-99223527D01*
X116677484Y-99223143D01*
X116251808Y-99111266D01*
X116244678Y-99105848D01*
X116243466Y-99096976D01*
X116243951Y-99095524D01*
X116323104Y-98902188D01*
X116325679Y-98898331D01*
X116475363Y-98749581D01*
X116483645Y-98746182D01*
X116491907Y-98749635D01*
G37*
%TD.AperFunction*%
%TD*%
%TA.AperFunction,Conductor*%
%TO.N,+3V3_PLL*%
G36*
X113458840Y-95876891D02*
G01*
X113464370Y-95882828D01*
X113574113Y-96145471D01*
X113574141Y-96154426D01*
X113574114Y-96154492D01*
X113464222Y-96417525D01*
X113457870Y-96423838D01*
X113450163Y-96424251D01*
X112986519Y-96289625D01*
X112979530Y-96284027D01*
X112978084Y-96278589D01*
X112974038Y-96041869D01*
X112977323Y-96033538D01*
X112982068Y-96030559D01*
X113449911Y-95876228D01*
X113458840Y-95876891D01*
G37*
%TD.AperFunction*%
%TD*%
%TA.AperFunction,Conductor*%
%TO.N,+3V3_PLL*%
G36*
X116491907Y-95749635D02*
G01*
X116492320Y-95750072D01*
X116689170Y-95969667D01*
X116692158Y-95977476D01*
X116692158Y-96211827D01*
X116688731Y-96220100D01*
X116680458Y-96223527D01*
X116677484Y-96223143D01*
X116251808Y-96111266D01*
X116244678Y-96105848D01*
X116243466Y-96096976D01*
X116243951Y-96095524D01*
X116323104Y-95902188D01*
X116325679Y-95898331D01*
X116475363Y-95749581D01*
X116483645Y-95746182D01*
X116491907Y-95749635D01*
G37*
%TD.AperFunction*%
%TD*%
%TA.AperFunction,Conductor*%
%TO.N,Net-(U7-RSET)*%
G36*
X119228389Y-94052410D02*
G01*
X119237480Y-94061558D01*
X119375877Y-94200825D01*
X119379278Y-94209109D01*
X119375851Y-94217345D01*
X119156427Y-94436752D01*
X119148154Y-94440179D01*
X119008791Y-94440179D01*
X119000518Y-94436752D01*
X118997091Y-94428479D01*
X118997091Y-94428389D01*
X118999911Y-94061558D01*
X119003402Y-94053311D01*
X119011557Y-94049948D01*
X119220103Y-94049021D01*
X119228389Y-94052410D01*
G37*
%TD.AperFunction*%
%TD*%
%TA.AperFunction,Conductor*%
%TO.N,4350_SPI_CLK*%
G36*
X111182117Y-121367908D02*
G01*
X111187877Y-121373117D01*
X111229217Y-121449293D01*
X111359741Y-121689809D01*
X111360675Y-121698715D01*
X111357731Y-121703663D01*
X111228663Y-121832731D01*
X111220390Y-121836158D01*
X111214809Y-121834741D01*
X111080558Y-121761885D01*
X110898117Y-121662877D01*
X110892482Y-121655920D01*
X110892870Y-121648164D01*
X110972435Y-121453829D01*
X110978741Y-121447472D01*
X110978757Y-121447465D01*
X111173164Y-121367871D01*
X111182117Y-121367908D01*
G37*
%TD.AperFunction*%
%TD*%
%TA.AperFunction,Conductor*%
%TO.N,4350_SPI_CLK*%
G36*
X105783248Y-93907491D02*
G01*
X106621166Y-94668518D01*
X106624986Y-94676616D01*
X106625000Y-94677178D01*
X106625000Y-94822821D01*
X106621573Y-94831094D01*
X106621166Y-94831482D01*
X105783249Y-95592507D01*
X105774821Y-95595532D01*
X105767115Y-95592124D01*
X105546188Y-95371457D01*
X104932286Y-94758276D01*
X104928855Y-94750007D01*
X104932276Y-94741733D01*
X105767116Y-93907874D01*
X105775390Y-93904453D01*
X105783248Y-93907491D01*
G37*
%TD.AperFunction*%
%TD*%
%TA.AperFunction,Conductor*%
%TO.N,4350_SPI_DATA*%
G36*
X111416625Y-122197517D02*
G01*
X111423583Y-122203154D01*
X111425000Y-122208735D01*
X111425000Y-122391264D01*
X111421573Y-122399537D01*
X111416625Y-122402482D01*
X111071164Y-122504890D01*
X111062258Y-122503955D01*
X111057048Y-122498194D01*
X110975893Y-122304519D01*
X110975857Y-122295568D01*
X111057049Y-122101803D01*
X111063406Y-122095499D01*
X111071163Y-122095109D01*
X111416625Y-122197517D01*
G37*
%TD.AperFunction*%
%TD*%
%TA.AperFunction,Conductor*%
%TO.N,4350_SPI_DATA*%
G36*
X105600329Y-96794196D02*
G01*
X106269460Y-97208569D01*
X106274689Y-97215838D01*
X106275000Y-97218516D01*
X106275000Y-97361483D01*
X106271573Y-97369756D01*
X106269460Y-97371430D01*
X105600329Y-97785803D01*
X105591491Y-97787245D01*
X105587168Y-97785231D01*
X105196949Y-97493829D01*
X104936553Y-97299374D01*
X104931976Y-97291679D01*
X104934180Y-97282999D01*
X104936554Y-97280625D01*
X105033045Y-97208569D01*
X105587169Y-96794767D01*
X105595848Y-96792564D01*
X105600329Y-96794196D01*
G37*
%TD.AperFunction*%
%TD*%
%TA.AperFunction,Conductor*%
%TO.N,+3V3_PLL_VCO*%
G36*
X122588166Y-93845799D02*
G01*
X122592676Y-93851148D01*
X122674105Y-94045478D01*
X122674142Y-94054433D01*
X122674105Y-94054522D01*
X122592676Y-94248851D01*
X122586318Y-94255157D01*
X122579347Y-94255750D01*
X122234162Y-94179036D01*
X122226829Y-94173896D01*
X122225000Y-94167615D01*
X122225000Y-93932384D01*
X122228427Y-93924111D01*
X122234159Y-93920964D01*
X122579347Y-93844249D01*
X122588166Y-93845799D01*
G37*
%TD.AperFunction*%
%TD*%
%TA.AperFunction,Conductor*%
%TO.N,+3V3_PLL_VCO*%
G36*
X122988166Y-95395799D02*
G01*
X122992676Y-95401148D01*
X123074105Y-95595478D01*
X123074142Y-95604433D01*
X123074105Y-95604522D01*
X122992676Y-95798851D01*
X122986318Y-95805157D01*
X122979347Y-95805750D01*
X122634162Y-95729036D01*
X122626829Y-95723896D01*
X122625000Y-95717615D01*
X122625000Y-95482384D01*
X122628427Y-95474111D01*
X122634159Y-95470964D01*
X122979347Y-95394249D01*
X122988166Y-95395799D01*
G37*
%TD.AperFunction*%
%TD*%
%TA.AperFunction,Conductor*%
%TO.N,4350_SPI_LE*%
G36*
X111299639Y-122713422D02*
G01*
X111300736Y-122718368D01*
X111300736Y-122897683D01*
X111299854Y-122902140D01*
X111187330Y-123175283D01*
X111181010Y-123181627D01*
X111172055Y-123181644D01*
X111172053Y-123181643D01*
X110978517Y-123101862D01*
X110972174Y-123095541D01*
X110893121Y-122902446D01*
X110893158Y-122893492D01*
X110899001Y-122887412D01*
X111284091Y-122707764D01*
X111293036Y-122707373D01*
X111299639Y-122713422D01*
G37*
%TD.AperFunction*%
%TD*%
%TA.AperFunction,Conductor*%
%TO.N,4350_SPI_LE*%
G36*
X105700095Y-99486911D02*
G01*
X106213935Y-100028208D01*
X106217145Y-100036566D01*
X106213722Y-100044535D01*
X106112826Y-100145431D01*
X106109765Y-100147633D01*
X105492712Y-100454675D01*
X105483779Y-100455292D01*
X105478762Y-100451981D01*
X105205796Y-100145431D01*
X104934872Y-99841174D01*
X104931931Y-99832717D01*
X104935830Y-99824656D01*
X104938783Y-99822736D01*
X105686789Y-99484306D01*
X105695737Y-99484019D01*
X105700095Y-99486911D01*
G37*
%TD.AperFunction*%
%TD*%
%TA.AperFunction,Conductor*%
%TO.N,Net-(U7-VTUNE)*%
G36*
X122567234Y-102219228D02*
G01*
X122573873Y-102225235D01*
X122575000Y-102230246D01*
X122575000Y-102369753D01*
X122571573Y-102378026D01*
X122567233Y-102380772D01*
X122221544Y-102504146D01*
X122212600Y-102503700D01*
X122206820Y-102497649D01*
X122157845Y-102380772D01*
X122125893Y-102304519D01*
X122125857Y-102295568D01*
X122206820Y-102102349D01*
X122213178Y-102096044D01*
X122221544Y-102095853D01*
X122567234Y-102219228D01*
G37*
%TD.AperFunction*%
%TD*%
%TA.AperFunction,Conductor*%
%TO.N,Net-(U7-VTUNE)*%
G36*
X120228389Y-93552410D02*
G01*
X120237480Y-93561558D01*
X120375525Y-93700471D01*
X120378926Y-93708755D01*
X120375499Y-93716991D01*
X120352146Y-93740345D01*
X120351950Y-93740685D01*
X120350095Y-93743099D01*
X120156427Y-93936752D01*
X120148154Y-93940179D01*
X120008791Y-93940179D01*
X120000518Y-93936752D01*
X119997091Y-93928479D01*
X119997091Y-93928389D01*
X119999911Y-93561558D01*
X120003402Y-93553311D01*
X120011557Y-93549948D01*
X120220103Y-93549021D01*
X120228389Y-93552410D01*
G37*
%TD.AperFunction*%
%TD*%
%TA.AperFunction,Conductor*%
%TO.N,Net-(C61-Pad1)*%
G36*
X126017234Y-98119228D02*
G01*
X126023873Y-98125235D01*
X126025000Y-98130246D01*
X126025000Y-98269753D01*
X126021573Y-98278026D01*
X126017233Y-98280772D01*
X125671544Y-98404146D01*
X125662600Y-98403700D01*
X125656820Y-98397649D01*
X125607845Y-98280772D01*
X125575893Y-98204519D01*
X125575857Y-98195568D01*
X125656820Y-98002349D01*
X125663178Y-97996044D01*
X125671544Y-97995853D01*
X126017234Y-98119228D01*
G37*
%TD.AperFunction*%
%TD*%
%TA.AperFunction,Conductor*%
%TO.N,PLL_LO*%
G36*
X130825923Y-93725195D02*
G01*
X131188753Y-94012524D01*
X131325020Y-94120437D01*
X131463710Y-94230267D01*
X131468068Y-94238089D01*
X131465618Y-94246703D01*
X131463172Y-94249012D01*
X130799567Y-94715265D01*
X130790828Y-94717218D01*
X130786332Y-94715414D01*
X130138147Y-94281475D01*
X130133179Y-94274025D01*
X130132956Y-94271753D01*
X130132956Y-94128710D01*
X130136383Y-94120437D01*
X130138748Y-94118611D01*
X130812752Y-93724267D01*
X130821622Y-93723048D01*
X130825923Y-93725195D01*
G37*
%TD.AperFunction*%
%TD*%
%TA.AperFunction,Conductor*%
%TO.N,Net-(C62-Pad1)*%
G36*
X127063441Y-96624911D02*
G01*
X127071688Y-96628402D01*
X127075051Y-96636559D01*
X127075978Y-96845102D01*
X127072588Y-96853390D01*
X127072525Y-96853453D01*
X126924174Y-97000877D01*
X126915890Y-97004278D01*
X126907654Y-97000851D01*
X126688248Y-96781427D01*
X126684821Y-96773154D01*
X126684821Y-96633790D01*
X126688248Y-96625517D01*
X126696521Y-96622090D01*
X126696526Y-96622090D01*
X127063441Y-96624911D01*
G37*
%TD.AperFunction*%
%TD*%
%TA.AperFunction,Conductor*%
%TO.N,FPGA_LO*%
G36*
X131482356Y-96788930D02*
G01*
X131484822Y-96791225D01*
X131994683Y-97425814D01*
X131997193Y-97434410D01*
X131995698Y-97438986D01*
X131606377Y-98114198D01*
X131599276Y-98119654D01*
X131596241Y-98120054D01*
X131453180Y-98120054D01*
X131444907Y-98116627D01*
X131443516Y-98114949D01*
X131443003Y-98114198D01*
X131004776Y-97472061D01*
X131002943Y-97463296D01*
X131004817Y-97458811D01*
X131027639Y-97425814D01*
X131466080Y-96791896D01*
X131473603Y-96787043D01*
X131482356Y-96788930D01*
G37*
%TD.AperFunction*%
%TD*%
M02*
