%TF.GenerationSoftware,KiCad,Pcbnew,8.0.4-8.0.4-0~ubuntu22.04.1*%
%TF.CreationDate,2024-09-01T23:10:33+08:00*%
%TF.ProjectId,R820T_With_LCMXO2,52383230-545f-4576-9974-685f4c434d58,rev?*%
%TF.SameCoordinates,Original*%
%TF.FileFunction,Paste,Top*%
%TF.FilePolarity,Positive*%
%FSLAX46Y46*%
G04 Gerber Fmt 4.6, Leading zero omitted, Abs format (unit mm)*
G04 Created by KiCad (PCBNEW 8.0.4-8.0.4-0~ubuntu22.04.1) date 2024-09-01 23:10:33*
%MOMM*%
%LPD*%
G01*
G04 APERTURE LIST*
G04 Aperture macros list*
%AMRoundRect*
0 Rectangle with rounded corners*
0 $1 Rounding radius*
0 $2 $3 $4 $5 $6 $7 $8 $9 X,Y pos of 4 corners*
0 Add a 4 corners polygon primitive as box body*
4,1,4,$2,$3,$4,$5,$6,$7,$8,$9,$2,$3,0*
0 Add four circle primitives for the rounded corners*
1,1,$1+$1,$2,$3*
1,1,$1+$1,$4,$5*
1,1,$1+$1,$6,$7*
1,1,$1+$1,$8,$9*
0 Add four rect primitives between the rounded corners*
20,1,$1+$1,$2,$3,$4,$5,0*
20,1,$1+$1,$4,$5,$6,$7,0*
20,1,$1+$1,$6,$7,$8,$9,0*
20,1,$1+$1,$8,$9,$2,$3,0*%
G04 Aperture macros list end*
%ADD10RoundRect,0.200000X-0.200000X-0.275000X0.200000X-0.275000X0.200000X0.275000X-0.200000X0.275000X0*%
%ADD11RoundRect,0.218750X0.218750X0.256250X-0.218750X0.256250X-0.218750X-0.256250X0.218750X-0.256250X0*%
%ADD12R,1.240000X0.600000*%
%ADD13R,1.240000X0.300000*%
%ADD14RoundRect,0.225000X0.225000X0.250000X-0.225000X0.250000X-0.225000X-0.250000X0.225000X-0.250000X0*%
%ADD15RoundRect,0.150000X-0.512500X-0.150000X0.512500X-0.150000X0.512500X0.150000X-0.512500X0.150000X0*%
%ADD16RoundRect,0.225000X0.250000X-0.225000X0.250000X0.225000X-0.250000X0.225000X-0.250000X-0.225000X0*%
%ADD17RoundRect,0.225000X-0.250000X0.225000X-0.250000X-0.225000X0.250000X-0.225000X0.250000X0.225000X0*%
%ADD18R,1.300000X1.100000*%
%ADD19RoundRect,0.200000X0.275000X-0.200000X0.275000X0.200000X-0.275000X0.200000X-0.275000X-0.200000X0*%
%ADD20RoundRect,0.225000X-0.225000X-0.250000X0.225000X-0.250000X0.225000X0.250000X-0.225000X0.250000X0*%
%ADD21R,1.100000X1.300000*%
%ADD22RoundRect,0.075000X-0.662500X-0.075000X0.662500X-0.075000X0.662500X0.075000X-0.662500X0.075000X0*%
%ADD23RoundRect,0.075000X-0.075000X-0.662500X0.075000X-0.662500X0.075000X0.662500X-0.075000X0.662500X0*%
%ADD24RoundRect,0.250000X0.250000X0.475000X-0.250000X0.475000X-0.250000X-0.475000X0.250000X-0.475000X0*%
%ADD25RoundRect,0.218750X-0.256250X0.218750X-0.256250X-0.218750X0.256250X-0.218750X0.256250X0.218750X0*%
%ADD26RoundRect,0.218750X0.218750X0.381250X-0.218750X0.381250X-0.218750X-0.381250X0.218750X-0.381250X0*%
%ADD27RoundRect,0.150000X-0.150000X0.512500X-0.150000X-0.512500X0.150000X-0.512500X0.150000X0.512500X0*%
%ADD28RoundRect,0.200000X0.200000X0.275000X-0.200000X0.275000X-0.200000X-0.275000X0.200000X-0.275000X0*%
%ADD29RoundRect,0.100000X0.100000X-0.225000X0.100000X0.225000X-0.100000X0.225000X-0.100000X-0.225000X0*%
%ADD30R,1.750000X0.450000*%
%ADD31RoundRect,0.218750X-0.218750X-0.381250X0.218750X-0.381250X0.218750X0.381250X-0.218750X0.381250X0*%
%ADD32RoundRect,0.218750X-0.218750X-0.256250X0.218750X-0.256250X0.218750X0.256250X-0.218750X0.256250X0*%
%ADD33R,1.300000X1.300000*%
%ADD34R,0.300000X0.800000*%
%ADD35R,0.800000X0.300000*%
%ADD36RoundRect,0.150000X0.725000X0.150000X-0.725000X0.150000X-0.725000X-0.150000X0.725000X-0.150000X0*%
%ADD37RoundRect,0.200000X-0.275000X0.200000X-0.275000X-0.200000X0.275000X-0.200000X0.275000X0.200000X0*%
G04 APERTURE END LIST*
D10*
%TO.C,R16*%
X152337500Y-142600000D03*
X150687500Y-142600000D03*
%TD*%
D11*
%TO.C,D2*%
X147575000Y-142550000D03*
X149150000Y-142550000D03*
%TD*%
D12*
%TO.C,J1*%
X147844999Y-138645000D03*
X147844999Y-137845000D03*
D13*
X147844999Y-136695000D03*
X147844999Y-135695000D03*
X147844999Y-135195000D03*
X147844999Y-134195000D03*
D12*
X147844999Y-133045000D03*
X147844999Y-132245000D03*
X147844999Y-132245000D03*
X147844999Y-133045000D03*
D13*
X147844999Y-133695000D03*
X147844999Y-134695000D03*
X147844999Y-136195000D03*
X147844999Y-137195000D03*
D12*
X147844999Y-137845000D03*
X147844999Y-138645000D03*
%TD*%
D14*
%TO.C,C6*%
X133375000Y-111612500D03*
X131825000Y-111612500D03*
%TD*%
D15*
%TO.C,U9*%
X108200000Y-83700000D03*
X108200000Y-84650000D03*
X108200000Y-85600000D03*
X110475000Y-85600000D03*
X110475000Y-83700000D03*
%TD*%
D16*
%TO.C,C37*%
X112187500Y-83737500D03*
X112187500Y-82187500D03*
%TD*%
D10*
%TO.C,R11*%
X123900000Y-98200000D03*
X125550000Y-98200000D03*
%TD*%
D17*
%TO.C,C32*%
X112237500Y-85787500D03*
X112237500Y-87337500D03*
%TD*%
D16*
%TO.C,C18*%
X143362500Y-127225001D03*
X143362500Y-125675001D03*
%TD*%
D18*
%TO.C,X1*%
X107625000Y-121550000D03*
X109725000Y-121550000D03*
X109725000Y-119900000D03*
X107625000Y-119900000D03*
%TD*%
D17*
%TO.C,C49*%
X110225000Y-96625000D03*
X110225000Y-98175000D03*
%TD*%
%TO.C,C1*%
X143975000Y-86425000D03*
X143975000Y-87975000D03*
%TD*%
D19*
%TO.C,R18*%
X123937500Y-114775001D03*
X123937500Y-113125001D03*
%TD*%
D16*
%TO.C,C17*%
X141862500Y-127225001D03*
X141862500Y-125675001D03*
%TD*%
D20*
%TO.C,C61*%
X127025000Y-98200000D03*
X128575000Y-98200000D03*
%TD*%
D21*
%TO.C,X2*%
X111900000Y-96200000D03*
X111900000Y-98300000D03*
X113550000Y-98300000D03*
X113550000Y-96200000D03*
%TD*%
D20*
%TO.C,C14*%
X141837500Y-124150001D03*
X143387500Y-124150001D03*
%TD*%
D22*
%TO.C,U1*%
X112300000Y-118800000D03*
X112300000Y-119300000D03*
X112300000Y-119800000D03*
X112300000Y-120300000D03*
X112300000Y-120800000D03*
X112300000Y-121300000D03*
X112300000Y-121800000D03*
X112300000Y-122300000D03*
X112300000Y-122800000D03*
X112300000Y-123300000D03*
X112300000Y-123800000D03*
X112300000Y-124300000D03*
X112300000Y-124800000D03*
X112300000Y-125300000D03*
X112300000Y-125800000D03*
X112300000Y-126300000D03*
X112300000Y-126800000D03*
X112300000Y-127300000D03*
X112300000Y-127800000D03*
X112300000Y-128300000D03*
X112300000Y-128800000D03*
X112300000Y-129300000D03*
X112300000Y-129800000D03*
X112300000Y-130300000D03*
X112300000Y-130800000D03*
D23*
X113962500Y-132462500D03*
X114462500Y-132462500D03*
X114962500Y-132462500D03*
X115462500Y-132462500D03*
X115962500Y-132462500D03*
X116462500Y-132462500D03*
X116962500Y-132462500D03*
X117462500Y-132462500D03*
X117962500Y-132462500D03*
X118462500Y-132462500D03*
X118962500Y-132462500D03*
X119462500Y-132462500D03*
X119962500Y-132462500D03*
X120462500Y-132462500D03*
X120962500Y-132462500D03*
X121462500Y-132462500D03*
X121962500Y-132462500D03*
X122462500Y-132462500D03*
X122962500Y-132462500D03*
X123462500Y-132462500D03*
X123962500Y-132462500D03*
X124462500Y-132462500D03*
X124962500Y-132462500D03*
X125462500Y-132462500D03*
X125962500Y-132462500D03*
D22*
X127625000Y-130800000D03*
X127625000Y-130300000D03*
X127625000Y-129800000D03*
X127625000Y-129300000D03*
X127625000Y-128800000D03*
X127625000Y-128300000D03*
X127625000Y-127800000D03*
X127625000Y-127300000D03*
X127625000Y-126800000D03*
X127625000Y-126300000D03*
X127625000Y-125800000D03*
X127625000Y-125300000D03*
X127625000Y-124800000D03*
X127625000Y-124300000D03*
X127625000Y-123800000D03*
X127625000Y-123300000D03*
X127625000Y-122800000D03*
X127625000Y-122300000D03*
X127625000Y-121800000D03*
X127625000Y-121300000D03*
X127625000Y-120800000D03*
X127625000Y-120300000D03*
X127625000Y-119800000D03*
X127625000Y-119300000D03*
X127625000Y-118800000D03*
D23*
X125962500Y-117137500D03*
X125462500Y-117137500D03*
X124962500Y-117137500D03*
X124462500Y-117137500D03*
X123962500Y-117137500D03*
X123462500Y-117137500D03*
X122962500Y-117137500D03*
X122462500Y-117137500D03*
X121962500Y-117137500D03*
X121462500Y-117137500D03*
X120962500Y-117137500D03*
X120462500Y-117137500D03*
X119962500Y-117137500D03*
X119462500Y-117137500D03*
X118962500Y-117137500D03*
X118462500Y-117137500D03*
X117962500Y-117137500D03*
X117462500Y-117137500D03*
X116962500Y-117137500D03*
X116462500Y-117137500D03*
X115962500Y-117137500D03*
X115462500Y-117137500D03*
X114962500Y-117137500D03*
X114462500Y-117137500D03*
X113962500Y-117137500D03*
%TD*%
D17*
%TO.C,C51*%
X118615000Y-90917500D03*
X118615000Y-92467500D03*
%TD*%
D24*
%TO.C,C3*%
X144975000Y-137800000D03*
X143075000Y-137800000D03*
%TD*%
D17*
%TO.C,C57*%
X121865000Y-90917500D03*
X121865000Y-92467500D03*
%TD*%
D25*
%TO.C,L7*%
X146875000Y-108862500D03*
X146875000Y-110437500D03*
%TD*%
D17*
%TO.C,C24*%
X139825000Y-97275000D03*
X139825000Y-98825000D03*
%TD*%
D20*
%TO.C,C58*%
X120575000Y-103850000D03*
X122125000Y-103850000D03*
%TD*%
D26*
%TO.C,L3*%
X139737500Y-95650000D03*
X137612500Y-95650000D03*
%TD*%
D27*
%TO.C,U8*%
X135575000Y-107462500D03*
X134625000Y-107462500D03*
X133675000Y-107462500D03*
X133675000Y-109737500D03*
X135575000Y-109737500D03*
%TD*%
D28*
%TO.C,R15*%
X128600000Y-99700000D03*
X126950000Y-99700000D03*
%TD*%
D20*
%TO.C,C7*%
X135800000Y-111612500D03*
X137350000Y-111612500D03*
%TD*%
D17*
%TO.C,C54*%
X114145000Y-90912500D03*
X114145000Y-92462500D03*
%TD*%
%TO.C,C29*%
X114062500Y-108162500D03*
X114062500Y-109712500D03*
%TD*%
%TO.C,C4*%
X106387500Y-83487500D03*
X106387500Y-85037500D03*
%TD*%
D29*
%TO.C,U2*%
X147050000Y-114200000D03*
X147700000Y-114200000D03*
X148350000Y-114200000D03*
X148350000Y-112300000D03*
X147700000Y-112300000D03*
X147050000Y-112300000D03*
%TD*%
D30*
%TO.C,U3*%
X132112500Y-121100001D03*
X132112500Y-121750001D03*
X132112500Y-122400001D03*
X132112500Y-123050001D03*
X132112500Y-123700001D03*
X132112500Y-124350001D03*
X132112500Y-125000001D03*
X132112500Y-125650001D03*
X132112500Y-126300001D03*
X132112500Y-126950001D03*
X132112500Y-127600001D03*
X132112500Y-128250001D03*
X132112500Y-128900001D03*
X132112500Y-129550001D03*
X139312500Y-129550001D03*
X139312500Y-128900001D03*
X139312500Y-128250001D03*
X139312500Y-127600001D03*
X139312500Y-126950001D03*
X139312500Y-126300001D03*
X139312500Y-125650001D03*
X139312500Y-125000001D03*
X139312500Y-124350001D03*
X139312500Y-123700001D03*
X139312500Y-123050001D03*
X139312500Y-122400001D03*
X139312500Y-121750001D03*
X139312500Y-121100001D03*
%TD*%
D10*
%TO.C,R4*%
X150275000Y-117600000D03*
X151925000Y-117600000D03*
%TD*%
D25*
%TO.C,L5*%
X146875000Y-102912500D03*
X146875000Y-104487500D03*
%TD*%
D31*
%TO.C,L4*%
X138875000Y-86500000D03*
X141000000Y-86500000D03*
%TD*%
D10*
%TO.C,R19*%
X103875000Y-128250000D03*
X105525000Y-128250000D03*
%TD*%
%TO.C,R3*%
X145775000Y-117650000D03*
X147425000Y-117650000D03*
%TD*%
D17*
%TO.C,C60*%
X117575000Y-102325000D03*
X117575000Y-103875000D03*
%TD*%
D20*
%TO.C,C62*%
X127025000Y-96710000D03*
X128575000Y-96710000D03*
%TD*%
D32*
%TO.C,D4*%
X106937501Y-126600000D03*
X108512501Y-126600000D03*
%TD*%
D10*
%TO.C,R12*%
X123900000Y-96700000D03*
X125550000Y-96700000D03*
%TD*%
D28*
%TO.C,R8*%
X139775000Y-92450000D03*
X138125000Y-92450000D03*
%TD*%
D32*
%TO.C,D1*%
X111427500Y-94412500D03*
X113002500Y-94412500D03*
%TD*%
D33*
%TO.C,U7*%
X119025000Y-98150000D03*
X120625000Y-98150000D03*
X119025000Y-96550000D03*
X120625000Y-96550000D03*
D34*
X118075000Y-99750000D03*
X118575000Y-99750000D03*
X119075000Y-99750000D03*
X119575000Y-99750000D03*
X120075000Y-99750000D03*
X120575000Y-99750000D03*
X121075000Y-99750000D03*
X121575000Y-99750000D03*
D35*
X122225000Y-99100000D03*
X122225000Y-98600000D03*
X122225000Y-98100000D03*
X122225000Y-97600000D03*
X122225000Y-97100000D03*
X122225000Y-96600000D03*
X122225000Y-96100000D03*
X122225000Y-95600000D03*
D34*
X121575000Y-94950000D03*
X121075000Y-94950000D03*
X120575000Y-94950000D03*
X120075000Y-94950000D03*
X119575000Y-94950000D03*
X119075000Y-94950000D03*
X118575000Y-94950000D03*
X118075000Y-94950000D03*
D35*
X117425000Y-95600000D03*
X117425000Y-96100000D03*
X117425000Y-96600000D03*
X117425000Y-97100000D03*
X117425000Y-97600000D03*
X117425000Y-98100000D03*
X117425000Y-98600000D03*
X117425000Y-99100000D03*
%TD*%
D17*
%TO.C,C9*%
X148850000Y-116050000D03*
X148850000Y-117600000D03*
%TD*%
D18*
%TO.C,X3*%
X134775000Y-134025000D03*
X136875000Y-134025000D03*
X136875000Y-132375000D03*
X134775000Y-132375000D03*
%TD*%
D14*
%TO.C,C25*%
X139700000Y-94000000D03*
X138150000Y-94000000D03*
%TD*%
D16*
%TO.C,C50*%
X115275000Y-99275000D03*
X115275000Y-97725000D03*
%TD*%
D36*
%TO.C,U5*%
X146975000Y-97000000D03*
X146975000Y-95730000D03*
X146975000Y-94460000D03*
X146975000Y-93190000D03*
X141825000Y-93190000D03*
X141825000Y-94460000D03*
X141825000Y-95730000D03*
X141825000Y-97000000D03*
%TD*%
D28*
%TO.C,R9*%
X143400000Y-91500000D03*
X141750000Y-91500000D03*
%TD*%
D17*
%TO.C,C27*%
X144375000Y-114450000D03*
X144375000Y-116000000D03*
%TD*%
%TO.C,C65*%
X146475000Y-81150000D03*
X146475000Y-82700000D03*
%TD*%
D20*
%TO.C,C12*%
X143850000Y-108200000D03*
X145400000Y-108200000D03*
%TD*%
D37*
%TO.C,R7*%
X119075000Y-102275000D03*
X119075000Y-103925000D03*
%TD*%
D20*
%TO.C,C26*%
X143850000Y-110450000D03*
X145400000Y-110450000D03*
%TD*%
%TO.C,C13*%
X141812500Y-122650001D03*
X143362500Y-122650001D03*
%TD*%
D17*
%TO.C,C22*%
X136675000Y-92475000D03*
X136675000Y-94025000D03*
%TD*%
D20*
%TO.C,C10*%
X143850000Y-102912500D03*
X145400000Y-102912500D03*
%TD*%
D19*
%TO.C,R17*%
X122437500Y-114750001D03*
X122437500Y-113100001D03*
%TD*%
D17*
%TO.C,C28*%
X142825000Y-114450000D03*
X142825000Y-116000000D03*
%TD*%
D20*
%TO.C,C56*%
X107750000Y-123205001D03*
X109300000Y-123205001D03*
%TD*%
D17*
%TO.C,C53*%
X115635000Y-90927500D03*
X115635000Y-92477500D03*
%TD*%
%TO.C,C52*%
X117135000Y-90902500D03*
X117135000Y-92452500D03*
%TD*%
D14*
%TO.C,C5*%
X135900000Y-105512500D03*
X134350000Y-105512500D03*
%TD*%
D31*
%TO.C,L1*%
X139200000Y-114575000D03*
X141325000Y-114575000D03*
%TD*%
D17*
%TO.C,C30*%
X119912500Y-110587500D03*
X119912500Y-112137500D03*
%TD*%
D20*
%TO.C,C16*%
X144837500Y-127200001D03*
X146387500Y-127200001D03*
%TD*%
D16*
%TO.C,C23*%
X147025000Y-100425000D03*
X147025000Y-98875000D03*
%TD*%
D17*
%TO.C,C55*%
X123325000Y-90942500D03*
X123325000Y-92492500D03*
%TD*%
D20*
%TO.C,C11*%
X143850000Y-105262500D03*
X145400000Y-105262500D03*
%TD*%
D28*
%TO.C,R21*%
X105555001Y-126580001D03*
X103905001Y-126580001D03*
%TD*%
D10*
%TO.C,R10*%
X120500000Y-102350000D03*
X122150000Y-102350000D03*
%TD*%
D20*
%TO.C,C15*%
X144862500Y-125700001D03*
X146412500Y-125700001D03*
%TD*%
D15*
%TO.C,U6*%
X115887500Y-108337500D03*
X115887500Y-109287500D03*
X115887500Y-110237500D03*
X118162500Y-110237500D03*
X118162500Y-108337500D03*
%TD*%
D17*
%TO.C,C2*%
X142475000Y-86425000D03*
X142475000Y-87975000D03*
%TD*%
D28*
%TO.C,R6*%
X109965000Y-94442500D03*
X108315000Y-94442500D03*
%TD*%
D17*
%TO.C,C59*%
X123575000Y-102300000D03*
X123575000Y-103850000D03*
%TD*%
D11*
%TO.C,D3*%
X108525000Y-128260000D03*
X106950000Y-128260000D03*
%TD*%
D29*
%TO.C,U4*%
X146425000Y-86150000D03*
X147075000Y-86150000D03*
X147725000Y-86150000D03*
X147725000Y-84250000D03*
X147075000Y-84250000D03*
X146425000Y-84250000D03*
%TD*%
D16*
%TO.C,C31*%
X119912500Y-108362500D03*
X119912500Y-106812500D03*
%TD*%
D20*
%TO.C,C63*%
X135000000Y-135675000D03*
X136550000Y-135675000D03*
%TD*%
D17*
%TO.C,C21*%
X147025000Y-89725000D03*
X147025000Y-91275000D03*
%TD*%
D25*
%TO.C,L6*%
X146875000Y-105875000D03*
X146875000Y-107450000D03*
%TD*%
M02*
